<?xml version="1.0" encoding="utf-8"?>
<!-- Generator: Adobe Illustrator 19.0.0, SVG Export Plug-In . SVG Version: 6.00 Build 0)  -->
<svg version="1.1" id="Layer_1" xmlns="http://www.w3.org/2000/svg" xmlns:xlink="http://www.w3.org/1999/xlink" x="0px" y="0px"
	 viewBox="-18 445.5 961.5 101.5" style="enable-background:new -18 445.5 961.5 101.5;" xml:space="preserve">
<metadata><?xpacket begin="﻿" id="W5M0MpCehiHzreSzNTczkc9d"?>
<x:xmpmeta xmlns:x="adobe:ns:meta/" x:xmptk="Adobe XMP Core 5.6-c067 79.157747, 2015/03/30-23:40:42        ">
   <rdf:RDF xmlns:rdf="http://www.w3.org/1999/02/22-rdf-syntax-ns#">
      <rdf:Description rdf:about=""/>
   </rdf:RDF>
</x:xmpmeta>
                                                                                                    
                                                                                                    
                                                                                                    
                                                                                                    
                                                                                                    
                                                                                                    
                                                                                                    
                                                                                                    
                                                                                                    
                                                                                                    
                                                                                                    
                                                                                                    
                                                                                                    
                                                                                                    
                                                                                                    
                                                                                                    
                                                                                                    
                                                                                                    
                                                                                                    
                                                                                                    
                           
<?xpacket end="w"?></metadata>
<style type="text/css">
	.st0{fill:none;}
	.st1{fill:#FFFFFF;}
</style>
<g id="XMLID_326_">
	<path id="XMLID_328_" class="st0" d="M482.9,475.2c-24.9,0-41.4,19.5-41.4,44.1c0,10.6,2.7,20.1,7.5,27.7h68
		c4.8-7.6,7.5-17.1,7.5-27.7C524.5,494.8,508,475.2,482.9,475.2z"/>
	<polygon id="XMLID_329_" class="st0" points="821.7,547 842.7,547 832.2,529.8 	"/>
	<polygon id="XMLID_347_" class="st0" points="687.2,547 708.1,547 697.6,529.8 	"/>
	<path id="XMLID_348_" class="st1" d="M63.5,545.7c0-43.9-57.3-29.8-57.3-54.6c0-11.3,9.9-15.9,19.8-15.9c8.4,0,16.5,3.1,21.1,9.8
		l15.7-16.9c-9.4-9.1-22-12.7-34.6-12.7c-22.3,0-44.5,11.9-44.5,37.3c0,43.4,55.4,29.1,57.3,54.3h22.5
		C63.5,546.6,63.5,546.1,63.5,545.7z"/>
	<rect id="XMLID_349_" x="103.1" y="458.5" class="st1" width="21.5" height="88.5"/>
	<polygon id="XMLID_350_" class="st1" points="276,509.8 229.8,509.8 229.8,529.6 254.6,529.6 254.6,547 276,547 	"/>
	<path id="XMLID_351_" class="st1" d="M184.8,519.3c0-24.6,16.5-44.1,41.4-44.1c12.1,0,23.9,4.4,31.6,12l15.9-16.4
		c-12.6-11.5-29.2-15.5-47.6-15.5c-37.2,0-63.8,25.8-63.8,65.4c0,9.6,1.7,18.4,4.7,26.3h25.3C187.5,539.4,184.8,529.9,184.8,519.3z"
		/>
	<rect id="XMLID_352_" x="319.2" y="458.5" class="st1" width="21.5" height="88.5"/>
	<path id="XMLID_353_" class="st1" d="M441.5,519.3c0-24.6,16.5-44.1,41.4-44.1c25.1,0,41.6,19.5,41.6,44.1
		c0,10.6-2.7,20.1-7.5,27.7h25c3.2-8,5-17.1,5-27c0-39.6-26.6-65.4-64.3-64.7c-37.2,0-63.8,25.8-63.8,65.4c0,9.6,1.7,18.4,4.7,26.3
		H449C444.1,539.4,441.5,529.9,441.5,519.3z"/>
	<polygon id="XMLID_354_" class="st1" points="697.6,529.8 708.1,547 733.1,547 713,517.4 752.5,458.5 726.4,458.5 698.3,504.2 
		669.8,458.5 642.7,458.5 683,517.4 663.3,547 687.2,547 	"/>
	<polygon id="XMLID_355_" class="st1" points="832.2,529.8 842.7,547 867.6,547 847.5,517.4 887.1,458.5 861,458.5 832.9,504.2 
		804.4,458.5 777.3,458.5 817.5,517.4 797.8,547 821.7,547 	"/>
	<rect id="XMLID_356_" x="922.1" y="458.5" class="st1" width="21.5" height="88.5"/>
</g>
</svg>
