<svg xmlns="http://www.w3.org/2000/svg" viewBox="0 0 16.1 12"><defs><style>.cls-1{fill:#85aa90;}</style></defs><title>footer-cardumen</title><g id="Capa_2" data-name="Capa 2"><g id="Layer_1" data-name="Layer 1"><path id="_Trazado_compuesto_" data-name="&lt;Trazado compuesto&gt;" class="cls-1" d="M.53,12H0V0H.53Z"/><path id="_Trazado_compuesto_2" data-name="&lt;Trazado compuesto&gt;" class="cls-1" d="M6.27.58H7.82V6.14h.6V7h-.6V9h-1V7H4.49V6.17ZM6.81,1.7,5.45,6.14H6.81Z"/><path id="_Trazado_compuesto_3" data-name="&lt;Trazado compuesto&gt;" class="cls-1" d="M8.9,2.26A1.71,1.71,0,0,1,9.35.82a1.87,1.87,0,0,1,1.28-.4c1.61,0,1.61,1.2,1.61,1.72V3h-1V2.06c0-.73-.43-.77-.67-.77-.66,0-.66.52-.66.89V4.32a1.23,1.23,0,0,1,1-.5c1.31,0,1.31,1.14,1.31,1.67v2a1.83,1.83,0,0,1-.23,1,1.62,1.62,0,0,1-1.48.64A1.84,1.84,0,0,1,9.5,8.8a1.6,1.6,0,0,1-.6-1.51Zm2.36,3.26c0-.31,0-.8-.66-.8s-.68.55-.68.82v1.9c0,.28,0,.83.68.83s.66-.54.66-.77Z"/><path id="_Trazado_compuesto_4" data-name="&lt;Trazado compuesto&gt;" class="cls-1" d="M12.92.61H16.1v.91A14.54,14.54,0,0,0,15,4.94,21.91,21.91,0,0,0,14.6,9H13.38a18.37,18.37,0,0,1,1.79-7.43H12.92Z"/></g></g></svg>