<?xml version="1.0" encoding="utf-8"?>
<!-- Generator: Adobe Illustrator 19.0.0, SVG Export Plug-In . SVG Version: 6.00 Build 0)  -->
<svg version="1.1" id="Layer_1" xmlns="http://www.w3.org/2000/svg" xmlns:xlink="http://www.w3.org/1999/xlink" x="0px" y="0px"
	 viewBox="0 0 393.0351562 139.528595" style="enable-background:new 0 0 393.0351562 139.528595;" xml:space="preserve">
<metadata><?xpacket begin="﻿" id="W5M0MpCehiHzreSzNTczkc9d"?>
<x:xmpmeta xmlns:x="adobe:ns:meta/" x:xmptk="Adobe XMP Core 5.6-c067 79.157747, 2015/03/30-23:40:42        ">
   <rdf:RDF xmlns:rdf="http://www.w3.org/1999/02/22-rdf-syntax-ns#">
      <rdf:Description rdf:about=""/>
   </rdf:RDF>
</x:xmpmeta>
                                                                                                    
                                                                                                    
                                                                                                    
                                                                                                    
                                                                                                    
                                                                                                    
                                                                                                    
                                                                                                    
                                                                                                    
                                                                                                    
                                                                                                    
                                                                                                    
                                                                                                    
                                                                                                    
                                                                                                    
                                                                                                    
                                                                                                    
                                                                                                    
                                                                                                    
                                                                                                    
                           
<?xpacket end="w"?></metadata>
<style type="text/css">
	.st0{fill:#FFFFFF;}
	.st1{fill:#40C6AC;}
	.st2{fill:#F49957;}
</style>
<g id="XMLID_24109_">
	<g id="XMLID_7923_">
		<path id="XMLID_891_" class="st0" d="M194.8359375,112.6413879c-1.6728516-0.0019531-3.3398438-0.0092773-4.9990234-0.0214844
			l0.0078125-1c1.6572266,0.012207,3.3222656,0.0195312,4.9931641,0.0214844L194.8359375,112.6413879z M199.8417969,112.6316223
			l-0.0058594-1c1.6728516-0.0083008,3.3388672-0.0219727,4.9990234-0.0410156l0.0117188,1
			C203.1845703,112.6096497,201.5166016,112.6233215,199.8417969,112.6316223z M184.8339844,112.5681458
			c-1.6757812-0.0234375-3.34375-0.0512695-5.0039062-0.0844727l0.0195312-1
			c1.6582031,0.0332031,3.3242188,0.0610352,4.9980469,0.0844727L184.8339844,112.5681458z M209.8496094,112.5188293l-0.0175781-1
			c1.6738281-0.0292969,3.3398438-0.0639648,4.9980469-0.1040039l0.0234375,1
			C213.1933594,112.4548645,211.5253906,112.4895325,209.8496094,112.5188293z M174.8266602,112.3674622
			c-1.6767578-0.0444336-3.3447266-0.09375-5.0029297-0.1489258l0.0332031-0.9990234
			c1.65625,0.0541992,3.3212891,0.1035156,4.9960938,0.1479492L174.8266602,112.3674622z M219.8564453,112.278595l-0.03125-1
			c1.6748047-0.0507812,3.3398438-0.1069336,4.9951172-0.168457l0.0371094,0.9990234
			C223.2001953,112.1706848,221.5332031,112.2268372,219.8564453,112.278595z M164.8222656,112.037384
			c-1.6772461-0.0664062-3.3442383-0.1381836-5.0004883-0.215332l0.046875-0.9990234
			c1.6533203,0.0771484,3.3183594,0.1489258,4.9936523,0.215332L164.8222656,112.037384z M229.859375,111.9065247
			l-0.0429688-0.9990234c1.6748047-0.0737305,3.3388672-0.152832,4.9921875-0.2368164l0.0507812,0.9990234
			C233.2041016,111.7536926,231.5380859,111.8327942,229.859375,111.9065247z M154.8232422,111.5725403
			c-1.6782227-0.090332-3.3442383-0.1855469-4.9970703-0.2861328l0.0605469-0.9980469
			c1.6508789,0.1005859,3.3139648,0.1958008,4.9902344,0.2851562L154.8232422,111.5725403z M239.8574219,111.3972473
			l-0.0585938-0.9980469c1.6757812-0.097168,3.3388672-0.199707,4.9873047-0.3081055l0.0664062,0.9980469
			C243.2001953,111.1975403,241.5351562,111.3000793,239.8574219,111.3972473z M144.8310547,110.9646301
			c-1.6787109-0.1152344-3.3427734-0.2353516-4.9926758-0.3608398l0.0761719-0.9970703
			c1.6469727,0.1254883,3.309082,0.2456055,4.9848633,0.3598633L144.8310547,110.9646301z M249.8447266,110.7429504
			l-0.0722656-0.9970703c1.6757812-0.1225586,3.3369141-0.2509766,4.9833984-0.3847656l0.0800781,0.9970703
			C253.1875,110.4919739,251.5244141,110.6203918,249.8447266,110.7429504z M134.8486328,110.2038879
			c-1.6787109-0.1416016-3.3413086-0.2885742-4.9863281-0.440918l0.0917969-0.9960938
			c1.6430664,0.1523438,3.3027344,0.2993164,4.9785156,0.440918L134.8486328,110.2038879z M259.8251953,109.9328918
			l-0.0898438-0.9960938c1.6767578-0.1499023,3.3349609-0.3051758,4.9755859-0.4667969l0.0976562,0.9951172
			C263.1660156,109.6267395,261.5039062,109.7829895,259.8251953,109.9328918z M124.8789062,109.2790833
			c-1.6787109-0.1713867-3.3383789-0.3481445-4.9780273-0.5302734l0.1103516-0.9941406
			c1.6367188,0.1821289,3.293457,0.3588867,4.9692383,0.5292969L124.8789062,109.2790833z M269.7890625,108.9529114
			l-0.1074219-0.9941406c1.6767578-0.1806641,3.3320312-0.3666992,4.9658203-0.559082l0.1171875,0.9931641
			C273.1269531,108.5852356,271.46875,108.7722473,269.7890625,108.9529114z M114.9272461,108.1701965
			c-1.6796875-0.2041016-3.3359375-0.4140625-4.9677734-0.6303711l0.1308594-0.9912109
			c1.6289062,0.215332,3.28125,0.425293,4.9570312,0.628418L114.9272461,108.1701965z M279.7353516,107.7829895
			l-0.1269531-0.9921875c1.6757812-0.2143555,3.3271484-0.4355469,4.9521484-0.6630859l0.1386719,0.9902344
			C283.0703125,107.3464661,281.4150391,107.5676575,279.7353516,107.7829895z M104.9985352,106.8547668
			c-1.6796875-0.2426758-3.3305664-0.4916992-4.9526367-0.746582l0.1552734-0.9882812
			c1.6181641,0.2548828,3.2651367,0.5029297,4.940918,0.7456055L104.9985352,106.8547668z M289.6542969,106.3948059
			l-0.1503906-0.9882812c1.6748047-0.2553711,3.3193359-0.5170898,4.9335938-0.7856445l0.1640625,0.9863281
			C292.9833984,105.8767395,291.3330078,106.1394348,289.6542969,106.3948059z M95.1020508,105.2937317
			c-1.6791992-0.2885742-3.3232422-0.5844727-4.9306641-0.887207l0.1845703-0.9824219
			c1.6025391,0.3017578,3.2416992,0.5966797,4.9150391,0.8842773L95.1020508,105.2937317z M299.5371094,104.7478333
			l-0.1796875-0.9833984c1.6738281-0.3046875,3.3105469-0.6166992,4.90625-0.9350586l0.1953125,0.9804688
			C302.8574219,104.1291809,301.2167969,104.4421692,299.5371094,104.7478333z M85.2553711,103.4353333
			c-1.6796875-0.3476562-3.3129883-0.703125-4.8989258-1.0668945l0.2236328-0.9746094
			c1.5791016,0.3618164,3.2055664,0.7163086,4.8774414,1.0620117L85.2553711,103.4353333z M309.3652344,102.7805481
			l-0.2148438-0.9765625c1.6708984-0.3681641,3.2919922-0.7446289,4.8613281-1.1298828L314.25,101.6457825
			C312.6728516,102.0320129,311.0439453,102.4104309,309.3652344,102.7805481z M75.4819336,101.1897278
			c-1.6694336-0.4262695-3.2988281-0.8681641-4.8432617-1.3139648l0.2773438-0.9609375
			c1.534668,0.4428711,3.1538086,0.8823242,4.8129883,1.3061523L75.4819336,101.1897278z M319.1054688,100.3850403
			l-0.265625-0.9638672c1.6591797-0.4570312,3.2685547-0.9296875,4.7832031-1.4052734l0.2988281,0.9541016
			C322.3964844,99.4490051,320.7763672,99.9250793,319.1054688,100.3850403z M65.8408203,98.3918762
			c-1.6748047-0.5551758-3.2670898-1.1279297-4.7319336-1.7021484l0.3652344-0.9306641
			c1.4482422,0.5673828,3.0234375,1.1337891,4.6811523,1.6835938L65.8408203,98.3918762z M328.6816406,97.3581848
			l-0.34375-0.9384766c1.6533203-0.6064453,3.203125-1.2304688,4.6064453-1.8549805l0.40625,0.9140625
			C331.9277344,96.1116028,330.3564453,96.7444153,328.6816406,97.3581848z M56.487793,94.681427
			c-1.6640625-0.8071289-3.1484375-1.6411133-4.4121094-2.4780273l0.5522461-0.8339844
			c1.2270508,0.8125,2.6723633,1.6245117,4.2963867,2.4125977L56.487793,94.681427z M337.8613281,93.2043762l-0.5019531-0.8652344
			c1.5908203-0.921875,2.9326172-1.8691406,3.9873047-2.8149414l0.6679688,0.7441406
			C340.9082031,91.2600403,339.5107422,92.2478333,337.8613281,93.2043762z M48.1884766,88.8889465
			c-1.315918-1.5527344-1.9833984-3.1567383-1.9833984-4.7680664h1c0,1.3676758,0.5874023,2.7543945,1.7460938,4.121582
			L48.1884766,88.8889465z M345.0195312,86.084259l-0.9472656-0.3193359
			c0.1835938-0.5458984,0.2773438-1.0991211,0.2773438-1.644043h1
			C345.3496094,84.775177,345.2382812,85.4358215,345.0195312,86.084259z"/>
		<path id="XMLID_848_" class="st0" d="M196.4541016,93.6916809c-1.6777344-0.0004883-3.3466797-0.0073242-5.0039062-0.0205078
			l0.0078125-1c1.6552734,0.0131836,3.3203125,0.0200195,4.9960938,0.0205078V93.6916809z M201.4599609,93.6726379l-0.0078125-1
			c1.6767578-0.0131836,3.3427734-0.0327148,4.9970703-0.059082l0.015625,1
			C204.8085938,93.6399231,203.1386719,93.6594543,201.4599609,93.6726379z M186.4443359,93.6106262
			c-1.6816406-0.0273438-3.3496094-0.0610352-5.0048828-0.1010742l0.0234375-1
			c1.6533203,0.0400391,3.3193359,0.0737305,4.9970703,0.1010742L186.4443359,93.6106262z M211.4707031,93.5149231l-0.0234375-1
			c1.6787109-0.0405273,3.3447266-0.0874023,4.9951172-0.140625l0.0332031,0.9990234
			C214.8212891,93.4275208,213.1533203,93.4743958,211.4707031,93.5149231z M176.4350586,93.3664856
			c-1.6831055-0.0551758-3.3505859-0.1171875-5.0024414-0.1855469l0.0410156-0.9990234
			c1.6489258,0.0683594,3.3144531,0.1303711,4.9946289,0.1855469L176.4350586,93.3664856z M221.4775391,93.1897278
			l-0.0410156-0.9990234c1.6806641-0.0693359,3.3457031-0.1455078,4.9921875-0.2280273l0.0507812,0.9990234
			C224.8291016,93.04422,223.1621094,93.1203918,221.4775391,93.1897278z M166.4301758,92.9514465
			c-1.6855469-0.0854492-3.3520508-0.1782227-4.9990234-0.2773438l0.0605469-0.9980469
			c1.6430664,0.0991211,3.3066406,0.190918,4.9892578,0.2763672L166.4301758,92.9514465z M231.4775391,92.6867981
			l-0.0585938-0.9980469c1.6835938-0.1005859,3.3457031-0.2084961,4.9863281-0.3232422l0.0703125,0.9980469
			C234.8310547,92.478302,233.1650391,92.5862122,231.4775391,92.6867981z M156.434082,92.3489075
			c-1.6884766-0.1186523-3.3530273-0.2441406-4.9931641-0.3769531l0.0810547-0.9970703
			c1.6362305,0.1328125,3.2978516,0.2583008,4.9824219,0.3769531L156.434082,92.3489075z M241.46875,91.9890442
			l-0.0800781-0.9970703c1.6865234-0.1352539,3.3466797-0.2788086,4.9775391-0.4291992l0.0917969,0.9960938
			C244.8232422,91.709259,243.1591797,91.8528137,241.46875,91.9890442z M146.4521484,91.5393372
			c-1.6923828-0.1567383-3.3544922-0.3212891-4.9848633-0.4936523l0.1054688-0.9941406
			c1.6254883,0.1713867,3.2836914,0.3359375,4.9711914,0.4916992L146.4521484,91.5393372z M251.4423828,91.0676575
			l-0.1035156-0.9941406c1.6894531-0.1777344,3.3457031-0.362793,4.9648438-0.5556641l0.1181641,0.9931641
			C254.7978516,90.7038879,253.1376953,90.8899231,251.4423828,91.0676575z M136.4887695,90.4851379
			c-1.6977539-0.2036133-3.3554688-0.4155273-4.9702148-0.6347656l0.1347656-0.9912109
			c1.6098633,0.2192383,3.2617188,0.4301758,4.9545898,0.6328125L136.4887695,90.4851379z M261.3925781,89.8791809
			l-0.1347656-0.9912109c1.6953125-0.2294922,3.34375-0.4677734,4.9423828-0.7138672l0.1523438,0.9882812
			C264.7480469,89.4094543,263.09375,89.6487122,261.3925781,89.8791809z M126.5585938,89.1296692
			c-1.706543-0.2646484-3.355957-0.5395508-4.9462891-0.8227539l0.1757812-0.984375
			c1.5825195,0.2822266,3.2250977,0.5551758,4.9238281,0.8188477L126.5585938,89.1296692z M271.2998047,88.3440247
			l-0.1738281-0.984375c1.7011719-0.3017578,3.3496094-0.6166992,4.9003906-0.9360352l0.2011719,0.9794922
			C274.6689453,87.7243958,273.0107422,88.040802,271.2998047,88.3440247z M116.6850586,87.3606262
			c-1.7124023-0.3549805-3.3603516-0.7270508-4.8979492-1.105957l0.2392578-0.9707031
			c1.5253906,0.3759766,3.1611328,0.7451172,4.8618164,1.097168L116.6850586,87.3606262z M281.1279297,86.3054504
			l-0.2382812-0.9716797c1.7246094-0.4213867,3.3408203-0.8588867,4.8027344-1.300293l0.2890625,0.9570312
			C284.5019531,85.4372864,282.8691406,85.8796692,281.1279297,86.3054504z M106.9355469,84.9289856
			c-1.7666016-0.5380859-3.3686523-1.0986328-4.7626953-1.6669922l0.3769531-0.9257812
			c1.3662109,0.5566406,2.9394531,1.1069336,4.6767578,1.6357422L106.9355469,84.9289856z M290.75,83.3425598l-0.3730469-0.9277344
			c1.7773438-0.7138672,3.2470703-1.4511719,4.3691406-2.1918945l0.5507812,0.8339844
			C294.1191406,81.8352356,292.5898438,82.6042786,290.75,83.3425598z M97.6416016,80.9338684
			c-1.984375-1.3530273-2.9907227-2.7885742-2.9907227-4.2666016c0-0.1518555,0.0102539-0.3032227,0.0317383-0.4541016
			l0.9902344,0.1396484c-0.0146484,0.1049805-0.0219727,0.2094727-0.0219727,0.3144531
			c0,1.1274414,0.859375,2.284668,2.5541992,3.4404297L97.6416016,80.9338684z M298.4628906,76.8996887l-0.9980469-0.0751953
			c0.0039062-0.0522461,0.0058594-0.1049805,0.0058594-0.1572266c0-1.0913086-0.8076172-2.2128906-2.4003906-3.3339844
			l0.5761719-0.8173828c1.8740234,1.3188477,2.8242188,2.715332,2.8242188,4.1513672
			C298.4707031,76.7449036,298.46875,76.822052,298.4628906,76.8996887z M98.5317383,73.0105286l-0.5400391-0.8417969
			c1.1923828-0.7661133,2.7275391-1.5229492,4.5625-2.2495117l0.3681641,0.9296875
			C101.1474609,71.5520325,99.6704102,72.2790833,98.5317383,73.0105286z M290.7480469,71.0715637
			c-1.3554688-0.5605469-2.9267578-1.1162109-4.6689453-1.6523438l0.2949219-0.9560547
			c1.7714844,0.5454102,3.3710938,1.1118164,4.7568359,1.6845703L290.7480469,71.0715637z M107.6132812,69.2463684
			l-0.2861328-0.9580078c1.4882812-0.4448242,3.1225586-0.8842773,4.8564453-1.3051758l0.2363281,0.9716797
			C110.7021484,68.3718567,109.0854492,68.806427,107.6132812,69.2463684z M281.2841797,68.0979309
			c-1.5234375-0.3779297-3.1582031-0.75-4.8603516-1.1049805l0.2050781-0.9785156
			c1.7138672,0.3574219,3.3603516,0.7319336,4.8955078,1.112793L281.2841797,68.0979309z M117.2856445,66.872345
			l-0.2011719-0.9794922c1.5585938-0.3193359,3.2172852-0.6342773,4.9291992-0.9355469l0.1738281,0.984375
			C120.484375,66.2419739,118.8349609,66.5549622,117.2856445,66.872345z M271.5253906,66.0466614
			c-1.5830078-0.2836914-3.2246094-0.5581055-4.9238281-0.8227539l0.1542969-0.9882812
			c1.7070312,0.265625,3.3564453,0.5419922,4.9453125,0.8266602L271.5253906,66.0466614z M127.1123047,65.131134
			l-0.1513672-0.9882812c1.6054688-0.2460938,3.2597656-0.484375,4.9609375-0.7133789l0.1337891,0.9912109
			C130.3603516,64.6487122,128.7119141,64.8860168,127.1123047,65.131134z M261.6611328,64.5022278
			c-1.6103516-0.2207031-3.2617188-0.4326172-4.9541016-0.6362305l0.1191406-0.9931641
			c1.6982422,0.2045898,3.3554688,0.4174805,4.9697266,0.6381836L261.6611328,64.5022278z M137.0112305,63.79422
			l-0.1181641-0.9931641c1.6240234-0.1923828,3.284668-0.3774414,4.9794922-0.5541992l0.1035156,0.9941406
			C140.2861328,63.4177551,138.6303711,63.6018372,137.0112305,63.79422z M251.7431641,63.3039856
			c-1.6259766-0.171875-3.2841797-0.3369141-4.9707031-0.4936523l0.0917969-0.9960938
			c1.6923828,0.1577148,3.3544922,0.3227539,4.984375,0.4956055L251.7431641,63.3039856z M146.9492188,62.7546692
			l-0.0917969-0.9960938c1.6357422-0.1499023,3.2998047-0.2924805,4.9902344-0.4282227l0.0800781,0.9970703
			C150.2412109,62.4621887,148.5810547,62.6047668,146.9492188,62.7546692z M241.7939453,62.3757629
			c-1.6357422-0.1333008-3.296875-0.2597656-4.9824219-0.3793945l0.0703125-0.9970703
			c1.6894531,0.1196289,3.3544922,0.2460938,4.9941406,0.3793945L241.7939453,62.3757629z M156.9101562,61.9548645
			l-0.0693359-0.9980469c1.644043-0.1137695,3.3100586-0.2207031,4.996582-0.3208008l0.0595703,0.9980469
			C160.2133789,61.7341614,158.550293,61.841095,156.9101562,61.9548645z M231.8242188,61.6701965
			c-1.6435547-0.0996094-3.3076172-0.1923828-4.9902344-0.2773438l0.0507812-0.9990234
			c1.6865234,0.0854492,3.3525391,0.1787109,5,0.2783203L231.8242188,61.6701965z M166.8867188,61.3625793l-0.0498047-0.9990234
			c1.6503906-0.0820312,3.3178711-0.1577148,5.0019531-0.2265625l0.0410156,0.9990234
			C170.1987305,61.2048645,168.5341797,61.2805481,166.8867188,61.3625793z M221.8427734,61.1609192
			c-1.6494141-0.0688477-3.3144531-0.1313477-4.9951172-0.1870117l0.0332031-0.9990234
			c1.6826172,0.0556641,3.3515625,0.1181641,5.0029297,0.1870117L221.8427734,61.1609192z M176.8745117,60.9538879
			l-0.0322266-0.9990234c1.6538086-0.0537109,3.3217773-0.1000977,5.0043945-0.1396484l0.0234375,1
			C180.1914062,60.8547668,178.5253906,60.9011536,176.8745117,60.9538879z M211.8525391,60.8298645
			c-1.6523438-0.0410156-3.3183594-0.0751953-4.9960938-0.1030273l0.015625-1
			c1.6816406,0.027832,3.3496094,0.0620117,5.0058594,0.1030273L211.8525391,60.8298645z M186.8681641,60.7180481l-0.015625-1
			c1.65625-0.0258789,3.3261719-0.0449219,5.0048828-0.0576172l0.0078125,1
			C190.1884766,60.6731262,188.5224609,60.6921692,186.8681641,60.7180481z M201.8583984,60.6648254
			c-1.6552734-0.0136719-3.3212891-0.0209961-4.9960938-0.0219727v-1c1.6787109,0.0009766,3.3466797,0.0083008,5.0039062,0.0219727
			L201.8583984,60.6648254z"/>
		<path id="XMLID_809_" class="st0" d="M196.3603516,139.528595c-1.4833984,0-2.9628906-0.0048828-4.4384766-0.0141602l0.0058594-1
			c1.5400391,0.0097656,3.0644531,0.0214844,4.6328125,0.0141602h0.3642578v1h-0.3642578
			C196.4941406,139.528595,196.4267578,139.528595,196.3603516,139.528595z M201.9296875,139.5090637l-0.0078125-1
			c1.6708984-0.012207,3.3369141-0.0297852,4.9980469-0.0527344l0.0136719,1
			C205.2705078,139.4792786,203.6025391,139.4968567,201.9296875,139.5090637z M186.9267578,139.4665833
			c-1.6728516-0.0214844-3.3408203-0.0488281-5.0029297-0.081543l0.0195312-1
			c1.6601562,0.0327148,3.3261719,0.0600586,4.9970703,0.081543L186.9267578,139.4665833z M211.9365234,139.3699036l-0.0214844-1
			c1.671875-0.034668,3.3378906-0.074707,4.9970703-0.1206055l0.0273438,1
			C215.2783203,139.2951965,213.6103516,139.3352356,211.9365234,139.3699036z M176.9213867,139.2698059
			c-1.6738281-0.0444336-3.3408203-0.0947266-5.0014648-0.1503906l0.0332031-0.9990234
			c1.6586914,0.0556641,3.3237305,0.1049805,4.9946289,0.1494141L176.9213867,139.2698059z M221.9433594,139.0935364
			l-0.0351562-0.9990234c1.671875-0.0576172,3.3369141-0.1210938,4.9951172-0.1904297l0.0410156,0.9990234
			C225.2841797,138.9724426,223.6171875,139.0359192,221.9433594,139.0935364z M166.9189453,138.9343567
			c-1.6728516-0.0678711-3.3388672-0.1411133-4.9985352-0.2202148l0.0478516-0.9990234
			c1.6567383,0.0791016,3.3208008,0.1523438,4.9916992,0.2202148L166.9189453,138.9343567z M231.9433594,138.6784973
			l-0.0488281-0.9990234c1.6708984-0.081543,3.3349609-0.168457,4.9902344-0.2607422l0.0566406,0.9980469
			C235.2822266,138.5100403,233.6162109,138.5969543,231.9433594,138.6784973z M156.9228516,138.4582825
			c-1.6728516-0.0917969-3.3378906-0.1889648-4.9951172-0.2919922l0.0625-0.9980469
			c1.6542969,0.1030273,3.3173828,0.2001953,4.9873047,0.2919922L156.9228516,138.4582825z M241.9365234,138.1194153
			l-0.0625-0.9980469c1.6699219-0.105957,3.3320312-0.2172852,4.9873047-0.3339844l0.0703125,0.9970703
			C245.2744141,137.9021301,243.6103516,138.0134583,241.9365234,138.1194153z M146.9345703,137.837677
			c-1.671875-0.1166992-3.3354492-0.2387695-4.9902344-0.3666992l0.0771484-0.9970703
			c1.6518555,0.1279297,3.3134766,0.25,4.9824219,0.3657227L146.9345703,137.837677z M251.9208984,137.4133606l-0.078125-0.9970703
			c1.6699219-0.1308594,3.3291016-0.2670898,4.9814453-0.4101562l0.0859375,0.9960938
			C255.2558594,137.1452942,253.5927734,137.2825012,251.9208984,137.4133606z M136.9560547,137.0661926
			c-1.6713867-0.1420898-3.3325195-0.2900391-4.984375-0.4438477l0.0927734-0.9960938
			c1.6489258,0.1538086,3.3081055,0.3017578,4.9765625,0.4438477L136.9560547,137.0661926z M261.8945312,136.5525208
			l-0.09375-0.9956055c1.6689453-0.1572266,3.3261719-0.3208008,4.9736328-0.4897461l0.1015625,0.9951172
			C265.2265625,136.2312317,263.5654297,136.3948059,261.8945312,136.5525208z M126.9907227,136.13797
			c-1.6699219-0.1699219-3.3291016-0.3447266-4.9770508-0.5253906l0.109375-0.9941406
			c1.6450195,0.1806641,3.3012695,0.3549805,4.9682617,0.5244141L126.9907227,136.13797z M271.8535156,135.5305481
			l-0.1113281-0.9941406c1.6669922-0.1850586,3.3212891-0.3764648,4.9648438-0.5737305l0.1191406,0.9931641
			C275.1806641,135.1531067,273.5224609,135.3445129,271.8535156,135.5305481z M117.0415039,135.0456848
			c-1.668457-0.1987305-3.3242188-0.4023438-4.9672852-0.6118164l0.1269531-0.9921875
			c1.6401367,0.2094727,3.2929688,0.4130859,4.9584961,0.6108398L117.0415039,135.0456848z M281.7939453,134.337677
			l-0.1279297-0.9921875c1.6640625-0.2143555,3.3144531-0.4355469,4.953125-0.6625977l0.1367188,0.9902344
			C285.1152344,133.9011536,283.4609375,134.122345,281.7939453,134.337677z M107.1123047,133.7771301
			c-1.6655273-0.2285156-3.3173828-0.4628906-4.9550781-0.7036133l0.1455078-0.9892578
			c1.6347656,0.2397461,3.2832031,0.4741211,4.9453125,0.7026367L107.1123047,133.7771301z M291.7109375,132.9631653
			l-0.1464844-0.9892578c1.6611328-0.2460938,3.3076172-0.4990234,4.9384766-0.7583008l0.1572266,0.9873047
			C295.0263672,132.4631653,293.3759766,132.716095,291.7109375,132.9631653z M97.2084961,132.322052
			c-1.6625977-0.2617188-3.3095703-0.5297852-4.9404297-0.8032227l0.1650391-0.9863281
			c1.6279297,0.2734375,3.2719727,0.5405273,4.9306641,0.8012695L97.2084961,132.322052z M301.6005859,131.3928528
			l-0.1679688-0.9863281c1.6582031-0.2807617,3.2988281-0.5683594,4.9208984-0.862793l0.1777344,0.984375
			C304.9052734,130.8225403,303.2617188,131.1111145,301.6005859,131.3928528z M87.3354492,130.662384
			c-1.6586914-0.2978516-3.2998047-0.6020508-4.921875-0.9121094l0.1875-0.9824219
			c1.6191406,0.3100586,3.2563477,0.6132812,4.9111328,0.9101562L87.3354492,130.662384z M311.4541016,129.60672
			l-0.1894531-0.9814453c1.6523438-0.3198242,3.2851562-0.6459961,4.8984375-0.9785156l0.2011719,0.9794922
			C314.7470703,128.9597473,313.1103516,129.2868958,311.4541016,129.60672z M321.2636719,127.5827942l-0.2148438-0.9765625
			c1.6464844-0.3623047,3.2695312-0.7319336,4.8701172-1.1079102l0.2285156,0.9736328
			C324.5429688,126.8489075,322.9140625,127.2195129,321.2636719,127.5827942z M331.015625,125.2878723l-0.2441406-0.9697266
			c1.6376953-0.4121094,3.2490234-0.8310547,4.8320312-1.2578125l0.2597656,0.9658203
			C334.2744141,124.4538879,332.6591797,124.8747864,331.015625,125.2878723z M340.6904297,122.6804504l-0.2773438-0.9609375
			c1.6259766-0.4697266,3.2197266-0.9472656,4.78125-1.4326172l0.296875,0.9550781
			C343.9238281,121.7292786,342.3222656,122.2087708,340.6904297,122.6804504z M350.2607422,119.6999817l-0.3183594-0.9482422
			c1.609375-0.5405273,3.1796875-1.0898438,4.7089844-1.6474609l0.3417969,0.9394531
			C353.4560547,118.6042786,351.8779297,119.1565247,350.2607422,119.6999817z M359.6806641,116.2580872l-0.3691406-0.9287109
			c1.5820312-0.6303711,3.1298828-1.2768555,4.5976562-1.9208984l0.4023438,0.9160156
			C362.8320312,114.9729309,361.2744141,115.6238098,359.6806641,116.2580872z M368.8691406,112.2180481l-0.4394531-0.8984375
			c1.5371094-0.75,3.0234375-1.5195312,4.4179688-2.2880859l0.4824219,0.8759766
			C371.9208984,110.6838684,370.4199219,111.4612122,368.8691406,112.2180481z M377.6601562,107.3489075l-0.5371094-0.84375
			c1.4570312-0.9257812,2.8271484-1.8740234,4.0742188-2.8183594l0.6035156,0.796875
			C380.5322266,105.4446106,379.1396484,106.4084778,377.6601562,107.3489075z M385.65625,101.23172l-0.6875-0.7255859
			c1.2578125-1.1938477,2.3652344-2.4140625,3.2910156-3.6264648l0.7949219,0.6074219
			C388.0966797,98.7409973,386.953125,100.0012512,385.65625,101.23172z M391.6777344,93.1472473l-0.9121094-0.4091797
			c0.6796875-1.5175781,1.109375-3.0644531,1.2753906-4.5976562l0.9941406,0.1074219
			C392.8574219,89.8855286,392.4003906,91.5339661,391.6777344,93.1472473z M391.7246094,83.353302
			c-0.359375-1.4926758-0.9736328-2.9990234-1.8251953-4.4775391l0.8671875-0.4990234
			c0.8984375,1.5615234,1.5488281,3.1567383,1.9306641,4.7421875L391.7246094,83.353302z M387.0234375,74.9231262
			c-1.0185547-1.1538086-2.2021484-2.3134766-3.5195312-3.4467773l0.6523438-0.7578125
			c1.3515625,1.1625977,2.5683594,2.3544922,3.6171875,3.5424805L387.0234375,74.9231262z M379.5917969,68.4475403
			c-1.2861328-0.9033203-2.6884766-1.8100586-4.1669922-2.6948242l0.5136719-0.8583984
			c1.4990234,0.8979492,2.921875,1.8178711,4.2275391,2.7348633L379.5917969,68.4475403z M371.0869141,63.3269348
			c-1.4140625-0.7402344-2.9160156-1.4819336-4.4628906-2.2036133l0.4238281-0.90625
			c1.5595703,0.7285156,3.0751953,1.4765625,4.5029297,2.2241211L371.0869141,63.3269348z M362.0703125,59.1052551
			c-0.6660156-0.2807617-1.3427734-0.5595703-2.0292969-0.8374023l0.375-0.9267578
			c0.6904297,0.2792969,1.3710938,0.5595703,2.0429688,0.8422852L362.0703125,59.1052551z"/>
		<path id="XMLID_800_" class="st0" d="M4.3671875,97.8713684c-1.1230469-1.4160156-2.0419922-2.8652344-2.730957-4.3081055
			l0.9023438-0.4306641c0.6567383,1.375,1.5356445,2.7602539,2.6118164,4.1176758L4.3671875,97.8713684z M0.1352539,88.6540833
			C0.0454102,87.990509,0,87.3171692,0,86.6521301c0.0004883-1.043457,0.112793-2.0981445,0.3339844-3.1337891l0.9775391,0.2089844
			C1.1054688,84.6946106,1.0004883,85.6789856,1,86.6521301c0,0.6201172,0.0424805,1.2485352,0.1264648,1.8681641
			L0.1352539,88.6540833z M3.0297852,79.2156067l-0.8759766-0.4814453c0.765625-1.394043,1.75-2.7954102,2.925293-4.1645508
			l0.7587891,0.6513672C4.7075195,76.5378723,3.7626953,77.8821106,3.0297852,79.2156067z M9.315918,71.7375793
			l-0.6591797-0.7519531c1.1948242-1.0473633,2.5292969-2.097168,3.9663086-3.121582l0.5800781,0.8144531
			C11.793457,69.6833801,10.4858398,70.712677,9.315918,71.7375793z M17.3520508,65.9597473l-0.5175781-0.8554688
			c1.3730469-0.831543,2.8461914-1.6640625,4.3774414-2.4741211l0.4677734,0.8837891
			C20.1650391,64.3152161,18.7094727,65.13797,17.3520508,65.9597473z M26.1328125,61.2932434l-0.4257812-0.9042969
			c1.4667969-0.6904297,3.0087891-1.3793945,4.5830078-2.0483398l0.390625,0.9208984
			C29.1181641,59.9245911,27.5878906,60.6086731,26.1328125,61.2932434z M35.2998047,57.3899231l-0.3603516-0.9326172
			c1.5161133-0.5869141,3.0981445-1.1728516,4.7021484-1.7416992l0.3339844,0.9423828
			C38.3808594,56.2239075,36.8076172,56.806427,35.2998047,57.3899231z M44.6967773,54.0486145l-0.3115234-0.9501953
			c1.5585938-0.5102539,3.1518555-1.0131836,4.7792969-1.5073242l0.2910156,0.9570312
			C47.8349609,53.0403137,46.2485352,53.5403137,44.6967773,54.0486145z"/>
		<path id="XMLID_782_" class="st0" d="M284.4677734,40.3274231c-1.6386719-0.2202148-3.2900391-0.434082-4.9550781-0.6425781
			l0.125-0.9921875c1.6669922,0.2084961,3.3222656,0.4233398,4.9628906,0.6435547L284.4677734,40.3274231z M274.5527344,39.087677
			c-1.6435547-0.1904297-3.2978516-0.3754883-4.9658203-0.5546875l0.1074219-0.9941406
			c1.6699219,0.1791992,3.328125,0.3647461,4.9736328,0.5556641L274.5527344,39.087677z M122.3925781,38.6565247
			l-0.1083984-0.9941406c0.8500977-0.0927734,1.703125-0.184082,2.5585938-0.2739258l0.1044922,0.9941406
			C124.0927734,38.4724426,123.2416992,38.5637512,122.3925781,38.6565247z M264.6191406,38.0202942
			c-1.6484375-0.1630859-3.3066406-0.3198242-4.9755859-0.472168l0.0917969-0.9960938
			c1.6708984,0.1523438,3.3310547,0.3100586,4.9814453,0.4731445L264.6191406,38.0202942z M129.9199219,37.8821106
			l-0.0957031-0.9951172c1.6503906-0.159668,3.3115234-0.3134766,4.9824219-0.4614258l0.0878906,0.9960938
			C133.2265625,37.5696106,131.5683594,37.7234192,129.9199219,37.8821106z M254.6669922,37.1164856
			c-1.6513672-0.1367188-3.3125-0.2680664-4.9814453-0.3935547l0.0742188-0.9970703
			c1.6728516,0.1254883,3.3359375,0.2568359,4.9892578,0.3935547L254.6669922,37.1164856z M139.8735352,37.0007629
			l-0.0800781-0.9970703c1.6542969-0.1333008,3.3183594-0.2607422,4.9907227-0.3828125l0.0732422,0.9970703
			C143.1870117,36.7400208,141.5258789,36.8674622,139.8735352,37.0007629z M244.703125,36.3679504
			c-1.6533203-0.1118164-3.3154297-0.2177734-4.9863281-0.3178711l0.0605469-0.9980469
			c1.6728516,0.1000977,3.3369141,0.2060547,4.9941406,0.3178711L244.703125,36.3679504z M149.84375,36.2732239
			l-0.0654297-0.9980469c1.6572266-0.1083984,3.3222656-0.2109375,4.9956055-0.3076172l0.0576172,0.9980469
			C153.1611328,36.0622864,151.4980469,36.1648254,149.84375,36.2732239z M234.7285156,35.7693176
			c-1.6552734-0.0874023-3.3183594-0.1694336-4.9873047-0.2456055l0.0449219-0.9990234
			c1.6728516,0.0761719,3.3378906,0.1582031,4.9951172,0.2456055L234.7285156,35.7693176z M159.8222656,35.6950989
			l-0.0507812-0.9990234c1.6586914-0.0839844,3.3251953-0.1625977,4.9985352-0.2353516l0.0439453,0.9990234
			C163.1425781,35.5325012,161.4780273,35.6111145,159.8222656,35.6950989z M224.7509766,35.3137512
			c-1.6572266-0.0639648-3.3203125-0.1220703-4.9912109-0.1743164l0.03125-0.9995117
			c1.6728516,0.0527344,3.3398438,0.1108398,4.9990234,0.1748047L224.7509766,35.3137512z M169.8076172,35.2600403
			l-0.0361328-0.9990234c1.6606445-0.0605469,3.3276367-0.1157227,5.0014648-0.1655273l0.0292969,1
			C173.1313477,35.1443176,171.4663086,35.1994934,169.8076172,35.2600403z M214.7685547,34.9992981
			c-1.6572266-0.0410156-3.3212891-0.0761719-4.9921875-0.105957l0.0175781-1c1.6728516,0.0297852,3.3388672,0.0649414,5,0.105957
			L214.7685547,34.9992981z M179.7978516,34.9651184l-0.0234375-1c1.6630859-0.0375977,3.3310547-0.0698242,5.0039062-0.0961914
			l0.015625,1C183.1230469,34.8952942,181.4570312,34.9275208,179.7978516,34.9651184z M204.7822266,34.8210754
			c-1.6591797-0.0185547-3.3232422-0.03125-4.9931641-0.0385742l0.0039062-1
			c1.671875,0.0073242,3.3398438,0.0200195,5.0009766,0.0385742L204.7822266,34.8210754z M189.7910156,34.806427l-0.0097656-1
			c1.6640625-0.0146484,3.3320312-0.0244141,5.0048828-0.0283203l0.0019531,1
			C193.1171875,34.7820129,191.4511719,34.7917786,189.7910156,34.806427z"/>
		<g id="XMLID_7924_">
			<polygon id="XMLID_7930_" class="st1" points="201.973114,11.2164774 238.4691772,45.4364891 201.973114,45.4364891 			"/>
			<polygon id="XMLID_7929_" class="st1" points="152.3487854,45.4364891 198.6789093,45.4364891 198.6789093,-0.0001092 
				148.2973022,36.9720573 152.9882812,42.5838242 152.3487854,44.6667976 			"/>
			<g id="XMLID_7925_">
				<polygon id="XMLID_7928_" class="st2" points="146.1551819,45.4364891 243.1970673,45.4364891 219.638504,69.2752151 
					172.7992859,69.2752151 				"/>
				<polygon id="XMLID_7927_" class="st0" points="150.1579742,45.4364891 198.6789093,45.4364891 198.6789093,-0.0001092 				"/>
				<polygon id="XMLID_7926_" class="st0" points="201.973114,45.4364891 232.6156464,45.4364891 201.973114,14.3028088 				"/>
			</g>
		</g>
	</g>
</g>
</svg>
