<?xml version="1.0" encoding="utf-8"?>
<!-- Generator: Adobe Illustrator 20.1.0, SVG Export Plug-In . SVG Version: 6.00 Build 0)  -->
<svg version="1.1" id="Capa_1" xmlns="http://www.w3.org/2000/svg" xmlns:xlink="http://www.w3.org/1999/xlink" x="0px" y="0px"
	 viewBox="0 0 162.7 150.7" style="enable-background:new 0 0 162.7 150.7;" xml:space="preserve">
<style type="text/css">
	.st0{clip-path:url(#SVGID_2_);}
	.st1{fill:#FFFFFF;}
	.st2{fill:#007597;}
</style>
<title>button</title>
<g id="Capa_2">
	<g id="Layer_5">
		<g>
			<defs>
				<rect id="SVGID_1_" x="-6.7" y="-0.2" width="176" height="150.9"/>
			</defs>
			<clipPath id="SVGID_2_">
				<use xlink:href="#SVGID_1_"  style="overflow:visible;"/>
			</clipPath>
			<g class="st0">
				<path class="st1" d="M150.8,90.1c-18.9,0-37-7.3-50.6-20.3c-8.5,19.4-25,34.1-45.2,40.4c-16.3,5.1-30.1,5-41.2-0.2
					c1,40.4,34.7,72.4,75.1,71.4s72.4-34.7,71.4-75.1c-0.1-5.4-0.9-10.9-2.2-16.1L150.8,90.1z"/>
				<path class="st2" d="M66,137.6c-13.3,4.1-20.6-3.6-22.6-8.2l5.4-2.3c0.4,0.9,4.2,8.4,15.4,4.9s10.1-11.9,9.9-12.8l5.8-1.2
					C80.9,123,79.3,133.4,66,137.6z"/>
				<path class="st2" d="M118.7,121.2c-13.3,4.2-20.6-3.6-22.6-8.2l5.4-2.3c0.4,0.8,4.2,8.4,15.4,4.9s10.1-11.9,9.9-12.8l5.8-1.1
					C133.6,106.6,132,117,118.7,121.2z"/>
				<path class="st2" d="M146.1,65.3c-0.3-0.4-0.6-0.9-1-1.3l-0.2-0.2c-3.3-4.3-7-8.2-11.1-11.7l3.1-5.2l-2.6-1.6l28.4-23L125.3,0
					l-6.6,36l-2.7-1.6l-3.1,5.3c-4.9-1.9-10-3.2-15.2-4c-1.3-0.2-2.6-0.3-4-0.5L91.5,35c-1.5-0.1-3-0.2-4.5-0.2
					c-7.3,0-14.5,1.1-21.4,3.3c-28.2,8.8-47.8,32.9-51.1,60.5C12,97,9.7,95,7.8,92.7L0,99.3c12.5,14.7,31.1,18.4,55,10.9
					c20.2-6.3,36.7-21,45.2-40.4c13.6,13,31.8,20.3,50.6,20.3h7.3l-2.5-6.8C153.3,76.9,150.1,70.8,146.1,65.3z"/>
			</g>
		</g>
	</g>
</g>
</svg>
