<svg xmlns="http://www.w3.org/2000/svg" viewBox="0 0 152.45 90"><defs><style>.cls-1{fill:#fff;}</style></defs><title>Recurso 1</title><g id="Capa_2" data-name="Capa 2"><g id="Layer_5" data-name="Layer 5"><g id="_Grupo_" data-name="&lt;Grupo&gt;"><g id="_Grupo_2" data-name="&lt;Grupo&gt;"><path id="_Trazado_compuesto_" data-name="&lt;Trazado compuesto&gt;" class="cls-1" d="M12.65,4.95a3.7,3.7,0,0,0-1.38-1,4.57,4.57,0,0,0-1.9-.37,4.74,4.74,0,0,0-2,.42,4.69,4.69,0,0,0-1.6,1.16A5.44,5.44,0,0,0,4.72,6.89a6.41,6.41,0,0,0-.38,2.23,6.4,6.4,0,0,0,.38,2.24,5.65,5.65,0,0,0,1,1.76A4.74,4.74,0,0,0,7.32,14.3a4.43,4.43,0,0,0,1.92.41,4.32,4.32,0,0,0,2.09-.49,4.11,4.11,0,0,0,1.49-1.37L16,15.23a6.61,6.61,0,0,1-2.79,2.28,8.62,8.62,0,0,1-3.48.74A10.65,10.65,0,0,1,6,17.6a8.48,8.48,0,0,1-3-1.83A8.23,8.23,0,0,1,1.07,12.9a9.78,9.78,0,0,1-.7-3.78,9.78,9.78,0,0,1,.7-3.78A8.29,8.29,0,0,1,3,2.46,8.55,8.55,0,0,1,6,.63,10.72,10.72,0,0,1,9.73,0a8.64,8.64,0,0,1,1.53.13,7.74,7.74,0,0,1,1.57.43,7.17,7.17,0,0,1,1.48.78,6.15,6.15,0,0,1,1.28,1.2Z"/><path id="_Trazado_compuesto_2" data-name="&lt;Trazado compuesto&gt;" class="cls-1" d="M19.47.44H31.27V4h-8V7.2h7.53v3.53H23.3v3.53h8.41V17.8H19.47Z"/><path id="_Trazado_compuesto_3" data-name="&lt;Trazado compuesto&gt;" class="cls-1" d="M36,.44h5.19L48.58,12.5h0V.44h3.83V17.8h-5L39.87,5.44h0V17.8H36Z"/><path id="_Trazado_compuesto_4" data-name="&lt;Trazado compuesto&gt;" class="cls-1" d="M60.57,3.82h-5V.44H69.35V3.82h-5v14H60.57Z"/><path id="_Trazado_compuesto_5" data-name="&lt;Trazado compuesto&gt;" class="cls-1" d="M72.51.44h6.72A11.92,11.92,0,0,1,81.74.7a5.9,5.9,0,0,1,2.09.86,4.31,4.31,0,0,1,1.42,1.62,5.45,5.45,0,0,1,.53,2.54,5.13,5.13,0,0,1-1,3.13A4.32,4.32,0,0,1,82,10.47l4.41,7.33H81.85l-3.63-6.94H76.34V17.8H72.51Zm3.83,7.18h2.26c.34,0,.7,0,1.09,0a3.47,3.47,0,0,0,1-.22,1.85,1.85,0,0,0,.77-.58,1.75,1.75,0,0,0,.31-1.11,1.83,1.83,0,0,0-.27-1.05,1.79,1.79,0,0,0-.69-.6,3,3,0,0,0-1-.29,7.47,7.47,0,0,0-1.05-.07h-2.5Z"/><path id="_Trazado_compuesto_6" data-name="&lt;Trazado compuesto&gt;" class="cls-1" d="M88.7,9.12a9.8,9.8,0,0,1,.7-3.78,8.33,8.33,0,0,1,1.95-2.88,8.54,8.54,0,0,1,3-1.83,11.43,11.43,0,0,1,7.5,0,8.54,8.54,0,0,1,3,1.83,8.28,8.28,0,0,1,2,2.88,9.85,9.85,0,0,1,.7,3.78,9.84,9.84,0,0,1-.7,3.78,8.22,8.22,0,0,1-2,2.88,8.47,8.47,0,0,1-3,1.83,11.31,11.31,0,0,1-7.5,0,8.46,8.46,0,0,1-3-1.83,8.27,8.27,0,0,1-1.95-2.88A9.79,9.79,0,0,1,88.7,9.12Zm4,0A6.37,6.37,0,0,0,93,11.36a5.19,5.19,0,0,0,1.09,1.76,5,5,0,0,0,1.71,1.17,6.17,6.17,0,0,0,4.44,0A4.91,4.91,0,0,0,102,13.13a5.13,5.13,0,0,0,1.09-1.76,6.37,6.37,0,0,0,.38-2.24,6.38,6.38,0,0,0-.38-2.23A5.09,5.09,0,0,0,102,5.11,4.81,4.81,0,0,0,100.28,4a6,6,0,0,0-4.44,0,4.88,4.88,0,0,0-1.71,1.16A5.15,5.15,0,0,0,93,6.89,6.38,6.38,0,0,0,92.67,9.12Z"/><path id="_Trazado_compuesto_7" data-name="&lt;Trazado compuesto&gt;" class="cls-1" d="M1.45,26.68H13.24v3.53h-8v3.23H12.8V37H5.27v3.54h8.41V44H1.45Z"/><path id="_Trazado_compuesto_8" data-name="&lt;Trazado compuesto&gt;" class="cls-1" d="M18,26.68h5.74a16.49,16.49,0,0,1,4,.46,9,9,0,0,1,3.27,1.51,7.35,7.35,0,0,1,2.22,2.71,9.12,9.12,0,0,1,.82,4,8.44,8.44,0,0,1-.79,3.72A8.11,8.11,0,0,1,31,41.82a9.5,9.5,0,0,1-3.11,1.66,12.15,12.15,0,0,1-3.7.56H18ZM21.8,40.51h2a10.75,10.75,0,0,0,2.47-.27,5.23,5.23,0,0,0,2-.9,4.29,4.29,0,0,0,1.31-1.63A5.91,5.91,0,0,0,30,35.21,4.93,4.93,0,0,0,29.54,33a4.49,4.49,0,0,0-1.29-1.56,5.69,5.69,0,0,0-1.9-.92,8.5,8.5,0,0,0-2.29-.31H21.8Z"/><path id="_Trazado_compuesto_9" data-name="&lt;Trazado compuesto&gt;" class="cls-1" d="M52.45,37.34A8.47,8.47,0,0,1,52,40.19a6.12,6.12,0,0,1-3.68,3.75,8.57,8.57,0,0,1-3.16.54A8.66,8.66,0,0,1,42,43.94a6.13,6.13,0,0,1-3.68-3.75,8.48,8.48,0,0,1-.46-2.85V26.68h3.82V37.2a4.13,4.13,0,0,0,.26,1.5,3.6,3.6,0,0,0,.73,1.19,3.25,3.25,0,0,0,1.11.79,3.48,3.48,0,0,0,1.41.28,3.39,3.39,0,0,0,1.4-.28,3.28,3.28,0,0,0,1.1-.79,3.56,3.56,0,0,0,.73-1.19,4.33,4.33,0,0,0,.26-1.5V26.68h3.83Z"/><path id="_Trazado_compuesto_10" data-name="&lt;Trazado compuesto&gt;" class="cls-1" d="M68.56,31.19a3.7,3.7,0,0,0-1.38-1.05,4.71,4.71,0,0,0-1.9-.37,4.8,4.8,0,0,0-3.59,1.58,5.5,5.5,0,0,0-1.06,1.78,6.89,6.89,0,0,0,0,4.47,5.7,5.7,0,0,0,1,1.77,4.68,4.68,0,0,0,1.56,1.16,4.52,4.52,0,0,0,1.93.41,4.32,4.32,0,0,0,2.08-.48,4.21,4.21,0,0,0,1.5-1.38l3.18,2.38a6.67,6.67,0,0,1-2.79,2.28,8.66,8.66,0,0,1-3.48.74,10.6,10.6,0,0,1-3.76-.64,8.64,8.64,0,0,1-3-1.82,8.29,8.29,0,0,1-2-2.88,10.55,10.55,0,0,1,0-7.55,8.28,8.28,0,0,1,2-2.89,8.63,8.63,0,0,1,3-1.83,10.69,10.69,0,0,1,3.76-.63,10.19,10.19,0,0,1,1.53.13,8.38,8.38,0,0,1,1.57.44,7,7,0,0,1,1.49.78,6,6,0,0,1,1.27,1.2Z"/><path id="_Trazado_compuesto_11" data-name="&lt;Trazado compuesto&gt;" class="cls-1" d="M81,26.68h3.16L91.66,44H87.35l-1.5-3.68H79.11L77.66,44H73.44Zm1.47,5.05-2.11,5.39h4.24Z"/><path id="_Trazado_compuesto_12" data-name="&lt;Trazado compuesto&gt;" class="cls-1" d="M95.73,30.06h-5V26.68h13.73v3.38h-5V44H95.73Z"/><path id="_Trazado_compuesto_13" data-name="&lt;Trazado compuesto&gt;" class="cls-1" d="M107.63,26.68h3.83V44h-3.83Z"/><path id="_Trazado_compuesto_14" data-name="&lt;Trazado compuesto&gt;" class="cls-1" d="M114.44,26.68h4.37l4.29,11.38h0l4.36-11.38h4.1L124.45,44h-3.06Z"/><path id="_Trazado_compuesto_15" data-name="&lt;Trazado compuesto&gt;" class="cls-1" d="M133.72,35.35a9.76,9.76,0,0,1,.7-3.77,8.41,8.41,0,0,1,1.94-2.89,8.74,8.74,0,0,1,3-1.83,11.43,11.43,0,0,1,7.5,0,8.7,8.7,0,0,1,3,1.83,8.33,8.33,0,0,1,1.95,2.89,10.53,10.53,0,0,1,0,7.55A8.35,8.35,0,0,1,149.81,42a8.71,8.71,0,0,1-3,1.82,11.31,11.31,0,0,1-7.5,0,8.74,8.74,0,0,1-3-1.82,8.42,8.42,0,0,1-1.94-2.88A9.84,9.84,0,0,1,133.72,35.35Zm4,0a6.41,6.41,0,0,0,.38,2.25,5.19,5.19,0,0,0,1.09,1.77,5,5,0,0,0,1.71,1.16,6.2,6.2,0,0,0,4.43,0,4.89,4.89,0,0,0,1.7-1.16,5.17,5.17,0,0,0,1.09-1.77,6.82,6.82,0,0,0,0-4.47A5.12,5.12,0,0,0,147,31.35a4.89,4.89,0,0,0-1.7-1.16,6.07,6.07,0,0,0-4.43,0,5,5,0,0,0-1.71,1.16,5.14,5.14,0,0,0-1.09,1.78A6.43,6.43,0,0,0,137.69,35.35Z"/><path id="_Trazado_compuesto_16" data-name="&lt;Trazado compuesto&gt;" class="cls-1" d="M9.88,57.16a2.73,2.73,0,0,0-1.26-.87A4.56,4.56,0,0,0,7.11,56a4,4,0,0,0-.86.1,3.4,3.4,0,0,0-.84.3,1.78,1.78,0,0,0-.63.55,1.52,1.52,0,0,0,.34,2,5.59,5.59,0,0,0,1.48.71c.59.2,1.24.39,1.92.59a7.81,7.81,0,0,1,1.93.83,4.52,4.52,0,0,1,1.48,1.45A4.39,4.39,0,0,1,12.53,65,5.59,5.59,0,0,1,12,67.54a5.13,5.13,0,0,1-1.46,1.79A6.35,6.35,0,0,1,8.4,70.38a9.56,9.56,0,0,1-2.56.34A9.12,9.12,0,0,1,2.7,70.2,7.87,7.87,0,0,1,0,68.54l2.72-3A3.85,3.85,0,0,0,4.2,66.76a4.27,4.27,0,0,0,1.86.43A3.88,3.88,0,0,0,7,67.07a3,3,0,0,0,.86-.33,1.9,1.9,0,0,0,.61-.56,1.42,1.42,0,0,0,.23-.81,1.49,1.49,0,0,0-.6-1.24,5.65,5.65,0,0,0-1.51-.77c-.61-.21-1.26-.42-2-.63a8.49,8.49,0,0,1-2-.86,4.65,4.65,0,0,1-1.51-1.41,4.09,4.09,0,0,1-.6-2.33,5.15,5.15,0,0,1,2-4.22,6.31,6.31,0,0,1,2.12-1.07,8.61,8.61,0,0,1,2.48-.36,9.73,9.73,0,0,1,2.84.42,6.57,6.57,0,0,1,2.47,1.39Z"/><path id="_Trazado_compuesto_17" data-name="&lt;Trazado compuesto&gt;" class="cls-1" d="M16.55,52.91h3.83V70.28H16.55Z"/><path id="_Trazado_compuesto_18" data-name="&lt;Trazado compuesto&gt;" class="cls-1" d="M40.8,69.05a14,14,0,0,1-3.53,1.28,18.11,18.11,0,0,1-3.75.39,10.53,10.53,0,0,1-3.75-.64,8.58,8.58,0,0,1-3-1.83,8.24,8.24,0,0,1-1.95-2.88,10.53,10.53,0,0,1,0-7.55,8.33,8.33,0,0,1,1.95-2.89,8.58,8.58,0,0,1,3-1.83,10.82,10.82,0,0,1,3.75-.64,14,14,0,0,1,3.84.5,7.55,7.55,0,0,1,3.08,1.73l-2.7,2.94A5.43,5.43,0,0,0,36,56.42,6.35,6.35,0,0,0,33.52,56a5.74,5.74,0,0,0-2.22.41,4.93,4.93,0,0,0-1.7,1.17,5,5,0,0,0-1.09,1.77,6.78,6.78,0,0,0,0,4.48,5.13,5.13,0,0,0,1.09,1.76,4.89,4.89,0,0,0,1.7,1.16,5.67,5.67,0,0,0,2.22.42,7.23,7.23,0,0,0,2.16-.28,8.64,8.64,0,0,0,1.45-.57V63.51H34V60H40.8Z"/><path id="_Trazado_compuesto_19" data-name="&lt;Trazado compuesto&gt;" class="cls-1" d="M45.54,52.91h3.82V66.75h7.08v3.53H45.54Z"/><path id="_Trazado_compuesto_20" data-name="&lt;Trazado compuesto&gt;" class="cls-1" d="M58.85,61.6a9.69,9.69,0,0,1,.7-3.77,8.32,8.32,0,0,1,1.95-2.89,8.59,8.59,0,0,1,3-1.83,11.4,11.4,0,0,1,7.5,0,8.67,8.67,0,0,1,3,1.83,8.46,8.46,0,0,1,2,2.89,10.57,10.57,0,0,1,0,7.55,8.36,8.36,0,0,1-2,2.88,8.67,8.67,0,0,1-3,1.83,11.29,11.29,0,0,1-7.5,0,8.59,8.59,0,0,1-3-1.83,8.22,8.22,0,0,1-1.95-2.88A9.66,9.66,0,0,1,58.85,61.6Zm4,0a6.39,6.39,0,0,0,.38,2.25,5.25,5.25,0,0,0,1.09,1.76A4.92,4.92,0,0,0,66,66.77a6.09,6.09,0,0,0,4.44,0,4.93,4.93,0,0,0,1.71-1.16,5.2,5.2,0,0,0,1.09-1.76,6.77,6.77,0,0,0,0-4.48,5.1,5.1,0,0,0-1.09-1.77,5,5,0,0,0-1.71-1.17,6.19,6.19,0,0,0-4.44,0,5,5,0,0,0-1.7,1.17,5.16,5.16,0,0,0-1.09,1.77A6.43,6.43,0,0,0,62.83,61.6Z"/><path id="_Trazado_compuesto_21" data-name="&lt;Trazado compuesto&gt;" class="cls-1" d="M94.21,61.21l-5.73-8.29h4.8L97,59l3.55-6.09h4.64l-5.62,8.22,6.28,9.15H101l-4.24-7-4.12,7H88.13Z"/><path id="_Trazado_compuesto_22" data-name="&lt;Trazado compuesto&gt;" class="cls-1" d="M113.14,61.21l-5.74-8.29h4.81l3.7,6.09,3.56-6.09h4.63l-5.61,8.22,6.28,9.15H120l-4.24-7-4.12,7h-4.54Z"/><path id="_Trazado_compuesto_23" data-name="&lt;Trazado compuesto&gt;" class="cls-1" d="M127.71,52.91h3.83V70.28h-3.83Z"/></g><g id="_Grupo_3" data-name="&lt;Grupo&gt;"><path id="_Trazado_compuesto_24" data-name="&lt;Trazado compuesto&gt;" class="cls-1" d="M1.45,80.29H2.57v9.47H1.45Z"/><path id="_Trazado_compuesto_25" data-name="&lt;Trazado compuesto&gt;" class="cls-1" d="M4.8,80.29H6.21l5.49,7.86h0V80.29h1.12v9.47H11.43L5.94,81.89h0v7.87H4.8Z"/><path id="_Trazado_compuesto_26" data-name="&lt;Trazado compuesto&gt;" class="cls-1" d="M15.33,80.29h1.12v9.47H15.33Z"/><path id="_Trazado_compuesto_27" data-name="&lt;Trazado compuesto&gt;" class="cls-1" d="M25.58,82.24a2.7,2.7,0,0,0-1.06-.86,3.15,3.15,0,0,0-1.31-.28,3.23,3.23,0,0,0-1.46.32,3.52,3.52,0,0,0-1.14.85,4,4,0,0,0-.75,1.26A4.28,4.28,0,0,0,19.6,85a4.38,4.38,0,0,0,.27,1.54,3.86,3.86,0,0,0,.74,1.24,3.44,3.44,0,0,0,1.14.84,3.37,3.37,0,0,0,1.46.3,3.44,3.44,0,0,0,1.55-.34,3.54,3.54,0,0,0,1.19-1l.85.7a3.9,3.9,0,0,1-1.55,1.26,5,5,0,0,1-2,.4,4.73,4.73,0,0,1-1.9-.38,4.52,4.52,0,0,1-1.53-1,4.71,4.71,0,0,1-1-1.56,5.33,5.33,0,0,1-.36-2,5.39,5.39,0,0,1,.35-2,4.69,4.69,0,0,1,1-1.57,4.61,4.61,0,0,1,1.53-1.06A4.68,4.68,0,0,1,23.22,80a5,5,0,0,1,1.85.35,3.41,3.41,0,0,1,1.5,1.13Z"/><path id="_Trazado_compuesto_28" data-name="&lt;Trazado compuesto&gt;" class="cls-1" d="M28.76,80.29h1.13v9.47H28.76Z"/><path id="_Trazado_compuesto_29" data-name="&lt;Trazado compuesto&gt;" class="cls-1" d="M35.72,80.29h1.06l4,9.47H39.49l-1-2.32H33.79l-1,2.32H31.55Zm.51,1.44h0l-2,4.66H38.1Z"/><path id="_Trazado_compuesto_30" data-name="&lt;Trazado compuesto&gt;" class="cls-1" d="M42.46,80.29h1.12v8.42h4.33v1H42.46Z"/><path id="_Trazado_compuesto_31" data-name="&lt;Trazado compuesto&gt;" class="cls-1" d="M55.9,85.68l-3.53-5.39h1.43l2.66,4.28,2.75-4.28h1.35L57,85.68v4.08H55.9Z"/><path id="_Trazado_compuesto_32" data-name="&lt;Trazado compuesto&gt;" class="cls-1" d="M66.14,80.29h2.81a6.06,6.06,0,0,1,1.25.12,3,3,0,0,1,1.05.43,2.29,2.29,0,0,1,.74.8,2.94,2.94,0,0,1,0,2.52,2.29,2.29,0,0,1-.76.81,3.06,3.06,0,0,1-1,.41,4.78,4.78,0,0,1-1,.12H67.27v4.25H66.14Zm1.13,4.17h1.89a2.35,2.35,0,0,0,1.38-.38,1.36,1.36,0,0,0,.53-1.19,1.34,1.34,0,0,0-.53-1.18,2.28,2.28,0,0,0-1.38-.38H67.27Z"/><path id="_Trazado_compuesto_33" data-name="&lt;Trazado compuesto&gt;" class="cls-1" d="M74.2,80.29h2.42a11.88,11.88,0,0,1,1.36.08,3.52,3.52,0,0,1,1.21.35,2.17,2.17,0,0,1,.87.78,2.52,2.52,0,0,1,.34,1.39,2.31,2.31,0,0,1-.63,1.69A3,3,0,0,1,78,85.4l2.69,4.36H79.34L76.78,85.5H75.33v4.25H74.2Zm1.13,4.17h1c.31,0,.64,0,1,0a3.41,3.41,0,0,0,.92-.17,1.6,1.6,0,0,0,.7-.47,1.31,1.31,0,0,0,.27-.9,1.48,1.48,0,0,0-.2-.81,1.34,1.34,0,0,0-.53-.48,2.24,2.24,0,0,0-.73-.22,6.31,6.31,0,0,0-.83-.05H75.33Z"/><path id="_Trazado_compuesto_34" data-name="&lt;Trazado compuesto&gt;" class="cls-1" d="M82.78,80.29h5.95v1H83.9v3h4.51v1H83.9v3.37H89v1H82.78Z"/><path id="_Trazado_compuesto_35" data-name="&lt;Trazado compuesto&gt;" class="cls-1" d="M90.85,80.29h6v1H92v3h4.51v1H92v3.37H97v1H90.85Z"/><path id="_Trazado_compuesto_36" data-name="&lt;Trazado compuesto&gt;" class="cls-1" d="M103.67,82a1.65,1.65,0,0,0-.75-.66,2.34,2.34,0,0,0-1-.2,2.91,2.91,0,0,0-.74.09,2.23,2.23,0,0,0-.64.28,1.39,1.39,0,0,0-.47.5,1.47,1.47,0,0,0-.17.72,1.59,1.59,0,0,0,.1.57,1.18,1.18,0,0,0,.33.45,2.29,2.29,0,0,0,.61.37,7.11,7.11,0,0,0,.95.34c.36.13.72.24,1.06.38a3.53,3.53,0,0,1,.91.51,2.29,2.29,0,0,1,.63.77,2.86,2.86,0,0,1,0,2.39,2.39,2.39,0,0,1-.74.86,3.09,3.09,0,0,1-1.07.51,4.44,4.44,0,0,1-1.24.17,4.77,4.77,0,0,1-.83-.08,3.69,3.69,0,0,1-.79-.23,3,3,0,0,1-.72-.4,2.51,2.51,0,0,1-.58-.6l1-.79a2,2,0,0,0,.85.79,2.6,2.6,0,0,0,1.17.26,2.56,2.56,0,0,0,.72-.11,2.18,2.18,0,0,0,.67-.31,1.75,1.75,0,0,0,.48-.52,1.29,1.29,0,0,0,.18-.7,1.62,1.62,0,0,0-.14-.72,1.46,1.46,0,0,0-.46-.47,3.48,3.48,0,0,0-.78-.36l-1.1-.38a6.42,6.42,0,0,1-.93-.37,2.85,2.85,0,0,1-.74-.51,2.15,2.15,0,0,1-.5-.73,2.53,2.53,0,0,1-.18-1,2.43,2.43,0,0,1,1-2,3.2,3.2,0,0,1,1-.51,4.35,4.35,0,0,1,2.67.07,2.84,2.84,0,0,1,1.18.86Z"/><path id="_Trazado_compuesto_37" data-name="&lt;Trazado compuesto&gt;" class="cls-1" d="M113.65,82.24a2.64,2.64,0,0,0-1.05-.86,3.13,3.13,0,0,0-1.31-.28,3.2,3.2,0,0,0-1.45.32,3.59,3.59,0,0,0-1.15.85,4.16,4.16,0,0,0-.75,1.26,4.31,4.31,0,0,0-.27,1.5,4.41,4.41,0,0,0,.27,1.54,3.91,3.91,0,0,0,.75,1.24,3.46,3.46,0,0,0,1.13.84,3.42,3.42,0,0,0,1.47.3,3.46,3.46,0,0,0,1.55-.34,3.59,3.59,0,0,0,1.19-1l.85.7a3.9,3.9,0,0,1-1.55,1.26,5,5,0,0,1-2,.4,4.75,4.75,0,0,1-1.9-.38,4.59,4.59,0,0,1-1.53-1,4.8,4.8,0,0,1-1-1.56,5.23,5.23,0,0,1-.36-2,5.4,5.4,0,0,1,.35-2,4.77,4.77,0,0,1,1-1.57A4.75,4.75,0,0,1,111.29,80a5,5,0,0,1,1.85.35,3.38,3.38,0,0,1,1.49,1.13Z"/><path id="_Trazado_compuesto_38" data-name="&lt;Trazado compuesto&gt;" class="cls-1" d="M121.24,90a5,5,0,0,1-2-.38,4.66,4.66,0,0,1-1.56-1,4.49,4.49,0,0,1-1-1.57,5.51,5.51,0,0,1,0-4,4.6,4.6,0,0,1,1-1.58,4.8,4.8,0,0,1,1.56-1,5.47,5.47,0,0,1,4,0,4.67,4.67,0,0,1,2.6,2.62,5.61,5.61,0,0,1,0,4,4.67,4.67,0,0,1-2.6,2.61A5,5,0,0,1,121.24,90Zm0-1a3.65,3.65,0,0,0,1.52-.3,3.55,3.55,0,0,0,1.19-.85,3.9,3.9,0,0,0,.77-1.25,4.45,4.45,0,0,0,0-3.06,4,4,0,0,0-.77-1.25,3.62,3.62,0,0,0-1.19-.84,3.93,3.93,0,0,0-3,0,3.62,3.62,0,0,0-1.19.84,3.76,3.76,0,0,0-.77,1.25,4.45,4.45,0,0,0,0,3.06,3.69,3.69,0,0,0,.77,1.25,3.54,3.54,0,0,0,1.19.85A3.64,3.64,0,0,0,121.24,89Z"/><path id="_Trazado_compuesto_39" data-name="&lt;Trazado compuesto&gt;" class="cls-1" d="M128.4,80.29h1.12v8.42h4.33v1H128.4Z"/><path id="_Trazado_compuesto_40" data-name="&lt;Trazado compuesto&gt;" class="cls-1" d="M138.83,80.29h1.06l4,9.47H142.6l-1-2.32h-4.73l-1,2.32h-1.27Zm.51,1.44h0l-2,4.66h3.87Z"/><path id="_Trazado_compuesto_41" data-name="&lt;Trazado compuesto&gt;" class="cls-1" d="M145.57,80.29H148a11.8,11.8,0,0,1,1.36.08,3.48,3.48,0,0,1,1.21.35,2.13,2.13,0,0,1,.87.78,2.53,2.53,0,0,1,.33,1.39,2.31,2.31,0,0,1-.62,1.69,3,3,0,0,1-1.74.82l2.69,4.36h-1.38l-2.57-4.25H146.7v4.25h-1.12Zm1.12,4.17h1c.3,0,.63,0,1,0a3.49,3.49,0,0,0,.92-.17,1.57,1.57,0,0,0,.69-.47,1.32,1.32,0,0,0,.27-.9,1.48,1.48,0,0,0-.2-.81,1.3,1.3,0,0,0-.53-.48,2.21,2.21,0,0,0-.74-.22,6.21,6.21,0,0,0-.82-.05H146.7Z"/></g></g></g></g></svg>