<svg xmlns="http://www.w3.org/2000/svg" viewBox="0 0 34.13 35"><defs><style>.cls-1{fill:#fff;}.cls-2{fill:#ffbe77;}</style></defs><title>instagram-footer-hover</title><g id="Capa_2" data-name="Capa 2"><g id="Layer_1" data-name="Layer 1"><rect id="_Rectángulo_" data-name="&lt;Rectángulo&gt;" class="cls-1" width="34.13" height="35" rx="17.06" ry="17.06"/><g id="_Grupo_" data-name="&lt;Grupo&gt;"><path id="_Trazado_compuesto_" data-name="&lt;Trazado compuesto&gt;" class="cls-2" d="M7.83,24.86V10.14s0-.08,0-.12a2.11,2.11,0,0,1,1.61-1.7l.23-.05H24.42l.1,0a2.09,2.09,0,0,1,1.72,1.62l.06.22V24.86s0,.08,0,.12a2.12,2.12,0,0,1-1.65,1.71l-.19,0H9.71l-.11,0a2.14,2.14,0,0,1-1.72-1.63A1.6,1.6,0,0,0,7.83,24.86ZM10,16.09a.86.86,0,0,0,0,.15v7.61a.72.72,0,0,0,.78.76H23.38a.73.73,0,0,0,.79-.8V16.09h-1.6a5.57,5.57,0,0,1-1,4.81,5.49,5.49,0,0,1-4.35,2.27,5.38,5.38,0,0,1-4-1.43,5.63,5.63,0,0,1-1.74-5.65Zm10.65,1.42a3.56,3.56,0,1,0-3.57,3.54A3.56,3.56,0,0,0,20.62,17.51Zm1.78-7.12h-1a.72.72,0,0,0-.77.74c0,.69,0,1.39,0,2.09a.7.7,0,0,0,.73.73c.7,0,1.4,0,2.09,0a.71.71,0,0,0,.74-.76v-2a.72.72,0,0,0-.76-.76Z"/></g></g></g></svg>