<svg xmlns="http://www.w3.org/2000/svg" viewBox="0 0 2400 20"><defs><style>.cls-1{fill:#439fbb;}.cls-2{fill:#f3e8c7;}.cls-3{fill:#fec86c;}.cls-4{fill:#ede16b;}.cls-5{fill:#b9d8e4;}</style></defs><title>lienzo</title><g id="Capa_2" data-name="Capa 2"><g id="Layer_5" data-name="Layer 5"><rect class="cls-1" width="20" height="20"/><rect class="cls-2" x="20" width="20" height="20"/><rect class="cls-3" x="40" width="20" height="20"/><rect class="cls-1" x="60" width="20" height="20"/><rect class="cls-2" x="80" width="20" height="20"/><rect class="cls-3" x="100" width="20" height="20"/><rect class="cls-4" x="120" width="20" height="20"/><rect class="cls-5" x="140" width="20" height="20"/><rect class="cls-2" x="160" width="20" height="20"/><rect class="cls-3" x="180" width="20" height="20"/><rect class="cls-1" x="200" width="20" height="20"/><rect class="cls-2" x="220" width="20" height="20"/><rect class="cls-3" x="240" width="20" height="20"/><rect class="cls-1" x="260" width="20" height="20"/><rect class="cls-2" x="280" width="20" height="20"/><rect class="cls-3" x="300" width="20" height="20"/><rect class="cls-4" x="320" width="20" height="20"/><rect class="cls-5" x="340" width="20" height="20"/><rect class="cls-2" x="360" width="20" height="20"/><rect class="cls-3" x="380" width="20" height="20"/><rect class="cls-1" x="400" width="20" height="20"/><rect class="cls-2" x="420" width="20" height="20"/><rect class="cls-3" x="440" width="20" height="20"/><rect class="cls-1" x="460" width="20" height="20"/><rect class="cls-2" x="480" width="20" height="20"/><rect class="cls-3" x="500" width="20" height="20"/><rect class="cls-4" x="520" width="20" height="20"/><rect class="cls-5" x="540" width="20" height="20"/><rect class="cls-2" x="560" width="20" height="20"/><rect class="cls-3" x="580" width="20" height="20"/><rect class="cls-1" x="600" width="20" height="20"/><rect class="cls-2" x="620" width="20" height="20"/><rect class="cls-3" x="640" width="20" height="20"/><rect class="cls-1" x="660" width="20" height="20"/><rect class="cls-2" x="680" width="20" height="20"/><rect class="cls-3" x="700" width="20" height="20"/><rect class="cls-4" x="720" width="20" height="20"/><rect class="cls-5" x="740" width="20" height="20"/><rect class="cls-2" x="760" width="20" height="20"/><rect class="cls-3" x="780" width="20" height="20"/><rect class="cls-1" x="800" width="20" height="20"/><rect class="cls-2" x="820" width="20" height="20"/><rect class="cls-3" x="840" width="20" height="20"/><rect class="cls-1" x="860" width="20" height="20"/><rect class="cls-2" x="880" width="20" height="20"/><rect class="cls-3" x="900" width="20" height="20"/><rect class="cls-4" x="920" width="20" height="20"/><rect class="cls-5" x="940" width="20" height="20"/><rect class="cls-2" x="960" width="20" height="20"/><rect class="cls-3" x="980" width="20" height="20"/><rect class="cls-1" x="1000" width="20" height="20"/><rect class="cls-2" x="1020" width="20" height="20"/><rect class="cls-3" x="1040" width="20" height="20"/><rect class="cls-1" x="1060" width="20" height="20"/><rect class="cls-2" x="1080" width="20" height="20"/><rect class="cls-3" x="1100" width="20" height="20"/><rect class="cls-4" x="1120" width="20" height="20"/><rect class="cls-5" x="1140" width="20" height="20"/><rect class="cls-2" x="1160" width="20" height="20"/><rect class="cls-3" x="1180" width="20" height="20"/><rect class="cls-1" x="1200" width="20" height="20"/><rect class="cls-2" x="1220" width="20" height="20"/><rect class="cls-3" x="1240" width="20" height="20"/><rect class="cls-1" x="1260" width="20" height="20"/><rect class="cls-2" x="1280" width="20" height="20"/><rect class="cls-3" x="1300" width="20" height="20"/><rect class="cls-4" x="1320" width="20" height="20"/><rect class="cls-5" x="1340" width="20" height="20"/><rect class="cls-2" x="1360" width="20" height="20"/><rect class="cls-3" x="1380" width="20" height="20"/><rect class="cls-1" x="1400" width="20" height="20"/><rect class="cls-2" x="1420" width="20" height="20"/><rect class="cls-3" x="1440" width="20" height="20"/><rect class="cls-1" x="1460" width="20" height="20"/><rect class="cls-2" x="1480" width="20" height="20"/><rect class="cls-3" x="1500" width="20" height="20"/><rect class="cls-4" x="1520" width="20" height="20"/><rect class="cls-5" x="1540" width="20" height="20"/><rect class="cls-2" x="1560" width="20" height="20"/><rect class="cls-3" x="1580" width="20" height="20"/><rect class="cls-1" x="1600" width="20" height="20"/><rect class="cls-2" x="1620" width="20" height="20"/><rect class="cls-3" x="1640" width="20" height="20"/><rect class="cls-1" x="1660" width="20" height="20"/><rect class="cls-2" x="1680" width="20" height="20"/><rect class="cls-3" x="1700" width="20" height="20"/><rect class="cls-4" x="1720" width="20" height="20"/><rect class="cls-5" x="1740" width="20" height="20"/><rect class="cls-2" x="1760" width="20" height="20"/><rect class="cls-3" x="1780" width="20" height="20"/><rect class="cls-1" x="1800" width="20" height="20"/><rect class="cls-2" x="1820" width="20" height="20"/><rect class="cls-3" x="1840" width="20" height="20"/><rect class="cls-1" x="1860" width="20" height="20"/><rect class="cls-2" x="1880" width="20" height="20"/><rect class="cls-3" x="1900" width="20" height="20"/><rect class="cls-4" x="1920" width="20" height="20"/><rect class="cls-5" x="1940" width="20" height="20"/><rect class="cls-2" x="1960" width="20" height="20"/><rect class="cls-3" x="1980" width="20" height="20"/><rect class="cls-1" x="2000" width="20" height="20"/><rect class="cls-2" x="2020" width="20" height="20"/><rect class="cls-3" x="2040" width="20" height="20"/><rect class="cls-1" x="2060" width="20" height="20"/><rect class="cls-2" x="2080" width="20" height="20"/><rect class="cls-3" x="2100" width="20" height="20"/><rect class="cls-4" x="2120" width="20" height="20"/><rect class="cls-5" x="2140" width="20" height="20"/><rect class="cls-2" x="2160" width="20" height="20"/><rect class="cls-3" x="2180" width="20" height="20"/><rect class="cls-1" x="2200" width="20" height="20"/><rect class="cls-2" x="2220" width="20" height="20"/><rect class="cls-3" x="2240" width="20" height="20"/><rect class="cls-1" x="2260" width="20" height="20"/><rect class="cls-2" x="2280" width="20" height="20"/><rect class="cls-3" x="2300" width="20" height="20"/><rect class="cls-4" x="2320" width="20" height="20"/><rect class="cls-5" x="2340" width="20" height="20"/><rect class="cls-2" x="2360" width="20" height="20"/><rect class="cls-3" x="2380" width="20" height="20"/></g></g></svg>