<svg xmlns="http://www.w3.org/2000/svg" viewBox="0 0 34.13 35"><defs><style>.cls-1{fill:#fff;}.cls-2{fill:#ffbe77;fill-rule:evenodd;}</style></defs><title>linkedin-footer-hover</title><g id="Capa_2" data-name="Capa 2"><g id="Layer_1" data-name="Layer 1"><rect id="_Rectángulo_" data-name="&lt;Rectángulo&gt;" class="cls-1" width="34.13" height="35" rx="17.06" ry="17.06"/><path id="_Trazado_compuesto_" data-name="&lt;Trazado compuesto&gt;" class="cls-2" d="M11.86,26.53V13.6H7.56V26.53ZM9.71,11.84a2.24,2.24,0,1,0,0-4.46,2.24,2.24,0,1,0-.06,4.46Z"/><path id="_Trazado_" data-name="&lt;Trazado&gt;" class="cls-2" d="M14.24,26.53h4.29V19.31a3,3,0,0,1,.14-1,2.35,2.35,0,0,1,2.2-1.57c1.56,0,2.18,1.19,2.18,2.92v6.92h4.29V19.12c0-4-2.11-5.82-4.94-5.82a4.29,4.29,0,0,0-3.9,2.18h0V13.6H14.24c0,1.22,0,12.93,0,12.93Z"/></g></g></svg>