<?xml version="1.0" encoding="utf-8"?>
<!-- Generator: Adobe Illustrator 19.0.0, SVG Export Plug-In . SVG Version: 6.00 Build 0)  -->
<svg version="1.1" id="Layer_1" xmlns="http://www.w3.org/2000/svg" xmlns:xlink="http://www.w3.org/1999/xlink" x="0px" y="0px"
	 viewBox="0 0 216.9098206 97.0765228" style="enable-background:new 0 0 216.9098206 97.0765228;" xml:space="preserve">
<metadata><?xpacket begin="﻿" id="W5M0MpCehiHzreSzNTczkc9d"?>
<x:xmpmeta xmlns:x="adobe:ns:meta/" x:xmptk="Adobe XMP Core 5.6-c067 79.157747, 2015/03/30-23:40:42        ">
   <rdf:RDF xmlns:rdf="http://www.w3.org/1999/02/22-rdf-syntax-ns#">
      <rdf:Description rdf:about=""/>
   </rdf:RDF>
</x:xmpmeta>
                                                                                                    
                                                                                                    
                                                                                                    
                                                                                                    
                                                                                                    
                                                                                                    
                                                                                                    
                                                                                                    
                                                                                                    
                                                                                                    
                                                                                                    
                                                                                                    
                                                                                                    
                                                                                                    
                                                                                                    
                                                                                                    
                                                                                                    
                                                                                                    
                                                                                                    
                                                                                                    
                           
<?xpacket end="w"?></metadata>
<style type="text/css">
	.st0{fill:#F49957;}
	.st1{fill:#477388;}
</style>
<g>
	<g>
		<path class="st0" d="M115.7608032,56.3873558c-0.265831-0.3214874-0.5886078-0.5681496-0.9731979-0.7391243
			c-0.3845825-0.1734581-0.8277359-0.2583885-1.3344116-0.2583885c-0.503334,0-0.969841,0.0978584-1.3996277,0.2918663
			c-0.4314423,0.1943474-0.8042984,0.4672928-1.1186829,0.816433c-0.3160095,0.3494873-0.5618973,0.7662659-0.7391205,1.2478561
			c-0.1789398,0.4807358-0.2675552,1.0053902-0.2675552,1.5651474c0,0.5731163,0.0886154,1.0981979,0.2675552,1.5731125
			c0.1772232,0.4773941,0.421402,0.8900642,0.7307281,1.2391205c0.3094406,0.3494873,0.6738892,0.6216583,1.0919724,0.8160095
			c0.4180374,0.1956329,0.8694916,0.2930641,1.3494568,0.2930641c0.551796,0,1.0384369-0.1141281,1.4631805-0.3445206
			c0.423027-0.2294502,0.774231-0.5509415,1.0484543-0.9639511l2.2356949,1.6713104
			c-0.5150681,0.7211456-1.1705399,1.253334-1.959816,1.5973434c-0.790947,0.3457184-1.6053085,0.5159225-2.4413681,0.5159225
			c-0.9531631,0-1.8310699-0.1476059-2.6320114-0.4473495c-0.8043594-0.2968292-1.4982758-0.7249069-2.0819244-1.2796173
			c-0.5852509-0.5577011-1.0417786-1.2298737-1.3661728-2.0225067c-0.3277435-0.7905807-0.4916077-1.6738815-0.4916077-2.6479378
			c0-0.9744835,0.1638641-1.8582115,0.4916077-2.6491318c0.3243942-0.7905807,0.7809219-1.4653206,1.3661728-2.0200272
			c0.5836487-0.5568466,1.277565-0.982872,2.0819244-1.2813301c0.8009415-0.2988892,1.6788483-0.4489708,2.6320114-0.4489708
			c0.3428116,0,0.7005997,0.0330467,1.0735397,0.0961456c0.3728638,0.0648117,0.7391281,0.1634407,1.1002579,0.2997437
			c0.3612137,0.1392097,0.7090683,0.3227692,1.0417786,0.5522232c0.3311615,0.2286797,0.6304703,0.5095863,0.8946838,0.8419495
			L115.7608032,56.3873558z"/>
		<path class="st0" d="M121.0566788,53.2218704h8.272316v2.4769592h-5.5885086v2.271225h5.2790909v2.476532h-5.2790909v2.4756775
			h5.8994827v2.4777298h-8.5832901V53.2218704z"/>
		<path class="st0" d="M133.1649323,53.2218704h3.6470947l5.1753998,8.4625549h0.0350952v-8.4625549h2.6838989v12.1781235
			h-3.5082703l-5.3158417-8.6690598h-0.0334625v8.6690598h-2.6839142V53.2218704z"/>
		<path class="st0" d="M150.9152985,55.5955772h-3.474823v-2.3737068h9.6318207v2.3737068h-3.474823v9.8044167h-2.6821747
			V55.5955772z"/>
		<path class="st0" d="M159.8062744,53.2218704h4.7139435c0.6186523,0,1.2056427,0.0610466,1.7624817,0.1809921
			c0.5568542,0.1208076,1.0434113,0.3214912,1.4631805,0.6016273c0.417984,0.2813339,0.7491455,0.660099,0.996582,1.1366386
			c0.2475281,0.4740562,0.3695984,1.0681458,0.3695984,1.7804718c0,0.8599281-0.2224274,1.5902328-0.6705475,2.1918602
			c-0.4481964,0.6019669-1.1003418,0.9832153-1.9598389,1.1437454l3.0951996,5.1427879h-3.2155762l-2.5467377-4.8681335h-1.3243866
			v4.8681335h-2.6838989V53.2218704z M162.4901733,58.2626915h1.5835571c0.2407684,0,0.4949341-0.0095901,0.7642059-0.026371
			c0.2691803-0.0171204,0.5133667-0.0689201,0.7307281-0.1546211c0.2173767-0.0861282,0.3996582-0.2203751,0.5417786-0.4042778
			c0.1438446-0.1839066,0.2157593-0.4414368,0.2157593-0.7746544c0-0.3089066-0.0636139-0.5559921-0.1889343-0.7386971
			c-0.1271667-0.1830482-0.287674-0.3248291-0.4816132-0.4226036c-0.1957245-0.0965729-0.4197845-0.1626701-0.6722565-0.1969147
			c-0.2508545-0.0346756-0.498291-0.0510292-0.7391052-0.0510292h-1.7541199V58.2626915z"/>
		<path class="st0" d="M171.6754913,59.3111458c0-0.9744835,0.1638641-1.8582115,0.4900055-2.6491318
			c0.326004-0.7905807,0.7825317-1.4653206,1.3661499-2.0200272c0.5835571-0.5568466,1.2791901-0.982872,2.0818481-1.2813301
			c0.8026428-0.2988892,1.6789246-0.4489708,2.6303864-0.4489708c0.9514465,0,1.829361,0.1500816,2.6320038,0.4489708
			c0.8026581,0.2984581,1.4965668,0.7244835,2.0818481,1.2813301c0.5836334,0.5547066,1.0384369,1.2294464,1.3661652,2.0200272
			c0.3261414,0.7909203,0.4899902,1.6746483,0.4899902,2.6491318c0,0.9740562-0.1638489,1.857357-0.4899902,2.6479378
			c-0.3277283,0.7926331-0.7825317,1.4648056-1.3661652,2.0225067c-0.5852814,0.5547104-1.2791901,0.9827881-2.0818481,1.2796173
			c-0.8026428,0.2997437-1.6805573,0.4473495-2.6320038,0.4473495c-0.9514618,0-1.8277435-0.1476059-2.6303864-0.4473495
			c-0.8026581-0.2968292-1.498291-0.7249069-2.0818481-1.2796173c-0.5836182-0.5577011-1.0401459-1.2298737-1.3661499-2.0225067
			C171.8393555,61.1685028,171.6754913,60.285202,171.6754913,59.3111458z M174.4597321,59.3111458
			c0,0.5731163,0.0902405,1.0981979,0.2675476,1.5731125c0.1772308,0.4773941,0.431427,0.8900642,0.7641296,1.2391205
			c0.3327789,0.3494873,0.7308197,0.6216583,1.1956177,0.8160095c0.4649048,0.1956329,0.9833069,0.2930641,1.5568542,0.2930641
			c0.5735321,0,1.0919647-0.0974312,1.5567474-0.2930641c0.4649048-0.1943512,0.8629303-0.4665222,1.1956329-0.8160095
			c0.3327942-0.3490562,0.5870056-0.7617264,0.7642365-1.2391205c0.1789398-0.4749146,0.2675323-0.9999962,0.2675323-1.5731125
			c0-0.5597572-0.0885925-1.0844116-0.2675323-1.5651474c-0.1772308-0.4815903-0.4314423-0.8983688-0.7642365-1.2478561
			c-0.3327026-0.3491402-0.7307281-0.6220856-1.1956329-0.816433c-0.4647827-0.1940079-0.9832153-0.2918663-1.5567474-0.2918663
			c-0.5735474,0-1.0919495,0.0978584-1.5568542,0.2918663c-0.464798,0.1943474-0.8628387,0.4672928-1.1956177,0.816433
			c-0.3327026,0.3494873-0.5868988,0.7662659-0.7641296,1.2478561
			C174.5499725,58.2267342,174.4597321,58.7513885,174.4597321,59.3111458z"/>
		<path class="st0" d="M107.8981628,71.6088715h8.2740326v2.4756775h-5.5885086v2.271225h5.2791748v2.4756775h-5.2791748v2.4778137
			h5.8978348v2.4756775h-8.5833588V71.6088715z"/>
		<path class="st0" d="M120.0081558,71.6088715h4.0249634c0.9731979,0,1.8996735,0.1078796,2.7775574,0.3260269
			c0.8761978,0.2186661,1.6420364,0.5719147,2.2959061,1.0577011c0.6538239,0.4878464,1.1721497,1.1208038,1.5568237,1.8995667
			c0.3828735,0.7805634,0.5751648,1.7278214,0.5751648,2.8393707c0,0.9862137-0.1856079,1.8548737-0.5584717,2.6057281
			c-0.3729401,0.7511978-0.8745728,1.3828735-1.5049591,1.8916931c-0.6321106,0.5108719-1.3594971,0.8970795-2.1838989,1.1617203
			c-0.8260193,0.2633591-1.6922836,0.3942642-2.5969086,0.3942642h-4.3861771V71.6088715z M122.6904068,81.3092651h1.3928833
			c0.6203766,0,1.1956329-0.0627518,1.7307358-0.1898117c0.5317612-0.125,0.9933167-0.3348389,1.3828659-0.626709
			c0.3896408-0.2938309,0.6973648-0.6776505,0.9214096-1.1537628c0.2224274-0.4753418,0.3344116-1.0572739,0.3344116-1.7445145
			c0-0.5970001-0.1119843-1.1170349-0.3344116-1.556839c-0.2240448-0.4410095-0.5250931-0.8064194-0.9046249-1.0931473
			c-0.3779144-0.2859573-0.8227692-0.5012817-1.3327866-0.6450348c-0.5100174-0.1429749-1.0467453-0.2148972-1.6086426-0.2148972
			h-1.5818405V81.3092651z"/>
		<path class="st0" d="M144.3619843,79.0889816c0,0.7227707-0.1087341,1.3887787-0.3278198,1.9965668
			c-0.2173767,0.6078796-0.5417786,1.1345901-0.9698639,1.5823593c-0.431427,0.4468307-0.9681549,0.7984543-1.6102753,1.0488815
			c-0.6404877,0.2516251-1.3796082,0.3783417-2.2173462,0.3783417c-0.8477936,0-1.5952148-0.1267166-2.2357178-0.3783417
			c-0.6437378-0.2504272-1.1788483-0.6020508-1.6086426-1.0488815c-0.4297791-0.4477692-0.7541809-0.9744797-0.9715424-1.5823593
			c-0.2190247-0.6077881-0.3277588-1.2737961-0.3277588-1.9965668v-7.4801102h2.6839142v7.3789139
			c0,0.3779068,0.0601654,0.7273941,0.180542,1.0484543c0.1203766,0.3207169,0.2892914,0.5982895,0.5083923,0.8344193
			c0.2156677,0.2350159,0.476532,0.419342,0.7825317,0.5501633c0.3027344,0.1325378,0.6321259,0.1964951,0.9882812,0.1964951
			c0.3561707,0,0.682251-0.0639572,0.97995-0.1964951c0.2975922-0.1308212,0.5568542-0.3151474,0.7742157-0.5501633
			c0.2173767-0.2361298,0.3879547-0.5137024,0.5083008-0.8344193c0.1203766-0.3210602,0.1805725-0.6705475,0.1805725-1.0484543
			v-7.3789139h2.6822662V79.0889816z"/>
		<path class="st0" d="M156.1776123,74.7735062c-0.2624969-0.3206329-0.5868988-0.5685806-0.9714966-0.7412643
			c-0.3829498-0.1709747-0.8277283-0.2562485-1.3327789-0.2562485c-0.5033417,0-0.9714661,0.0965729-1.4012604,0.2917786
			c-0.4314423,0.1948624-0.8026733,0.4666061-1.1170502,0.8172913c-0.3160095,0.3487091-0.5635223,0.7642059-0.7407532,1.2470856
			c-0.1772308,0.4815903-0.2675476,1.0020447-0.2675476,1.5647202c0,0.5731964,0.0903168,1.0977631,0.2675476,1.5731049
			c0.1772308,0.4766312,0.421402,0.8892136,0.7307281,1.2386932c0.3093414,0.3494873,0.6738892,0.6224289,1.0919647,0.8172913
			c0.4196777,0.1952057,0.8678741,0.2913589,1.3510895,0.2913589c0.5501709,0,1.0368195-0.1132736,1.4615631-0.3423843
			c0.4230194-0.2303085,0.7742157-0.5513687,1.0484467-0.9652328l2.2373505,1.6717377
			c-0.5167236,0.7198639-1.1704865,1.2529068-1.9614716,1.5986252c-0.7909393,0.3419495-1.6053009,0.5150681-2.4430695,0.5150681
			c-0.9514618,0-1.827652-0.1493149-2.632019-0.4469147c-0.8009338-0.2981186-1.4949341-0.7261963-2.0802155-1.2804794
			c-0.5835419-0.5568466-1.0400696-1.2298737-1.3677826-2.022934c-0.3261261-0.7904968-0.4900055-1.6734543-0.4900055-2.647934
			c0-0.9736328,0.1638794-1.8586426,0.4900055-2.6487122c0.327713-0.7910004,0.7842407-1.4653168,1.3677826-2.0200272
			c0.5852814-0.5572739,1.2792816-0.9832153,2.0802155-1.280899c0.8043671-0.2993164,1.6805573-0.4485397,2.632019-0.4485397
			c0.3445129,0,0.702301,0.0317612,1.0752411,0.094429c0.3728638,0.0643845,0.7407532,0.1634445,1.1019745,0.3010254
			c0.3612061,0.1383591,0.7073517,0.3210602,1.0400543,0.5513687c0.3328094,0.2291107,0.6304779,0.5100174,0.8929749,0.842804
			L156.1776123,74.7735062z"/>
		<path class="st0" d="M165.379715,71.6088715h2.2190094l5.2974854,12.1760712h-3.0267029l-1.0500793-2.5793533h-4.7290039
			l-1.0149841,2.5793533h-2.9581146L165.379715,71.6088715z M166.4114685,75.151413l-1.478241,3.7841492h2.9748077
			L166.4114685,75.151413z"/>
		<path class="st0" d="M176.2656555,73.9813004h-3.4731293v-2.3724289h9.6318207v2.3724289h-3.474823v9.8036423h-2.6838684
			V73.9813004z"/>
		<path class="st0" d="M185.1249237,71.6088715h2.6838989v12.1760712h-2.6838989V71.6088715z"/>
		<path class="st0" d="M190.4224243,71.6088715h3.0618134l3.0099335,7.9809647h0.0333862l3.0634918-7.9809647h2.8711395
			l-5.0232697,12.1760712h-2.1487885L190.4224243,71.6088715z"/>
		<path class="st0" d="M203.7698364,77.6968689c0-0.9736328,0.1622162-1.8586426,0.4882355-2.6487122
			c0.3278351-0.7910004,0.7826233-1.4653168,1.3679199-2.0200272c0.5852509-0.5572739,1.2791595-0.9832153,2.0818329-1.280899
			c0.8043671-0.2993164,1.6805573-0.4485397,2.6320953-0.4485397c0.9514618,0,1.827652,0.1492233,2.632019,0.4485397
			c0.8009338,0.2976837,1.4949341,0.7236252,2.0802155,1.280899c0.5852661,0.5547104,1.0400543,1.2290268,1.3661652,2.0200272
			c0.3277435,0.7900696,0.4916077,1.6750793,0.4916077,2.6487122c0,0.9744797-0.1638641,1.8574371-0.4916077,2.647934
			c-0.3261108,0.7930603-0.780899,1.4660873-1.3661652,2.022934c-0.5852814,0.5542831-1.2792816,0.9823608-2.0802155,1.2804794
			c-0.8043671,0.2975998-1.6805573,0.4469147-2.632019,0.4469147c-0.9515381,0-1.8277283-0.1493149-2.6320953-0.4469147
			c-0.8026733-0.2981186-1.496582-0.7261963-2.0818329-1.2804794c-0.5852966-0.5568466-1.0400848-1.2298737-1.3679199-2.022934
			C203.9320526,79.554306,203.7698364,78.6713486,203.7698364,77.6968689z M206.5556641,77.6968689
			c0,0.5731964,0.0886993,1.0977631,0.2659302,1.5731049c0.1772308,0.4766312,0.433075,0.8892136,0.7658539,1.2386932
			c0.3327942,0.3494873,0.7307434,0.6224289,1.1956329,0.8172913c0.4648895,0.1952057,0.9832153,0.2913589,1.556839,0.2913589
			c0.5735474,0,1.0919495-0.0961533,1.5567627-0.2913589c0.4631805-0.1948624,0.8628387-0.467804,1.1956329-0.8172913
			c0.3310699-0.3494797,0.5869751-0.7620621,0.7642059-1.2386932c0.1772308-0.4753418,0.2675476-0.9999084,0.2675476-1.5731049
			c0-0.5626755-0.0903168-1.0831299-0.2675476-1.5647202c-0.1772308-0.4828796-0.433136-0.8983765-0.7642059-1.2470856
			c-0.3327942-0.3506851-0.7324524-0.6224289-1.1956329-0.8172913c-0.4648132-0.1952057-0.9832153-0.2917786-1.5567627-0.2917786
			c-0.5736237,0-1.0919495,0.0965729-1.556839,0.2917786c-0.4648895,0.1948624-0.8628387,0.4666061-1.1956329,0.8172913
			c-0.3327789,0.3487091-0.588623,0.7642059-0.7658539,1.2470856
			C206.6443634,76.613739,206.5556641,77.1341934,206.5556641,77.6968689z"/>
	</g>
	<g>
		<path class="st1" d="M78.0362091,12.2653465c-0.5970078-1.6479387-1.4113007-3.181324-2.409584-4.5608563
			c-0.078598-0.1137838-0.1622391-0.2232866-0.2441559-0.3349299c-0.0150909-0.0213184-0.030159-0.0422091-0.0468521-0.0635271
			c-2.9062424-3.8564928-7.2305222-6.3998909-11.9627991-7.1021996c-0.3327713-0.050171-0.6672058-0.086986-1.003334-0.1183215
			l-0.5568466-0.0852737l-0.0017128,0.043493c-0.3778915-0.0255136-0.7624969-0.0384416-1.1454582-0.0397259
			C58.8695831,0.0077725,57.045208,0.27909,55.2442551,0.8367934C48.0906181,3.0628982,43.122551,9.1784573,42.2830849,16.1519756
			c-0.6170349-0.408474-1.1821671-0.9055614-1.6955414-1.5062437l-1.976532,1.6868086
			c3.1771278,3.723959,7.8676071,4.6532364,13.9393501,2.7636871c5.1553535-1.6031609,9.3007164-5.3802872,11.4394913-10.2275295
			c3.4229355,3.2700224,8.0114441,5.1453581,12.8240128,5.1369677l1.844429-0.0024834L78.0362091,12.2653465z"/>
		<path class="st1" d="M55.3195114,26.0207748c-3.3761711,1.0505943-5.2205276-0.9021378-5.7238655-2.0822697l1.3711395-0.5881824
			c0.0970039,0.2152386,1.051796,2.1337242,3.902916,1.2465706c2.8594742-0.8904076,2.5551109-3.0094929,2.5116158-3.2477627
			l1.4665184-0.2905807C59.1003189,22.3172779,58.6923561,24.9727478,55.3195114,26.0207748z"/>
		<path class="st1" d="M68.6652679,21.8674507c-3.3778,1.0514526-5.2222443-0.9008522-5.7255821-2.0822697l1.3745689-0.587326
			c0.0969162,0.216095,1.0500793,2.133297,3.9028931,1.2461433c2.8560715-0.8895531,2.553421-3.009922,2.5082092-3.2465649
			l1.4665222-0.2913513C72.4460754,18.1639538,72.0363998,20.8194237,68.6652679,21.8674507z"/>
		<path class="st1" d="M39.7982483,60.1664505c0.7374153,3.5513573,4.2155685,5.8330307,7.7673531,5.0939026
			c0.4363861-0.0877533,0.9096718-0.1943512,1.4012794-0.3184891c-2.7089806-3.4514427-4.4213028-7.7218056-4.708889-12.3767548
			C41.0741005,53.5617676,39.105957,56.8317032,39.7982483,60.1664505z"/>
		<path class="st1" d="M96.0089111,52.835144c-0.7224121-3.4129143-3.9730988-5.639019-7.3793411-5.1369667
			c0.1755142,1.1296196,0.2675552,2.2871475,0.2675552,3.4656525c0,3.7841492-0.9415207,7.3492889-2.6053009,10.4733353
			c1.7825317-0.2679787,3.4697647-0.7642097,4.6536636-1.0154076C94.4939346,59.8709068,96.7613907,56.3840179,96.0089111,52.835144
			z"/>
	</g>
	<g>
		<path class="st1" d="M4.5435028,42.0420341c-0.1438351-0.1805649-0.3378415-0.3135262-0.5802896-0.3987999
			c-0.2458205-0.0874138-0.4765558-0.1287689-0.6939352-0.1287689c-0.1271236,0-0.25916,0.0125008-0.3946903,0.0434952
			c-0.1354449,0.0291939-0.2624991,0.0777397-0.3828754,0.1399803C2.3713362,41.7627525,2.274333,41.845974,2.1990767,41.952137
			c-0.0752566,0.106163-0.1136982,0.2328758-0.1136982,0.3829613c0,0.2403221,0.0902393,0.4238853,0.2708893,0.5526505
			c0.1805809,0.1274834,0.4079609,0.2357864,0.6822913,0.3256836c0.2742121,0.0906677,0.5684912,0.1805649,0.8845694,0.2716599
			c0.3160088,0.0903244,0.6102879,0.2190933,0.8845856,0.3829613c0.2742286,0.1660118,0.5016251,0.3875008,0.682189,0.6647224
			c0.1806502,0.2784233,0.2692628,0.6496582,0.2692628,1.1153221c0,0.4431496-0.0819178,0.8306465-0.2475162,1.1617241
			c-0.1654959,0.330307-0.3879266,0.6032524-0.6705451,0.8219147c-0.2809067,0.2178078-0.608645,0.3787689-0.9798768,0.4849319
			c-0.3729436,0.106163-0.765836,0.1580467-1.1789339,0.1580467c-0.5166934,0-0.9982839-0.0794525-1.441433-0.2374992
			c-0.4430634-0.1579628-0.8561611-0.4130135-1.2407488-0.7671204l1.2524947-1.3744812
			c0.1789377,0.2407532,0.4080299,0.4272232,0.680546,0.5589027c0.2743139,0.1296234,0.5585594,0.1969147,0.8511953,0.1969147
			c0.1437659,0,0.287601-0.0163498,0.4347587-0.0505981c0.1454618-0.0338173,0.2775674-0.0836449,0.392978-0.1525688
			c0.118664-0.0677223,0.212328-0.1534233,0.2826355-0.2588158c0.0702052-0.1053085,0.1070201-0.2294502,0.1070201-0.3712311
			c0-0.2407532-0.0920539-0.4309921-0.2759573-0.5697746c-0.183989-0.1387863-0.4147243-0.2571068-0.6940043-0.3548813
			c-0.2775674-0.0974312-0.5785079-0.1960602-0.9012809-0.2934914c-0.322687-0.0965729-0.6237133-0.2291069-0.9012808-0.3938332
			c-0.2775674-0.1654968-0.5083885-0.3841591-0.6922919-0.6546211c-0.183989-0.2696915-0.2775674-0.626709-0.2775674-1.0702019
			c0-0.4285088,0.0852737-0.8030777,0.2541087-1.1270485c0.1706493-0.3219185,0.3946903-0.593235,0.677309-0.8101883
			c0.2809066-0.2173767,0.605306-0.382103,0.974825-0.4911766c0.3678925-0.1074486,0.7458022-0.1631012,1.1370678-0.1631012
			c0.4515393,0,0.8862979,0.0639572,1.3077004,0.1927223c0.4196901,0.1267128,0.7993121,0.3411789,1.1370845,0.6409225
			L4.5435028,42.0420341z"/>
		<path class="st1" d="M8.172102,40.0918694h1.7575102v7.9796791H8.172102V40.0918694z"/>
		<path class="st1" d="M19.8774338,47.5075951c-0.5149803,0.2700348-1.0568447,0.466095-1.620369,0.5864716
			c-0.5651531,0.1200333-1.1386948,0.1806488-1.7256794,0.1806488c-0.6220007,0-1.1972551-0.0982857-1.7223225-0.2930641
			c-0.5267267-0.1956329-0.9816055-0.4740562-1.364481-0.8402367c-0.3829441-0.3645515-0.6822748-0.8043633-0.8963146-1.3231964
			c-0.2140408-0.5191765-0.3210611-1.0969124-0.3210611-1.7352676c0-0.639637,0.1070204-1.217804,0.3210611-1.7365532
			c0.2140398-0.5179749,0.5133705-0.9598427,0.8963146-1.3248215c0.3828754-0.3632698,0.8377542-0.6434059,1.364481-0.8390388
			c0.5250673-0.1947784,1.1003218-0.2926369,1.7223225-0.2926369c0.6387825,0,1.2273922,0.0769691,1.7642059,0.2308235
			c0.5384388,0.1550484,1.0083179,0.4188309,1.4146347,0.7946854l-1.2407475,1.3519669
			c-0.2391262-0.2491455-0.5100155-0.4364738-0.8110428-0.5630989c-0.2993145-0.1279106-0.6755104-0.1898117-1.1270504-0.1898117
			c-0.3745708,0-0.7140379,0.0619011-1.0183182,0.1898117c-0.3043652,0.1266251-0.565237,0.307621-0.7842436,0.5351028
			c-0.2174644,0.2298775-0.384656,0.5024796-0.5017099,0.816433c-0.1154108,0.3155823-0.1738863,0.65839-0.1738863,1.0271378
			c0,0.3741417,0.0584755,0.717804,0.1738863,1.0304756c0.117054,0.3106155,0.2842455,0.5815048,0.5017099,0.8106117
			c0.2190065,0.229454,0.4798784,0.40839,0.7842436,0.5359573c0.3042803,0.1266289,0.6437473,0.1914368,1.0183182,0.1914368
			c0.3829784,0,0.7140388-0.0443459,0.9916058-0.1300507c0.2775669-0.085701,0.5017109-0.1747398,0.6655807-0.2637825v-1.2967415
			h-1.4297905v-1.6232796h3.1186523V47.5075951z"/>
		<path class="st1" d="M22.8439484,40.0918694h1.7557297v6.3563957h3.2574348v1.6232834h-5.0131645V40.0918694z"/>
		<path class="st1" d="M29.5243168,44.0829506c0-0.639637,0.1087322-1.217804,0.3210602-1.7365532
			c0.2140408-0.5179749,0.5133533-0.9598427,0.8963146-1.3248215c0.3828754-0.3632698,0.8377533-0.6434059,1.3628387-0.8390388
			c0.5267105-0.1947784,1.101963-0.2926369,1.7256775-0.2926369c0.6220856,0,1.1972542,0.0978584,1.7240524,0.2926369
			c0.5250816,0.1956329,0.9798927,0.475769,1.3628349,0.8390388c0.3828773,0.3649788,0.6805649,0.8068466,0.8962326,1.3248215
			c0.2140388,0.5187492,0.3210602,1.0969162,0.3210602,1.7365532c0,0.6383553-0.1070213,1.2160912-0.3210602,1.7352676
			c-0.2156677,0.5188332-0.5133553,0.9586449-0.8962326,1.3231964c-0.3829422,0.3661804-0.8377533,0.6446037-1.3628349,0.8402367
			c-0.5267982,0.1947784-1.1019669,0.2930641-1.7240524,0.2930641c-0.6237144,0-1.198967-0.0982857-1.7256775-0.2930641
			c-0.5250854-0.1956329-0.9799633-0.4740562-1.3628387-0.8402367c-0.3829613-0.3645515-0.6822739-0.8043633-0.8963146-1.3231964
			C29.633049,45.2990417,29.5243168,44.7213058,29.5243168,44.0829506z M31.3503361,44.0829506
			c0,0.3741417,0.0585613,0.717804,0.1738873,1.0304756c0.1171227,0.3106155,0.2859573,0.5815048,0.5033379,0.8106117
			c0.2173767,0.229454,0.4782524,0.40839,0.7826157,0.5359573c0.3043671,0.1266289,0.6437492,0.1914368,1.020031,0.1914368
			c0.3745689,0,0.7156639-0.0648079,1.020031-0.1914368c0.3043633-0.1275673,0.5652351-0.3065033,0.7826157-0.5359573
			c0.2173805-0.2291069,0.3845863-0.4999962,0.5016251-0.8106117c0.1154289-0.3126717,0.1738853-0.6563339,0.1738853-1.0304756
			c0-0.3687477-0.0584564-0.7115555-0.1738853-1.0271378c-0.1170387-0.3139534-0.2842445-0.5865555-0.5016251-0.816433
			c-0.2173805-0.2274818-0.4782524-0.4084778-0.7826157-0.5351028c-0.3043671-0.1279106-0.645462-0.1898117-1.020031-0.1898117
			c-0.3762817,0-0.7156639,0.0619011-1.020031,0.1898117c-0.3043633,0.1266251-0.565239,0.307621-0.7826157,0.5351028
			c-0.2173805,0.2298775-0.3862152,0.5024796-0.5033379,0.816433
			C31.4088974,43.3713951,31.3503361,43.7142029,31.3503361,44.0829506z"/>
	</g>
	<path class="st1" d="M88.223175,47.7722359c0.1355057-0.0288544,0.2709503-0.0543671,0.406395-0.0740585
		C86.9639969,37.004982,77.7151489,28.8204212,66.5550003,28.8204212c-12.3391685,0-22.3438377,10.0026188-22.3438377,22.3434086
		c0,0.4711456,0.0184059,0.9385262,0.0468292,1.4012794c0.2073631-0.0643806,0.419693-0.1203766,0.6354446-0.1659241
		c3.5534096-0.7374954,9.663578-1.5455399,10.9026299,4.4183083c1.1036606,5.31633-3.3276596,7.2338753-6.8291855,8.1243706
		c4.0885124,5.2142792,10.4478188,8.5645218,17.5881195,8.5645218c8.5532227,0,15.9827271-4.8096542,19.736824-11.8692207
		c-3.5534134,0.5351028-7.4830017,0.1618156-8.5432053-4.8827705C76.1566772,49.1822472,84.6731644,48.5234299,88.223175,47.7722359
		z M59.3812256,48.0715485l-1.9497375-3.2118874l-1.8945999,3.2118874h-2.0835533l2.7942543-4.1700172l-2.6370621-3.8096619
		h2.2089806l1.700592,2.7958794l1.633728-2.7958794h2.1303864l-2.5802116,3.7761841l2.8845749,4.203495H59.3812256z
		 M69.2070465,48.0715485l-1.9497375-3.2118874l-1.8929749,3.2118874h-2.0851784l2.7942696-4.1700172l-2.6354523-3.8096619
		h2.2073746l1.7022018,2.7958794l1.633728-2.7958794h2.1303787l-2.5801926,3.7761841l2.8828506,4.203495H69.2070465z
		 M75.6517105,48.0715485h-1.7575302v-7.9796791h1.7575302V48.0715485z"/>
	<g>
		<path class="st0" d="M107.3932037,90.1877441h0.7959671v6.7196655h-0.7959671V90.1877441z"/>
		<path class="st0" d="M109.7660522,90.1877441h1.004982l3.8911438,5.579689h0.0184097v-5.579689h0.7976227v6.7196655h-1.0066147
			l-3.889534-5.5821686h-0.0184097v5.5821686h-0.7975998V90.1877441z"/>
		<path class="st0" d="M117.2440186,90.1877441h0.7959747v6.7196655h-0.7959747V90.1877441z"/>
		<path class="st0" d="M124.5130844,91.57267c-0.2040253-0.2712326-0.4548798-0.4752579-0.7508545-0.6111298
			c-0.2975998-0.1362991-0.6070175-0.2044525-0.9297028-0.2044525c-0.3729477,0-0.7173615,0.0756912-1.0300446,0.2274017
			c-0.3127594,0.1517944-0.5836487,0.357872-0.8110428,0.6129227c-0.2274017,0.255394-0.4047089,0.5538483-0.5317612,0.8908386
			c-0.1254272,0.3394623-0.1906662,0.6914368-0.1906662,1.0576172c0,0.3925476,0.065239,0.7592392,0.1906662,1.0965652
			c0.1270523,0.3398972,0.3026505,0.6341629,0.5267105,0.8828735c0.225769,0.2512894,0.4933167,0.448204,0.8077164,0.5928116
			c0.3126526,0.1463165,0.6587982,0.2182312,1.0384216,0.2182312c0.4113007,0,0.777565-0.0802231,1.1019821-0.2416077
			c0.3210602-0.1609573,0.6019516-0.393837,0.8427887-0.6960602l0.5969162,0.5011978
			c-0.3026581,0.4055634-0.6672058,0.7023926-1.0952911,0.8938293c-0.424736,0.18853-0.909668,0.2830505-1.4463959,0.2830505
			c-0.4815903,0-0.9297943-0.0878448-1.3477707-0.2659225c-0.4180603-0.1772232-0.7809906-0.4218292-1.0869827-0.7349319
			c-0.3059921-0.3126678-0.5467453-0.6856155-0.7207108-1.1148911c-0.1738892-0.4306488-0.2608795-0.9000854-0.2608795-1.4151459
			c0-0.4936676,0.0836487-0.9530792,0.2508621-1.3849258c0.1689148-0.4297943,0.4029922-0.8026581,0.7073593-1.1191788
			c0.3026505-0.316864,0.6638641-0.5664368,1.0819321-0.7503357c0.4179764-0.1835632,0.8761902-0.274231,1.3761902-0.274231
			c0.4547958,0,0.8928909,0.0827026,1.3143158,0.2458038c0.4213791,0.1663513,0.7725754,0.4330444,1.0585327,0.8071899
			L124.5130844,91.57267z"/>
		<path class="st0" d="M126.7705231,90.1877441h0.7975998v6.7196655h-0.7975998V90.1877441z"/>
		<path class="st0" d="M131.7051849,90.1877441h0.7491455l2.8560638,6.7196655h-0.9297028l-0.6822815-1.6517029h-3.3594055
			l-0.6922913,1.6517029h-0.9029999L131.7051849,90.1877441z M132.064682,91.2115402h-0.0184021l-1.3963165,3.304184h2.7424622
			L132.064682,91.2115402z"/>
		<path class="st0" d="M136.4876099,90.1877441h0.7976074v5.9780579h3.0735321v0.7416077h-3.8711395V90.1877441z"/>
		<path class="st0" d="M146.0241394,94.0120468l-2.5049438-3.8243027h1.0166779l1.8862,3.036293l1.9464264-3.036293h0.9581909
			l-2.5049591,3.8243027v2.8953629h-0.7975922V94.0120468z"/>
		<path class="st0" d="M153.284729,90.1877441h1.9915924c0.3093414,0,0.6053162,0.0300522,0.8879242,0.0902405
			c0.2809143,0.0606155,0.5301361,0.1618118,0.7491455,0.3030777c0.2173767,0.1429825,0.3929749,0.3332214,0.5217438,0.5698624
			c0.1304016,0.2374115,0.1956329,0.5304794,0.1956329,0.8779068c0,0.3666077-0.0719147,0.6705475-0.2106934,0.9121552
			c-0.1387939,0.2387009-0.3160095,0.4289398-0.5351105,0.5672913c-0.2190094,0.1412659-0.4564972,0.2374115-0.7173767,0.2951202
			c-0.2591553,0.0564194-0.5049591,0.0848465-0.7391205,0.0848465h-1.3477631v3.019165h-0.7959747V90.1877441z
			 M154.0807037,93.1487808h1.3477631c0.398056,0,0.7224274-0.090332,0.9732819-0.2701187
			c0.2474365-0.1801376,0.3728638-0.4602737,0.3728638-0.841095c0-0.3783417-0.1254272-0.6588211-0.3728638-0.8390427
			c-0.2508545-0.18013-0.5752258-0.2713165-0.9732819-0.2713165h-1.3477631V93.1487808z"/>
		<path class="st0" d="M159.006958,90.1877441h1.7156677c0.3227692,0,0.6438293,0.0200348,0.9631805,0.0568466
			c0.3210602,0.03759,0.6070099,0.1203766,0.8594971,0.2458038c0.2525635,0.1274872,0.4582214,0.3126755,0.6170349,0.5568466
			c0.157196,0.2424698,0.2375031,0.5726852,0.2375031,0.9903259c0,0.4941711-0.1488037,0.8925476-0.4464874,1.1951981
			c-0.2976837,0.3043671-0.7089844,0.498291-1.2340698,0.5802231l1.907959,3.0944214h-0.9782562l-1.8209686-3.019165h-1.0250854
			v3.019165h-0.7959747V90.1877441z M159.8029327,93.1487808h0.712326c0.2208099,0,0.4498291-0.00634,0.6873322-0.0192642
			c0.2374115-0.0121613,0.4547882-0.0535126,0.6538696-0.1241455c0.1989441-0.0681534,0.3644409-0.1776581,0.4932098-0.3256836
			c0.1304779-0.1496582,0.1956329-0.3632736,0.1956329-0.6421204c0-0.2403259-0.0467224-0.4322739-0.1421204-0.5777359
			c-0.0952911-0.1467514-0.2190094-0.2583084-0.3745728-0.3368988c-0.1554718-0.0790253-0.329361-0.1304855-0.5233765-0.1576233
			c-0.1922913-0.0255127-0.3862915-0.0381012-0.5819244-0.0381012h-1.1203766V93.1487808z"/>
		<path class="st0" d="M165.0886993,90.1877441h4.2223511v0.7394638h-3.4246368v2.1061554h3.1972198v0.7411804h-3.1972198v2.3912582
			h3.5968781v0.7416077h-4.3945923V90.1877441z"/>
		<path class="st0" d="M170.8093414,90.1877441h4.2222137v0.7394638h-3.4246368v2.1061554h3.1972656v0.7411804h-3.1972656v2.3912582
			h3.5951843v0.7416077h-4.3927612V90.1877441z"/>
		<path class="st0" d="M179.9093628,91.3732681c-0.1338196-0.214035-0.3093262-0.3712311-0.5317535-0.4690018
			c-0.2207031-0.0978622-0.4514618-0.1471786-0.693924-0.1471786c-0.1755981,0-0.3495483,0.0226059-0.5201111,0.0664444
			c-0.1721802,0.0452042-0.3244019,0.1107864-0.4598541,0.1986237c-0.1370697,0.0894699-0.2440796,0.2065125-0.3277283,0.3511124
			c-0.0819397,0.1471786-0.1237183,0.3177261-0.1237183,0.5137863c0,0.1505127,0.0233765,0.2855301,0.0719147,0.4026489
			c0.0467682,0.1174698,0.1253357,0.2232056,0.2323608,0.3180618c0.1070251,0.0949554,0.2525635,0.1835632,0.434845,0.2655029
			c0.1838989,0.0823593,0.409668,0.1642914,0.6755066,0.2475128c0.2592468,0.0819321,0.510025,0.1705475,0.7524872,0.264122
			c0.2441711,0.0953827,0.4598389,0.2157593,0.647171,0.3607864c0.1856079,0.1463242,0.3344116,0.3281708,0.4447937,0.5459747
			c0.1120453,0.2186661,0.1671906,0.4924698,0.1671906,0.8206329c0,0.3365555-0.066864,0.6274796-0.1989746,0.8745651
			c-0.133728,0.2462387-0.3110352,0.4506836-0.5267029,0.6103592c-0.219101,0.1609573-0.4699554,0.2830505-0.7541962,0.3599319
			c-0.285965,0.0798798-0.5802155,0.119606-0.8828735,0.119606c-0.195694,0-0.3929749-0.0175552-0.5886078-0.0514526
			c-0.1957245-0.0355301-0.3846741-0.0886154-0.5635376-0.1613922c-0.1806488-0.0726852-0.3511963-0.1680603-0.5083771-0.2850952
			c-0.1588287-0.1166153-0.2959747-0.2604446-0.4096832-0.4309921l0.6856232-0.5606155
			c0.1437531,0.2458038,0.3461456,0.4347534,0.6053009,0.5606155c0.2591553,0.1254272,0.5350952,0.1885223,0.8261108,0.1885223
			c0.1705475,0,0.3427277-0.0246582,0.5166931-0.0752563c0.1738892-0.0513687,0.3310852-0.1257706,0.4698639-0.2220001
			c0.1387787-0.0990601,0.2524872-0.2207184,0.3428192-0.3670349c0.0885925-0.145462,0.1303864-0.3122482,0.1303864-0.5029144
			c0-0.2081299-0.0351105-0.3774796-0.1019745-0.5062485c-0.0702057-0.1312485-0.1789398-0.2424622-0.3227692-0.3381805
			c-0.145462-0.0952911-0.3293762-0.1789398-0.5518036-0.255394c-0.2224274-0.0769653-0.4798737-0.164299-0.7775574-0.2659225
			c-0.2407532-0.0764542-0.4615631-0.1621552-0.6654968-0.2608719c-0.2006836-0.0990601-0.3779144-0.2178116-0.5250854-0.3607864
			c-0.1488647-0.1421204-0.2675476-0.3139572-0.3511963-0.5124969c-0.0852814-0.1998291-0.1287689-0.4389572-0.1287689-0.7156677
			c0-0.3231964,0.0635223-0.6049652,0.1906891-0.8452835c0.1270294-0.2395554,0.2959595-0.4411011,0.5116272-0.602829
			c0.215744-0.1601028,0.4599304-0.2826157,0.7308197-0.3658371c0.2725067-0.0815048,0.5567474-0.1224289,0.8528137-0.1224289
			c0.3812561,0,0.7274017,0.0580444,1.0400696,0.1755142c0.3143768,0.1174622,0.5919495,0.3210602,0.8394623,0.6120682
			L179.9093628,91.3732681z"/>
		<path class="st0" d="M186.9893951,91.57267c-0.2023163-0.2712326-0.4531708-0.4752579-0.7491455-0.6111298
			c-0.2993164-0.1362991-0.6086426-0.2044525-0.9314117-0.2044525c-0.3728485,0-0.7173767,0.0756912-1.0283356,0.2274017
			c-0.3143921,0.1517944-0.5852814,0.357872-0.8143921,0.6129227c-0.225769,0.255394-0.4013672,0.5538483-0.5301056,0.8908386
			c-0.1253662,0.3394623-0.1889801,0.6914368-0.1889801,1.0576172c0,0.3925476,0.0636139,0.7592392,0.1889801,1.0965652
			c0.1287384,0.3398972,0.3027191,0.6341629,0.5267792,0.8828735c0.2240753,0.2512894,0.4933167,0.448204,0.8059845,0.5928116
			c0.3143768,0.1463165,0.6605225,0.2182312,1.0400696,0.2182312c0.4114075,0,0.7792664-0.0802231,1.1019592-0.2416077
			c0.3227692-0.1609573,0.6036835-0.393837,0.8445435-0.6960602l0.5986023,0.5011978
			c-0.3026581,0.4055634-0.670517,0.7023926-1.0970001,0.8938293c-0.4263611,0.18853-0.909668,0.2830505-1.4481049,0.2830505
			c-0.4815674,0-0.9297028-0.0878448-1.3477783-0.2659225c-0.4163208-0.1772232-0.7791901-0.4218292-1.0868988-0.7349319
			c-0.3059845-0.3126678-0.5468292-0.6856155-0.7190857-1.1148911c-0.1755066-0.4306488-0.2624969-0.9000854-0.2624969-1.4151459
			c0-0.4936676,0.0852814-0.9530792,0.2508545-1.3849258c0.1688385-0.4297943,0.4046173-0.8026581,0.7072754-1.1191788
			c0.3043671-0.316864,0.6638641-0.5664368,1.0836487-0.7503357c0.4163513-0.1835632,0.8744812-0.274231,1.3744812-0.274231
			c0.4564972,0,0.8946838,0.0827026,1.3143768,0.2458038c0.421402,0.1663513,0.7742462,0.4330444,1.0584869,0.8071899
			L186.9893951,91.57267z"/>
		<path class="st0" d="M192.3688202,97.0767593c-0.5100098,0-0.9815826-0.0878448-1.407959-0.2659225
			c-0.4264221-0.1772232-0.7959747-0.4218292-1.1103516-0.7349319c-0.3126526-0.3126678-0.556839-0.6856155-0.7307281-1.1195145
			c-0.1738892-0.4318466-0.260849-0.904274-0.260849-1.4105225c0-0.505394,0.0869598-0.9752579,0.260849-1.407959
			c0.1738892-0.433136,0.4180756-0.8064194,0.7307281-1.1195145c0.3143768-0.3143845,0.6839294-0.5585632,1.1103516-0.7362137
			c0.4263763-0.176796,0.8979492-0.2649841,1.407959-0.2649841c0.5133514,0,0.9833069,0.0881882,1.409668,0.2649841
			c0.4280853,0.1776505,0.7976837,0.4218292,1.1103821,0.7362137c0.3143616,0.3130951,0.5568237,0.6863785,0.7307129,1.1195145
			c0.1738892,0.4327011,0.2608643,0.902565,0.2608643,1.407959c0,0.5062485-0.0869751,0.9786758-0.2608643,1.4105225
			c-0.1738892,0.4338989-0.4163513,0.8068466-0.7307129,1.1195145c-0.3126984,0.3131027-0.6822968,0.5577087-1.1103821,0.7349319
			C193.3521271,96.9889145,192.8821716,97.0767593,192.3688202,97.0767593z M192.3688202,96.3363495
			c0.3929749,0,0.7524872-0.0719147,1.078598-0.2182312c0.3244019-0.1446075,0.6053009-0.3431549,0.8394623-0.5973434
			c0.2340698-0.2529144,0.4163513-0.5488892,0.5451202-0.8871536c0.1303864-0.3390427,0.1956329-0.6997452,0.1956329-1.0877533
			c0-0.3850174-0.0652466-0.7478561-0.1956329-1.0860443c-0.1287689-0.3381805-0.3110504-0.6325302-0.5451202-0.8871536
			c-0.2341614-0.2529068-0.5150604-0.4514542-0.8394623-0.5977707c-0.3261108-0.1446075-0.6856232-0.2178116-1.078598-0.2178116
			c-0.3896332,0-0.7507629,0.073204-1.0751648,0.2178116c-0.327713,0.1463165-0.6053925,0.3448639-0.8394623,0.5977707
			c-0.2357941,0.2546234-0.4163361,0.5489731-0.5468292,0.8871536c-0.1304016,0.3381882-0.193924,0.7010269-0.193924,1.0860443
			c0,0.3880081,0.0635223,0.7487106,0.193924,1.0877533c0.1304932,0.3382645,0.3110352,0.6342392,0.5468292,0.8871536
			c0.2340698,0.2541885,0.5117493,0.4527359,0.8394623,0.5973434
			C191.6180573,96.2644348,191.979187,96.3363495,192.3688202,96.3363495z"/>
		<path class="st0" d="M197.4473114,90.1877441h0.7976074v5.9780579h3.0718231v0.7416077h-3.8694305V90.1877441z"/>
		<path class="st0" d="M204.8484039,90.1877441h0.7491302l2.8578033,6.7196655h-0.9314117l-0.6838989-1.6517029h-3.3578033
			l-0.6940002,1.6517029h-0.8995667L204.8484039,90.1877441z M205.207901,91.2115402h-0.0184021l-1.3946075,3.304184h2.7424622
			L205.207901,91.2115402z"/>
		<path class="st0" d="M209.6308594,90.1877441h1.7173615c0.3226929,0,0.6437531,0.0200348,0.9631805,0.0568466
			c0.3210602,0.03759,0.6070251,0.1203766,0.8595123,0.2458038c0.2541809,0.1274872,0.4582062,0.3126755,0.6170349,0.5568466
			c0.1571808,0.2424698,0.2374115,0.5726852,0.2374115,0.9903259c0,0.4941711-0.1488037,0.8925476-0.4464111,1.1951981
			c-0.2976837,0.3043671-0.7090607,0.498291-1.2340698,0.5802231l1.90625,3.0944214h-0.9765472l-1.8210449-3.019165h-1.0249939
			v3.019165h-0.7976837V90.1877441z M210.4285431,93.1487808h0.712326c0.2207184,0,0.4498291-0.00634,0.6872406-0.0192642
			c0.2357788-0.0121613,0.4548798-0.0535126,0.6538391-0.1241455c0.1989746-0.0681534,0.364563-0.1776581,0.4933319-0.3256836
			c0.1303864-0.1496582,0.1956329-0.3632736,0.1956329-0.6421204c0-0.2403259-0.0484619-0.4322739-0.1438446-0.5777359
			c-0.0935822-0.1467514-0.2190094-0.2583084-0.3745728-0.3368988c-0.1538391-0.0790253-0.3277283-0.1304855-0.5216522-0.1576233
			c-0.1923828-0.0255127-0.3880157-0.0381012-0.5819397-0.0381012h-1.1203613V93.1487808z"/>
	</g>
</g>
</svg>
