<svg xmlns="http://www.w3.org/2000/svg" viewBox="0 0 27.4 35"><defs><style>.cls-1{fill:#477388;}</style></defs><title>logo-menu</title><g id="Capa_2" data-name="Capa 2"><g id="Layer_5" data-name="Layer 5"><g id="_Grupo_" data-name="&lt;Grupo&gt;"><path id="_Trazado_" data-name="&lt;Trazado&gt;" class="cls-1" d="M18.77,5.84a8.83,8.83,0,0,0-1.15-2.17l-.12-.16,0,0A8.76,8.76,0,0,0,11.79.1L11.31,0,11,0V0L10.5,0A8.88,8.88,0,0,0,1.75,7.69,3.87,3.87,0,0,1,.94,7L0,7.78C1.51,9.55,3.75,10,6.64,9.09a8.84,8.84,0,0,0,5.45-4.87,8.83,8.83,0,0,0,6.11,2.45h.88Z"/><path id="_Trazado_2" data-name="&lt;Trazado&gt;" class="cls-1" d="M8,12.39a2.11,2.11,0,0,1-2.73-1l.65-.28c0,.1.5,1,1.86.59S9,10.28,8.94,10.16l.7-.14A2.11,2.11,0,0,1,8,12.39Z"/><path id="_Trazado_3" data-name="&lt;Trazado&gt;" class="cls-1" d="M14.31,10.41a2.11,2.11,0,0,1-2.73-1l.65-.28c0,.1.5,1,1.86.59s1.22-1.43,1.19-1.55L16,8A2.11,2.11,0,0,1,14.31,10.41Z"/><path id="_Trazado_4" data-name="&lt;Trazado&gt;" class="cls-1" d="M.57,28.65a3.13,3.13,0,0,0,3.7,2.43l.67-.15A10.58,10.58,0,0,1,2.69,25,3.13,3.13,0,0,0,.57,28.65Z"/><path id="_Trazado_5" data-name="&lt;Trazado&gt;" class="cls-1" d="M27.33,25.16a3.13,3.13,0,0,0-3.51-2.45,10.7,10.7,0,0,1,.13,1.65,10.59,10.59,0,0,1-1.24,5c.85-.13,1.65-.36,2.22-.48A3.13,3.13,0,0,0,27.33,25.16Z"/></g><path id="_Trazado_compuesto_" data-name="&lt;Trazado compuesto&gt;" class="cls-1" d="M23.62,22.75l.19,0A10.64,10.64,0,0,0,2.67,24.36c0,.22,0,.45,0,.67L3,25c1.69-.35,4.6-.74,5.19,2.1.53,2.53-1.58,3.44-3.25,3.87A10.64,10.64,0,0,0,22.7,29.35c-1.69.25-3.56.08-4.07-2.32C17.88,23.42,21.93,23.1,23.62,22.75Z"/></g></g></svg>