<svg xmlns="http://www.w3.org/2000/svg" viewBox="0 0 39 40"><defs><style>.cls-1{fill:#fff;}.cls-2{fill:#ffbe77;}</style></defs><title>twitter-footer_1</title><g id="Capa_2" data-name="Capa 2"><g id="Layer_1" data-name="Layer 1"><rect id="_Rectángulo_" data-name="&lt;Rectángulo&gt;" class="cls-1" width="39" height="40" rx="19.5" ry="19.5"/><g id="_Grupo_" data-name="&lt;Grupo&gt;"><path id="_Trazado_" data-name="&lt;Trazado&gt;" class="cls-2" d="M31.5,12.56a9.84,9.84,0,0,1-2.83.78,4.94,4.94,0,0,0,2.17-2.72,9.86,9.86,0,0,1-3.13,1.19,4.93,4.93,0,0,0-8.39,4.49A14,14,0,0,1,9.17,11.15a4.93,4.93,0,0,0,1.52,6.57,4.9,4.9,0,0,1-2.23-.62v.06A4.93,4.93,0,0,0,12.41,22a4.94,4.94,0,0,1-2.22.08,4.93,4.93,0,0,0,4.6,3.42,9.88,9.88,0,0,1-6.12,2.11,10,10,0,0,1-1.17-.07,14,14,0,0,0,21.56-11.8q0-.32,0-.64A10,10,0,0,0,31.5,12.56Z"/></g></g></g></svg>