<svg xmlns="http://www.w3.org/2000/svg" viewBox="0 0 35 35"><defs><style>.cls-1{fill:#ffbe77;}.cls-2{fill:#f7ea91;}</style></defs><title>twitter-hover</title><g id="Capa_2" data-name="Capa 2"><g id="Layer_1" data-name="Layer 1"><circle id="_Trazado_" data-name="&lt;Trazado&gt;" class="cls-1" cx="17.5" cy="17.5" r="17.5"/><path id="_Trazado_2" data-name="&lt;Trazado&gt;" class="cls-2" d="M28,11a8.61,8.61,0,0,1-2.47.68,4.32,4.32,0,0,0,1.89-2.38,8.63,8.63,0,0,1-2.74,1,4.31,4.31,0,0,0-7.34,3.93,12.23,12.23,0,0,1-8.88-4.5A4.31,4.31,0,0,0,9.8,15.51a4.29,4.29,0,0,1-2-.54V15a4.31,4.31,0,0,0,3.46,4.22,4.32,4.32,0,0,1-1.95.07,4.31,4.31,0,0,0,4,3A8.64,8.64,0,0,1,8,24.16a8.77,8.77,0,0,1-1-.06A12.25,12.25,0,0,0,25.86,13.77q0-.28,0-.56A8.76,8.76,0,0,0,28,11Z"/></g></g></svg>