<svg xmlns="http://www.w3.org/2000/svg" viewBox="0 0 1374.79 578.86"><defs><style>.cls-1{fill:none;stroke:#fff;stroke-miterlimit:10;}.cls-2{fill:#fff;}</style></defs><title>estrellas</title><g id="Capa_2" data-name="Capa 2"><g id="_3.1_estrellas" data-name="3.1ยบ estrellas"><g id="_Grupo_" data-name="&lt;Grupo&gt;"><g id="_Grupo_2" data-name="&lt;Grupo&gt;"><line id="_Trazado_" data-name="&lt;Trazado&gt;" class="cls-1" x1="1143.95" y1="332.97" x2="1150" y2="332.97"/><line id="_Trazado_2" data-name="&lt;Trazado&gt;" class="cls-1" x1="1146.98" y1="329.95" x2="1146.98" y2="335.99"/></g><g id="_Grupo_3" data-name="&lt;Grupo&gt;"><line id="_Trazado_3" data-name="&lt;Trazado&gt;" class="cls-1" x1="1132.86" y1="319.4" x2="1138.91" y2="319.4"/><line id="_Trazado_4" data-name="&lt;Trazado&gt;" class="cls-1" x1="1135.89" y1="316.37" x2="1135.89" y2="322.42"/></g></g><g id="_Grupo_4" data-name="&lt;Grupo&gt;"><g id="_Grupo_5" data-name="&lt;Grupo&gt;"><line id="_Trazado_5" data-name="&lt;Trazado&gt;" class="cls-1" x1="1368.74" y1="465.2" x2="1374.79" y2="465.2"/><line id="_Trazado_6" data-name="&lt;Trazado&gt;" class="cls-1" x1="1371.76" y1="462.17" x2="1371.76" y2="468.22"/></g><g id="_Grupo_6" data-name="&lt;Grupo&gt;"><line id="_Trazado_7" data-name="&lt;Trazado&gt;" class="cls-1" x1="1283.46" y1="514.09" x2="1289.5" y2="514.09"/><line id="_Trazado_8" data-name="&lt;Trazado&gt;" class="cls-1" x1="1286.48" y1="511.07" x2="1286.48" y2="517.12"/></g></g><circle id="_Trazado_9" data-name="&lt;Trazado&gt;" class="cls-2" cx="1184.27" cy="119.51" r="2.74"/><g id="_Grupo_7" data-name="&lt;Grupo&gt;"><path class="cls-2" d="M484.43,486.39a1.25,1.25,0,0,0,0-2.5,1.25,1.25,0,0,0,0,2.5Z"/></g><g id="_Grupo_8" data-name="&lt;Grupo&gt;"><path class="cls-2" d="M472.87,505.39a1.25,1.25,0,0,0,0-2.5,1.25,1.25,0,0,0,0,2.5Z"/></g><g id="_Grupo_9" data-name="&lt;Grupo&gt;"><path class="cls-2" d="M528.43,162.12a1.25,1.25,0,0,0,0-2.5,1.25,1.25,0,0,0,0,2.5Z"/></g><g id="_Grupo_10" data-name="&lt;Grupo&gt;"><path class="cls-2" d="M536.43,141.89a1.25,1.25,0,0,0,0-2.5,1.25,1.25,0,0,0,0,2.5Z"/></g><g id="_Grupo_11" data-name="&lt;Grupo&gt;"><path class="cls-2" d="M973.43,120.76a1.25,1.25,0,0,0,0-2.5,1.25,1.25,0,0,0,0,2.5Z"/></g><g id="_Grupo_12" data-name="&lt;Grupo&gt;"><path class="cls-2" d="M967.93,95.89a1.25,1.25,0,0,0,0-2.5,1.25,1.25,0,0,0,0,2.5Z"/></g><g id="_Grupo_13" data-name="&lt;Grupo&gt;"><path class="cls-2" d="M910.43,107.6a1.25,1.25,0,0,0,0-2.5,1.25,1.25,0,0,0,0,2.5Z"/></g><g id="_Grupo_14" data-name="&lt;Grupo&gt;"><line id="_Trazado_10" data-name="&lt;Trazado&gt;" class="cls-1" y1="168.38" x2="6.05" y2="168.38"/><line id="_Trazado_11" data-name="&lt;Trazado&gt;" class="cls-1" x1="3.02" y1="165.36" x2="3.02" y2="171.41"/></g><g id="_Grupo_15" data-name="&lt;Grupo&gt;"><line id="_Trazado_12" data-name="&lt;Trazado&gt;" class="cls-1" x1="59.92" y1="113.37" x2="65.97" y2="113.37"/><line id="_Trazado_13" data-name="&lt;Trazado&gt;" class="cls-1" x1="62.95" y1="110.35" x2="62.95" y2="116.4"/></g><g id="_Grupo_16" data-name="&lt;Grupo&gt;"><line id="_Trazado_14" data-name="&lt;Trazado&gt;" class="cls-1" x1="85.4" y1="157.85" x2="91.45" y2="157.85"/><line id="_Trazado_15" data-name="&lt;Trazado&gt;" class="cls-1" x1="88.42" y1="154.83" x2="88.42" y2="160.87"/></g><g id="_Grupo_17" data-name="&lt;Grupo&gt;"><line id="_Trazado_16" data-name="&lt;Trazado&gt;" class="cls-1" x1="229.48" y1="413.71" x2="235.52" y2="413.71"/><line id="_Trazado_17" data-name="&lt;Trazado&gt;" class="cls-1" x1="232.5" y1="410.69" x2="232.5" y2="416.74"/></g><g id="_Grupo_18" data-name="&lt;Grupo&gt;"><line id="_Trazado_18" data-name="&lt;Trazado&gt;" class="cls-1" x1="20.56" y1="434.92" x2="26.61" y2="434.92"/><line id="_Trazado_19" data-name="&lt;Trazado&gt;" class="cls-1" x1="23.58" y1="431.89" x2="23.58" y2="437.94"/></g><g id="_Grupo_19" data-name="&lt;Grupo&gt;"><line id="_Trazado_20" data-name="&lt;Trazado&gt;" class="cls-1" x1="87.32" y1="540.03" x2="93.36" y2="540.03"/><line id="_Trazado_21" data-name="&lt;Trazado&gt;" class="cls-1" x1="90.34" y1="537.01" x2="90.34" y2="543.05"/></g><g id="_Grupo_20" data-name="&lt;Grupo&gt;"><line id="_Trazado_22" data-name="&lt;Trazado&gt;" class="cls-1" x1="78.84" y1="517.12" x2="84.89" y2="517.12"/><line id="_Trazado_23" data-name="&lt;Trazado&gt;" class="cls-1" x1="81.86" y1="514.09" x2="81.86" y2="520.14"/></g><g id="_Grupo_21" data-name="&lt;Grupo&gt;"><line id="_Trazado_24" data-name="&lt;Trazado&gt;" class="cls-1" x1="48.34" y1="575.84" x2="54.39" y2="575.84"/><line id="_Trazado_25" data-name="&lt;Trazado&gt;" class="cls-1" x1="51.36" y1="572.82" x2="51.36" y2="578.86"/></g><g id="_Grupo_22" data-name="&lt;Grupo&gt;"><line id="_Trazado_26" data-name="&lt;Trazado&gt;" class="cls-1" x1="401.45" y1="164.25" x2="407.5" y2="164.25"/><line id="_Trazado_27" data-name="&lt;Trazado&gt;" class="cls-1" x1="404.47" y1="161.23" x2="404.47" y2="167.28"/></g><g id="_Grupo_23" data-name="&lt;Grupo&gt;"><line id="_Trazado_28" data-name="&lt;Trazado&gt;" class="cls-1" x1="444.16" y1="64.41" x2="450.21" y2="64.41"/><line id="_Trazado_29" data-name="&lt;Trazado&gt;" class="cls-1" x1="447.18" y1="61.38" x2="447.18" y2="67.43"/></g><g id="_Grupo_24" data-name="&lt;Grupo&gt;"><line id="_Trazado_30" data-name="&lt;Trazado&gt;" class="cls-1" x1="121.11" y1="329.21" x2="127.16" y2="329.21"/><line id="_Trazado_31" data-name="&lt;Trazado&gt;" class="cls-1" x1="124.13" y1="326.18" x2="124.13" y2="332.23"/></g><text></text><g id="_Grupo_25" data-name="&lt;Grupo&gt;"><path class="cls-2" d="M200.84,24.89a1.25,1.25,0,0,0,0-2.5,1.25,1.25,0,0,0,0,2.5Z"/></g><g id="_Grupo_26" data-name="&lt;Grupo&gt;"><path class="cls-2" d="M20.56,2.5a1.25,1.25,0,0,0,0-2.5,1.25,1.25,0,0,0,0,2.5Z"/></g><g id="_Grupo_27" data-name="&lt;Grupo&gt;"><path class="cls-2" d="M36.84,93.89a1.25,1.25,0,0,0,0-2.5,1.25,1.25,0,0,0,0,2.5Z"/></g></g></g></svg>