<svg xmlns="http://www.w3.org/2000/svg" viewBox="0 0 1215.63 665.99"><defs><style>.cls-1,.cls-2{fill:#bfe3ed;}.cls-1{opacity:0.5;}.cls-2{opacity:0.2;}</style></defs><title>nubes</title><g id="Capa_2" data-name="Capa 2"><g id="_5_nubes" data-name="5ยบ nubes"><path id="_Trazado_" data-name="&lt;Trazado&gt;" class="cls-1" d="M1072.43,94.75a30.18,30.18,0,0,0-29.75-14.62,30.18,30.18,0,0,0-2.42-4.52,30.27,30.27,0,0,0-28.29-41,30.5,30.5,0,0,0-3.83.25,41.53,41.53,0,1,0-70.55,42.82A57.79,57.79,0,0,0,925.5,76.4c-28.49,0-51.58,20.54-51.58,45.89S897,168.17,925.5,168.17a57.33,57.33,0,0,0,16.46-2.4,57.25,57.25,0,0,0,51.23-1.12,30.25,30.25,0,0,0,35.77-5.56,30.49,30.49,0,0,0,4.38.32,30.14,30.14,0,0,0,20-7.58,30.26,30.26,0,0,0,19.08-57.08Z"/><path id="_Trazado_2" data-name="&lt;Trazado&gt;" class="cls-1" d="M929.29,99.64a16.13,16.13,0,0,1,3,.28,34.31,34.31,0,0,1,66.84-14.31,34.15,34.15,0,0,1,21-7.2,34.61,34.61,0,0,1,4.2.27,34.21,34.21,0,0,1,2.74-5.13,34.31,34.31,0,0,1,32.08-46.48,34.57,34.57,0,0,1,4.34.28,47.08,47.08,0,1,1,80,48.55,65.53,65.53,0,0,1,13.71-1.45c32.3,0,58.48,23.29,58.48,52s-26.18,52-58.48,52a65,65,0,0,1-18.66-2.72,64.9,64.9,0,0,1-58.07-1.27,34.29,34.29,0,0,1-40.55-6.31,34.56,34.56,0,0,1-5,.36,34.17,34.17,0,0,1-22.7-8.59,34.3,34.3,0,0,1-35.91-14.42,34.33,34.33,0,0,1-35.34-9.69,16,16,0,0,1-7.48-4.65,16.06,16.06,0,1,1-4.18-31.56Z"/><path id="_Trazado_3" data-name="&lt;Trazado&gt;" class="cls-1" d="M1023.79,157.79a16.13,16.13,0,0,0-3-.32,34.31,34.31,0,0,0-62.61-27.43,34.15,34.15,0,0,0-19.14-11.27,34.61,34.61,0,0,0-4.17-.58,34.21,34.21,0,0,0-1.65-5.58,34.31,34.31,0,0,0-22.1-52,34.57,34.57,0,0,0-4.31-.59,47.08,47.08,0,1,0-88.1,31.52,65.53,65.53,0,0,0-13.14-4.17c-31.64-6.48-62,11.09-67.73,39.23s15.21,56.22,46.86,62.7a65,65,0,0,0,18.83,1.08,64.9,64.9,0,0,0,57.15,10.41,34.29,34.29,0,0,0,41,2,34.56,34.56,0,0,0,4.79,1.35,34.17,34.17,0,0,0,24-3.86,34.3,34.3,0,0,0,38.08-6.93,34.33,34.33,0,0,0,36.57-2.4,16,16,0,0,0,8.26-3.06,16.06,16.06,0,1,0,10.43-30.08Z"/><path id="_Trazado_4" data-name="&lt;Trazado&gt;" class="cls-2" d="M11,385.81a18.75,18.75,0,0,1,18.48-9.08,18.75,18.75,0,0,1,1.5-2.81,18.8,18.8,0,0,1,17.57-25.47,18.94,18.94,0,0,1,2.38.15,25.8,25.8,0,1,1,43.83,26.6,35.9,35.9,0,0,1,7.51-.8c17.7,0,32,12.76,32,28.5s-14.35,28.5-32,28.5A35.61,35.61,0,0,1,92,429.93a35.56,35.56,0,0,1-31.82-.69A18.79,18.79,0,0,1,38,425.78a18.94,18.94,0,0,1-2.72.2,18.72,18.72,0,0,1-12.44-4.71A18.8,18.8,0,0,1,11,385.81Z"/><path id="_Trazado_5" data-name="&lt;Trazado&gt;" class="cls-1" d="M1002.15,595.7a13.08,13.08,0,0,0-2.4.23,27.83,27.83,0,0,0-54.22-11.61,27.7,27.7,0,0,0-17-5.84,28.07,28.07,0,0,0-3.41.22,27.75,27.75,0,0,0-2.22-4.16,27.83,27.83,0,0,0-26-37.71,28,28,0,0,0-3.52.23,38.19,38.19,0,1,0-64.88,39.38,53.16,53.16,0,0,0-11.12-1.18c-26.2,0-47.44,18.89-47.44,42.2s21.24,42.2,47.44,42.2a52.73,52.73,0,0,0,15.14-2.21,52.65,52.65,0,0,0,47.11-1,27.82,27.82,0,0,0,32.89-5.12,28,28,0,0,0,4,.29,27.72,27.72,0,0,0,18.41-7A27.82,27.82,0,0,0,964,632.94a27.85,27.85,0,0,0,28.67-7.86,13,13,0,0,0,6.07-3.77,13,13,0,1,0,3.39-25.6Z"/><path id="_Trazado_6" data-name="&lt;Trazado&gt;" class="cls-1" d="M1154.9,625.45a28.85,28.85,0,0,1-54,14.09,28.43,28.43,0,0,1-8.46-.16,51.34,51.34,0,0,1-10.25,4.84c-8.52,13-24.36,21.77-42.52,21.77-27.16,0-49.18-19.59-49.18-43.75,0-18.59,13-34.47,31.44-40.8,8.52-13,24.36-21.77,42.52-21.77,16.79,0,31.6,7.49,40.48,18.91.69,0,1.39-.08,2.09-.08a28.86,28.86,0,0,1,27.22,19.28A28.86,28.86,0,0,1,1154.9,625.45Z"/><path id="_Trazado_7" data-name="&lt;Trazado&gt;" class="cls-2" d="M195.32,443.21a22.55,22.55,0,0,1-42.22,11,22.22,22.22,0,0,1-6.61-.13,40.13,40.13,0,0,1-8,3.78c-6.66,10.17-19,17-33.23,17-21.23,0-38.43-15.31-38.43-34.19,0-14.53,10.2-26.94,24.57-31.89,6.66-10.17,19-17,33.23-17,13.12,0,24.7,5.85,31.64,14.78.54,0,1.08-.07,1.63-.07a22.55,22.55,0,0,1,21.27,15.07A22.55,22.55,0,0,1,195.32,443.21Z"/></g></g></svg>