<?xml version="1.0" encoding="utf-8"?>
<!-- Generator: Adobe Illustrator 20.1.0, SVG Export Plug-In . SVG Version: 6.00 Build 0)  -->
<svg version="1.1" id="Capa_1" xmlns="http://www.w3.org/2000/svg" xmlns:xlink="http://www.w3.org/1999/xlink" x="0px" y="0px"
	 viewBox="0 0 1641 860.9" style="enable-background:new 0 0 1641 860.9;" xml:space="preserve">
<style type="text/css">
	.st0{display:none;}
	.st1{display:inline;fill:url(#XMLID_2_);}
	.st2{display:inline;}
	.st3{fill:#FFFFFF;}
	.st4{fill:none;stroke:#FFFFFF;stroke-width:0.5;stroke-miterlimit:10;}
	.st5{fill:none;stroke:#B9D8E4;stroke-linecap:round;stroke-miterlimit:10;stroke-dasharray:0,5.0219;}
	.st6{fill:none;stroke:#FFFFFF;stroke-linecap:round;stroke-miterlimit:10;stroke-dasharray:0,31.7666;}
	.st7{fill:none;stroke:#FFFFFF;stroke-miterlimit:10;}
	.st8{fill:none;stroke:#FFFFFF;stroke-width:0.25;stroke-miterlimit:10;}
	.st9{fill:none;stroke:#FFFFFF;stroke-linecap:round;stroke-miterlimit:10;stroke-dasharray:0,32;}
	.st10{fill:#005871;}
	.st11{fill:none;stroke:#007597;stroke-miterlimit:10;}
	.st12{fill:#439FBB;}
	.st13{fill:#B9D8E4;}
	.st14{display:inline;fill:#FFFFFF;}
	.st15{display:inline;fill:#EDE16B;}
	.st16{fill:#FBF6BB;}
	.st17{display:inline;opacity:0.54;fill:url(#XMLID_3_);enable-background:new    ;}
	.st18{opacity:0.3;fill:#7E9FB1;enable-background:new    ;}
	.st19{fill:#015E73;}
	.st20{fill:#FEA206;}
	.st21{fill:#EDE16B;}
	.st22{fill:none;stroke:#015E73;stroke-width:0.5;stroke-miterlimit:10;}
	.st23{fill:#FBF7BC;}
	.st24{opacity:0.54;fill:url(#XMLID_4_);enable-background:new    ;}
	.st25{fill:none;stroke:#E7EDF5;stroke-miterlimit:10;}
	.st26{fill:none;stroke:#EDE16B;stroke-width:0.5;stroke-miterlimit:10;}
	.st27{opacity:0.5;fill:#7E9FB1;enable-background:new    ;}
	.st28{display:inline;fill:none;stroke:#BE1E2D;stroke-width:3;stroke-miterlimit:10;}
	.st29{display:inline;opacity:0.54;fill:url(#XMLID_6_);enable-background:new    ;}
	.st30{display:inline;fill:none;stroke:#8DC63F;stroke-width:4;stroke-miterlimit:10;}
	.st31{opacity:0.54;fill:url(#XMLID_7_);enable-background:new    ;}
	.st32{opacity:0.5;fill:#BFE3ED;enable-background:new    ;}
</style>
<g id="_x34__xBA__fondo" class="st0">
	
		<linearGradient id="XMLID_2_" gradientUnits="userSpaceOnUse" x1="0" y1="429.87" x2="1641" y2="429.87" gradientTransform="matrix(1 0 0 -1 0 859.62)">
		<stop  offset="0" style="stop-color:#006D97"/>
		<stop  offset="0.1606" style="stop-color:#007597"/>
		<stop  offset="0.5017" style="stop-color:#439FBB"/>
		<stop  offset="0.8076" style="stop-color:#D6E9EE"/>
		<stop  offset="1" style="stop-color:#FBF7BC"/>
	</linearGradient>
	<rect id="XMLID_53_" y="-1.4" class="st1" width="1641" height="862.3"/>
	
		<text id="XMLID_232_" transform="matrix(1 0 0 1 206.7376 -170.4777)" class="st2" style="font-family:'MyriadPro-Regular'; font-size:25.1758px;">4º plano: color de fondo, se mueve horizontal igual que 3º pero en otra velocidad (pequeña diferencia)</text>
</g>
<g id="_x33_.2_xBA__sol_o_luna" class="st0">
	<g id="XMLID_227_" class="st2">
		<circle id="XMLID_31594_" class="st3" cx="1460.2" cy="300.1" r="50"/>
		<circle id="XMLID_31593_" class="st4" cx="1460.2" cy="300.1" r="58.1"/>
		<g id="XMLID_31590_">
			<circle id="XMLID_8815_" class="st5" cx="1460.2" cy="300.1" r="45.6"/>
		</g>
		<g id="XMLID_31587_">
			<circle id="XMLID_8761_" class="st6" cx="1460.2" cy="300.1" r="91"/>
		</g>
		<circle id="XMLID_31586_" class="st4" cx="1460.2" cy="300.1" r="86.9"/>
		<circle id="XMLID_31585_" class="st7" cx="1460.2" cy="300.1" r="110.9"/>
		<circle id="XMLID_31584_" class="st8" cx="1460.2" cy="300.1" r="106.3"/>
		<circle id="XMLID_31583_" class="st4" cx="1460.2" cy="300.1" r="162.3"/>
		<circle id="XMLID_31580_" class="st9" cx="1460.2" cy="300.1" r="239.3"/>
	</g>
	<g id="XMLID_228_" class="st2">
		<g id="XMLID_31611_">
			
				<ellipse id="XMLID_31614_" transform="matrix(0.4665 -0.8845 0.8845 0.4665 -174.9011 354.2912)" class="st10" cx="206.3" cy="322.1" rx="14.9" ry="14.9"/>
			
				<ellipse id="XMLID_31613_" transform="matrix(0.9553 -0.2956 0.2956 0.9553 -85.8587 75.0843)" class="st11" cx="205.4" cy="321.5" rx="28.5" ry="2.9"/>
			<path id="XMLID_31612_" class="st12" d="M192.6,328.1c4.1-1,8.7-2.3,13.6-3.8c5.4-1.7,10.4-3.4,14.6-5"/>
		</g>
		<circle id="XMLID_31453_" class="st13" cx="135.6" cy="151.9" r="24.1"/>
		<circle id="XMLID_31452_" class="st10" cx="146.9" cy="136.4" r="26.2"/>
		<circle id="XMLID_31451_" class="st10" cx="205.3" cy="180.5" r="8.5"/>
	</g>
</g>
<g id="_x33_.1_estrelllas_2" class="st0">
	<g id="XMLID_284_" class="st2">
		<line id="XMLID_286_" class="st7" x1="1144" y1="426.3" x2="1150.1" y2="426.3"/>
		<line id="XMLID_285_" class="st7" x1="1147" y1="423.2" x2="1147" y2="429.3"/>
	</g>
	<g id="XMLID_277_" class="st2">
		<line id="XMLID_279_" class="st7" x1="1294.6" y1="621" x2="1300.7" y2="621"/>
		<line id="XMLID_278_" class="st7" x1="1297.6" y1="617.9" x2="1297.6" y2="624"/>
	</g>
	<circle id="XMLID_275_" class="st14" cx="1195.4" cy="226.4" r="2.7"/>
	<g id="XMLID_273_" class="st2">
		<g>
			<path class="st3" d="M484,612.2c1.6,0,1.6-2.5,0-2.5C482.4,609.8,482.4,612.2,484,612.2L484,612.2z"/>
		</g>
	</g>
	<g id="XMLID_271_" class="st2">
		<g>
			<path class="st3" d="M547.6,248.8c1.6,0,1.6-2.5,0-2.5C546,246.2,546,248.8,547.6,248.8L547.6,248.8z"/>
		</g>
	</g>
	<g id="XMLID_270_" class="st2">
		<g>
			<path class="st3" d="M984.6,227.6c1.6,0,1.6-2.5,0-2.5S983,227.6,984.6,227.6L984.6,227.6z"/>
		</g>
	</g>
	<g id="XMLID_269_" class="st2">
		<g>
			<path class="st3" d="M979.1,202.8c1.6,0,1.6-2.5,0-2.5C977.5,200.2,977.5,202.8,979.1,202.8L979.1,202.8z"/>
		</g>
	</g>
	<g id="XMLID_265_" class="st2">
		<line id="XMLID_267_" class="st7" x1="11.1" y1="275.2" x2="17.2" y2="275.2"/>
		<line id="XMLID_266_" class="st7" x1="14.2" y1="272.2" x2="14.2" y2="278.3"/>
	</g>
	<g id="XMLID_262_" class="st2">
		<line id="XMLID_264_" class="st7" x1="71.1" y1="220.2" x2="77.1" y2="220.2"/>
		<line id="XMLID_263_" class="st7" x1="74.1" y1="217.2" x2="74.1" y2="223.3"/>
	</g>
	<g id="XMLID_259_" class="st2">
		<line id="XMLID_261_" class="st7" x1="96.5" y1="264.7" x2="102.6" y2="264.7"/>
		<line id="XMLID_260_" class="st7" x1="99.6" y1="261.7" x2="99.6" y2="267.7"/>
	</g>
	<g id="XMLID_253_" class="st2">
		<line id="XMLID_255_" class="st7" x1="31.7" y1="541.8" x2="37.8" y2="541.8"/>
		<line id="XMLID_254_" class="st7" x1="34.7" y1="538.8" x2="34.7" y2="544.8"/>
	</g>
	<g id="XMLID_250_" class="st2">
		<line id="XMLID_252_" class="st7" x1="98.5" y1="646.9" x2="104.5" y2="646.9"/>
		<line id="XMLID_251_" class="st7" x1="101.5" y1="643.9" x2="101.5" y2="649.9"/>
	</g>
	<g id="XMLID_247_" class="st2">
		<line id="XMLID_249_" class="st7" x1="90" y1="624" x2="96" y2="624"/>
		<line id="XMLID_248_" class="st7" x1="93" y1="621" x2="93" y2="627"/>
	</g>
	<g id="XMLID_241_" class="st2">
		<line id="XMLID_243_" class="st7" x1="412.6" y1="271.1" x2="418.6" y2="271.1"/>
		<line id="XMLID_242_" class="st7" x1="415.6" y1="268.1" x2="415.6" y2="274.1"/>
	</g>
	<g id="XMLID_238_" class="st2">
		<line id="XMLID_240_" class="st7" x1="455.3" y1="171.3" x2="461.4" y2="171.3"/>
		<line id="XMLID_239_" class="st7" x1="458.3" y1="168.2" x2="458.3" y2="174.3"/>
	</g>
	<g id="XMLID_113_" class="st2">
		<line id="XMLID_229_" class="st7" x1="132.3" y1="436.1" x2="138.3" y2="436.1"/>
		<line id="XMLID_114_" class="st7" x1="135.3" y1="433" x2="135.3" y2="439.1"/>
	</g>
	<g id="XMLID_5_" class="st2">
		<g>
			<path class="st3" d="M31.7,109.4c1.6,0,1.6-2.5,0-2.5C30.1,106.9,30.1,109.4,31.7,109.4L31.7,109.4z"/>
		</g>
	</g>
</g>
<g id="_x33_.1.3" class="st0">
	<g id="XMLID_313_" class="st2">
		<line id="XMLID_315_" class="st7" x1="1144" y1="426.3" x2="1150.1" y2="426.3"/>
		<line id="XMLID_314_" class="st7" x1="1147" y1="423.2" x2="1147" y2="429.3"/>
	</g>
	<g id="XMLID_308_" class="st2">
		<g>
			<path class="st3" d="M484,612.2c1.6,0,1.6-2.5,0-2.5C482.4,609.8,482.4,612.2,484,612.2L484,612.2z"/>
		</g>
	</g>
	<g id="XMLID_307_" class="st2">
		<g>
			<path class="st3" d="M547.6,248.8c1.6,0,1.6-2.5,0-2.5C546,246.2,546,248.8,547.6,248.8L547.6,248.8z"/>
		</g>
	</g>
	<g id="XMLID_306_" class="st2">
		<g>
			<path class="st3" d="M984.6,227.6c1.6,0,1.6-2.5,0-2.5S983,227.6,984.6,227.6L984.6,227.6z"/>
		</g>
	</g>
	<g id="XMLID_305_" class="st2">
		<g>
			<path class="st3" d="M979.1,202.8c1.6,0,1.6-2.5,0-2.5C977.5,200.2,977.5,202.8,979.1,202.8L979.1,202.8z"/>
		</g>
	</g>
	<g id="XMLID_298_" class="st2">
		<line id="XMLID_301_" class="st7" x1="71.1" y1="220.2" x2="77.1" y2="220.2"/>
		<line id="XMLID_300_" class="st7" x1="74.1" y1="217.2" x2="74.1" y2="223.3"/>
	</g>
	<g id="XMLID_291_" class="st2">
		<line id="XMLID_294_" class="st7" x1="96.5" y1="264.7" x2="102.6" y2="264.7"/>
		<line id="XMLID_293_" class="st7" x1="99.6" y1="261.7" x2="99.6" y2="267.7"/>
	</g>
	<g id="XMLID_288_" class="st2">
		<line id="XMLID_290_" class="st7" x1="31.7" y1="541.8" x2="37.8" y2="541.8"/>
		<line id="XMLID_289_" class="st7" x1="34.7" y1="538.8" x2="34.7" y2="544.8"/>
	</g>
	<g id="XMLID_282_" class="st2">
		<line id="XMLID_287_" class="st7" x1="98.5" y1="646.9" x2="104.5" y2="646.9"/>
		<line id="XMLID_283_" class="st7" x1="101.5" y1="643.9" x2="101.5" y2="649.9"/>
	</g>
	<g id="XMLID_256_" class="st2">
		<line id="XMLID_258_" class="st7" x1="455.3" y1="171.3" x2="461.4" y2="171.3"/>
		<line id="XMLID_257_" class="st7" x1="458.3" y1="168.2" x2="458.3" y2="174.3"/>
	</g>
</g>
<g id="_x33_.1.4" class="st0">
	<g id="XMLID_337_" class="st2">
		<line id="XMLID_339_" class="st7" x1="1294.6" y1="621" x2="1300.7" y2="621"/>
		<line id="XMLID_338_" class="st7" x1="1297.6" y1="617.9" x2="1297.6" y2="624"/>
	</g>
	<g id="XMLID_335_" class="st2">
		<g>
			<path class="st3" d="M484,612.2c1.6,0,1.6-2.5,0-2.5C482.4,609.8,482.4,612.2,484,612.2L484,612.2z"/>
		</g>
	</g>
	<g id="XMLID_334_" class="st2">
		<g>
			<path class="st3" d="M547.6,248.8c1.6,0,1.6-2.5,0-2.5C546,246.2,546,248.8,547.6,248.8L547.6,248.8z"/>
		</g>
	</g>
	<g id="XMLID_333_" class="st2">
		<g>
			<path class="st3" d="M984.6,227.6c1.6,0,1.6-2.5,0-2.5S983,227.6,984.6,227.6L984.6,227.6z"/>
		</g>
	</g>
	<g id="XMLID_329_" class="st2">
		<line id="XMLID_331_" class="st7" x1="11.1" y1="275.2" x2="17.2" y2="275.2"/>
		<line id="XMLID_330_" class="st7" x1="14.2" y1="272.2" x2="14.2" y2="278.3"/>
	</g>
	<g id="XMLID_323_" class="st2">
		<line id="XMLID_325_" class="st7" x1="96.5" y1="264.7" x2="102.6" y2="264.7"/>
		<line id="XMLID_324_" class="st7" x1="99.6" y1="261.7" x2="99.6" y2="267.7"/>
	</g>
	<g id="XMLID_310_" class="st2">
		<line id="XMLID_312_" class="st7" x1="98.5" y1="646.9" x2="104.5" y2="646.9"/>
		<line id="XMLID_311_" class="st7" x1="101.5" y1="643.9" x2="101.5" y2="649.9"/>
	</g>
</g>
<g id="_x32_.3_xBA__mundo" class="st0">
	<circle id="XMLID_65_" class="st15" cx="775.1" cy="1390.9" r="781.1"/>
	<g id="XMLID_100_" class="st2">
		<path class="st16" d="M1556.2,1390.9c0-431.4-349.7-781.1-781.1-781.1c-38.8,0-76.9,2.8-114.2,8.3c-11.5,7.2-21.5,17-28.7,28.5
			c89.9,11.8,177.6,40.4,257.3,83.7c10.9,5.9,23.1,14.3,23.5,26.7c0.6,14.4-14.6,23.8-28,29c-61.5,23.9-128.8,27.1-193.1,41.6
			s-130.8,44.7-161.7,102.9c-11.4,21.5-17.1,48.1-6.4,70c5.8,11.9,15.8,21.2,26.7,28.6c58.9,40.1,140.8,29.8,201.3,67.4
			c6.4,4,12.8,8.8,15.9,15.7c6.7,14.9-4.3,31.6-16,42.9c-52.6,51.1-127.9,69.6-191.9,105.4c-11.2,6.2-23.6,16-21.7,28.7
			c1.3,8.9,9.3,15.1,16.9,20c94.8,61.5,213.8,75.8,326.2,63.8c112.3-12,220.4-48.2,328.5-81c5.8-1.8,12.1-3.5,17.7-1.2
			c5.5,2.3,8.8,7.9,11.1,13.5c22.6,55-18.8,115.9-66.4,151.4s-105.5,61.3-137.8,111.2c-4.8,7.5-9.1,15.6-9.8,24.5
			c-2.8,35.3,44,48.6,71.9,70.4c38.6,30.1,43.3,85.2,53.1,133.2c16,78.9,53.1,151.6,91.7,222.5
			C1432.4,1875.3,1556.2,1647.6,1556.2,1390.9z"/>
	</g>
	<g id="XMLID_73_" class="st2">
		<path class="st16" d="M444.2,2031.7c-9-10.2-22.4-14.9-34.5-21.2c-36.9-19-62.8-53.7-86.8-87.6c-26.2-36.8-51.8-74-77.5-111.2
			c-31.3-45.4-62.6-90.8-94-136.3c-4.7-6.8-9.4-13.7-12-21.5c-7.4-22.8,5.3-47.5,22.1-64.6s38-29.5,53.9-47.4s25.9-44.6,14.8-65.9
			c-9-17.2-28.6-25.5-46.7-32.6c-40.8-15.8-81.6-31.5-122.4-47.3c-6.2-2.4-12.9-5.2-15.9-11.1c-2.2-4.3-2-9.5-1.7-14.3
			c2.3-30.6,8.6-60.8,11-91.5c1.1-14.5,0.8-30.5-8.8-41.3c-9.7-10.8-31.7-9.8-35.1,4.3l-2.8,1.5C-1.3,1291.3-6,1340.5-6,1390.8
			c0,315.8,187.4,587.8,457.1,710.9c4.1-11.9,5.9-24.5,5-37.3C455.3,2052.7,452,2040.6,444.2,2031.7z"/>
	</g>
</g>
<g id="_x32_.2_xBA__sombra_mundo" class="st0">
	
		<linearGradient id="XMLID_3_" gradientUnits="userSpaceOnUse" x1="758.1769" y1="-489.0676" x2="499.0278" y2="157.3493" gradientTransform="matrix(1 0 0 -1 0 859.62)">
		<stop  offset="0.7522" style="stop-color:#FFFFFF"/>
		<stop  offset="0.9222" style="stop-color:#7BBBCF"/>
		<stop  offset="1" style="stop-color:#439FBB"/>
	</linearGradient>
	<circle id="XMLID_72_" class="st17" cx="775.1" cy="1390.9" r="781.1"/>
</g>
<g id="_x32_.1_xBA__Niños" class="st0">
	
		<text id="XMLID_71_" transform="matrix(1 0 0 1 206.7376 -315.8312)" class="st2" style="font-family:'MyriadPro-Regular'; font-size:25.1758px;">2º plano: La tierra rota un poco(max 20º de cada lado) , con el punto de rotación en medio del mundo.  La rotar se muestran niños de más abajo.. </text>
	<g id="XMLID_660_" class="st2">
		<g id="XMLID_907_">
			<ellipse id="XMLID_923_" class="st18" cx="1275.2" cy="990.1" rx="14.9" ry="3.9"/>
			<g id="XMLID_908_">
				<path id="XMLID_922_" class="st19" d="M1266,973.7l2.7,12.5c-0.1,0-0.3,0-0.4,0c-2.8,1.2-0.8,4-0.8,4h5.5l0.4-2.7l0.9-13.8H1266
					z"/>
				<path id="XMLID_921_" class="st19" d="M1273.4,973.7l2.7,12.5c-0.1,0-0.3,0-0.4,0c-2.8,1.2-0.8,4-0.8,4h5.5l0.4-2.7l0.9-13.8
					H1273.4z"/>
				<path id="XMLID_920_" class="st12" d="M1287.3,973.7h-26.1l7.8-33.2c0,0,1.4-3,6.4-3s6.7,3,6.7,3L1287.3,973.7z"/>
				<g id="XMLID_914_">
					
						<ellipse id="XMLID_919_" transform="matrix(0.4881 -0.8728 0.8728 0.4881 -154.8183 1586.3326)" class="st3" cx="1274.9" cy="925.1" rx="15.5" ry="15.5"/>
					<path id="XMLID_918_" class="st19" d="M1290.5,927.7c0.2-1.5,0.3-2.9,0.1-4.4c0-0.1,0-0.2,0-0.4c0,0,0,0,0-0.1
						c-0.6-4.1-2.7-7.8-5.9-10.2c-0.2-0.2-0.5-0.3-0.7-0.5l-0.4-0.3l0,0c-0.3-0.2-0.6-0.3-0.8-0.5c-1.3-0.7-2.8-1.3-4.4-1.6
						c-6.2-1.3-12.5,1.2-16,6c-0.3-0.6-0.5-1.2-0.6-1.8l-2.2,0.4c0.8,4.1,11.9,21.4,24.6,16c1.2,3.8,5.6,1.5,5.6,1.5L1290.5,927.7z"
						/>
					<path id="XMLID_917_" class="st19" d="M1264.2,930.1c-2.5-1.6-2.3-3.9-1.8-4.9l1.1,0.6c-0.1,0.2-0.8,1.9,1.3,3.2
						c2.1,1.4,3.4,0,3.5-0.1l1,0.8C1268.7,930.6,1266.7,931.8,1264.2,930.1z"/>
					<path id="XMLID_916_" class="st19" d="M1289.8,919.3c0.4-0.6,0.8-0.2,0.7-1.1c-0.1-0.8-0.2-1.6-0.8-2.2
						c-0.4-0.4-1.3-1.4-1.9-1.5s-0.9,0.5-1.4,0.7c0.8,1.2,1.2,2.4,1.9,3.6c0.4,0.7,0.6,0.8,1.3,0.6"/>
					<polygon id="XMLID_915_" class="st19" points="1288.4,915.4 1293.6,907.5 1297.6,916.3 1289.9,918.1 					"/>
				</g>
				<path id="XMLID_913_" class="st3" d="M1257.5,958.4c-0.1,0.3-0.2,0.6-0.3,1c-0.8,1.6-3,6.4-5.3,5c-1.4-0.9-0.9-6-0.1-7.6
					c0.2-0.3,0.3-0.6,0.6-0.8L1257.5,958.4z"/>
				<path id="XMLID_912_" class="st3" d="M1252.3,955.8l-3.6,1.4c-1.3,0.2-1.2,1.5-0.4,1.8c0.9,0.2,4.1,0.5,4.1,0.5L1252.3,955.8z"
					/>
				<polygon id="XMLID_911_" class="st19" points="1268.7,941.8 1251.9,956 1257,960.2 1265.9,953.5 				"/>
				<path id="XMLID_910_" class="st3" d="M1298.5,954.5l3.6,1.4c1.3,0.2,1.2,1.5,0.4,1.8c-0.5,0.1-1.8,0.3-2.8,0.4
					c0.3,2,0.2,4.4-0.8,5c-2.3,1.4-4.5-3.4-5.3-5c-0.2-0.3-0.3-0.6-0.3-1L1298.5,954.5z"/>
				<polygon id="XMLID_909_" class="st19" points="1282.2,940.4 1299,954.6 1293.9,958.8 1284.3,953.5 				"/>
			</g>
		</g>
		<g id="XMLID_891_">
			<ellipse id="XMLID_906_" class="st18" cx="798" cy="720.4" rx="19.5" ry="5"/>
			<g id="XMLID_892_">
				<path id="XMLID_905_" class="st19" d="M793.8,703l2.8,14.7c-0.1,0-0.3,0-0.4,0c-3.9,0-4.4,2.9-4.4,2.9h9.4l0.4-2.9l2.8-14.7
					H793.8z"/>
				<polygon id="XMLID_904_" class="st19" points="795,669.4 769.6,672.5 771.8,678.8 794.1,680.8 				"/>
				<path id="XMLID_903_" class="st20" d="M809.9,703h-22.4l2.5-33.6c0,0,3.5-3.9,9.7-3.9c4.3,0,5.7,3.2,5.7,3.2L809.9,703z"/>
				<path id="XMLID_902_" class="st3" d="M813.8,693.5c0.2,0.4,0.3,0.8,0.4,1.2c0.4,2.3-1,4.4-3.1,4.8s-4.1-1.2-4.5-3.5
					c-0.1-0.4-0.1-0.9,0-1.3L813.8,693.5z"/>
				<polygon id="XMLID_901_" class="st20" points="805.4,668.7 813.6,693.5 807.3,694.7 				"/>
				<g id="XMLID_894_">
					
						<ellipse id="XMLID_900_" transform="matrix(0.4881 -0.8728 0.8728 0.4881 -159.1155 1029.9624)" class="st3" cx="798.5" cy="650.6" rx="16.6" ry="16.6"/>
					<path id="XMLID_899_" class="st19" d="M815.2,653.4c0.3-1.6,0.3-3.1,0.1-4.7c0-0.1,0-0.3,0-0.4c0,0,0,0,0-0.1
						c-0.6-4.3-2.9-8.3-6.3-10.9c-0.2-0.2-0.5-0.4-0.7-0.5l-0.4-0.3l0,0c-0.3-0.2-0.6-0.4-0.9-0.5c-1.4-0.8-3-1.4-4.7-1.7
						c-6.7-1.4-13.3,1.2-17.1,6.4c-0.3-0.6-0.5-1.2-0.7-1.9l-2.3,0.5c0.9,4.4,4.2,7.2,9.8,8.4c4.8,1,9.8-0.1,13.6-3
						c1.3,4.1,4.1,7.6,7.9,9.7l1.5,0.8L815.2,653.4z"/>
					<path id="XMLID_898_" class="st19" d="M791.1,654.2c-3.1-0.7-3.7-3-3.6-4.2l1.3,0.1c0,0.2-0.1,2.2,2.5,2.7
						c2.7,0.6,3.4-1.2,3.4-1.5l1.3,0.4C795.7,652.9,794.2,654.9,791.1,654.2z"/>
					<path id="XMLID_897_" class="st19" d="M803.5,656.8c-3.1-0.7-3.7-3-3.6-4.2l1.3,0.1c0,0.2-0.1,2.2,2.5,2.7
						c2.7,0.6,3.4-1.2,3.4-1.5l1.3,0.4C808.1,655.6,806.6,657.5,803.5,656.8z"/>
					<path id="XMLID_896_" class="st19" d="M814.4,644.4c0.5-0.7,0.9-0.2,0.8-1.1c-0.1-0.9-0.2-1.7-0.8-2.3c-0.4-0.4-1.4-1.5-2-1.6
						s-1,0.6-1.5,0.8c0.8,1.2,1.3,2.6,2,3.8c0.4,0.7,0.6,0.8,1.4,0.7"/>
					<polygon id="XMLID_895_" class="st19" points="812.2,640.2 818.8,631.2 822.8,642 814.2,643.4 					"/>
				</g>
				<path id="XMLID_893_" class="st3" d="M769.6,672.5c0,0-7-0.4-8.5-0.6c-1.5-0.2-1.4,1.9,0.9,2.5c2.3,0.6,2.9,0.9,2.9,0.9
					c-1.1,1.4,0,4,1.4,4.5s3.7,0.6,4.4,0s1.1-1.1,1.1-1.1L769.6,672.5z"/>
			</g>
		</g>
		<g id="XMLID_877_">
			<ellipse id="XMLID_890_" class="st18" cx="914.1" cy="692" rx="21.9" ry="6.5"/>
			<path id="XMLID_889_" class="st19" d="M905.6,670.7l7.8,17.8c-0.1,0-0.3,0-0.4,0c-4,0-4.5,2.3-4.5,2.3h7.3l3-3.7l-0.3-1.6
				l-2.4-14.9h-10.5V670.7z"/>
			<path id="XMLID_888_" class="st19" d="M917.4,679.7l10.8-1.4c0,0-0.8,4.9,1.4,5.3l2-9.7h-3.8h-7.6l1-4.3h-7.8L917.4,679.7z"/>
			<path id="XMLID_887_" class="st12" d="M908.7,635.8c0,0,12.3-1.6,13.7-0.2c1.3,1.3,4.8,8.3,5.9,14.9c1.1,6.6,1.5,20,1.5,20
				s-7.2,2.9-19.5,1.9c-6.9-0.6-11.7-3.2-14.1-4.4C905,636.9,908.7,635.8,908.7,635.8z"/>
			<path id="XMLID_886_" class="st21" d="M908.9,637.7c-2.3,2.3-2.3,6.1,0,8.5l21.1,18.1l5.5-5.5l-18.1-21.1
				C915,635.4,911.2,635.4,908.9,637.7z"/>
			<g id="XMLID_883_">
				<path id="XMLID_885_" class="st3" d="M924.3,605.9c-8.2-4.4-18.4-1.4-22.8,6.8c-1.6,2.9-2.2,6.1-2,9.2c0.2,0.3,0.5,0.5,0.9,0.8
					c2.2,1.5,3.3,0.4,3.5,0.3l1,0.9c-0.7,0.7-2.6,1.6-5.1-0.2l0,0c0.9,4.9,3.9,9.4,8.6,12c8.2,4.4,18.4,1.4,22.8-6.8
					C935.6,620.6,932.5,610.3,924.3,605.9z"/>
				<path id="XMLID_884_" class="st19" d="M904.8,623.9l-1-0.9c-0.1,0.1-1.3,1.3-3.5-0.3c-0.4-0.3-0.6-0.5-0.9-0.8
					c0,0.6,0.1,1.1,0.2,1.7l0,0C902.3,625.5,904.2,624.6,904.8,623.9z"/>
			</g>
			<path id="XMLID_882_" class="st19" d="M909.6,631.4c-2.6-1.9-2.2-4.3-1.7-5.3l1.2,0.7c-0.1,0.2-1,1.9,1.3,3.5
				c2.2,1.6,3.6,0.2,3.7,0l1,0.9C914.4,632.1,912.2,633.3,909.6,631.4z"/>
			<path id="XMLID_881_" class="st3" d="M935.3,658.9c0.4,0.2,0.7,0.5,1,0.8c1.7,1.7,1.8,4.3,0.3,5.8c-1.5,1.6-4.1,1.5-5.8-0.2
				c-0.3-0.3-0.6-0.7-0.8-1L935.3,658.9z"/>
			<path id="XMLID_880_" class="st19" d="M933.2,623.5c0.2-1.2,0.3-3.5,0.1-5c0-0.1,0-0.3-0.1-0.4V618c-0.7-4.4-3.1-8.4-6.6-11
				c-0.2-0.2-0.5-0.4-0.8-0.5l-0.4-0.3l0,0c-0.3-0.2-0.6-0.4-0.9-0.5c-1.5-0.8-3.1-1.4-4.8-1.7c-6.8-1.3-13.5,1.5-17.2,6.8
				c-0.3-0.6-0.6-1.2-0.7-2l-2.3,0.5c0.9,4.4,2.7,6.9,3.7,8.4c8.5,13.1,22.7,13.6,27.6,12.3C931.4,629.8,932.9,625.2,933.2,623.5z"
				/>
			<path id="XMLID_879_" class="st19" d="M931.2,615.2c-0.9-1.6-1.5-3.3-2.6-4.9c0.6-0.3,1.1-1.1,1.9-1c0.7,0.1,2,1.6,2.5,2.1
				c0.8,0.8,0.9,1.8,1,3s-0.4,1.1-1,1.5C932.5,616.2,931.8,616.1,931.2,615.2z"/>
			<polygon id="XMLID_878_" class="st19" points="929.8,611.2 938.6,600.5 943.5,612.9 932.1,614.9 			"/>
		</g>
		<g id="XMLID_863_">
			<ellipse id="XMLID_876_" class="st18" cx="1340.1" cy="988.5" rx="20.4" ry="6"/>
			<path id="XMLID_875_" class="st19" d="M1332.2,968.7l7.2,16.6c-0.1,0-0.3,0-0.4,0c-3.7,0-4.2,2.2-4.2,2.2h6.8l2.8-3.4l-0.3-1.5
				l-2.2-13.9L1332.2,968.7L1332.2,968.7z"/>
			<path id="XMLID_874_" class="st19" d="M1343.2,977l10-1.3c0,0-0.7,4.5,1.3,4.9l1.9-9h-3.5h-7l0.9-4h-7.2L1343.2,977z"/>
			<path id="XMLID_873_" class="st12" d="M1335.1,936.3c0,0,11.4-1.5,12.7-0.2c1.3,1.2,4.4,7.7,5.5,13.8s1.4,18.6,1.4,18.6
				s-6.7,2.7-18.1,1.7c-6.4-0.5-10.8-3-13-4.1C1331.7,937.4,1335.1,936.3,1335.1,936.3z"/>
			<path id="XMLID_872_" class="st21" d="M1340.6,938c-2.1-2.2-5.6-2.3-7.9-0.2l-17.4,19.1l5,5.3l20-16.3
				C1342.6,943.8,1342.7,940.3,1340.6,938z"/>
			<g id="XMLID_869_">
				<path id="XMLID_871_" class="st3" d="M1349.6,908.5c-7.6-4.1-17.1-1.3-21.2,6.3c-1.5,2.7-2,5.7-1.8,8.5c0.2,0.2,0.5,0.5,0.8,0.7
					c2,1.4,3.1,0.4,3.2,0.3l0.9,0.8c-0.6,0.7-2.4,1.5-4.8-0.2l0,0c0.8,4.6,3.6,8.7,8,11.1c7.6,4.1,17.1,1.3,21.2-6.3
					C1360,922.1,1357.2,912.6,1349.6,908.5z"/>
				<path id="XMLID_870_" class="st19" d="M1331.5,925.2l-0.9-0.8c-0.1,0.1-1.2,1.2-3.2-0.3c-0.3-0.2-0.6-0.5-0.8-0.7
					c0,0.5,0.1,1.1,0.2,1.6l0,0C1329.1,926.7,1330.9,925.9,1331.5,925.2z"/>
			</g>
			<path id="XMLID_868_" class="st19" d="M1335.9,932.2c-2.5-1.7-2.1-4-1.5-4.9l1.1,0.6c-0.1,0.2-0.9,1.8,1.2,3.3s3.3,0.2,3.5,0
				l1,0.8C1340.4,932.9,1338.4,934,1335.9,932.2z"/>
			<path id="XMLID_867_" class="st3" d="M1320.3,962c-0.2,0.3-0.4,0.7-0.7,1c-1.6,1.5-4,1.6-5.4,0.1s-1.2-3.9,0.3-5.4
				c0.3-0.3,0.6-0.5,1-0.7L1320.3,962z"/>
			<path id="XMLID_866_" class="st19" d="M1357.9,924.9c0.2-1.1,0.3-3.2,0.1-4.7c0-0.1,0-0.2,0-0.4c0,0,0,0,0-0.1
				c-0.6-4.1-2.9-7.8-6.1-10.2c-0.2-0.2-0.5-0.3-0.7-0.5l-0.4-0.3l0,0c-0.3-0.2-0.6-0.3-0.8-0.5c-1.4-0.7-2.8-1.3-4.4-1.6
				c-6.3-1.2-12.5,1.4-16,6.3c-0.3-0.6-0.5-1.2-0.7-1.8l-2.2,0.5c0.9,4.1,2.5,6.4,3.4,7.8c7.9,12.2,21.1,12.6,25.6,11.4
				C1356.1,930.7,1357.6,926.5,1357.9,924.9z"/>
			<path id="XMLID_865_" class="st19" d="M1356,917.2c-0.9-1.5-1.4-3.1-2.4-4.6c0.6-0.3,1-1.1,1.7-0.9c0.7,0.1,1.9,1.5,2.4,1.9
				c0.8,0.8,0.9,1.7,1,2.8s-0.4,1-0.9,1.4S1356.5,918,1356,917.2z"/>
			<polygon id="XMLID_864_" class="st19" points="1354.7,913.4 1362.8,903.5 1367.4,915 1356.9,916.9 			"/>
		</g>
		<g id="XMLID_853_">
			<path id="XMLID_862_" class="st22" d="M935.2,662.7c0,0,21.5-6.6,39.1-22.3c63.6-56.5,89.7-254,89.7-254"/>
			<line id="XMLID_861_" class="st22" x1="1064" y1="386.4" x2="1061.1" y2="352.9"/>
			<line id="XMLID_860_" class="st22" x1="1064" y1="386.4" x2="1072.4" y2="365.8"/>
			<polygon id="XMLID_859_" class="st23" points="1061.1,352.9 1072.4,365.8 1121.4,378.8 1089.7,354.5 			"/>
			
				<linearGradient id="XMLID_4_" gradientUnits="userSpaceOnUse" x1="1093.0022" y1="497.8963" x2="1088.4263" y2="487.1206" gradientTransform="matrix(1 0 0 -1 0 859.62)">
				<stop  offset="0" style="stop-color:#FFFFFF"/>
				<stop  offset="0.686" style="stop-color:#7BBBCF"/>
				<stop  offset="1" style="stop-color:#439FBB"/>
			</linearGradient>
			<polygon id="XMLID_858_" class="st24" points="1061.1,352.9 1072.4,365.8 1121.4,378.8 1089.7,354.5 			"/>
			<path id="XMLID_857_" class="st25" d="M1120.8,378.5c1.7-0.2,4.9-0.5,6.3,0.6s1.3,3.8,2.7,5.3c2.1,2.1,4.4-1.1,7.2,0.1
				c1.9,0.9,1.1,3.8,3.8,4"/>
			<path id="XMLID_856_" class="st25" d="M1120.9,378.6c1.7,3.2,1.3,4.2,4.7,6.6c1.6,1,3.1,0.7,4.7,2c1.5,1.5,1.5,3.7,3.8,4.5"/>
			<path id="XMLID_855_" class="st25" d="M1121,379c5.6,5.9,7.4-1.8,11-0.4c2.9,1.2,5.2,5,8.9,3.5"/>
			<line id="XMLID_854_" class="st22" x1="1064" y1="386.4" x2="1089.7" y2="354.5"/>
		</g>
		
			<ellipse id="XMLID_852_" transform="matrix(0.1218 -0.9926 0.9926 0.1218 209.7924 1870.9867)" class="st18" cx="1162.2" cy="816.9" rx="5.3" ry="20.6"/>
		<g id="XMLID_840_">
			<ellipse id="XMLID_851_" class="st18" cx="1121.6" cy="815.8" rx="27" ry="5.5"/>
			<path id="XMLID_850_" class="st19" d="M1141.4,808.1l-14.4,2c-5.6-4.1-14.8-8.7-14.8-8.7s-3.4-0.2-5.2,0.8
				c-1.8,1.1-6.7,13.1,16.2,14.4c1.8,0.1,3.3,0.1,4.4,0c1,0,2.1,0,3.2-0.1C1136.8,816.2,1142,813.4,1141.4,808.1z"/>
			<g id="XMLID_845_">
				<polygon id="XMLID_849_" class="st3" points="1083.5,772.3 1092.5,775.8 1099.2,769.4 1106.2,773.6 1111.8,768.8 1124.2,794.9 
					1099.2,804.3 				"/>
				<line id="XMLID_848_" class="st26" x1="1092.5" y1="775.8" x2="1105.4" y2="802"/>
				<line id="XMLID_847_" class="st26" x1="1099.2" y1="769.4" x2="1112.7" y2="799.2"/>
				<line id="XMLID_846_" class="st26" x1="1106.2" y1="773.6" x2="1117.9" y2="797.3"/>
			</g>
			<path id="XMLID_844_" class="st3" d="M1120.5,772.3c-7.9-3.1-13.1-9.5-13.8-15.9c-3.5,8.5,0,18.5,8.4,22.8
				c8.7,4.5,19.4,1.2,24.1-7.5C1134.2,774.5,1127.2,774.9,1120.5,772.3z"/>
			<path id="XMLID_843_" class="st19" d="M1105.3,749l2.7,0.7c-0.4,1.5-0.5,3.1-0.4,4.8c4.7-8.5,15.4-11.7,24-7.2
				c8.8,4.6,12.3,15.5,7.7,24.3c0,0.1-1.5,2.4-1.5,2.4c-7.5,8.3-10.9,7.8-19.7,2.6c-3.6-2.1-6.3-5.6-8.2-9.2
				C1105.7,761.7,1103.8,754.9,1105.3,749z"/>
			<path id="XMLID_842_" class="st3" d="M1102,804.3c-0.3,0.3-0.7,0.6-1.1,0.8c-2.2,1.1-4.8,0.4-5.9-1.7c-1-2-0.1-4.6,2.2-5.7
				c0.4-0.2,0.9-0.4,1.3-0.4L1102,804.3z"/>
			<path id="XMLID_841_" class="st20" d="M1143.1,807.9c0,0-6.3-23.3-6.8-25.2c-0.5-1.8-3.1-5.2-12.4-5.2c-1.5,0-2.9,0.5-4.1,1.2
				h-0.1c-4.3,2-21.3,18.6-21.3,18.6l3.7,6.9l11-7.5l-2.8,15.6L1143.1,807.9z"/>
		</g>
		<g id="XMLID_829_">
			<g id="XMLID_837_">
				<path id="XMLID_839_" class="st3" d="M463.2,621.7c-2.1,0.1-6.4-1-10.6-4.3c-2.2-1.8-3.5-4.4-4.1-6.5c-7.4,5.7-9.2,16.2-4,24.1
					c4.8,7.2,13.7,9.8,21.4,6.8C457.1,635.6,460.1,626.2,463.2,621.7z"/>
				<path id="XMLID_838_" class="st19" d="M474.4,615.1c-5.5-8.3-16.6-10.5-24.9-5c-0.4,0.2-0.7,0.5-1.1,0.8
					c0.7,2.1,1.9,4.7,4.1,6.5c4.2,3.4,8.5,4.4,10.6,4.3c-3.1,4.5-6,13.9,2.8,20.1c1.2-0.5,2.3-1,3.4-1.8
					C477.6,634.5,479.9,623.4,474.4,615.1z"/>
			</g>
			<ellipse id="XMLID_836_" class="st18" cx="457" cy="702.7" rx="29.3" ry="7.6"/>
			<path id="XMLID_835_" class="st19" d="M446,682.6l4.9,17.3c-0.2,0-0.4,0-0.5,0c-4.6,0-5.2,3.4-5.2,3.4h11.1l0.4-3.4l0.3-17.3H446
				z"/>
			<path id="XMLID_834_" class="st19" d="M454.4,681.2l4.9,17.3c-0.2,0-0.3,0-0.5,0c-4.6,0-5.2,3.4-5.2,3.4h11.1l0.4-3.4l1-17.3
				H454.4z"/>
			<path id="XMLID_833_" class="st19" d="M446.7,623.5c-2.7-2.2-2.1-4.7-1.4-5.7l1.2,0.8c-0.1,0.2-1.2,2,1.1,3.8
				c2.3,1.8,3.8,0.5,4,0.3l1,1C451.7,624.6,449.3,625.7,446.7,623.5z"/>
			<path id="XMLID_832_" class="st3" d="M439.4,614L439.4,614l-0.1-0.2c-0.1-0.2-0.1-0.3-0.2-0.5s-0.2-0.3-0.3-0.4l-2.9-6.2
				c-0.4-1.1-1.1-1.7-1.8-1.3c-0.7,0.4-0.7,1.9-0.7,2.5c0,0.5,0.1,1.6,0.2,2.3c-0.4,0.1-0.8,0.2-1.2,0.3c-2.5,1.1-3.5,4.2-2.2,6.9
				c0.2,0.5,0.5,1,0.9,1.4l8.5-3.9C439.5,614.6,439.4,614.3,439.4,614z"/>
			<path id="XMLID_831_" class="st20" d="M438.2,612.9l11.8,26.9c0,0,12.1-0.4,13.7,1.2c1.6,1.5,5.5,9.6,6.9,17.2
				c1.3,7.6,1.7,23.2,1.7,23.2s-8.3,3.4-22.6,2.2c-7.9-0.7-13.5-3.7-16.3-5.1c1-4,7.7-20.3,7.7-20.3l-11.5-40.7L438.2,612.9z"/>
			<path id="XMLID_830_" class="st19" d="M448.4,610.9c-0.8-2.5,0.2-5.9,1.1-6.6l1.2,1c-0.8,1.6-0.9,4.5,0,4.6
				S448.4,610.9,448.4,610.9z"/>
		</g>
		<g id="XMLID_813_">
			<path id="XMLID_828_" class="st19" d="M1162.4,791.9l3.1,14.5c-0.2,0-0.3-0.1-0.5,0c-3.2,1.4-1,4.6-1,4.6h6.3l0.4-3.1l1.1-16
				H1162.4z"/>
			<path id="XMLID_827_" class="st19" d="M1171.1,791.9l3.1,14.5c-0.2,0-0.3-0.1-0.5,0c-3.2,1.4-1,4.6-1,4.6h6.3l0.4-3.1l1.1-16
				H1171.1z"/>
			<path id="XMLID_826_" class="st3" d="M1151.7,773.8c-0.1,0.4-0.2,0.7-0.4,1.1c-0.9,1.9-3.5,7.5-6.2,5.8c-1.7-1-1.1-7-0.1-8.9
				c0.2-0.4,0.4-0.7,0.7-1L1151.7,773.8z"/>
			<path id="XMLID_825_" class="st12" d="M1186,791.9h-30.3l9-37.3c0,0,1.7-3.5,7.5-3.5s7.8,3.5,7.8,3.5L1186,791.9z"/>
			<path id="XMLID_824_" class="st3" d="M1184.1,781.7c0.1,0.4,0.2,0.9,0.2,1.4c0,2.5-1.9,4.6-4.2,4.6s-4.2-2.1-4.2-4.6
				c0-0.5,0.1-0.9,0.2-1.4H1184.1z"/>
			<polygon id="XMLID_823_" class="st12" points="1175.2,754.6 1184.1,781.7 1176,781.7 			"/>
			<g id="XMLID_816_">
				
					<ellipse id="XMLID_822_" transform="matrix(0.4881 -0.8728 0.8728 0.4881 -41.5518 1400.1193)" class="st3" cx="1172.8" cy="735.5" rx="18.1" ry="18.1"/>
				<path id="XMLID_821_" class="st19" d="M1191,738.4c0.3-1.7,0.3-3.4,0.1-5.1c0-0.1,0-0.3,0-0.4v-0.1c-0.6-4.7-3.2-9-6.9-11.9
					c-0.3-0.2-0.5-0.4-0.8-0.6l-0.4-0.3l0,0c-0.3-0.2-0.6-0.4-1-0.6c-1.5-0.9-3.3-1.5-5.1-1.9c-7.3-1.5-14.5,1.3-18.6,7
					c-0.3-0.7-0.6-1.4-0.7-2.1l-2.5,0.5c0.9,4.7,4.5,7.8,10.7,9.1c5.2,1.1,10.6-0.2,14.8-3.3c1.4,4.5,4.4,8.3,8.6,10.6l1.6,0.9
					L1191,738.4z"/>
				<path id="XMLID_820_" class="st19" d="M1164.8,739.3c-3.4-0.7-4.1-3.3-3.9-4.6l1.5,0.2c0,0.2-0.1,2.4,2.8,3s3.7-1.4,3.7-1.6
					l1.4,0.5C1169.8,738,1168.2,740.1,1164.8,739.3z"/>
				<path id="XMLID_819_" class="st19" d="M1178.3,742.2c-3.4-0.7-4.1-3.3-3.9-4.6l1.5,0.2c0,0.2-0.1,2.3,2.8,3
					c2.9,0.6,3.7-1.4,3.7-1.6l1.4,0.5C1183.3,740.8,1181.7,742.9,1178.3,742.2z"/>
				<path id="XMLID_818_" class="st19" d="M1190.1,728.7c0.5-0.7,0.9-0.2,0.8-1.3c-0.1-1-0.2-1.8-0.9-2.5c-0.4-0.4-1.5-1.7-2.2-1.8
					s-1.1,0.6-1.6,0.8c0.9,1.3,1.4,2.8,2.2,4.2c0.5,0.8,0.7,0.9,1.5,0.7"/>
				<path id="XMLID_817_" class="st19" d="M1188,724.3c0.1-0.2,6.8-9.7,6.8-9.7l4.7,10.9l-9.5,2L1188,724.3z"/>
			</g>
			<path id="XMLID_815_" class="st3" d="M1145.7,770.9l-4.2,1.6c-1.5,0.3-1.4,1.8-0.4,2c1,0.3,4.7,0.5,4.7,0.5L1145.7,770.9z"/>
			<polygon id="XMLID_814_" class="st21" points="1164.7,754.6 1145.2,771.1 1151.1,775.9 1161.4,768.1 			"/>
		</g>
		<g id="XMLID_808_">
			<g id="XMLID_810_">
				<path id="XMLID_812_" class="st3" d="M1044.2,757.9c0.1-5.1-8.4-8.9-8.4-8.9c2.6-0.2,7.5-1.3,14-7.4c4-3.8,5.5-9.4,6-13.1
					c6.3,4.9,9.1,13.5,6.2,21.4c-3.2,8.9-12.5,13.9-21.5,12.1C1042.6,760.9,1044.1,759.6,1044.2,757.9z"/>
				<path id="XMLID_811_" class="st19" d="M1026.4,736.9c3.6-9.8,14.4-14.9,24.2-11.3c1.9,0.7,3.6,1.6,5.1,2.8
					c-0.5,3.7-1.9,9.3-6,13.1c-6.5,6.2-11.4,7.2-14,7.4c0,0,8.5,3.7,8.4,8.9c0,1.8-1.6,3.1-3.7,4c-0.9-0.2-1.8-0.4-2.7-0.7
					C1027.9,757.6,1022.9,746.8,1026.4,736.9z"/>
			</g>
			<path id="XMLID_809_" class="st19" d="M1058.5,743c1.5-3.3-0.2-5.4-1.4-6l-0.8,1.3c0.2,0.1,2,1.3,0.8,4.1
				c-1.3,2.8-3.4,2.2-3.6,2.1l-0.5,1.4C1054.2,746.4,1057,746.3,1058.5,743z"/>
		</g>
		
			<ellipse id="XMLID_807_" transform="matrix(2.753003e-02 -0.9996 0.9996 2.753003e-02 196.9518 1842.424)" class="st27" cx="1045.4" cy="820" rx="7" ry="20"/>
		<path id="XMLID_806_" class="st19" d="M1051.2,800.7l-3.2,16.6c0.2,0,0.3,0,0.5,0c4.5,0,5,3.3,5,3.3h-10.7l-0.4-3.3l-3.2-16.6
			H1051.2z"/>
		<path id="XMLID_805_" class="st12" d="M1026.3,800.7h35.6l-5.2-37.1c0,0-5-5.4-12.5-5.4c-7.6,0-10.1,3.7-10.1,3.7L1026.3,800.7z"
			/>
		<path id="XMLID_804_" class="st3" d="M1070.4,751.4c0,0,7.4-5,12.9-4.9s7.8,5.1,6,6s-12.6,2.4-14.9,4.9
			C1072,759.8,1070.4,751.4,1070.4,751.4z"/>
		<path id="XMLID_803_" class="st3" d="M1076.8,741.8c-0.9,1.3-4.2,9-4.2,9l6.5-2.1c0,0,0.5-4.1,0.7-5.2
			C1080.1,741.3,1077.7,740.5,1076.8,741.8z"/>
		<path id="XMLID_802_" class="st19" d="M1049.4,759.6l14.2-1.6l10.1-9.8l4.5,7.3l-12.2,12.3c0,0-12.6,3.5-16.5,2.4
			C1045.5,769,1042.8,759.8,1049.4,759.6z"/>
		<g id="XMLID_797_">
			<g id="XMLID_799_">
				<path id="XMLID_801_" class="st3" d="M281.6,946.3c-0.1-5.1,8.4-8.9,8.4-8.9c-2.6-0.2-7.5-1.3-14-7.4c-4-3.8-5.5-9.4-6-13.1
					c-6.3,4.9-9.1,13.5-6.2,21.4c3.2,8.9,12.5,13.9,21.5,12.1C283.2,949.3,281.6,948,281.6,946.3z"/>
				<path id="XMLID_800_" class="st19" d="M299.4,925.3c-3.6-9.8-14.4-14.9-24.2-11.3c-1.9,0.7-3.6,1.6-5.1,2.8
					c0.5,3.7,1.9,9.3,6,13.1c6.5,6.2,11.4,7.2,14,7.4c0,0-8.5,3.7-8.4,8.9c0,1.8,1.6,3.1,3.7,4c0.9-0.2,1.8-0.4,2.7-0.7
					C297.9,946,302.9,935.2,299.4,925.3z"/>
			</g>
			<path id="XMLID_798_" class="st19" d="M267.3,931.4c-1.5-3.3,0.2-5.4,1.4-6l0.8,1.3c-0.2,0.1-2,1.3-0.8,4.1
				c1.3,2.8,3.4,2.2,3.6,2.1l0.5,1.4C271.6,934.8,268.8,934.7,267.3,931.4z"/>
		</g>
		
			<ellipse id="XMLID_796_" transform="matrix(0.9996 -2.753003e-02 2.753003e-02 0.9996 -27.6544 8.1015)" class="st27" cx="280.4" cy="1008.4" rx="20" ry="7"/>
		<path id="XMLID_795_" class="st19" d="M274.6,989.1l3.2,16.6c-0.2,0-0.3,0-0.5,0c-4.5,0-5,3.3-5,3.3H283l0.4-3.3l3.2-16.6H274.6z"
			/>
		<path id="XMLID_794_" class="st20" d="M299.5,989.1h-35.6l5.2-37.1c0,0,5-5.4,12.5-5.4c7.6,0,10.1,3.7,10.1,3.7L299.5,989.1z"/>
		<path id="XMLID_793_" class="st3" d="M255.4,939.8c0,0-7.4-5-12.9-4.9s-7.8,5.1-6,6s12.6,2.4,14.9,4.9
			C253.8,948.2,255.4,939.8,255.4,939.8z"/>
		<path id="XMLID_792_" class="st3" d="M249,930.2c0.9,1.3,4.2,9,4.2,9l-6.5-2.1c0,0-0.5-4.1-0.7-5.2
			C245.7,929.7,248.1,928.9,249,930.2z"/>
		<path id="XMLID_791_" class="st19" d="M276.4,948l-14.2-1.6l-10.1-9.8l-4.5,7.3l12.2,12.3c0,0,12.6,3.5,16.5,2.4
			S283,948.2,276.4,948z"/>
		<g id="XMLID_774_">
			<ellipse id="XMLID_790_" class="st18" cx="712.5" cy="712.1" rx="14.9" ry="3.9"/>
			<g id="XMLID_775_">
				<path id="XMLID_789_" class="st19" d="M719.9,695.7l-2.7,12.5c0.1,0,0.3,0,0.4,0c2.8,1.2,0.8,4,0.8,4H713l-0.4-2.7l-0.9-13.8
					H719.9z"/>
				<path id="XMLID_788_" class="st19" d="M712.5,695.7l-2.7,12.5c0.1,0,0.3,0,0.4,0c2.8,1.2,0.8,4,0.8,4h-5.5l-0.4-2.7l-0.9-13.8
					H712.5z"/>
				<path id="XMLID_787_" class="st12" d="M698.5,695.7h26.1l-7.8-33.2c0,0-1.4-3-6.4-3s-6.7,3-6.7,3L698.5,695.7z"/>
				<g id="XMLID_781_">
					
						<ellipse id="XMLID_786_" transform="matrix(0.8728 -0.4881 0.4881 0.8728 -225.373 429.3507)" class="st3" cx="711" cy="647" rx="15.5" ry="15.5"/>
					<path id="XMLID_785_" class="st19" d="M695.3,649.7c-0.2-1.5-0.3-2.9-0.1-4.4c0-0.1,0-0.2,0-0.4c0,0,0,0,0-0.1
						c0.6-4.1,2.7-7.8,5.9-10.2c0.2-0.2,0.5-0.3,0.7-0.5l0.4-0.3l0,0c0.3-0.2,0.6-0.3,0.8-0.5c1.3-0.7,2.8-1.3,4.4-1.6
						c6.2-1.3,12.5,1.2,16,6c0.3-0.6,0.5-1.2,0.6-1.8l2.2,0.4c-0.8,4.1-11.9,21.4-24.6,16c-1.2,3.8-5.6,1.5-5.6,1.5L695.3,649.7z"/>
					<path id="XMLID_784_" class="st19" d="M721.6,652.1c2.5-1.6,2.3-3.9,1.8-4.9l-1.1,0.6c0.1,0.2,0.8,1.9-1.3,3.2
						c-2.1,1.4-3.4,0-3.5-0.1l-1,0.8C717.2,652.6,719.1,653.8,721.6,652.1z"/>
					<path id="XMLID_783_" class="st19" d="M696.1,641.3c-0.4-0.6-0.8-0.2-0.7-1.1c0.1-0.8,0.2-1.6,0.8-2.2c0.4-0.4,1.3-1.4,1.9-1.5
						c0.6-0.1,0.9,0.5,1.4,0.7c-0.8,1.2-1.2,2.4-1.9,3.6c-0.4,0.7-0.6,0.8-1.3,0.6"/>
					<polygon id="XMLID_782_" class="st19" points="698,637.5 692.2,629.4 688.3,638.4 697,640.2 					"/>
				</g>
				<path id="XMLID_780_" class="st3" d="M728.3,680.4c0.1,0.3,0.2,0.6,0.3,1c0.8,1.6,3,6.4,5.3,5c1.4-0.9,0.9-6,0.1-7.6
					c-0.2-0.3-0.3-0.6-0.6-0.8L728.3,680.4z"/>
				<path id="XMLID_779_" class="st3" d="M733.5,677.8l3.6,1.4c1.3,0.2,1.2,1.5,0.4,1.8c-0.9,0.2-4.1,0.5-4.1,0.5L733.5,677.8z"/>
				<polygon id="XMLID_778_" class="st19" points="717.2,663.8 734,678 728.9,682.2 720,675.5 				"/>
				<path id="XMLID_777_" class="st3" d="M687.3,676.5l-3.6,1.4c-1.3,0.2-1.2,1.5-0.4,1.8c0.5,0.1,1.8,0.3,2.8,0.4
					c-0.3,2-0.2,4.4,0.8,5c2.3,1.4,4.5-3.4,5.3-5c0.2-0.3,0.3-0.6,0.3-1L687.3,676.5z"/>
				<polygon id="XMLID_776_" class="st19" points="703.7,662.4 686.9,676.6 692,680.8 701.6,675.5 				"/>
			</g>
		</g>
		<g id="XMLID_757_">
			<ellipse id="XMLID_773_" class="st18" cx="177.7" cy="964.1" rx="14.9" ry="3.9"/>
			<g id="XMLID_758_">
				<path id="XMLID_772_" class="st19" d="M186.9,947.7l-2.7,12.5c0.1,0,0.3,0,0.4,0c2.8,1.2,0.8,4,0.8,4H180l-0.4-2.7l-0.9-13.8
					H186.9z"/>
				<path id="XMLID_771_" class="st19" d="M179.5,947.7l-2.7,12.5c0.1,0,0.3,0,0.4,0c2.8,1.2,0.8,4,0.8,4h-5.5l-0.4-2.7l-0.9-13.8
					H179.5z"/>
				<path id="XMLID_770_" class="st12" d="M165.5,947.7h26.1l-7.8-33.2c0,0-1.4-3-6.4-3s-6.7,3-6.7,3L165.5,947.7z"/>
				<g id="XMLID_764_">
					
						<ellipse id="XMLID_769_" transform="matrix(0.8728 -0.4881 0.4881 0.8728 -416.183 201.2639)" class="st3" cx="178" cy="899.1" rx="15.5" ry="15.5"/>
					<path id="XMLID_768_" class="st19" d="M162.3,901.7c-0.2-1.5-0.3-2.9-0.1-4.4c0-0.1,0-0.2,0-0.4c0,0,0,0,0-0.1
						c0.6-4.1,2.7-7.8,5.9-10.2c0.2-0.2,0.5-0.3,0.7-0.5l0.4-0.3l0,0c0.3-0.2,0.6-0.3,0.8-0.5c1.3-0.7,2.8-1.3,4.4-1.6
						c6.2-1.3,12.5,1.2,16,6c0.3-0.6,0.5-1.2,0.6-1.8l2.2,0.4c-0.8,4.1-11.9,21.4-24.6,16c-1.2,3.8-5.6,1.5-5.6,1.5L162.3,901.7z"/>
					<path id="XMLID_767_" class="st19" d="M188.6,904.1c2.5-1.6,2.3-3.9,1.8-4.9l-1.1,0.6c0.1,0.2,0.8,1.9-1.3,3.2
						c-2.1,1.4-3.4,0-3.5-0.1l-1,0.8C184.2,904.6,186.1,905.8,188.6,904.1z"/>
					<path id="XMLID_766_" class="st19" d="M163.1,893.3c-0.4-0.6-0.8-0.2-0.7-1.1c0.1-0.8,0.2-1.6,0.8-2.2c0.4-0.4,1.3-1.4,1.9-1.5
						c0.6-0.1,0.9,0.5,1.4,0.7c-0.8,1.2-1.2,2.4-1.9,3.6c-0.4,0.7-0.6,0.8-1.3,0.6"/>
					<polygon id="XMLID_765_" class="st19" points="164.5,889.4 159.2,881.5 155.3,890.3 163,892.1 					"/>
				</g>
				<path id="XMLID_763_" class="st3" d="M195.3,932.4c0.1,0.3,0.2,0.6,0.3,1c0.8,1.6,3,6.4,5.3,5c1.4-0.9,0.9-6,0.1-7.6
					c-0.2-0.3-0.3-0.6-0.6-0.8L195.3,932.4z"/>
				<path id="XMLID_762_" class="st3" d="M200.5,929.8l3.6,1.4c1.3,0.2,1.2,1.5,0.4,1.8c-0.9,0.2-4.1,0.5-4.1,0.5L200.5,929.8z"/>
				<polygon id="XMLID_761_" class="st19" points="184.2,915.8 201,930 195.9,934.2 187,927.5 				"/>
				<path id="XMLID_760_" class="st3" d="M154.3,928.5l-3.6,1.4c-1.3,0.2-1.2,1.5-0.4,1.8c0.5,0.1,1.8,0.3,2.8,0.4
					c-0.3,2-0.2,4.4,0.8,5c2.3,1.4,4.5-3.4,5.3-5c0.2-0.3,0.3-0.6,0.3-1L154.3,928.5z"/>
				<polygon id="XMLID_759_" class="st19" points="170.7,914.4 153.9,928.6 159,932.8 168.6,927.5 				"/>
			</g>
		</g>
		
			<ellipse id="XMLID_756_" transform="matrix(1.265138e-02 -0.9999 0.9999 1.265138e-02 -397.5461 1160.3788)" class="st18" cx="388.8" cy="781.5" rx="7.5" ry="34.9"/>
		<g id="XMLID_747_">
			<polygon id="XMLID_755_" class="st19" points="368.2,780 395,714.8 396.4,715.4 398.7,715.7 400.1,715.5 409.4,785.3 
				406.5,785.7 398.1,722.3 391.5,773.4 388.6,773 395.3,721.9 370.9,781.1 			"/>
			<g id="XMLID_748_">
				<g id="XMLID_750_">
					<path id="XMLID_754_" class="st19" d="M334.4,682.5l34.9,22.6c1.5,1,5.8-3,9.7-9c3.8-5.9,5.7-11.5,4.2-12.5L348.4,661
						c-1.5-1-5.8,3-9.7,9C334.8,675.9,332.9,681.5,334.4,682.5z"/>
					<path id="XMLID_753_" class="st19" d="M399,720.9L399,720.9L399,720.9c1.2,0.8,4.5-2.3,7.5-6.9c3-4.6,4.4-8.9,3.3-9.6l0,0l0,0
						l-58.9-38.3l-10.7,16.5L399,720.9z"/>
					<path id="XMLID_752_" class="st19" d="M385,708.6l42.7,27.8l0,0l0,0c0.8,0.5,3.2-1.7,5.3-5c2.1-3.3,3.2-6.4,2.4-6.9l0,0
						l-42.7-27.8L385,708.6z"/>
					<path id="XMLID_751_" class="st19" d="M425.5,729.9l21.7,14.1l0,0l0,0c0.4,0.3,1.6-0.9,2.7-2.6c1.1-1.7,1.6-3.3,1.2-3.5l0,0
						l-21.7-14.1L425.5,729.9z"/>
				</g>
				
					<ellipse id="XMLID_749_" transform="matrix(0.5446 -0.8387 0.8387 0.5446 -407.9572 593.0394)" class="st3" cx="342.1" cy="672.2" rx="9.1" ry="2.3"/>
			</g>
		</g>
		<ellipse id="XMLID_746_" class="st18" cx="557.2" cy="806.6" rx="21.8" ry="5.6"/>
		<g id="XMLID_727_">
			<ellipse id="XMLID_745_" class="st18" cx="508.1" cy="797.2" rx="21.8" ry="5.6"/>
			<g id="XMLID_728_">
				<g id="XMLID_736_">
					<path id="XMLID_744_" class="st19" d="M503.5,778l3,16c-0.2,0-0.3,0-0.5,0c-4.3,0-4.8,3.1-4.8,3.1h10.3l0.4-3.1l3-16H503.5z"/>
					<path id="XMLID_743_" class="st3" d="M504,769.3c-0.1,0.4-0.2,0.9-0.4,1.3c-1.1,2.3-3.7,3.3-5.8,2.3c-2.1-1-2.9-3.7-1.8-6
						c0.2-0.4,0.5-0.8,0.8-1.2L504,769.3z"/>
					<polygon id="XMLID_742_" class="st19" points="503.7,742.3 496.7,765.8 499.1,767.8 					"/>
					<path id="XMLID_741_" class="st20" d="M520.3,778H496l6.9-38.4c0,0,1.3-3.5,6-3.5c4.7,0,6.2,3.5,6.2,3.5L520.3,778z"/>
					<path id="XMLID_739_" class="st3" d="M524.1,766.7c0.2,0.4,0.3,0.9,0.4,1.3c0.4,2.5-1.1,4.8-3.4,5.2s-4.5-1.4-4.9-3.9
						c-0.1-0.5-0.1-0.9,0-1.4L524.1,766.7z"/>
					<polygon id="XMLID_737_" class="st19" points="515.1,739.6 524,766.6 517.1,767.8 					"/>
				</g>
				<g id="XMLID_729_">
					
						<ellipse id="XMLID_735_" transform="matrix(0.4881 -0.8728 0.8728 0.4881 -367.5832 816.6005)" class="st3" cx="512.4" cy="721.7" rx="18.1" ry="18.1"/>
					<path id="XMLID_734_" class="st19" d="M530.5,724.6c0.3-1.7,0.3-3.4,0.1-5.1c0-0.1,0-0.3,0-0.4V719c-0.6-4.7-3.2-9-6.9-11.9
						c-0.3-0.2-0.5-0.4-0.8-0.6l-0.4-0.3l0,0c-0.3-0.2-0.6-0.4-1-0.6c-1.5-0.9-3.3-1.5-5.1-1.9c-7.3-1.5-14.5,1.3-18.6,7
						c-0.3-0.7-0.6-1.4-0.7-2.1l-2.5,0.5c0.9,4.7,4.5,7.8,10.7,9.1c5.2,1.1,10.6-0.2,14.8-3.3c1.4,4.5,4.4,8.3,8.6,10.6l1.6,0.9
						L530.5,724.6z"/>
					<path id="XMLID_733_" class="st19" d="M504.3,725.5c-3.4-0.7-4.1-3.3-3.9-4.6l1.5,0.2c0,0.2-0.1,2.4,2.8,3s3.7-1.4,3.7-1.6
						l1.4,0.5C509.3,724.1,507.7,726.2,504.3,725.5z"/>
					<path id="XMLID_732_" class="st19" d="M517.8,728.3c-3.4-0.7-4.1-3.3-3.9-4.6l1.5,0.2c0,0.2-0.1,2.3,2.8,3
						c2.9,0.6,3.7-1.4,3.7-1.6l1.4,0.5C522.9,727,521.2,729,517.8,728.3z"/>
					<path id="XMLID_731_" class="st19" d="M529.7,714.8c0.5-0.7,0.9-0.2,0.8-1.3c-0.1-1-0.2-1.8-0.9-2.5c-0.4-0.4-1.5-1.7-2.2-1.8
						s-1.1,0.6-1.6,0.8c0.9,1.3,1.4,2.8,2.2,4.2c0.5,0.8,0.7,0.9,1.5,0.7"/>
					<polygon id="XMLID_730_" class="st19" points="527.6,710.3 534.2,700.9 538.4,711.2 529.5,713.2 					"/>
				</g>
			</g>
		</g>
		<g id="XMLID_710_">
			<ellipse id="XMLID_726_" class="st18" cx="1245.6" cy="1037.2" rx="21.8" ry="5.6"/>
			<g id="XMLID_711_">
				<g id="XMLID_719_">
					<path id="XMLID_725_" class="st19" d="M1250.2,1018l-3,16c0.2,0,0.3,0,0.5,0c4.3,0,4.8,3.1,4.8,3.1h-10.3l-0.4-3.1l-3-16
						H1250.2z"/>
					<path id="XMLID_724_" class="st3" d="M1249.7,1009.3c0.1,0.4,0.2,0.9,0.4,1.3c1.1,2.3,3.7,3.3,5.8,2.3c2.1-1,2.9-3.7,1.8-6
						c-0.2-0.4-0.5-0.8-0.8-1.2L1249.7,1009.3z"/>
					<polygon id="XMLID_723_" class="st19" points="1250,982.3 1257,1005.8 1254.6,1007.8 					"/>
					<path id="XMLID_722_" class="st20" d="M1233.4,1018h24.4l-6.9-38.4c0,0-1.3-3.5-6-3.5s-6.2,3.5-6.2,3.5L1233.4,1018z"/>
					<path id="XMLID_721_" class="st3" d="M1229.6,1006.7c-0.2,0.4-0.3,0.9-0.4,1.3c-0.4,2.5,1.1,4.8,3.4,5.2s4.5-1.4,4.9-3.9
						c0.1-0.5,0.1-0.9,0-1.4L1229.6,1006.7z"/>
					<polygon id="XMLID_720_" class="st19" points="1238.6,979.6 1229.7,1006.6 1236.6,1007.8 					"/>
				</g>
				<g id="XMLID_712_">
					
						<ellipse id="XMLID_718_" transform="matrix(0.8728 -0.4881 0.4881 0.8728 -311.3885 728.2507)" class="st3" cx="1241.4" cy="961.5" rx="18.1" ry="18.1"/>
					<path id="XMLID_717_" class="st19" d="M1223.2,964.6c-0.3-1.7-0.3-3.4-0.1-5.1c0-0.1,0-0.3,0-0.4V959c0.6-4.7,3.2-9,6.9-11.9
						c0.3-0.2,0.5-0.4,0.8-0.6l0.4-0.3l0,0c0.3-0.2,0.6-0.4,1-0.6c1.5-0.9,3.3-1.5,5.1-1.9c7.3-1.5,14.5,1.3,18.6,7
						c0.3-0.7,0.6-1.4,0.7-2.1l2.5,0.5c-0.9,4.7-4.5,7.8-10.7,9.1c-5.2,1.1-10.6-0.2-14.8-3.3c-1.4,4.5-4.4,8.3-8.6,10.6l-1.6,0.9
						L1223.2,964.6z"/>
					<path id="XMLID_716_" class="st19" d="M1249.4,965.5c3.4-0.7,4.1-3.3,3.9-4.6l-1.5,0.2c0,0.2,0.1,2.4-2.8,3s-3.7-1.4-3.7-1.6
						l-1.4,0.5C1244.4,964.1,1246,966.2,1249.4,965.5z"/>
					<path id="XMLID_715_" class="st19" d="M1235.9,968.3c3.4-0.7,4.1-3.3,3.9-4.6l-1.5,0.2c0,0.2,0.1,2.3-2.8,3
						c-2.9,0.6-3.7-1.4-3.7-1.6l-1.4,0.5C1230.8,967,1232.5,969,1235.9,968.3z"/>
					<path id="XMLID_714_" class="st19" d="M1224,954.8c-0.5-0.7-0.9-0.2-0.8-1.3c0.1-1,0.2-1.8,0.9-2.5c0.4-0.4,1.5-1.7,2.2-1.8
						s1.1,0.6,1.6,0.8c-0.9,1.3-1.4,2.8-2.2,4.2c-0.5,0.8-0.7,0.9-1.5,0.7"/>
					<polygon id="XMLID_713_" class="st19" points="1226.2,950.8 1219,940 1214.7,952.2 1223.8,953.2 					"/>
				</g>
			</g>
		</g>
		<g id="XMLID_704_">
			<path id="XMLID_709_" class="st19" d="M464.8,798.1l3.5,18.6c-0.2,0-0.4,0-0.5,0c-5,0-5.6,3.6-5.6,3.6h11.9l0.5-3.6l3.5-18.6
				H464.8z"/>
			<path id="XMLID_708_" class="st3" d="M461.1,747.2c-9.5-3-16.2-10.1-17.6-17.6c-3.4,10.3,1.6,21.7,11.8,26.1
				c10.7,4.6,23-0.2,27.8-10.8C477.5,748.7,469.3,749.8,461.1,747.2z"/>
			<path id="XMLID_707_" class="st19" d="M441.4,720.9l3.2,0.6c-0.3,1.9-0.3,3.8-0.1,5.7c4.9-10.5,17.2-15.2,27.9-10.6
				c10.9,4.7,15.9,17.3,11.2,28.2c0,0.1-1.6,2.9-1.6,3c-8.2,10.5-12.2,10.2-23.1,4.8c-4.5-2.2-8-6.1-10.5-10.3
				C442.8,736,440.1,728.1,441.4,720.9z"/>
			<path id="XMLID_706_" class="st12" d="M484.1,798.1h-28.3l3.5-41.1c0,0,8.7-8.4,14.2-8.4s7.3,4.1,7.3,4.1L484.1,798.1z"/>
			<path id="XMLID_705_" class="st3" d="M470,788.9c0.1,0.5,0.2,1,0.2,1.6c0,2.9-2.2,5.3-4.9,5.3c-2.7,0-4.9-2.4-4.9-5.3
				c0-0.6,0.1-1.1,0.2-1.6H470z"/>
		</g>
		<g id="XMLID_692_">
			<ellipse id="XMLID_703_" class="st18" cx="253.2" cy="1048" rx="27" ry="5.5"/>
			<path id="XMLID_702_" class="st19" d="M273,1040.3l-14.4,2c-5.6-4.1-14.8-8.7-14.8-8.7s-3.4-0.2-5.2,0.8
				c-1.8,1.1-6.7,13.1,16.2,14.4c1.8,0.1,3.3,0.1,4.4,0c1,0,2.1,0,3.2-0.1C268.5,1048.4,273.7,1045.6,273,1040.3z"/>
			<g id="XMLID_697_">
				<polygon id="XMLID_701_" class="st3" points="215.2,1004.5 224.1,1008 230.9,1001.6 237.8,1005.8 243.5,1001 255.8,1027.1 
					230.9,1036.5 				"/>
				<line id="XMLID_700_" class="st26" x1="224.1" y1="1008" x2="237.1" y2="1034.2"/>
				<line id="XMLID_699_" class="st26" x1="230.9" y1="1001.6" x2="244.3" y2="1031.4"/>
				<line id="XMLID_698_" class="st26" x1="237.8" y1="1005.8" x2="249.6" y2="1029.5"/>
			</g>
			<path id="XMLID_696_" class="st3" d="M252.1,1004.5c-7.9-3.1-13.1-9.5-13.8-15.9c-3.5,8.5,0,18.5,8.4,22.8
				c8.7,4.5,19.4,1.2,24.1-7.5C265.9,1006.7,258.9,1007.1,252.1,1004.5z"/>
			<path id="XMLID_695_" class="st19" d="M237,981.2l2.7,0.7c-0.4,1.5-0.5,3.1-0.4,4.8c4.7-8.5,15.4-11.7,24-7.2
				c8.8,4.6,12.3,15.5,7.7,24.3c0,0.1-1.5,2.4-1.5,2.4c-7.5,8.3-10.9,7.8-19.7,2.6c-3.6-2.1-6.3-5.6-8.2-9.2
				C237.3,993.9,235.5,987.1,237,981.2z"/>
			<path id="XMLID_694_" class="st3" d="M233.7,1036.5c-0.3,0.3-0.7,0.6-1.1,0.8c-2.2,1.1-4.8,0.4-5.9-1.7c-1-2-0.1-4.6,2.2-5.7
				c0.4-0.2,0.9-0.4,1.3-0.4L233.7,1036.5z"/>
			<path id="XMLID_693_" class="st12" d="M274.7,1040.1c0,0-6.3-23.3-6.8-25.2c-0.5-1.8-3.1-5.2-12.4-5.2c-1.5,0-2.9,0.5-4.1,1.2
				h-0.1c-4.3,2-21.3,18.6-21.3,18.6l3.7,6.9l11-7.5l-2.8,15.6L274.7,1040.1z"/>
		</g>
		<g id="XMLID_676_">
			<ellipse id="XMLID_691_" class="st18" cx="1368" cy="1064.4" rx="19.5" ry="5"/>
			<g id="XMLID_677_">
				<path id="XMLID_690_" class="st19" d="M1363.8,1047l2.8,14.7c-0.1,0-0.3,0-0.4,0c-3.9,0-4.4,2.9-4.4,2.9h9.4l0.4-2.9l2.8-14.7
					H1363.8z"/>
				<polygon id="XMLID_689_" class="st19" points="1365.9,1011.4 1342.4,1001.2 1341.1,1007.7 1359.3,1020.9 				"/>
				<path id="XMLID_688_" class="st20" d="M1379.9,1047h-22.4l2.5-33.6c0,0,3.5-3.9,9.7-3.9c4.3,0,5.7,3.2,5.7,3.2L1379.9,1047z"/>
				<path id="XMLID_687_" class="st3" d="M1383.8,1037.5c0.2,0.4,0.3,0.8,0.4,1.2c0.4,2.3-1,4.4-3.1,4.8s-4.1-1.2-4.5-3.5
					c-0.1-0.4-0.1-0.9,0-1.3L1383.8,1037.5z"/>
				<polygon id="XMLID_686_" class="st20" points="1375.4,1012.7 1383.6,1037.5 1377.3,1038.7 				"/>
				<g id="XMLID_679_">
					
						<ellipse id="XMLID_685_" transform="matrix(0.4881 -0.8728 0.8728 0.4881 -167.5779 1703.5774)" class="st3" cx="1368.5" cy="994.6" rx="16.6" ry="16.6"/>
					<path id="XMLID_684_" class="st19" d="M1385.2,997.4c0.3-1.6,0.3-3.1,0.1-4.7c0-0.1,0-0.3,0-0.4c0,0,0,0,0-0.1
						c-0.6-4.3-2.9-8.3-6.3-10.9c-0.2-0.2-0.5-0.4-0.7-0.5l-0.4-0.3l0,0c-0.3-0.2-0.6-0.4-0.9-0.5c-1.4-0.8-3-1.4-4.7-1.7
						c-6.7-1.4-13.3,1.2-17.1,6.4c-0.3-0.6-0.5-1.2-0.7-1.9l-2.3,0.5c0.9,4.4,4.2,7.2,9.8,8.4c4.8,1,9.8-0.1,13.6-3
						c1.3,4.1,4.1,7.6,7.9,9.7l1.5,0.8L1385.2,997.4z"/>
					<path id="XMLID_683_" class="st19" d="M1361.1,998.2c-3.1-0.7-3.7-3-3.6-4.2l1.3,0.1c0,0.2-0.1,2.2,2.5,2.7
						c2.7,0.6,3.4-1.2,3.4-1.5l1.3,0.4C1365.7,996.9,1364.2,998.9,1361.1,998.2z"/>
					<path id="XMLID_682_" class="st19" d="M1373.5,1000.8c-3.1-0.7-3.7-3-3.6-4.2l1.3,0.1c0,0.2-0.1,2.2,2.5,2.7
						c2.7,0.6,3.4-1.2,3.4-1.5l1.3,0.4C1378.1,999.6,1376.6,1001.5,1373.5,1000.8z"/>
					<path id="XMLID_681_" class="st19" d="M1384.4,988.4c0.5-0.7,0.9-0.2,0.8-1.1c-0.1-0.9-0.2-1.7-0.8-2.3c-0.4-0.4-1.4-1.5-2-1.6
						s-1,0.6-1.5,0.8c0.8,1.2,1.3,2.6,2,3.8c0.4,0.7,0.6,0.8,1.4,0.7"/>
					<polygon id="XMLID_680_" class="st19" points="1382.2,984.2 1388.8,975.2 1392.8,986 1384.2,987.4 					"/>
				</g>
				<path id="XMLID_678_" class="st3" d="M1342.4,1001.2c0,0-5.8-3.9-7-4.8c-1.2-0.9-2.2,0.9-0.5,2.6s2,2.3,2,2.3
					c-1.6,0.7-2.1,3.4-1.1,4.6c1,1.2,2.9,2.4,3.8,2.3c0.9-0.1,1.5-0.4,1.5-0.4L1342.4,1001.2z"/>
			</g>
		</g>
		<g id="XMLID_661_">
			<ellipse id="XMLID_675_" class="st18" cx="1317.8" cy="1103.8" rx="16.5" ry="4.3"/>
			<g id="XMLID_662_">
				<path id="XMLID_674_" class="st3" d="M1332.3,1071.7l2.5,3.4c1.1,1,0.2,2.2-0.7,1.8c-0.6-0.2-1.8-0.8-2.8-1.3
					c-1,2-2.5,4.2-3.7,4.2c-3-0.1-2.2-5.8-2-7.8c0-0.4,0.1-0.7,0.3-1.1L1332.3,1071.7z"/>
				<polygon id="XMLID_673_" class="st19" points="1325.5,1048.9 1332.6,1072.1 1325.4,1072.9 1319.7,1062.3 				"/>
				<path id="XMLID_672_" class="st19" d="M1307.7,1085.6l2.9,13.8c-0.1,0-0.3-0.1-0.4,0c-3.1,1.3-0.9,4.4-0.9,4.4h6l0.4-3l1-15.2
					L1307.7,1085.6L1307.7,1085.6z"/>
				<path id="XMLID_671_" class="st19" d="M1315.8,1085.6l2.9,13.8c-0.1,0-0.3-0.1-0.4,0c-3.1,1.3-0.9,4.4-0.9,4.4h6l0.4-3l1-15.2
					L1315.8,1085.6L1315.8,1085.6z"/>
				<path id="XMLID_670_" class="st12" d="M1331.3,1085.6h-28.8l8.6-36.7c0,0,1.6-3.4,7.1-3.4s7.4,3.4,7.4,3.4L1331.3,1085.6z"/>
				<g id="XMLID_666_">
					
						<ellipse id="XMLID_669_" transform="matrix(0.4881 -0.8728 0.8728 0.4881 -226.2773 1678.2939)" class="st19" cx="1317.6" cy="1032" rx="17.2" ry="17.2"/>
					<path id="XMLID_668_" class="st19" d="M1334,1025.5c0.5-0.7,0.9-0.2,0.8-1.2c-0.1-0.9-0.2-1.8-0.8-2.4
						c-0.4-0.4-1.5-1.6-2.1-1.7c-0.6-0.1-1,0.6-1.5,0.8c0.9,1.3,1.3,2.7,2.1,4c0.4,0.7,0.6,0.9,1.5,0.7"/>
					<polygon id="XMLID_667_" class="st19" points="1332.4,1021.2 1338.2,1012.5 1342.6,1022.2 1334.1,1024.2 					"/>
				</g>
				<path id="XMLID_665_" class="st3" d="M1307.5,1072.2c0.1,0.3,0.2,0.7,0.2,1.1c0,2,0,7.8-2.9,7.5c-1.8-0.2-3.8-5.6-3.8-7.6
					c0-0.4,0.1-0.8,0.2-1.1L1307.5,1072.2z"/>
				<path id="XMLID_664_" class="st3" d="M1301.1,1072.2l-2.9,3.1c-1.2,0.9-0.5,2.1,0.5,1.9s4.3-1.5,4.3-1.5L1301.1,1072.2z"/>
				<polygon id="XMLID_663_" class="st19" points="1310.7,1050.4 1300.7,1072.6 1307.8,1074.3 1313.4,1063.4 				"/>
			</g>
		</g>
	</g>
</g>
<g id="tamaño_pantalla" class="st0">
	<circle id="XMLID_226_" class="st15" cx="3359.1" cy="1390.9" r="781.1"/>
	<g id="XMLID_223_" class="st2">
		<path id="XMLID_237_" class="st16" d="M4140.2,1390.9c0-431.4-349.7-781.1-781.1-781.1c-38.8,0-76.9,2.8-114.2,8.3
			c-11.5,7.2-21.5,17-28.7,28.5c89.9,11.8,177.6,40.4,257.3,83.7c10.9,5.9,23.1,14.3,23.5,26.7c0.6,14.4-14.6,23.8-28,29
			c-61.5,23.9-128.8,27.1-193.1,41.6s-130.8,44.7-161.7,102.9c-11.4,21.5-17.1,48.1-6.4,70c5.8,11.9,15.8,21.2,26.7,28.6
			c58.9,40.1,140.8,29.8,201.3,67.4c6.4,4,12.8,8.8,15.9,15.7c6.7,14.9-4.3,31.6-16,42.9c-52.6,51.1-127.9,69.6-191.9,105.4
			c-11.2,6.2-23.6,16-21.7,28.7c1.3,8.9,9.3,15.1,16.9,20c94.8,61.5,213.8,75.8,326.2,63.8c112.3-12,220.4-48.2,328.5-81
			c5.8-1.8,12.1-3.5,17.7-1.2c5.5,2.3,8.8,7.9,11.1,13.5c22.6,55-18.8,115.9-66.4,151.4c-47.6,35.6-105.5,61.3-137.8,111.2
			c-4.8,7.5-9.1,15.6-9.8,24.5c-2.8,35.3,44,48.6,71.9,70.4c38.6,30.1,43.3,85.2,53.1,133.2c16,78.9,53.1,151.6,91.7,222.5
			C4016.4,1875.3,4140.2,1647.6,4140.2,1390.9z"/>
	</g>
	<g id="XMLID_220_" class="st2">
		<path id="XMLID_235_" class="st16" d="M3028.2,2031.7c-9-10.2-22.4-14.9-34.5-21.2c-36.9-19-62.8-53.7-86.8-87.6
			c-26.2-36.8-51.8-74-77.5-111.2c-31.3-45.4-62.6-90.8-94-136.3c-4.7-6.8-9.4-13.7-12-21.5c-7.4-22.8,5.3-47.5,22.1-64.6
			s38-29.5,53.9-47.4s25.9-44.6,14.8-65.9c-9-17.2-28.6-25.5-46.7-32.6c-40.8-15.8-81.6-31.5-122.4-47.3
			c-6.2-2.4-12.9-5.2-15.9-11.1c-2.2-4.3-2-9.5-1.7-14.3c2.3-30.6,8.6-60.8,11-91.5c1.1-14.5,0.8-30.5-8.8-41.3s-31.7-9.8-35.1,4.3
			l-2.8,1.5c-9.1,47.6-13.8,96.8-13.8,147.1c0,315.8,187.4,587.8,457.1,710.9c4.1-11.9,5.9-24.5,5-37.3
			C3039.3,2052.7,3036,2040.6,3028.2,2031.7z"/>
	</g>
	<line id="XMLID_222_" class="st28" x1="3359.1" y1="609.9" x2="3359.1" y2="1390.9"/>
	<line id="XMLID_224_" class="st28" x1="3092" y1="657" x2="3359.1" y2="1390.9"/>
	<line id="XMLID_225_" class="st28" x1="3625.1" y1="657" x2="3357.9" y2="1390.9"/>
	
		<linearGradient id="XMLID_6_" gradientUnits="userSpaceOnUse" x1="3342.177" y1="-489.0676" x2="3083.0281" y2="157.3493" gradientTransform="matrix(1 0 0 -1 0 859.62)">
		<stop  offset="0.7522" style="stop-color:#FFFFFF"/>
		<stop  offset="0.9222" style="stop-color:#7BBBCF"/>
		<stop  offset="1" style="stop-color:#439FBB"/>
	</linearGradient>
	<circle id="XMLID_219_" class="st29" cx="3359.1" cy="1390.9" r="781.1"/>
	<line id="XMLID_536_" class="st30" x1="3358.4" y1="1390.9" x2="4082.2" y2="1096.9"/>
	<line id="XMLID_535_" class="st30" x1="3357.5" y1="1390.9" x2="2635.6" y2="1092.3"/>
	<circle id="XMLID_534_" class="st30" cx="3357.3" cy="1391.2" r="532.1"/>
	<g id="XMLID_74_" class="st2">
		<g id="XMLID_614_">
			<ellipse id="XMLID_630_" class="st18" cx="3859.2" cy="990.1" rx="14.9" ry="3.9"/>
			<g id="XMLID_615_">
				<path id="XMLID_629_" class="st19" d="M3850,973.7l2.7,12.5c-0.1,0-0.3,0-0.4,0c-2.8,1.2-0.8,4-0.8,4h5.5l0.4-2.7l0.9-13.8H3850
					z"/>
				<path id="XMLID_628_" class="st19" d="M3857.4,973.7l2.7,12.5c-0.1,0-0.3,0-0.4,0c-2.8,1.2-0.8,4-0.8,4h5.5l0.4-2.7l0.9-13.8
					H3857.4z"/>
				<path id="XMLID_627_" class="st12" d="M3871.3,973.7h-26.1l7.8-33.2c0,0,1.4-3,6.4-3s6.7,3,6.7,3L3871.3,973.7z"/>
				<g id="XMLID_621_">
					
						<ellipse id="XMLID_626_" transform="matrix(0.4881 -0.8728 0.8728 0.4881 1167.975 3841.7366)" class="st3" cx="3859" cy="925.2" rx="15.5" ry="15.5"/>
					<path id="XMLID_625_" class="st19" d="M3874.5,927.7c0.2-1.5,0.3-2.9,0.1-4.4c0-0.1,0-0.2,0-0.4c0,0,0,0,0-0.1
						c-0.6-4.1-2.7-7.8-5.9-10.2c-0.2-0.2-0.5-0.3-0.7-0.5l-0.4-0.3l0,0c-0.3-0.2-0.6-0.3-0.8-0.5c-1.3-0.7-2.8-1.3-4.4-1.6
						c-6.2-1.3-12.5,1.2-16,6c-0.3-0.6-0.5-1.2-0.6-1.8l-2.2,0.4c0.8,4.1,11.9,21.4,24.6,16c1.2,3.8,5.6,1.5,5.6,1.5L3874.5,927.7z"
						/>
					<path id="XMLID_624_" class="st19" d="M3848.2,930.1c-2.5-1.6-2.3-3.9-1.8-4.9l1.1,0.6c-0.1,0.2-0.8,1.9,1.3,3.2
						c2.1,1.4,3.4,0,3.5-0.1l1,0.8C3852.7,930.6,3850.7,931.8,3848.2,930.1z"/>
					<path id="XMLID_623_" class="st19" d="M3873.8,919.3c0.4-0.6,0.8-0.2,0.7-1.1c-0.1-0.8-0.2-1.6-0.8-2.2
						c-0.4-0.4-1.3-1.4-1.9-1.5c-0.6-0.1-0.9,0.5-1.4,0.7c0.8,1.2,1.2,2.4,1.9,3.6c0.4,0.7,0.6,0.8,1.3,0.6"/>
					<polygon id="XMLID_622_" class="st19" points="3872.4,915.4 3877.6,907.5 3881.6,916.3 3873.9,918.1 					"/>
				</g>
				<path id="XMLID_620_" class="st3" d="M3841.5,958.4c-0.1,0.3-0.2,0.6-0.3,1c-0.8,1.6-3,6.4-5.3,5c-1.4-0.9-0.9-6-0.1-7.6
					c0.2-0.3,0.3-0.6,0.6-0.8L3841.5,958.4z"/>
				<path id="XMLID_619_" class="st3" d="M3836.3,955.8l-3.6,1.4c-1.3,0.2-1.2,1.5-0.4,1.8c0.9,0.2,4.1,0.5,4.1,0.5L3836.3,955.8z"
					/>
				<polygon id="XMLID_618_" class="st19" points="3852.7,941.8 3835.9,956 3841,960.2 3849.9,953.5 				"/>
				<path id="XMLID_617_" class="st3" d="M3882.5,954.5l3.6,1.4c1.3,0.2,1.2,1.5,0.4,1.8c-0.5,0.1-1.8,0.3-2.8,0.4
					c0.3,2,0.2,4.4-0.8,5c-2.3,1.4-4.5-3.4-5.3-5c-0.2-0.3-0.3-0.6-0.3-1L3882.5,954.5z"/>
				<polygon id="XMLID_616_" class="st19" points="3866.2,940.4 3883,954.6 3877.9,958.8 3868.3,953.5 				"/>
			</g>
		</g>
		<g id="XMLID_580_">
			<ellipse id="XMLID_216_" class="st18" cx="3382" cy="720.4" rx="19.5" ry="5"/>
			<g id="XMLID_202_">
				<path id="XMLID_215_" class="st19" d="M3377.8,703l2.8,14.7c-0.1,0-0.3,0-0.4,0c-3.9,0-4.4,2.9-4.4,2.9h9.4l0.4-2.9l2.8-14.7
					H3377.8z"/>
				<polygon id="XMLID_214_" class="st19" points="3379,669.4 3353.6,672.5 3355.8,678.8 3378.1,680.8 				"/>
				<path id="XMLID_213_" class="st20" d="M3393.9,703h-22.4l2.5-33.6c0,0,3.5-3.9,9.7-3.9c4.3,0,5.7,3.2,5.7,3.2L3393.9,703z"/>
				<path id="XMLID_212_" class="st3" d="M3397.8,693.5c0.2,0.4,0.3,0.8,0.4,1.2c0.4,2.3-1,4.4-3.1,4.8c-2.1,0.4-4.1-1.2-4.5-3.5
					c-0.1-0.4-0.1-0.9,0-1.3L3397.8,693.5z"/>
				<polygon id="XMLID_211_" class="st20" points="3389.4,668.7 3397.6,693.5 3391.3,694.7 				"/>
				<g id="XMLID_204_">
					
						<ellipse id="XMLID_210_" transform="matrix(0.4881 -0.8728 0.8728 0.4881 1163.678 3285.3665)" class="st3" cx="3382.6" cy="650.7" rx="16.6" ry="16.6"/>
					<path id="XMLID_209_" class="st19" d="M3399.2,653.4c0.3-1.6,0.3-3.1,0.1-4.7c0-0.1,0-0.3,0-0.4c0,0,0,0,0-0.1
						c-0.6-4.3-2.9-8.3-6.3-10.9c-0.2-0.2-0.5-0.4-0.7-0.5l-0.4-0.3l0,0c-0.3-0.2-0.6-0.4-0.9-0.5c-1.4-0.8-3-1.4-4.7-1.7
						c-6.7-1.4-13.3,1.2-17.1,6.4c-0.3-0.6-0.5-1.2-0.7-1.9l-2.3,0.5c0.9,4.4,4.2,7.2,9.8,8.4c4.8,1,9.8-0.1,13.6-3
						c1.3,4.1,4.1,7.6,7.9,9.7l1.5,0.8L3399.2,653.4z"/>
					<path id="XMLID_208_" class="st19" d="M3375.1,654.2c-3.1-0.7-3.7-3-3.6-4.2l1.3,0.1c0,0.2-0.1,2.2,2.5,2.7
						c2.7,0.6,3.4-1.2,3.4-1.5l1.3,0.4C3379.7,652.9,3378.2,654.9,3375.1,654.2z"/>
					<path id="XMLID_207_" class="st19" d="M3387.5,656.8c-3.1-0.7-3.7-3-3.6-4.2l1.3,0.1c0,0.2-0.1,2.2,2.5,2.7
						c2.7,0.6,3.4-1.2,3.4-1.5l1.3,0.4C3392.1,655.6,3390.6,657.5,3387.5,656.8z"/>
					<path id="XMLID_206_" class="st19" d="M3398.4,644.4c0.5-0.7,0.9-0.2,0.8-1.1c-0.1-0.9-0.2-1.7-0.8-2.3c-0.4-0.4-1.4-1.5-2-1.6
						s-1,0.6-1.5,0.8c0.8,1.2,1.3,2.6,2,3.8c0.4,0.7,0.6,0.8,1.4,0.7"/>
					<polygon id="XMLID_119_" class="st19" points="3396.2,640.2 3402.8,631.2 3406.8,642 3398.2,643.4 					"/>
				</g>
				<path id="XMLID_203_" class="st3" d="M3353.6,672.5c0,0-7-0.4-8.5-0.6c-1.5-0.2-1.4,1.9,0.9,2.5c2.3,0.6,2.9,0.9,2.9,0.9
					c-1.1,1.4,0,4,1.4,4.5s3.7,0.6,4.4,0s1.1-1.1,1.1-1.1L3353.6,672.5z"/>
			</g>
		</g>
		<g id="XMLID_188_">
			<ellipse id="XMLID_201_" class="st18" cx="3498.1" cy="692" rx="21.9" ry="6.5"/>
			<path id="XMLID_200_" class="st19" d="M3489.6,670.7l7.8,17.8c-0.1,0-0.3,0-0.4,0c-4,0-4.5,2.3-4.5,2.3h7.3l3-3.7l-0.3-1.6
				l-2.4-14.9h-10.5V670.7z"/>
			<path id="XMLID_199_" class="st19" d="M3501.4,679.7l10.8-1.4c0,0-0.8,4.9,1.4,5.3l2-9.7h-3.8h-7.6l1-4.3h-7.8L3501.4,679.7z"/>
			<path id="XMLID_198_" class="st12" d="M3492.7,635.8c0,0,12.3-1.6,13.7-0.2c1.3,1.3,4.8,8.3,5.9,14.9c1.1,6.6,1.5,20,1.5,20
				s-7.2,2.9-19.5,1.9c-6.9-0.6-11.7-3.2-14.1-4.4C3489,636.9,3492.7,635.8,3492.7,635.8z"/>
			<path id="XMLID_197_" class="st21" d="M3492.9,637.7c-2.3,2.3-2.3,6.1,0,8.5l21.1,18.1l5.5-5.5l-18.1-21.1
				C3499,635.4,3495.2,635.4,3492.9,637.7z"/>
			<g id="XMLID_194_">
				<path id="XMLID_196_" class="st3" d="M3508.3,605.9c-8.2-4.4-18.4-1.4-22.8,6.8c-1.6,2.9-2.2,6.1-2,9.2c0.2,0.3,0.5,0.5,0.9,0.8
					c2.2,1.5,3.3,0.4,3.5,0.3l1,0.9c-0.7,0.7-2.6,1.6-5.1-0.2l0,0c0.9,4.9,3.9,9.4,8.6,12c8.2,4.4,18.4,1.4,22.8-6.8
					C3519.6,620.6,3516.5,610.3,3508.3,605.9z"/>
				<path id="XMLID_195_" class="st19" d="M3488.8,623.9l-1-0.9c-0.1,0.1-1.3,1.3-3.5-0.3c-0.4-0.3-0.6-0.5-0.9-0.8
					c0,0.6,0.1,1.1,0.2,1.7l0,0C3486.3,625.5,3488.2,624.6,3488.8,623.9z"/>
			</g>
			<path id="XMLID_193_" class="st19" d="M3493.6,631.4c-2.6-1.9-2.2-4.3-1.7-5.3l1.2,0.7c-0.1,0.2-1,1.9,1.3,3.5
				c2.2,1.6,3.6,0.2,3.7,0l1,0.9C3498.4,632.1,3496.2,633.3,3493.6,631.4z"/>
			<path id="XMLID_192_" class="st3" d="M3519.3,658.9c0.4,0.2,0.7,0.5,1,0.8c1.7,1.7,1.8,4.3,0.3,5.8c-1.5,1.6-4.1,1.5-5.8-0.2
				c-0.3-0.3-0.6-0.7-0.8-1L3519.3,658.9z"/>
			<path id="XMLID_191_" class="st19" d="M3517.2,623.5c0.2-1.2,0.3-3.5,0.1-5c0-0.1,0-0.3-0.1-0.4V618c-0.7-4.4-3.1-8.4-6.6-11
				c-0.2-0.2-0.5-0.4-0.8-0.5l-0.4-0.3l0,0c-0.3-0.2-0.6-0.4-0.9-0.5c-1.5-0.8-3.1-1.4-4.8-1.7c-6.8-1.3-13.5,1.5-17.2,6.8
				c-0.3-0.6-0.6-1.2-0.7-2l-2.3,0.5c0.9,4.4,2.7,6.9,3.7,8.4c8.5,13.1,22.7,13.6,27.6,12.3C3515.4,629.8,3516.9,625.2,3517.2,623.5
				z"/>
			<path id="XMLID_190_" class="st19" d="M3515.2,615.2c-0.9-1.6-1.5-3.3-2.6-4.9c0.6-0.3,1.1-1.1,1.9-1c0.7,0.1,2,1.6,2.5,2.1
				c0.8,0.8,0.9,1.8,1,3s-0.4,1.1-1,1.5C3516.5,616.2,3515.8,616.1,3515.2,615.2z"/>
			<polygon id="XMLID_205_" class="st19" points="3513.8,611.2 3522.6,600.5 3527.5,612.9 3516.1,614.9 			"/>
		</g>
		<g id="XMLID_600_">
			<ellipse id="XMLID_613_" class="st18" cx="3924.1" cy="988.5" rx="20.4" ry="6"/>
			<path id="XMLID_612_" class="st19" d="M3916.2,968.7l7.2,16.6c-0.1,0-0.3,0-0.4,0c-3.7,0-4.2,2.2-4.2,2.2h6.8l2.8-3.4l-0.3-1.5
				l-2.2-13.9L3916.2,968.7L3916.2,968.7z"/>
			<path id="XMLID_611_" class="st19" d="M3927.2,977l10-1.3c0,0-0.7,4.5,1.3,4.9l1.9-9h-3.5h-7l0.9-4h-7.2L3927.2,977z"/>
			<path id="XMLID_610_" class="st12" d="M3919.1,936.3c0,0,11.4-1.5,12.7-0.2c1.3,1.2,4.4,7.7,5.5,13.8s1.4,18.6,1.4,18.6
				s-6.7,2.7-18.1,1.7c-6.4-0.5-10.8-3-13-4.1C3915.7,937.4,3919.1,936.3,3919.1,936.3z"/>
			<path id="XMLID_609_" class="st21" d="M3924.6,938c-2.1-2.2-5.6-2.3-7.9-0.2l-17.4,19.1l5,5.3l20-16.3
				C3926.6,943.8,3926.7,940.3,3924.6,938z"/>
			<g id="XMLID_606_">
				<path id="XMLID_608_" class="st3" d="M3933.6,908.5c-7.6-4.1-17.1-1.3-21.2,6.3c-1.5,2.7-2,5.7-1.8,8.5c0.2,0.2,0.5,0.5,0.8,0.7
					c2,1.4,3.1,0.4,3.2,0.3l0.9,0.8c-0.6,0.7-2.4,1.5-4.8-0.2l0,0c0.8,4.6,3.6,8.7,8,11.1c7.6,4.1,17.1,1.3,21.2-6.3
					C3944,922.1,3941.2,912.6,3933.6,908.5z"/>
				<path id="XMLID_607_" class="st19" d="M3915.5,925.2l-0.9-0.8c-0.1,0.1-1.2,1.2-3.2-0.3c-0.3-0.2-0.6-0.5-0.8-0.7
					c0,0.5,0.1,1.1,0.2,1.6l0,0C3913.1,926.7,3914.9,925.9,3915.5,925.2z"/>
			</g>
			<path id="XMLID_605_" class="st19" d="M3919.9,932.2c-2.5-1.7-2.1-4-1.5-4.9l1.1,0.6c-0.1,0.2-0.9,1.8,1.2,3.3
				c2.1,1.5,3.3,0.2,3.5,0l1,0.8C3924.4,932.9,3922.4,934,3919.9,932.2z"/>
			<path id="XMLID_604_" class="st3" d="M3904.3,962c-0.2,0.3-0.4,0.7-0.7,1c-1.6,1.5-4,1.6-5.4,0.1s-1.2-3.9,0.3-5.4
				c0.3-0.3,0.6-0.5,1-0.7L3904.3,962z"/>
			<path id="XMLID_603_" class="st19" d="M3941.9,924.9c0.2-1.1,0.3-3.2,0.1-4.7c0-0.1,0-0.2,0-0.4c0,0,0,0,0-0.1
				c-0.6-4.1-2.9-7.8-6.1-10.2c-0.2-0.2-0.5-0.3-0.7-0.5l-0.4-0.3l0,0c-0.3-0.2-0.6-0.3-0.8-0.5c-1.4-0.7-2.8-1.3-4.4-1.6
				c-6.3-1.2-12.5,1.4-16,6.3c-0.3-0.6-0.5-1.2-0.7-1.8l-2.2,0.5c0.9,4.1,2.5,6.4,3.4,7.8c7.9,12.2,21.1,12.6,25.6,11.4
				C3940.1,930.7,3941.6,926.5,3941.9,924.9z"/>
			<path id="XMLID_602_" class="st19" d="M3940,917.2c-0.9-1.5-1.4-3.1-2.4-4.6c0.6-0.3,1-1.1,1.7-0.9c0.7,0.1,1.9,1.5,2.4,1.9
				c0.8,0.8,0.9,1.7,1,2.8s-0.4,1-0.9,1.4C3941.2,918.1,3940.5,918,3940,917.2z"/>
			<polygon id="XMLID_601_" class="st19" points="3938.7,913.4 3946.8,903.5 3951.4,915 3940.9,916.9 			"/>
		</g>
		<g id="XMLID_178_">
			<path id="XMLID_187_" class="st22" d="M3519.2,662.7c0,0,21.5-6.6,39.1-22.3c63.6-56.5,89.7-254,89.7-254"/>
			<line id="XMLID_186_" class="st22" x1="3648" y1="386.4" x2="3645.1" y2="352.9"/>
			<line id="XMLID_185_" class="st22" x1="3648" y1="386.4" x2="3656.4" y2="365.8"/>
			<polygon id="XMLID_184_" class="st23" points="3645.1,352.9 3656.4,365.8 3705.4,378.8 3673.7,354.5 			"/>
			
				<linearGradient id="XMLID_7_" gradientUnits="userSpaceOnUse" x1="3677.0022" y1="497.8963" x2="3672.4263" y2="487.1206" gradientTransform="matrix(1 0 0 -1 0 859.62)">
				<stop  offset="0" style="stop-color:#FFFFFF"/>
				<stop  offset="0.686" style="stop-color:#7BBBCF"/>
				<stop  offset="1" style="stop-color:#439FBB"/>
			</linearGradient>
			<polygon id="XMLID_183_" class="st31" points="3645.1,352.9 3656.4,365.8 3705.4,378.8 3673.7,354.5 			"/>
			<path id="XMLID_182_" class="st25" d="M3704.8,378.5c1.7-0.2,4.9-0.5,6.3,0.6c1.4,1.1,1.3,3.8,2.7,5.3c2.1,2.1,4.4-1.1,7.2,0.1
				c1.9,0.9,1.1,3.8,3.8,4"/>
			<path id="XMLID_181_" class="st25" d="M3704.9,378.6c1.7,3.2,1.3,4.2,4.7,6.6c1.6,1,3.1,0.7,4.7,2c1.5,1.5,1.5,3.7,3.8,4.5"/>
			<path id="XMLID_180_" class="st25" d="M3705,379c5.6,5.9,7.4-1.8,11-0.4c2.9,1.2,5.2,5,8.9,3.5"/>
			<line id="XMLID_179_" class="st22" x1="3648" y1="386.4" x2="3673.7" y2="354.5"/>
		</g>
		
			<ellipse id="XMLID_177_" transform="matrix(0.1218 -0.9926 0.9926 0.1218 2479.208 4435.6699)" class="st18" cx="3746.2" cy="816.8" rx="5.3" ry="20.6"/>
		<g id="XMLID_165_">
			<ellipse id="XMLID_176_" class="st18" cx="3705.6" cy="815.8" rx="27" ry="5.5"/>
			<path id="XMLID_175_" class="st19" d="M3725.4,808.1l-14.4,2c-5.6-4.1-14.8-8.7-14.8-8.7s-3.4-0.2-5.2,0.8
				c-1.8,1.1-6.7,13.1,16.2,14.4c1.8,0.1,3.3,0.1,4.4,0c1,0,2.1,0,3.2-0.1C3720.8,816.2,3726,813.4,3725.4,808.1z"/>
			<g id="XMLID_170_">
				<polygon id="XMLID_174_" class="st3" points="3667.5,772.3 3676.5,775.8 3683.2,769.4 3690.2,773.6 3695.8,768.8 3708.2,794.9 
					3683.2,804.3 				"/>
				<line id="XMLID_173_" class="st26" x1="3676.5" y1="775.8" x2="3689.4" y2="802"/>
				<line id="XMLID_172_" class="st26" x1="3683.2" y1="769.4" x2="3696.7" y2="799.2"/>
				<line id="XMLID_171_" class="st26" x1="3690.2" y1="773.6" x2="3701.9" y2="797.3"/>
			</g>
			<path id="XMLID_169_" class="st3" d="M3704.5,772.3c-7.9-3.1-13.1-9.5-13.8-15.9c-3.5,8.5,0,18.5,8.4,22.8
				c8.7,4.5,19.4,1.2,24.1-7.5C3718.2,774.5,3711.2,774.9,3704.5,772.3z"/>
			<path id="XMLID_168_" class="st19" d="M3689.3,749l2.7,0.7c-0.4,1.5-0.5,3.1-0.4,4.8c4.7-8.5,15.4-11.7,24-7.2
				c8.8,4.6,12.3,15.5,7.7,24.3c0,0.1-1.5,2.4-1.5,2.4c-7.5,8.3-10.9,7.8-19.7,2.6c-3.6-2.1-6.3-5.6-8.2-9.2
				C3689.7,761.7,3687.8,754.9,3689.3,749z"/>
			<path id="XMLID_167_" class="st3" d="M3686,804.3c-0.3,0.3-0.7,0.6-1.1,0.8c-2.2,1.1-4.8,0.4-5.9-1.7c-1-2-0.1-4.6,2.2-5.7
				c0.4-0.2,0.9-0.4,1.3-0.4L3686,804.3z"/>
			<path id="XMLID_166_" class="st20" d="M3727.1,807.9c0,0-6.3-23.3-6.8-25.2c-0.5-1.8-3.1-5.2-12.4-5.2c-1.5,0-2.9,0.5-4.1,1.2
				h-0.1c-4.3,2-21.3,18.6-21.3,18.6l3.7,6.9l11-7.5l-2.8,15.6L3727.1,807.9z"/>
		</g>
		<g id="XMLID_154_">
			<g id="XMLID_162_">
				<path id="XMLID_164_" class="st3" d="M3047.2,621.7c-2.1,0.1-6.4-1-10.6-4.3c-2.2-1.8-3.5-4.4-4.1-6.5c-7.4,5.7-9.2,16.2-4,24.1
					c4.8,7.2,13.7,9.8,21.4,6.8C3041.1,635.6,3044.1,626.2,3047.2,621.7z"/>
				<path id="XMLID_163_" class="st19" d="M3058.4,615.1c-5.5-8.3-16.6-10.5-24.9-5c-0.4,0.2-0.7,0.5-1.1,0.8
					c0.7,2.1,1.9,4.7,4.1,6.5c4.2,3.4,8.5,4.4,10.6,4.3c-3.1,4.5-6,13.9,2.8,20.1c1.2-0.5,2.3-1,3.4-1.8
					C3061.6,634.5,3063.9,623.4,3058.4,615.1z"/>
			</g>
			<ellipse id="XMLID_161_" class="st18" cx="3041" cy="702.7" rx="29.3" ry="7.6"/>
			<path id="XMLID_160_" class="st19" d="M3030,682.6l4.9,17.3c-0.2,0-0.4,0-0.5,0c-4.6,0-5.2,3.4-5.2,3.4h11.1l0.4-3.4l0.3-17.3
				H3030z"/>
			<path id="XMLID_159_" class="st19" d="M3038.4,681.2l4.9,17.3c-0.2,0-0.3,0-0.5,0c-4.6,0-5.2,3.4-5.2,3.4h11.1l0.4-3.4l1-17.3
				H3038.4z"/>
			<path id="XMLID_158_" class="st19" d="M3030.7,623.5c-2.7-2.2-2.1-4.7-1.4-5.7l1.2,0.8c-0.1,0.2-1.2,2,1.1,3.8s3.8,0.5,4,0.3l1,1
				C3035.7,624.6,3033.3,625.7,3030.7,623.5z"/>
			<path id="XMLID_157_" class="st3" d="M3023.4,614L3023.4,614l-0.1-0.2c-0.1-0.2-0.1-0.3-0.2-0.5c-0.1-0.2-0.2-0.3-0.3-0.4
				l-2.9-6.2c-0.4-1.1-1.1-1.7-1.8-1.3s-0.7,1.9-0.7,2.5c0,0.5,0.1,1.6,0.2,2.3c-0.4,0.1-0.8,0.2-1.2,0.3c-2.5,1.1-3.5,4.2-2.2,6.9
				c0.2,0.5,0.5,1,0.9,1.4l8.5-3.9C3023.5,614.6,3023.4,614.3,3023.4,614z"/>
			<path id="XMLID_156_" class="st20" d="M3022.2,612.9l11.8,26.9c0,0,12.1-0.4,13.7,1.2c1.6,1.5,5.5,9.6,6.9,17.2
				c1.3,7.6,1.7,23.2,1.7,23.2s-8.3,3.4-22.6,2.2c-7.9-0.7-13.5-3.7-16.3-5.1c1-4,7.7-20.3,7.7-20.3l-11.5-40.7L3022.2,612.9z"/>
			<path id="XMLID_155_" class="st19" d="M3032.4,610.9c-0.8-2.5,0.2-5.9,1.1-6.6l1.2,1c-0.8,1.6-0.9,4.5,0,4.6
				C3035.7,610,3032.4,610.9,3032.4,610.9z"/>
		</g>
		<g id="XMLID_138_">
			<path id="XMLID_153_" class="st19" d="M3746.4,791.9l3.1,14.5c-0.2,0-0.3-0.1-0.5,0c-3.2,1.4-1,4.6-1,4.6h6.3l0.4-3.1l1.1-16
				H3746.4z"/>
			<path id="XMLID_152_" class="st19" d="M3755.1,791.9l3.1,14.5c-0.2,0-0.3-0.1-0.5,0c-3.2,1.4-1,4.6-1,4.6h6.3l0.4-3.1l1.1-16
				H3755.1z"/>
			<path id="XMLID_151_" class="st3" d="M3735.7,773.8c-0.1,0.4-0.2,0.7-0.4,1.1c-0.9,1.9-3.5,7.5-6.2,5.8c-1.7-1-1.1-7-0.1-8.9
				c0.2-0.4,0.4-0.7,0.7-1L3735.7,773.8z"/>
			<path id="XMLID_150_" class="st12" d="M3770,791.9h-30.3l9-37.3c0,0,1.7-3.5,7.5-3.5s7.8,3.5,7.8,3.5L3770,791.9z"/>
			<path id="XMLID_149_" class="st3" d="M3768.1,781.7c0.1,0.4,0.2,0.9,0.2,1.4c0,2.5-1.9,4.6-4.2,4.6s-4.2-2.1-4.2-4.6
				c0-0.5,0.1-0.9,0.2-1.4H3768.1z"/>
			<polygon id="XMLID_148_" class="st12" points="3759.2,754.6 3768.1,781.7 3760,781.7 			"/>
			<g id="XMLID_141_">
				
					<ellipse id="XMLID_147_" transform="matrix(0.4881 -0.8728 0.8728 0.4881 1281.2418 3655.5232)" class="st3" cx="3756.9" cy="735.5" rx="18.1" ry="18.1"/>
				<path id="XMLID_146_" class="st19" d="M3775,738.4c0.3-1.7,0.3-3.4,0.1-5.1c0-0.1,0-0.3,0-0.4v-0.1c-0.6-4.7-3.2-9-6.9-11.9
					c-0.3-0.2-0.5-0.4-0.8-0.6l-0.4-0.3l0,0c-0.3-0.2-0.6-0.4-1-0.6c-1.5-0.9-3.3-1.5-5.1-1.9c-7.3-1.5-14.5,1.3-18.6,7
					c-0.3-0.7-0.6-1.4-0.7-2.1l-2.5,0.5c0.9,4.7,4.5,7.8,10.7,9.1c5.2,1.1,10.6-0.2,14.8-3.3c1.4,4.5,4.4,8.3,8.6,10.6l1.6,0.9
					L3775,738.4z"/>
				<path id="XMLID_145_" class="st19" d="M3748.8,739.3c-3.4-0.7-4.1-3.3-3.9-4.6l1.5,0.2c0,0.2-0.1,2.4,2.8,3
					c2.9,0.6,3.7-1.4,3.7-1.6l1.4,0.5C3753.8,738,3752.2,740.1,3748.8,739.3z"/>
				<path id="XMLID_144_" class="st19" d="M3762.3,742.2c-3.4-0.7-4.1-3.3-3.9-4.6l1.5,0.2c0,0.2-0.1,2.3,2.8,3
					c2.9,0.6,3.7-1.4,3.7-1.6l1.4,0.5C3767.3,740.8,3765.7,742.9,3762.3,742.2z"/>
				<path id="XMLID_143_" class="st19" d="M3774.1,728.7c0.5-0.7,0.9-0.2,0.8-1.3c-0.1-1-0.2-1.8-0.9-2.5c-0.4-0.4-1.5-1.7-2.2-1.8
					s-1.1,0.6-1.6,0.8c0.9,1.3,1.4,2.8,2.2,4.2c0.5,0.8,0.7,0.9,1.5,0.7"/>
				<path id="XMLID_189_" class="st19" d="M3772,724.3c0.1-0.2,6.8-9.7,6.8-9.7l4.7,10.9l-9.5,2L3772,724.3z"/>
			</g>
			<path id="XMLID_140_" class="st3" d="M3729.7,770.9l-4.2,1.6c-1.5,0.3-1.4,1.8-0.4,2c1,0.3,4.7,0.5,4.7,0.5L3729.7,770.9z"/>
			<polygon id="XMLID_139_" class="st21" points="3748.7,754.6 3729.2,771.1 3735.1,775.9 3745.4,768.1 			"/>
		</g>
		<g id="XMLID_133_">
			<g id="XMLID_135_">
				<path id="XMLID_137_" class="st3" d="M3628.2,757.9c0.1-5.1-8.4-8.9-8.4-8.9c2.6-0.2,7.5-1.3,14-7.4c4-3.8,5.5-9.4,6-13.1
					c6.3,4.9,9.1,13.5,6.2,21.4c-3.2,8.9-12.5,13.9-21.5,12.1C3626.6,760.9,3628.1,759.6,3628.2,757.9z"/>
				<path id="XMLID_136_" class="st19" d="M3610.4,736.9c3.6-9.8,14.4-14.9,24.2-11.3c1.9,0.7,3.6,1.6,5.1,2.8
					c-0.5,3.7-1.9,9.3-6,13.1c-6.5,6.2-11.4,7.2-14,7.4c0,0,8.5,3.7,8.4,8.9c0,1.8-1.6,3.1-3.7,4c-0.9-0.2-1.8-0.4-2.7-0.7
					C3611.9,757.6,3606.9,746.8,3610.4,736.9z"/>
			</g>
			<path id="XMLID_134_" class="st19" d="M3642.5,743c1.5-3.3-0.2-5.4-1.4-6l-0.8,1.3c0.2,0.1,2,1.3,0.8,4.1
				c-1.3,2.8-3.4,2.2-3.6,2.1l-0.5,1.4C3638.2,746.4,3641,746.3,3642.5,743z"/>
		</g>
		
			<ellipse id="XMLID_132_" transform="matrix(2.753003e-02 -0.9996 0.9996 2.753003e-02 2709.7598 4425.4976)" class="st27" cx="3629.4" cy="820" rx="7" ry="20"/>
		<path id="XMLID_131_" class="st19" d="M3635.2,800.7l-3.2,16.6c0.2,0,0.3,0,0.5,0c4.5,0,5,3.3,5,3.3h-10.7l-0.4-3.3l-3.2-16.6
			H3635.2z"/>
		<path id="XMLID_130_" class="st12" d="M3610.3,800.7h35.6l-5.2-37.1c0,0-5-5.4-12.5-5.4c-7.6,0-10.1,3.7-10.1,3.7L3610.3,800.7z"
			/>
		<path id="XMLID_129_" class="st3" d="M3654.4,751.4c0,0,7.4-5,12.9-4.9s7.8,5.1,6,6s-12.6,2.4-14.9,4.9S3654.4,751.4,3654.4,751.4
			z"/>
		<path id="XMLID_128_" class="st3" d="M3660.8,741.8c-0.9,1.3-4.2,9-4.2,9l6.5-2.1c0,0,0.5-4.1,0.7-5.2
			C3664.1,741.3,3661.7,740.5,3660.8,741.8z"/>
		<path id="XMLID_127_" class="st19" d="M3633.4,759.6l14.2-1.6l10.1-9.8l4.5,7.3l-12.2,12.3c0,0-12.6,3.5-16.5,2.4
			C3629.5,769,3626.8,759.8,3633.4,759.6z"/>
		<g id="XMLID_561_">
			<g id="XMLID_563_">
				<path id="XMLID_565_" class="st3" d="M2865.6,946.3c-0.1-5.1,8.4-8.9,8.4-8.9c-2.6-0.2-7.5-1.3-14-7.4c-4-3.8-5.5-9.4-6-13.1
					c-6.3,4.9-9.1,13.5-6.2,21.4c3.2,8.9,12.5,13.9,21.5,12.1C2867.2,949.3,2865.6,948,2865.6,946.3z"/>
				<path id="XMLID_564_" class="st19" d="M2883.4,925.3c-3.6-9.8-14.4-14.9-24.2-11.3c-1.9,0.7-3.6,1.6-5.1,2.8
					c0.5,3.7,1.9,9.3,6,13.1c6.5,6.2,11.4,7.2,14,7.4c0,0-8.5,3.7-8.4,8.9c0,1.8,1.6,3.1,3.7,4c0.9-0.2,1.8-0.4,2.7-0.7
					C2881.9,946,2886.9,935.2,2883.4,925.3z"/>
			</g>
			<path id="XMLID_562_" class="st19" d="M2851.3,931.4c-1.5-3.3,0.2-5.4,1.4-6l0.8,1.3c-0.2,0.1-2,1.3-0.8,4.1
				c1.3,2.8,3.4,2.2,3.6,2.1l0.5,1.4C2855.6,934.8,2852.8,934.7,2851.3,931.4z"/>
		</g>
		
			<ellipse id="XMLID_560_" transform="matrix(0.9996 -2.753003e-02 2.753003e-02 0.9996 -26.675 79.2376)" class="st27" cx="2864.3" cy="1008.4" rx="20" ry="7"/>
		<path id="XMLID_559_" class="st19" d="M2858.6,989.1l3.2,16.6c-0.2,0-0.3,0-0.5,0c-4.5,0-5,3.3-5,3.3h10.7l0.4-3.3l3.2-16.6
			H2858.6z"/>
		<path id="XMLID_558_" class="st20" d="M2883.5,989.1h-35.6l5.2-37.1c0,0,5-5.4,12.5-5.4c7.6,0,10.1,3.7,10.1,3.7L2883.5,989.1z"/>
		<path id="XMLID_557_" class="st3" d="M2839.4,939.8c0,0-7.4-5-12.9-4.9s-7.8,5.1-6,6s12.6,2.4,14.9,4.9
			C2837.8,948.2,2839.4,939.8,2839.4,939.8z"/>
		<path id="XMLID_556_" class="st3" d="M2833,930.2c0.9,1.3,4.2,9,4.2,9l-6.5-2.1c0,0-0.5-4.1-0.7-5.2
			C2829.7,929.7,2832.1,928.9,2833,930.2z"/>
		<path id="XMLID_555_" class="st19" d="M2860.4,948l-14.2-1.6l-10.1-9.8l-4.5,7.3l12.2,12.3c0,0,12.6,3.5,16.5,2.4
			C2864.2,957.5,2867,948.2,2860.4,948z"/>
		<g id="XMLID_579_">
			<ellipse id="XMLID_217_" class="st18" cx="3296.5" cy="712.1" rx="14.9" ry="3.9"/>
			<g id="XMLID_108_">
				<path id="XMLID_126_" class="st19" d="M3303.9,695.7l-2.7,12.5c0.1,0,0.3,0,0.4,0c2.8,1.2,0.8,4,0.8,4h-5.5l-0.4-2.7l-0.9-13.8
					H3303.9z"/>
				<path id="XMLID_125_" class="st19" d="M3296.5,695.7l-2.7,12.5c0.1,0,0.3,0,0.4,0c2.8,1.2,0.8,4,0.8,4h-5.5l-0.4-2.7l-0.9-13.8
					H3296.5z"/>
				<path id="XMLID_124_" class="st12" d="M3282.5,695.7h26.1l-7.8-33.2c0,0-1.4-3-6.4-3s-6.7,3-6.7,3L3282.5,695.7z"/>
				<g id="XMLID_118_">
					
						<ellipse id="XMLID_123_" transform="matrix(0.8728 -0.4881 0.4881 0.8728 103.3865 1690.5585)" class="st3" cx="3295" cy="646.9" rx="15.5" ry="15.5"/>
					<path id="XMLID_122_" class="st19" d="M3279.3,649.7c-0.2-1.5-0.3-2.9-0.1-4.4c0-0.1,0-0.2,0-0.4c0,0,0,0,0-0.1
						c0.6-4.1,2.7-7.8,5.9-10.2c0.2-0.2,0.5-0.3,0.7-0.5l0.4-0.3l0,0c0.3-0.2,0.6-0.3,0.8-0.5c1.3-0.7,2.8-1.3,4.4-1.6
						c6.2-1.3,12.5,1.2,16,6c0.3-0.6,0.5-1.2,0.6-1.8l2.2,0.4c-0.8,4.1-11.9,21.4-24.6,16c-1.2,3.8-5.6,1.5-5.6,1.5L3279.3,649.7z"
						/>
					<path id="XMLID_121_" class="st19" d="M3305.6,652.1c2.5-1.6,2.3-3.9,1.8-4.9l-1.1,0.6c0.1,0.2,0.8,1.9-1.3,3.2
						c-2.1,1.4-3.4,0-3.5-0.1l-1,0.8C3301.2,652.6,3303.1,653.8,3305.6,652.1z"/>
					<path id="XMLID_120_" class="st19" d="M3280.1,641.3c-0.4-0.6-0.8-0.2-0.7-1.1c0.1-0.8,0.2-1.6,0.8-2.2
						c0.4-0.4,1.3-1.4,1.9-1.5c0.6-0.1,0.9,0.5,1.4,0.7c-0.8,1.2-1.2,2.4-1.9,3.6c-0.4,0.7-0.6,0.8-1.3,0.6"/>
					<polygon id="XMLID_83_" class="st19" points="3282,637.5 3276.2,629.4 3272.3,638.4 3281,640.2 					"/>
				</g>
				<path id="XMLID_117_" class="st3" d="M3312.3,680.4c0.1,0.3,0.2,0.6,0.3,1c0.8,1.6,3,6.4,5.3,5c1.4-0.9,0.9-6,0.1-7.6
					c-0.2-0.3-0.3-0.6-0.6-0.8L3312.3,680.4z"/>
				<path id="XMLID_116_" class="st3" d="M3317.5,677.8l3.6,1.4c1.3,0.2,1.2,1.5,0.4,1.8c-0.9,0.2-4.1,0.5-4.1,0.5L3317.5,677.8z"/>
				<polygon id="XMLID_115_" class="st19" points="3301.2,663.8 3318,678 3312.9,682.2 3304,675.5 				"/>
				<path id="XMLID_112_" class="st3" d="M3271.3,676.5l-3.6,1.4c-1.3,0.2-1.2,1.5-0.4,1.8c0.5,0.1,1.8,0.3,2.8,0.4
					c-0.3,2-0.2,4.4,0.8,5c2.3,1.4,4.5-3.4,5.3-5c0.2-0.3,0.3-0.6,0.3-1L3271.3,676.5z"/>
				<polygon id="XMLID_109_" class="st19" points="3287.7,662.4 3270.9,676.6 3276,680.8 3285.6,675.5 				"/>
			</g>
		</g>
		<g id="XMLID_537_">
			<ellipse id="XMLID_578_" class="st18" cx="2761.7" cy="964.1" rx="14.9" ry="3.9"/>
			<g id="XMLID_539_">
				<path id="XMLID_554_" class="st19" d="M2770.9,947.7l-2.7,12.5c0.1,0,0.3,0,0.4,0c2.8,1.2,0.8,4,0.8,4h-5.5l-0.4-2.7l-0.9-13.8
					H2770.9z"/>
				<path id="XMLID_553_" class="st19" d="M2763.5,947.7l-2.7,12.5c0.1,0,0.3,0,0.4,0c2.8,1.2,0.8,4,0.8,4h-5.5l-0.4-2.7l-0.9-13.8
					H2763.5z"/>
				<path id="XMLID_552_" class="st12" d="M2749.5,947.7h26.1l-7.8-33.2c0,0-1.4-3-6.4-3s-6.7,3-6.7,3L2749.5,947.7z"/>
				<g id="XMLID_546_">
					
						<ellipse id="XMLID_551_" transform="matrix(0.8728 -0.4881 0.4881 0.8728 -87.4236 1462.4717)" class="st3" cx="2762" cy="899" rx="15.5" ry="15.5"/>
					<path id="XMLID_550_" class="st19" d="M2746.3,901.7c-0.2-1.5-0.3-2.9-0.1-4.4c0-0.1,0-0.2,0-0.4c0,0,0,0,0-0.1
						c0.6-4.1,2.7-7.8,5.9-10.2c0.2-0.2,0.5-0.3,0.7-0.5l0.4-0.3l0,0c0.3-0.2,0.6-0.3,0.8-0.5c1.3-0.7,2.8-1.3,4.4-1.6
						c6.2-1.3,12.5,1.2,16,6c0.3-0.6,0.5-1.2,0.6-1.8l2.2,0.4c-0.8,4.1-11.9,21.4-24.6,16c-1.2,3.8-5.6,1.5-5.6,1.5L2746.3,901.7z"
						/>
					<path id="XMLID_549_" class="st19" d="M2772.6,904.1c2.5-1.6,2.3-3.9,1.8-4.9l-1.1,0.6c0.1,0.2,0.8,1.9-1.3,3.2
						c-2.1,1.4-3.4,0-3.5-0.1l-1,0.8C2768.2,904.6,2770.1,905.8,2772.6,904.1z"/>
					<path id="XMLID_548_" class="st19" d="M2747.1,893.3c-0.4-0.6-0.8-0.2-0.7-1.1c0.1-0.8,0.2-1.6,0.8-2.2
						c0.4-0.4,1.3-1.4,1.9-1.5c0.6-0.1,0.9,0.5,1.4,0.7c-0.8,1.2-1.2,2.4-1.9,3.6c-0.4,0.7-0.6,0.8-1.3,0.6"/>
					<polygon id="XMLID_582_" class="st19" points="2748.5,889.4 2743.2,881.5 2739.3,890.3 2747,892.1 					"/>
				</g>
				<path id="XMLID_545_" class="st3" d="M2779.3,932.4c0.1,0.3,0.2,0.6,0.3,1c0.8,1.6,3,6.4,5.3,5c1.4-0.9,0.9-6,0.1-7.6
					c-0.2-0.3-0.3-0.6-0.6-0.8L2779.3,932.4z"/>
				<path id="XMLID_544_" class="st3" d="M2784.5,929.8l3.6,1.4c1.3,0.2,1.2,1.5,0.4,1.8c-0.9,0.2-4.1,0.5-4.1,0.5L2784.5,929.8z"/>
				<polygon id="XMLID_543_" class="st19" points="2768.2,915.8 2785,930 2779.9,934.2 2771,927.5 				"/>
				<path id="XMLID_542_" class="st3" d="M2738.3,928.5l-3.6,1.4c-1.3,0.2-1.2,1.5-0.4,1.8c0.5,0.1,1.8,0.3,2.8,0.4
					c-0.3,2-0.2,4.4,0.8,5c2.3,1.4,4.5-3.4,5.3-5c0.2-0.3,0.3-0.6,0.3-1L2738.3,928.5z"/>
				<polygon id="XMLID_541_" class="st19" points="2754.7,914.4 2737.9,928.6 2743,932.8 2752.6,927.5 				"/>
			</g>
		</g>
		
			<ellipse id="XMLID_107_" transform="matrix(1.265138e-02 -0.9999 0.9999 1.265138e-02 2153.7109 3744.2231)" class="st18" cx="2972.8" cy="781.5" rx="7.5" ry="34.9"/>
		<g id="XMLID_97_">
			<polygon id="XMLID_106_" class="st19" points="2952.2,780 2979,714.8 2980.4,715.4 2982.7,715.7 2984.1,715.5 2993.4,785.3 
				2990.5,785.7 2982.1,722.3 2975.5,773.4 2972.6,773 2979.3,721.9 2954.9,781.1 			"/>
			<g id="XMLID_98_">
				<g id="XMLID_101_">
					<path id="XMLID_105_" class="st19" d="M2918.4,682.5l34.9,22.6c1.5,1,5.8-3,9.7-9c3.8-5.9,5.7-11.5,4.2-12.5l-34.9-22.6
						c-1.5-1-5.8,3-9.7,9C2918.8,675.9,2916.9,681.5,2918.4,682.5z"/>
					<path id="XMLID_104_" class="st19" d="M2983,720.9L2983,720.9L2983,720.9c1.2,0.8,4.5-2.3,7.5-6.9c3-4.6,4.4-8.9,3.3-9.6l0,0
						l0,0l-58.9-38.3l-10.7,16.5L2983,720.9z"/>
					<path id="XMLID_103_" class="st19" d="M2969,708.6l42.7,27.8l0,0l0,0c0.8,0.5,3.2-1.7,5.3-5s3.2-6.4,2.4-6.9l0,0l-42.7-27.8
						L2969,708.6z"/>
					<path id="XMLID_102_" class="st19" d="M3009.5,729.9l21.7,14.1l0,0l0,0c0.4,0.3,1.6-0.9,2.7-2.6c1.1-1.7,1.6-3.3,1.2-3.5l0,0
						l-21.7-14.1L3009.5,729.9z"/>
				</g>
				
					<ellipse id="XMLID_99_" transform="matrix(0.5446 -0.8387 0.8387 0.5446 768.8035 2760.3108)" class="st3" cx="2926.2" cy="672.2" rx="9.1" ry="2.3"/>
			</g>
		</g>
		<ellipse id="XMLID_96_" class="st18" cx="3141.2" cy="806.6" rx="21.8" ry="5.6"/>
		<g id="XMLID_581_">
			<ellipse id="XMLID_218_" class="st18" cx="3092.1" cy="797.2" rx="21.8" ry="5.6"/>
			<g id="XMLID_81_">
				<g id="XMLID_89_">
					<path id="XMLID_95_" class="st19" d="M3087.5,778l3,16c-0.2,0-0.3,0-0.5,0c-4.3,0-4.8,3.1-4.8,3.1h10.3l0.4-3.1l3-16H3087.5z"
						/>
					<path id="XMLID_94_" class="st3" d="M3088,769.3c-0.1,0.4-0.2,0.9-0.4,1.3c-1.1,2.3-3.7,3.3-5.8,2.3s-2.9-3.7-1.8-6
						c0.2-0.4,0.5-0.8,0.8-1.2L3088,769.3z"/>
					<polygon id="XMLID_93_" class="st19" points="3087.7,742.3 3080.7,765.8 3083.1,767.8 					"/>
					<path id="XMLID_92_" class="st20" d="M3104.3,778H3080l6.9-38.4c0,0,1.3-3.5,6-3.5s6.2,3.5,6.2,3.5L3104.3,778z"/>
					<path id="XMLID_91_" class="st3" d="M3108.1,766.7c0.2,0.4,0.3,0.9,0.4,1.3c0.4,2.5-1.1,4.8-3.4,5.2s-4.5-1.4-4.9-3.9
						c-0.1-0.5-0.1-0.9,0-1.4L3108.1,766.7z"/>
					<polygon id="XMLID_90_" class="st19" points="3099.1,739.6 3108,766.6 3101.1,767.8 					"/>
				</g>
				<g id="XMLID_82_">
					
						<ellipse id="XMLID_88_" transform="matrix(0.4881 -0.8728 0.8728 0.4881 955.2103 3072.0044)" class="st3" cx="3096.5" cy="721.7" rx="18.1" ry="18.1"/>
					<path id="XMLID_87_" class="st19" d="M3114.5,724.6c0.3-1.7,0.3-3.4,0.1-5.1c0-0.1,0-0.3,0-0.4V719c-0.6-4.7-3.2-9-6.9-11.9
						c-0.3-0.2-0.5-0.4-0.8-0.6l-0.4-0.3l0,0c-0.3-0.2-0.6-0.4-1-0.6c-1.5-0.9-3.3-1.5-5.1-1.9c-7.3-1.5-14.5,1.3-18.6,7
						c-0.3-0.7-0.6-1.4-0.7-2.1l-2.5,0.5c0.9,4.7,4.5,7.8,10.7,9.1c5.2,1.1,10.6-0.2,14.8-3.3c1.4,4.5,4.4,8.3,8.6,10.6l1.6,0.9
						L3114.5,724.6z"/>
					<path id="XMLID_86_" class="st19" d="M3088.3,725.5c-3.4-0.7-4.1-3.3-3.9-4.6l1.5,0.2c0,0.2-0.1,2.4,2.8,3
						c2.9,0.6,3.7-1.4,3.7-1.6l1.4,0.5C3093.3,724.1,3091.7,726.2,3088.3,725.5z"/>
					<path id="XMLID_85_" class="st19" d="M3101.8,728.3c-3.4-0.7-4.1-3.3-3.9-4.6l1.5,0.2c0,0.2-0.1,2.3,2.8,3
						c2.9,0.6,3.7-1.4,3.7-1.6l1.4,0.5C3106.9,727,3105.2,729,3101.8,728.3z"/>
					<path id="XMLID_84_" class="st19" d="M3113.7,714.8c0.5-0.7,0.9-0.2,0.8-1.3c-0.1-1-0.2-1.8-0.9-2.5c-0.4-0.4-1.5-1.7-2.2-1.8
						s-1.1,0.6-1.6,0.8c0.9,1.3,1.4,2.8,2.2,4.2c0.5,0.8,0.7,0.9,1.5,0.7"/>
					<polygon id="XMLID_547_" class="st19" points="3111.6,710.3 3118.2,700.9 3122.4,711.2 3113.5,713.2 					"/>
				</g>
			</g>
		</g>
		<g id="XMLID_583_">
			<ellipse id="XMLID_599_" class="st18" cx="3829.6" cy="1037.2" rx="21.8" ry="5.6"/>
			<g id="XMLID_584_">
				<g id="XMLID_592_">
					<path id="XMLID_598_" class="st19" d="M3834.2,1018l-3,16c0.2,0,0.3,0,0.5,0c4.3,0,4.8,3.1,4.8,3.1h-10.3l-0.4-3.1l-3-16
						H3834.2z"/>
					<path id="XMLID_597_" class="st3" d="M3833.7,1009.3c0.1,0.4,0.2,0.9,0.4,1.3c1.1,2.3,3.7,3.3,5.8,2.3s2.9-3.7,1.8-6
						c-0.2-0.4-0.5-0.8-0.8-1.2L3833.7,1009.3z"/>
					<polygon id="XMLID_596_" class="st19" points="3834,982.3 3841,1005.8 3838.6,1007.8 					"/>
					<path id="XMLID_595_" class="st20" d="M3817.4,1018h24.4l-6.9-38.4c0,0-1.3-3.5-6-3.5s-6.2,3.5-6.2,3.5L3817.4,1018z"/>
					<path id="XMLID_594_" class="st3" d="M3813.6,1006.7c-0.2,0.4-0.3,0.9-0.4,1.3c-0.4,2.5,1.1,4.8,3.4,5.2s4.5-1.4,4.9-3.9
						c0.1-0.5,0.1-0.9,0-1.4L3813.6,1006.7z"/>
					<polygon id="XMLID_593_" class="st19" points="3822.6,979.6 3813.7,1006.6 3820.6,1007.8 					"/>
				</g>
				<g id="XMLID_585_">
					
						<ellipse id="XMLID_591_" transform="matrix(0.8728 -0.4881 0.4881 0.8728 17.371 1989.4584)" class="st3" cx="3825.4" cy="961.4" rx="18.1" ry="18.1"/>
					<path id="XMLID_590_" class="st19" d="M3807.2,964.6c-0.3-1.7-0.3-3.4-0.1-5.1c0-0.1,0-0.3,0-0.4V959c0.6-4.7,3.2-9,6.9-11.9
						c0.3-0.2,0.5-0.4,0.8-0.6l0.4-0.3l0,0c0.3-0.2,0.6-0.4,1-0.6c1.5-0.9,3.3-1.5,5.1-1.9c7.3-1.5,14.5,1.3,18.6,7
						c0.3-0.7,0.6-1.4,0.7-2.1l2.5,0.5c-0.9,4.7-4.5,7.8-10.7,9.1c-5.2,1.1-10.6-0.2-14.8-3.3c-1.4,4.5-4.4,8.3-8.6,10.6l-1.6,0.9
						L3807.2,964.6z"/>
					<path id="XMLID_589_" class="st19" d="M3833.4,965.5c3.4-0.7,4.1-3.3,3.9-4.6l-1.5,0.2c0,0.2,0.1,2.4-2.8,3
						c-2.9,0.6-3.7-1.4-3.7-1.6l-1.4,0.5C3828.4,964.1,3830,966.2,3833.4,965.5z"/>
					<path id="XMLID_588_" class="st19" d="M3819.9,968.3c3.4-0.7,4.1-3.3,3.9-4.6l-1.5,0.2c0,0.2,0.1,2.3-2.8,3
						c-2.9,0.6-3.7-1.4-3.7-1.6l-1.4,0.5C3814.8,967,3816.5,969,3819.9,968.3z"/>
					<path id="XMLID_587_" class="st19" d="M3808,954.8c-0.5-0.7-0.9-0.2-0.8-1.3c0.1-1,0.2-1.8,0.9-2.5c0.4-0.4,1.5-1.7,2.2-1.8
						s1.1,0.6,1.6,0.8c-0.9,1.3-1.4,2.8-2.2,4.2c-0.5,0.8-0.7,0.9-1.5,0.7"/>
					<polygon id="XMLID_142_" class="st19" points="3810.2,950.8 3803,940 3798.7,952.2 3807.8,953.2 					"/>
				</g>
			</g>
		</g>
		<g id="XMLID_75_">
			<path id="XMLID_80_" class="st19" d="M3048.8,798.1l3.5,18.6c-0.2,0-0.4,0-0.5,0c-5,0-5.6,3.6-5.6,3.6h11.9l0.5-3.6l3.5-18.6
				H3048.8z"/>
			<path id="XMLID_79_" class="st3" d="M3045.1,747.2c-9.5-3-16.2-10.1-17.6-17.6c-3.4,10.3,1.6,21.7,11.8,26.1
				c10.7,4.6,23-0.2,27.8-10.8C3061.5,748.7,3053.3,749.8,3045.1,747.2z"/>
			<path id="XMLID_78_" class="st19" d="M3025.4,720.9l3.2,0.6c-0.3,1.9-0.3,3.8-0.1,5.7c4.9-10.5,17.2-15.2,27.9-10.6
				c10.9,4.7,15.9,17.3,11.2,28.2c0,0.1-1.6,2.9-1.6,3c-8.2,10.5-12.2,10.2-23.1,4.8c-4.5-2.2-8-6.1-10.5-10.3
				C3026.8,736,3024.1,728.1,3025.4,720.9z"/>
			<path id="XMLID_77_" class="st12" d="M3068.1,798.1h-28.3l3.5-41.1c0,0,8.7-8.4,14.2-8.4s7.3,4.1,7.3,4.1L3068.1,798.1z"/>
			<path id="XMLID_76_" class="st3" d="M3054,788.9c0.1,0.5,0.2,1,0.2,1.6c0,2.9-2.2,5.3-4.9,5.3s-4.9-2.4-4.9-5.3
				c0-0.6,0.1-1.1,0.2-1.6H3054z"/>
		</g>
		<g id="XMLID_566_">
			<ellipse id="XMLID_577_" class="st18" cx="2837.2" cy="1048" rx="27" ry="5.5"/>
			<path id="XMLID_576_" class="st19" d="M2857,1040.3l-14.4,2c-5.6-4.1-14.8-8.7-14.8-8.7s-3.4-0.2-5.2,0.8
				c-1.8,1.1-6.7,13.1,16.2,14.4c1.8,0.1,3.3,0.1,4.4,0c1,0,2.1,0,3.2-0.1C2852.5,1048.4,2857.7,1045.6,2857,1040.3z"/>
			<g id="XMLID_571_">
				<polygon id="XMLID_575_" class="st3" points="2799.2,1004.5 2808.1,1008 2814.9,1001.6 2821.8,1005.8 2827.5,1001 
					2839.8,1027.1 2814.9,1036.5 				"/>
				<line id="XMLID_574_" class="st26" x1="2808.1" y1="1008" x2="2821.1" y2="1034.2"/>
				<line id="XMLID_573_" class="st26" x1="2814.9" y1="1001.6" x2="2828.3" y2="1031.4"/>
				<line id="XMLID_572_" class="st26" x1="2821.8" y1="1005.8" x2="2833.6" y2="1029.5"/>
			</g>
			<path id="XMLID_570_" class="st3" d="M2836.1,1004.5c-7.9-3.1-13.1-9.5-13.8-15.9c-3.5,8.5,0,18.5,8.4,22.8
				c8.7,4.5,19.4,1.2,24.1-7.5C2849.9,1006.7,2842.9,1007.1,2836.1,1004.5z"/>
			<path id="XMLID_569_" class="st19" d="M2821,981.2l2.7,0.7c-0.4,1.5-0.5,3.1-0.4,4.8c4.7-8.5,15.4-11.7,24-7.2
				c8.8,4.6,12.3,15.5,7.7,24.3c0,0.1-1.5,2.4-1.5,2.4c-7.5,8.3-10.9,7.8-19.7,2.6c-3.6-2.1-6.3-5.6-8.2-9.2
				C2821.3,993.9,2819.5,987.1,2821,981.2z"/>
			<path id="XMLID_568_" class="st3" d="M2817.7,1036.5c-0.3,0.3-0.7,0.6-1.1,0.8c-2.2,1.1-4.8,0.4-5.9-1.7c-1-2-0.1-4.6,2.2-5.7
				c0.4-0.2,0.9-0.4,1.3-0.4L2817.7,1036.5z"/>
			<path id="XMLID_567_" class="st12" d="M2858.7,1040.1c0,0-6.3-23.3-6.8-25.2c-0.5-1.8-3.1-5.2-12.4-5.2c-1.5,0-2.9,0.5-4.1,1.2
				h-0.1c-4.3,2-21.3,18.6-21.3,18.6l3.7,6.9l11-7.5l-2.8,15.6L2858.7,1040.1z"/>
		</g>
		<g id="XMLID_639_">
			<ellipse id="XMLID_659_" class="st18" cx="3952" cy="1064.4" rx="19.5" ry="5"/>
			<g id="XMLID_640_">
				<path id="XMLID_658_" class="st19" d="M3947.8,1047l2.8,14.7c-0.1,0-0.3,0-0.4,0c-3.9,0-4.4,2.9-4.4,2.9h9.4l0.4-2.9l2.8-14.7
					H3947.8z"/>
				<polygon id="XMLID_657_" class="st19" points="3949.9,1011.4 3926.4,1001.2 3925.1,1007.7 3943.3,1020.9 				"/>
				<path id="XMLID_656_" class="st20" d="M3963.9,1047h-22.4l2.5-33.6c0,0,3.5-3.9,9.7-3.9c4.3,0,5.7,3.2,5.7,3.2L3963.9,1047z"/>
				<path id="XMLID_655_" class="st3" d="M3967.8,1037.5c0.2,0.4,0.3,0.8,0.4,1.2c0.4,2.3-1,4.4-3.1,4.8s-4.1-1.2-4.5-3.5
					c-0.1-0.4-0.1-0.9,0-1.3L3967.8,1037.5z"/>
				<polygon id="XMLID_654_" class="st20" points="3959.4,1012.7 3967.6,1037.5 3961.3,1038.7 				"/>
				<g id="XMLID_647_">
					
						<ellipse id="XMLID_653_" transform="matrix(0.4881 -0.8728 0.8728 0.4881 1155.2157 3958.9814)" class="st3" cx="3952.6" cy="994.7" rx="16.6" ry="16.6"/>
					<path id="XMLID_652_" class="st19" d="M3969.2,997.4c0.3-1.6,0.3-3.1,0.1-4.7c0-0.1,0-0.3,0-0.4c0,0,0,0,0-0.1
						c-0.6-4.3-2.9-8.3-6.3-10.9c-0.2-0.2-0.5-0.4-0.7-0.5l-0.4-0.3l0,0c-0.3-0.2-0.6-0.4-0.9-0.5c-1.4-0.8-3-1.4-4.7-1.7
						c-6.7-1.4-13.3,1.2-17.1,6.4c-0.3-0.6-0.5-1.2-0.7-1.9l-2.3,0.5c0.9,4.4,4.2,7.2,9.8,8.4c4.8,1,9.8-0.1,13.6-3
						c1.3,4.1,4.1,7.6,7.9,9.7l1.5,0.8L3969.2,997.4z"/>
					<path id="XMLID_651_" class="st19" d="M3945.1,998.2c-3.1-0.7-3.7-3-3.6-4.2l1.3,0.1c0,0.2-0.1,2.2,2.5,2.7
						c2.7,0.6,3.4-1.2,3.4-1.5l1.3,0.4C3949.7,996.9,3948.2,998.9,3945.1,998.2z"/>
					<path id="XMLID_650_" class="st19" d="M3957.5,1000.8c-3.1-0.7-3.7-3-3.6-4.2l1.3,0.1c0,0.2-0.1,2.2,2.5,2.7
						c2.7,0.6,3.4-1.2,3.4-1.5l1.3,0.4C3962.1,999.6,3960.6,1001.5,3957.5,1000.8z"/>
					<path id="XMLID_649_" class="st19" d="M3968.4,988.4c0.5-0.7,0.9-0.2,0.8-1.1c-0.1-0.9-0.2-1.7-0.8-2.3c-0.4-0.4-1.4-1.5-2-1.6
						s-1,0.6-1.5,0.8c0.8,1.2,1.3,2.6,2,3.8c0.4,0.7,0.6,0.8,1.4,0.7"/>
					<polygon id="XMLID_648_" class="st19" points="3966.2,984.2 3972.8,975.2 3976.8,986 3968.2,987.4 					"/>
				</g>
				<path id="XMLID_646_" class="st3" d="M3926.4,1001.2c0,0-5.8-3.9-7-4.8s-2.2,0.9-0.5,2.6c1.6,1.7,2,2.3,2,2.3
					c-1.6,0.7-2.1,3.4-1.1,4.6s2.9,2.4,3.8,2.3c0.9-0.1,1.6-0.4,1.6-0.4L3926.4,1001.2z"/>
			</g>
		</g>
		<g id="XMLID_531_">
			<ellipse id="XMLID_645_" class="st18" cx="3901.8" cy="1103.8" rx="16.5" ry="4.3"/>
			<g id="XMLID_586_">
				<path id="XMLID_632_" class="st3" d="M3916.3,1071.7l2.5,3.4c1.1,1,0.2,2.2-0.7,1.8c-0.6-0.2-1.8-0.8-2.8-1.3
					c-1,2-2.5,4.2-3.7,4.2c-3-0.1-2.2-5.8-2-7.8c0-0.4,0.1-0.7,0.3-1.1L3916.3,1071.7z"/>
				<polygon id="XMLID_631_" class="st19" points="3909.5,1048.9 3916.6,1072.1 3909.4,1072.9 3903.7,1062.3 				"/>
				<path id="XMLID_644_" class="st19" d="M3891.7,1085.6l2.9,13.8c-0.1,0-0.3-0.1-0.4,0c-3.1,1.3-0.9,4.4-0.9,4.4h6l0.4-3l1-15.2
					L3891.7,1085.6L3891.7,1085.6z"/>
				<path id="XMLID_643_" class="st19" d="M3899.8,1085.6l2.9,13.8c-0.1,0-0.3-0.1-0.4,0c-3.1,1.3-0.9,4.4-0.9,4.4h6l0.4-3l1-15.2
					L3899.8,1085.6L3899.8,1085.6z"/>
				<path id="XMLID_642_" class="st12" d="M3915.3,1085.6h-28.8l8.6-36.7c0,0,1.6-3.4,7.1-3.4s7.4,3.4,7.4,3.4L3915.3,1085.6z"/>
				<g id="XMLID_636_">
					
						<ellipse id="XMLID_641_" transform="matrix(0.4881 -0.8728 0.8728 0.4881 1096.5162 3933.6978)" class="st19" cx="3901.7" cy="1032.1" rx="17.2" ry="17.2"/>
					<path id="XMLID_638_" class="st19" d="M3918,1025.5c0.5-0.7,0.9-0.2,0.8-1.2c-0.1-0.9-0.2-1.8-0.8-2.4
						c-0.4-0.4-1.5-1.6-2.1-1.7c-0.6-0.1-1,0.6-1.5,0.8c0.9,1.3,1.3,2.7,2.1,4c0.4,0.7,0.6,0.9,1.5,0.7"/>
					<polygon id="XMLID_637_" class="st19" points="3916.4,1021.2 3922.2,1012.5 3926.6,1022.2 3918.1,1024.2 					"/>
				</g>
				<path id="XMLID_635_" class="st3" d="M3891.5,1072.2c0.1,0.3,0.2,0.7,0.2,1.1c0,2,0,7.8-2.9,7.5c-1.8-0.2-3.8-5.6-3.8-7.6
					c0-0.4,0.1-0.8,0.2-1.1L3891.5,1072.2z"/>
				<path id="XMLID_634_" class="st3" d="M3885.1,1072.2l-2.9,3.1c-1.2,0.9-0.5,2.1,0.5,1.9s4.3-1.5,4.3-1.5L3885.1,1072.2z"/>
				<polygon id="XMLID_633_" class="st19" points="3894.7,1050.4 3884.7,1072.6 3891.8,1074.3 3897.4,1063.4 				"/>
			</g>
		</g>
	</g>
</g>
<path id="XMLID_13864_" class="st32" d="M1159.9,621.9c-0.8,0-1.6,0.1-2.4,0.2c0.1-1.1,0.2-2.3,0.2-3.4c0-15.4-12.5-27.8-27.8-27.8
	c-12.5,0-23.1,8.3-26.6,19.7c-4.7-3.7-10.6-5.8-17-5.8c-1.2,0-2.3,0.1-3.4,0.2c-0.6-1.5-1.4-2.8-2.2-4.2c1.2-3.1,1.8-6.4,1.8-9.9
	c0-15.4-12.5-27.8-27.8-27.8c-1.2,0-2.4,0.1-3.5,0.2c-6.1-13.1-19.3-22.2-34.7-22.2c-21.1,0-38.2,17.1-38.2,38.2
	c0,8.8,3,16.9,8,23.4c-3.6-0.8-7.3-1.2-11.1-1.2c-26.2,0-47.4,18.9-47.4,42.2s21.2,42.2,47.4,42.2c5.3,0,10.4-0.8,15.1-2.2
	c6.7,3.2,14.4,5.1,22.5,5.1c9,0,17.4-2.2,24.6-6.1c3.9,2.1,8.3,3.2,13,3.2c7.8,0,14.8-3.2,19.9-8.4c1.3,0.2,2.7,0.3,4,0.3
	c7.1,0,13.5-2.6,18.4-7c1.9,0.4,3.9,0.7,6,0.7c9.6,0,18.1-4.9,23.1-12.4c2.6,0.8,5.3,1.2,8.1,1.2c8.1,0,15.5-3.5,20.6-9.1
	c2.4-0.7,4.5-2,6.1-3.8c1.1,0.3,2.2,0.5,3.4,0.5c7.2,0,13-5.8,13-13C1172.9,627.7,1167.1,621.9,1159.9,621.9z"/>
<path id="XMLID_13858_" class="st32" d="M1312.7,651.6c0,15.9-12.9,28.8-28.8,28.8c-10.8,0-20.2-6-25.2-14.8
	c-1.2,0.2-2.4,0.2-3.7,0.2c-1.6,0-3.2-0.1-4.8-0.4c-3.2,2-6.6,3.6-10.2,4.8c-8.5,13-24.4,21.8-42.5,21.8
	c-27.2,0-49.2-19.6-49.2-43.7c0-18.6,13-34.5,31.4-40.8c8.5-13,24.4-21.8,42.5-21.8c16.8,0,31.6,7.5,40.5,18.9
	c0.7,0,1.4-0.1,2.1-0.1c12.6,0,23.3,8.1,27.2,19.3C1303.9,627.5,1312.7,638.5,1312.7,651.6z"/>
</svg>
