<svg xmlns="http://www.w3.org/2000/svg" xmlns:xlink="http://www.w3.org/1999/xlink" viewBox="0 0 1562.1 1819.14"><defs><style>.cls-1{isolation:isolate;}.cls-2{fill:#ede16b;}.cls-3{fill:#fbf6bb;}.cls-12,.cls-4{opacity:0.54;}.cls-12,.cls-15,.cls-4,.cls-5{mix-blend-mode:multiply;}.cls-4{fill:url(#linear-gradient);}.cls-15,.cls-5{fill:#7e9fb1;}.cls-5{opacity:0.3;}.cls-6{fill:#015e73;}.cls-7{fill:#439fbb;}.cls-8{fill:#fff;}.cls-9{fill:#fea206;}.cls-10,.cls-13,.cls-14{fill:none;stroke-miterlimit:10;}.cls-10{stroke:#015e73;}.cls-10,.cls-14{stroke-width:0.5px;}.cls-11{fill:#fbf7bc;}.cls-12{fill:url(#linear-gradient-2);}.cls-13{stroke:#e7edf5;}.cls-14{stroke:#ede16b;}.cls-15{opacity:0.5;}</style><linearGradient id="linear-gradient" x1="764.11" y1="995.82" x2="504.96" y2="349.41" gradientUnits="userSpaceOnUse"><stop offset="0.75" stop-color="#fff"/><stop offset="0.92" stop-color="#7bbbcf"/><stop offset="1" stop-color="#439fbb"/></linearGradient><linearGradient id="linear-gradient-2" x1="1098.88" y1="8.86" x2="1094.31" y2="19.63" gradientUnits="userSpaceOnUse"><stop offset="0" stop-color="#fff"/><stop offset="0.69" stop-color="#7bbbcf"/><stop offset="1" stop-color="#439fbb"/></linearGradient></defs><title>Recurso 1</title><g class="cls-1"><g id="Capa_2" data-name="Capa 2"><g id="_2.3_mundo" data-name="2.3º mundo"><circle id="_Trazado_" data-name="&lt;Trazado&gt;" class="cls-2" cx="781.05" cy="1038.09" r="781.05"/><g id="_Grupo_" data-name="&lt;Grupo&gt;"><path class="cls-3" d="M1562.1,1038.09C1562.1,606.73,1212.41,257,781.05,257a787.41,787.41,0,0,0-114.16,8.3,90.31,90.31,0,0,0-28.66,28.55,744,744,0,0,1,257.33,83.67c10.93,5.94,23.06,14.25,23.53,26.68.55,14.36-14.59,23.76-28,29C829.65,457.16,762.34,460.34,698,474.84S567.2,519.52,536.27,577.79c-11.41,21.49-17.07,48.13-6.4,70,5.78,11.85,15.8,21.16,26.7,28.59,58.85,40.13,140.81,29.8,201.33,67.37,6.43,4,12.81,8.8,15.93,15.7,6.72,14.86-4.26,31.58-16,42.95C705.26,853.46,630,872,566,907.76c-11.17,6.23-23.55,16-21.72,28.68,1.29,8.92,9.32,15.11,16.88,20,94.77,61.5,213.83,75.79,326.17,63.8s220.43-48.17,328.55-81c5.78-1.75,12.13-3.48,17.71-1.16s8.78,7.95,11.05,13.46c22.61,55-18.8,115.88-66.43,151.45s-105.49,61.28-137.83,111.16c-4.83,7.45-9.09,15.63-9.8,24.48-2.84,35.32,44,48.62,71.89,70.44,38.56,30.14,43.33,85.21,53.08,133.18,16,78.94,53.13,151.58,91.73,222.52C1438.33,1522.43,1562.1,1294.72,1562.1,1038.09Z"/></g><g id="_Grupo_2" data-name="&lt;Grupo&gt;"><path class="cls-3" d="M450.09,1678.84c-9-10.21-22.4-14.93-34.47-21.16-36.9-19-62.76-53.75-86.82-87.59-26.17-36.81-51.82-74-77.45-111.18l-94-136.27c-4.68-6.79-9.43-13.7-12-21.55-7.44-22.77,5.28-47.54,22.13-64.56s38-29.51,53.87-47.42,25.88-44.62,14.82-65.87c-9-17.23-28.6-25.55-46.72-32.55L67.12,1043.4c-6.17-2.38-12.85-5.21-15.9-11.08-2.24-4.32-2-9.45-1.68-14.3,2.27-30.63,8.64-60.85,11-91.47,1.13-14.45.84-30.53-8.82-41.34s-31.71-9.78-35.1,4.32L13.83,891A785.19,785.19,0,0,0,0,1038.09c0,315.8,187.43,587.82,457.11,710.9a94.48,94.48,0,0,0,5-37.26C461.26,1699.88,457.92,1687.78,450.09,1678.84Z"/></g></g><g id="_2.2_sombra_mundo" data-name="2.2º sombra mundo"><circle id="_Trazado_2" data-name="&lt;Trazado&gt;" class="cls-4" cx="781.05" cy="1038.09" r="781.05"/></g><g id="_2.1_Niños" data-name="2.1º Niños"><g id="_Grupo_3" data-name="&lt;Grupo&gt;"><g id="_Grupo_4" data-name="&lt;Grupo&gt;"><ellipse id="_Trazado_3" data-name="&lt;Trazado&gt;" class="cls-5" cx="1281.07" cy="637.29" rx="14.94" ry="3.85"/><g id="_Grupo_5" data-name="&lt;Grupo&gt;"><path id="_Trazado_4" data-name="&lt;Trazado&gt;" class="cls-6" d="M1271.87,620.85l2.67,12.46a1.14,1.14,0,0,0-.4,0c-2.77,1.2-.83,4-.83,4h5.46l.36-2.69.94-13.75Z"/><path id="_Trazado_5" data-name="&lt;Trazado&gt;" class="cls-6" d="M1279.28,620.85l2.67,12.46a1.14,1.14,0,0,0-.4,0c-2.77,1.2-.83,4-.83,4h5.46l.36-2.69.94-13.75Z"/><path id="_Trazado_6" data-name="&lt;Trazado&gt;" class="cls-7" d="M1293.25,620.85h-26.08l7.78-33.24s1.44-3,6.44-3,6.68,3,6.68,3Z"/><g id="_Grupo_6" data-name="&lt;Grupo&gt;"><circle id="_Trazado_7" data-name="&lt;Trazado&gt;" class="cls-8" cx="1280.79" cy="572.26" r="15.53" transform="translate(156.22 1410.85) rotate(-60.79)"/><path id="_Trazado_8" data-name="&lt;Trazado&gt;" class="cls-6" d="M1296.46,574.82a15.85,15.85,0,0,0,.11-4.39l0-.35V570a15.64,15.64,0,0,0-5.93-10.25c-.23-.18-.46-.34-.7-.51l-.38-.29,0,0c-.27-.17-.55-.34-.83-.5a15.86,15.86,0,0,0-20.37,4.36,6.77,6.77,0,0,1-.64-1.82l-2.17.43c.81,4.09,11.86,21.44,24.58,16,1.18,3.85,5.64,1.47,5.64,1.47Z"/><path id="_Trazado_9" data-name="&lt;Trazado&gt;" class="cls-6" d="M1270.12,577.25c-2.52-1.64-2.25-3.91-1.75-4.88l1.13.58c-.09.18-.83,1.85,1.31,3.23s3.36,0,3.49-.12l1,.8C1274.6,577.72,1272.64,578.9,1270.12,577.25Z"/><path id="_Trazado_10" data-name="&lt;Trazado&gt;" class="cls-6" d="M1295.71,566.44c.44-.63.81-.17.72-1.08a3.28,3.28,0,0,0-.76-2.18c-.38-.38-1.31-1.42-1.86-1.53s-.93.53-1.37.73c.79,1.15,1.19,2.44,1.88,3.59.4.66.56.78,1.32.63"/><polygon id="_Trazado_11" data-name="&lt;Trazado&gt;" class="cls-6" points="1294.29 562.52 1299.54 554.64 1303.49 563.46 1295.8 565.25 1294.29 562.52"/></g><path id="_Trazado_12" data-name="&lt;Trazado&gt;" class="cls-8" d="M1263.44,605.51a3.37,3.37,0,0,1-.31,1c-.79,1.64-3,6.41-5.34,5-1.43-.87-.91-6-.11-7.65a3.5,3.5,0,0,1,.56-.83Z"/><path id="_Trazado_13" data-name="&lt;Trazado&gt;" class="cls-8" d="M1258.25,603l-3.62,1.38c-1.29.23-1.23,1.53-.35,1.76s4.05.47,4.05.47Z"/><polygon id="_Trazado_14" data-name="&lt;Trazado&gt;" class="cls-6" points="1274.61 588.98 1257.8 603.16 1262.9 607.3 1271.79 600.61 1274.61 588.98"/><path id="_Trazado_15" data-name="&lt;Trazado&gt;" class="cls-8" d="M1304.42,601.61,1308,603c1.29.23,1.23,1.53.35,1.76a23.82,23.82,0,0,1-2.75.36c.26,2,.16,4.41-.77,5-2.29,1.4-4.54-3.37-5.34-5a3.37,3.37,0,0,1-.31-1Z"/><polygon id="_Trazado_16" data-name="&lt;Trazado&gt;" class="cls-6" points="1288.06 587.6 1304.87 601.78 1299.77 605.92 1290.17 600.66 1288.06 587.6"/></g></g><g id="_Grupo_7" data-name="&lt;Grupo&gt;"><ellipse id="_Trazado_17" data-name="&lt;Trazado&gt;" class="cls-5" cx="803.95" cy="367.55" rx="19.45" ry="5.02"/><g id="_Grupo_8" data-name="&lt;Grupo&gt;"><path id="_Trazado_18" data-name="&lt;Trazado&gt;" class="cls-6" d="M799.72,350.1l2.79,14.66h-.42c-3.93,0-4.42,2.87-4.42,2.87h9.41l.38-2.87,2.79-14.66Z"/><polygon id="_Trazado_19" data-name="&lt;Trazado&gt;" class="cls-6" points="800.88 316.5 775.5 319.68 777.67 325.95 800.04 327.98 800.88 316.5"/><path id="_Trazado_20" data-name="&lt;Trazado&gt;" class="cls-9" d="M815.79,350.1H793.42l2.45-33.61a13.7,13.7,0,0,1,9.74-3.85,6.21,6.21,0,0,1,5.73,3.24Z"/><path id="_Trazado_21" data-name="&lt;Trazado&gt;" class="cls-8" d="M819.71,340.69a4.47,4.47,0,0,1,.39,1.22,3.88,3.88,0,1,1-7.63,1.3,4.5,4.5,0,0,1,0-1.28Z"/><polygon id="_Trazado_22" data-name="&lt;Trazado&gt;" class="cls-9" points="811.34 315.88 819.48 340.69 813.25 341.83 811.34 315.88"/><g id="_Grupo_9" data-name="&lt;Grupo&gt;"><circle id="_Trazado_23" data-name="&lt;Trazado&gt;" class="cls-8" cx="804.37" cy="297.78" r="16.56" transform="translate(151.89 854.51) rotate(-60.79)"/><path id="_Trazado_24" data-name="&lt;Trazado&gt;" class="cls-6" d="M821.07,300.52a16.9,16.9,0,0,0,.11-4.68l0-.37,0-.07a16.67,16.67,0,0,0-6.33-10.93c-.24-.19-.49-.36-.75-.54l-.4-.31,0,0c-.29-.19-.59-.37-.89-.53A16.9,16.9,0,0,0,791,287.76a7.22,7.22,0,0,1-.68-1.94l-2.31.46c.86,4.36,4.17,7.17,9.82,8.36a16.86,16.86,0,0,0,13.6-3,16.83,16.83,0,0,0,7.88,9.75l1.46.82Z"/><path id="_Trazado_25" data-name="&lt;Trazado&gt;" class="cls-6" d="M797,301.35c-3.14-.66-3.74-3-3.61-4.18l1.35.14c0,.21-.11,2.16,2.54,2.72s3.36-1.25,3.43-1.46L802,299C801.62,300.09,800.12,302,797,301.35Z"/><path id="_Trazado_26" data-name="&lt;Trazado&gt;" class="cls-6" d="M809.39,304c-3.14-.66-3.74-3-3.61-4.18l1.35.14c0,.21-.11,2.15,2.54,2.71s3.36-1.25,3.43-1.46l1.29.42C814,302.71,812.53,304.63,809.39,304Z"/><path id="_Trazado_27" data-name="&lt;Trazado&gt;" class="cls-6" d="M820.27,291.59c.47-.67.87-.19.77-1.15a3.49,3.49,0,0,0-.81-2.33c-.41-.41-1.4-1.52-2-1.63s-1,.56-1.46.78c.84,1.23,1.27,2.6,2,3.83.42.7.6.83,1.4.67"/><polygon id="_Trazado_28" data-name="&lt;Trazado&gt;" class="cls-6" points="818.07 287.32 824.69 278.35 828.75 289.14 820.13 290.56 818.07 287.32"/></g><path id="_Trazado_29" data-name="&lt;Trazado&gt;" class="cls-8" d="M775.5,319.68s-7-.42-8.48-.57-1.42,1.89.87,2.52a17.38,17.38,0,0,1,2.87.94c-1.06,1.42,0,4,1.38,4.53s3.7.59,4.41,0a7.85,7.85,0,0,0,1.12-1.14Z"/></g></g><g id="_Grupo_10" data-name="&lt;Grupo&gt;"><ellipse id="_Trazado_30" data-name="&lt;Trazado&gt;" class="cls-5" cx="920.04" cy="339.17" rx="21.95" ry="6.49"/><path id="_Trazado_31" data-name="&lt;Trazado&gt;" class="cls-6" d="M911.49,317.88l7.76,17.84h-.43c-4,0-4.5,2.35-4.5,2.35h7.29l3-3.67-.3-1.6-2.4-14.92Z"/><path id="_Trazado_32" data-name="&lt;Trazado&gt;" class="cls-6" d="M923.33,326.85l10.8-1.41s-.78,4.85,1.41,5.32l2-9.66h-3.76l-7.56,0,1-4.3h-7.77Z"/><path id="_Trazado_33" data-name="&lt;Trazado&gt;" class="cls-7" d="M914.62,283s12.32-1.57,13.67-.25,4.79,8.31,5.94,14.88,1.46,20,1.46,20-7.2,2.92-19.53,1.88a37.33,37.33,0,0,1-14.06-4.38C910.91,284.09,914.62,283,914.62,283Z"/><path id="_Trazado_34" data-name="&lt;Trazado&gt;" class="cls-2" d="M914.8,284.89a6,6,0,0,0,0,8.47l21.05,18.12,5.53-5.53-18.12-21.05A6,6,0,0,0,914.8,284.89Z"/><g id="_Grupo_11" data-name="&lt;Grupo&gt;"><path id="_Trazado_35" data-name="&lt;Trazado&gt;" class="cls-8" d="M930.2,253.05a16.84,16.84,0,0,0-24.8,16,4.72,4.72,0,0,0,.87.79c2.17,1.54,3.35.41,3.48.28l1,.86c-.65.72-2.57,1.61-5.13-.22h0a16.85,16.85,0,1,0,24.59-17.73Z"/><path id="_Trazado_36" data-name="&lt;Trazado&gt;" class="cls-6" d="M910.75,271l-1-.86c-.13.13-1.31,1.26-3.48-.28a4.72,4.72,0,0,1-.87-.79,16.45,16.45,0,0,0,.21,1.71h0C908.18,272.61,910.09,271.72,910.75,271Z"/></g><path id="_Trazado_37" data-name="&lt;Trazado&gt;" class="cls-6" d="M915.5,278.56c-2.64-1.87-2.24-4.29-1.66-5.31l1.19.67c-.1.19-1,1.94,1.26,3.52s3.6.18,3.74,0l1,.9C920.28,279.25,918.13,280.43,915.5,278.56Z"/><path id="_Trazado_38" data-name="&lt;Trazado&gt;" class="cls-8" d="M941.24,306a4.52,4.52,0,0,1,1,.77,4,4,0,1,1-5.53,5.61,4.37,4.37,0,0,1-.79-1Z"/><path id="_Trazado_39" data-name="&lt;Trazado&gt;" class="cls-6" d="M939.14,270.65a19.71,19.71,0,0,0,.09-5c0-.13,0-.25-.05-.38a.35.35,0,0,0,0-.07,17,17,0,0,0-6.61-11l-.76-.53-.42-.31,0,0c-.3-.19-.6-.36-.91-.53a17.19,17.19,0,0,0-22,5.07,7.48,7.48,0,0,1-.72-2l-2.34.51a22.3,22.3,0,0,0,3.68,8.37c8.53,13.11,22.73,13.55,27.61,12.32C937.26,277,938.83,272.38,939.14,270.65Z"/><path id="_Trazado_40" data-name="&lt;Trazado&gt;" class="cls-6" d="M937.13,262.34c-.95-1.57-1.5-3.33-2.57-4.91.6-.27,1.1-1.14,1.87-1s2,1.56,2.54,2.09a4.47,4.47,0,0,1,1,3c.12,1.23-.4,1.1-1,1.47S937.67,263.23,937.13,262.34Z"/><polygon id="_Trazado_41" data-name="&lt;Trazado&gt;" class="cls-6" points="935.68 258.31 944.49 247.62 949.41 260.04 938.04 262.02 935.68 258.31"/></g><g id="_Grupo_12" data-name="&lt;Grupo&gt;"><ellipse id="_Trazado_42" data-name="&lt;Trazado&gt;" class="cls-5" cx="1346.05" cy="635.63" rx="20.38" ry="6.02"/><path id="_Trazado_43" data-name="&lt;Trazado&gt;" class="cls-6" d="M1338.11,615.87l7.2,16.56h-.4c-3.71,0-4.18,2.18-4.18,2.18h6.76l2.76-3.41-.28-1.48-2.22-13.85Z"/><path id="_Trazado_44" data-name="&lt;Trazado&gt;" class="cls-6" d="M1349.1,624.19l10-1.31s-.73,4.5,1.31,4.94l1.89-9h-3.49l-7,0,.89-4h-7.21Z"/><path id="_Trazado_45" data-name="&lt;Trazado&gt;" class="cls-7" d="M1341,583.45s11.44-1.46,12.69-.23,4.45,7.71,5.51,13.81,1.36,18.6,1.36,18.6-6.68,2.71-18.13,1.74a34.66,34.66,0,0,1-13-4.07C1337.58,584.5,1341,583.45,1341,583.45Z"/><path id="_Trazado_46" data-name="&lt;Trazado&gt;" class="cls-2" d="M1346.5,585.19a5.56,5.56,0,0,0-7.86-.22L1321.29,604l5,5.28,20-16.27A5.56,5.56,0,0,0,1346.5,585.19Z"/><g id="_Grupo_13" data-name="&lt;Grupo&gt;"><path id="_Trazado_47" data-name="&lt;Trazado&gt;" class="cls-8" d="M1355.49,555.69a15.63,15.63,0,0,0-23,14.87,4.39,4.39,0,0,0,.8.73c2,1.43,3.11.38,3.23.26l.93.8c-.6.67-2.38,1.49-4.76-.2h0a15.65,15.65,0,1,0,22.83-16.46Z"/><path id="_Trazado_48" data-name="&lt;Trazado&gt;" class="cls-6" d="M1337.42,572.35l-.93-.8c-.12.12-1.21,1.17-3.23-.26a4.39,4.39,0,0,1-.8-.73,15.28,15.28,0,0,0,.19,1.58h0C1335,573.84,1336.82,573,1337.42,572.35Z"/></g><path id="_Trazado_49" data-name="&lt;Trazado&gt;" class="cls-6" d="M1341.84,579.36c-2.45-1.74-2.08-4-1.54-4.93l1.1.63c-.1.17-.9,1.8,1.17,3.27s3.34.17,3.48,0l1,.83C1346.28,580,1344.28,581.1,1341.84,579.36Z"/><path id="_Trazado_50" data-name="&lt;Trazado&gt;" class="cls-8" d="M1326.2,609.17a4.2,4.2,0,0,1-.74,1,3.67,3.67,0,1,1-5.06-5.27,4.06,4.06,0,0,1,1-.7Z"/><path id="_Trazado_51" data-name="&lt;Trazado&gt;" class="cls-6" d="M1363.79,572a18.3,18.3,0,0,0,.08-4.66c0-.12,0-.24,0-.35a.32.32,0,0,0,0-.07,15.78,15.78,0,0,0-6.14-10.23l-.71-.5-.39-.29,0,0c-.28-.17-.56-.34-.85-.5a16,16,0,0,0-20.44,4.71,6.94,6.94,0,0,1-.67-1.83l-2.18.47a20.7,20.7,0,0,0,3.42,7.77c7.92,12.17,21.1,12.58,25.63,11.44C1362,577.88,1363.5,573.63,1363.79,572Z"/><path id="_Trazado_52" data-name="&lt;Trazado&gt;" class="cls-6" d="M1361.92,564.3c-.88-1.46-1.39-3.1-2.39-4.56.56-.25,1-1.06,1.73-.92s1.87,1.45,2.35,1.94a4.15,4.15,0,0,1,1,2.77c.11,1.14-.37,1-.92,1.37S1362.42,565.14,1361.92,564.3Z"/><polygon id="_Trazado_53" data-name="&lt;Trazado&gt;" class="cls-6" points="1360.58 560.57 1368.75 550.64 1373.32 562.17 1362.76 564.01 1360.58 560.57"/></g><g id="_Grupo_14" data-name="&lt;Grupo&gt;"><path id="_Trazado_54" data-name="&lt;Trazado&gt;" class="cls-10" d="M941.07,309.88s21.48-6.63,39.11-22.3c63.59-56.53,89.75-254,89.75-254"/><line id="_Trazado_55" data-name="&lt;Trazado&gt;" class="cls-10" x1="1069.92" y1="33.55" x2="1066.97" y2="0.02"/><line id="_Trazado_56" data-name="&lt;Trazado&gt;" class="cls-10" x1="1069.92" y1="33.55" x2="1078.28" y2="12.97"/><polygon id="_Trazado_57" data-name="&lt;Trazado&gt;" class="cls-11" points="1066.97 0.02 1078.28 12.97 1127.27 25.99 1095.61 1.67 1066.97 0.02"/><polygon id="_Trazado_58" data-name="&lt;Trazado&gt;" class="cls-12" points="1066.97 0.02 1078.28 12.97 1127.27 25.99 1095.61 1.67 1066.97 0.02"/><path id="_Trazado_59" data-name="&lt;Trazado&gt;" class="cls-13" d="M1126.7,25.63c1.66-.22,4.92-.48,6.33.6s1.26,3.8,2.73,5.3c2.05,2.09,4.37-1.14,7.21.14,1.93.87,1.13,3.82,3.85,4"/><path id="_Trazado_60" data-name="&lt;Trazado&gt;" class="cls-13" d="M1126.83,25.71c1.68,3.15,1.31,4.24,4.66,6.58,1.65,1,3.13.68,4.66,2,1.46,1.49,1.5,3.68,3.8,4.48"/><path id="_Trazado_61" data-name="&lt;Trazado&gt;" class="cls-13" d="M1126.86,26.18c5.57,5.91,7.36-1.82,11-.37,2.95,1.22,5.22,5,8.91,3.46"/><line id="_Trazado_62" data-name="&lt;Trazado&gt;" class="cls-10" x1="1069.92" y1="33.55" x2="1095.61" y2="1.66"/></g><ellipse id="_Trazado_63" data-name="&lt;Trazado&gt;" class="cls-5" cx="1168.07" cy="464.16" rx="5.35" ry="20.56" transform="translate(565.1 1567.01) rotate(-83)"/><g id="_Grupo_15" data-name="&lt;Grupo&gt;"><ellipse id="_Trazado_64" data-name="&lt;Trazado&gt;" class="cls-5" cx="1127.46" cy="462.94" rx="26.95" ry="5.49"/><path id="_Trazado_65" data-name="&lt;Trazado&gt;" class="cls-6" d="M1147.26,455.27l-14.41,2c-5.56-4.13-14.75-8.65-14.75-8.65s-3.39-.21-5.23.84-6.72,13.06,16.17,14.42a30,30,0,0,0,4.43,0c1,0,2.07,0,3.23-.12C1142.71,463.31,1147.95,460.57,1147.26,455.27Z"/><g id="_Grupo_16" data-name="&lt;Grupo&gt;"><polygon id="_Trazado_66" data-name="&lt;Trazado&gt;" class="cls-8" points="1089.45 419.44 1098.39 422.99 1105.1 416.55 1112.07 420.76 1117.73 415.93 1130.09 442.09 1105.1 451.45 1089.45 419.44"/><line id="_Trazado_67" data-name="&lt;Trazado&gt;" class="cls-14" x1="1098.4" y1="422.99" x2="1111.35" y2="449.11"/><line id="_Trazado_68" data-name="&lt;Trazado&gt;" class="cls-14" x1="1105.1" y1="416.55" x2="1118.59" y2="446.39"/><line id="_Trazado_69" data-name="&lt;Trazado&gt;" class="cls-14" x1="1112.07" y1="420.76" x2="1123.83" y2="444.43"/></g><path id="_Trazado_70" data-name="&lt;Trazado&gt;" class="cls-8" d="M1126.37,419.4c-7.87-3.1-13.12-9.5-13.79-15.9A18,18,0,0,0,1145,418.8C1140.12,421.63,1133.12,422.06,1126.37,419.4Z"/><path id="_Trazado_71" data-name="&lt;Trazado&gt;" class="cls-6" d="M1111.25,396.1l2.67.67a15.13,15.13,0,0,0-.38,4.77,18,18,0,0,1,31.78,17.06c0,.08-1.48,2.37-1.53,2.45-7.45,8.28-10.87,7.83-19.68,2.61a22.3,22.3,0,0,1-8.2-9.22C1111.56,408.8,1109.75,402,1111.25,396.1Z"/><path id="_Trazado_72" data-name="&lt;Trazado&gt;" class="cls-8" d="M1107.9,451.45a4.8,4.8,0,0,1-1.12.78,4.14,4.14,0,1,1-3.71-7.36,4.84,4.84,0,0,1,1.3-.43Z"/><path id="_Trazado_73" data-name="&lt;Trazado&gt;" class="cls-9" d="M1149,455s-6.3-23.34-6.83-25.16-3.14-5.23-12.38-5.23a8.34,8.34,0,0,0-4.11,1.23l-.11,0c-4.32,2-21.34,18.59-21.34,18.59l3.69,6.94,11-7.48-2.83,15.57Z"/></g><g id="_Grupo_17" data-name="&lt;Grupo&gt;"><g id="_Grupo_18" data-name="&lt;Grupo&gt;"><path id="_Trazado_74" data-name="&lt;Trazado&gt;" class="cls-8" d="M469.06,268.82c-2.06.07-6.39-1-10.58-4.33a13.73,13.73,0,0,1-4.13-6.47,17.93,17.93,0,0,0,17.48,30.89C463,282.71,466,273.35,469.06,268.82Z"/><path id="_Trazado_75" data-name="&lt;Trazado&gt;" class="cls-6" d="M480.29,262.26a17.93,17.93,0,0,0-24.87-5c-.37.25-.71.51-1.06.78a13.73,13.73,0,0,0,4.13,6.47c4.19,3.37,8.52,4.4,10.58,4.33-3.09,4.53-6,13.89,2.77,20.09a17.91,17.91,0,0,0,8.45-26.65Z"/></g><ellipse id="_Trazado_76" data-name="&lt;Trazado&gt;" class="cls-5" cx="462.95" cy="349.89" rx="29.28" ry="7.55"/><path id="_Trazado_77" data-name="&lt;Trazado&gt;" class="cls-6" d="M451.91,329.7,456.78,347h-.5c-4.63,0-5.2,3.37-5.2,3.37h11.08l.44-3.37L463,329.7Z"/><path id="_Trazado_78" data-name="&lt;Trazado&gt;" class="cls-6" d="M460.34,328.39l4.87,17.26h-.5c-4.63,0-5.2,3.37-5.2,3.37h11.08l.45-3.37,1-17.26Z"/><path id="_Trazado_79" data-name="&lt;Trazado&gt;" class="cls-6" d="M452.57,270.68c-2.67-2.16-2.08-4.71-1.39-5.75l1.21.79c-.12.2-1.15,2,1.09,3.82s3.81.46,4,.3l1,1C457.61,271.75,455.23,272.85,452.57,270.68Z"/><path id="_Trazado_80" data-name="&lt;Trazado&gt;" class="cls-8" d="M445.26,261.17h0l-.09-.19c-.06-.16-.11-.32-.18-.48s-.17-.29-.26-.44l-2.94-6.21c-.36-1.13-1.09-1.67-1.76-1.31s-.69,1.93-.72,2.49a17.79,17.79,0,0,0,.2,2.31,4.48,4.48,0,0,0-1.23.35,5.16,5.16,0,0,0-2.23,6.93,5.74,5.74,0,0,0,.88,1.36l8.53-3.92A5.24,5.24,0,0,0,445.26,261.17Z"/><path id="_Trazado_81" data-name="&lt;Trazado&gt;" class="cls-9" d="M444.14,260,455.9,287s12.14-.36,13.69,1.17,5.54,9.61,6.87,17.21,1.69,23.17,1.69,23.17-8.33,3.38-22.59,2.17a43.15,43.15,0,0,1-16.26-5.07c1-4,7.72-20.27,7.72-20.27l-11.5-40.72Z"/><path id="_Trazado_82" data-name="&lt;Trazado&gt;" class="cls-6" d="M454.35,258c-.8-2.49.23-5.87,1.13-6.56l1.24,1c-.83,1.65-.9,4.48,0,4.62S454.35,258,454.35,258Z"/></g><g id="_Grupo_19" data-name="&lt;Grupo&gt;"><path id="_Trazado_83" data-name="&lt;Trazado&gt;" class="cls-6" d="M1168.36,439.06l3.1,14.48a1.32,1.32,0,0,0-.46,0c-3.22,1.4-1,4.63-1,4.63h6.35l.42-3.12,1.09-16Z"/><path id="_Trazado_84" data-name="&lt;Trazado&gt;" class="cls-6" d="M1177,439.06l3.1,14.48a1.32,1.32,0,0,0-.46,0c-3.22,1.4-1,4.63-1,4.63H1185l.42-3.12,1.09-16Z"/><path id="_Trazado_85" data-name="&lt;Trazado&gt;" class="cls-8" d="M1157.63,421a3.91,3.91,0,0,1-.36,1.11c-.92,1.9-3.54,7.45-6.2,5.82-1.66-1-1.05-7-.13-8.89a4.07,4.07,0,0,1,.65-1Z"/><path id="_Trazado_86" data-name="&lt;Trazado&gt;" class="cls-7" d="M1191.87,439.06h-30.3l9-37.3s1.67-3.54,7.48-3.54,7.76,3.54,7.76,3.54Z"/><path id="_Trazado_87" data-name="&lt;Trazado&gt;" class="cls-8" d="M1190,428.8a4.87,4.87,0,0,1,.2,1.38,4.23,4.23,0,1,1-8.43,0,4.91,4.91,0,0,1,.2-1.38Z"/><polygon id="_Trazado_88" data-name="&lt;Trazado&gt;" class="cls-7" points="1181.1 401.76 1189.97 428.8 1181.93 428.8 1181.1 401.76"/><g id="_Grupo_20" data-name="&lt;Grupo&gt;"><circle id="_Trazado_89" data-name="&lt;Trazado&gt;" class="cls-8" cx="1178.72" cy="382.59" r="18.05" transform="translate(269.51 1224.67) rotate(-60.79)"/><path id="_Trazado_90" data-name="&lt;Trazado&gt;" class="cls-6" d="M1196.93,385.57a18.42,18.42,0,0,0,.12-5.1l0-.41,0-.08a18.17,18.17,0,0,0-6.9-11.91c-.27-.21-.54-.39-.81-.59l-.44-.34,0,0c-.31-.2-.64-.4-1-.58a18.42,18.42,0,0,0-23.67,5.07,7.87,7.87,0,0,1-.74-2.12l-2.52.5c.94,4.75,4.54,7.81,10.7,9.12a18.38,18.38,0,0,0,14.82-3.31,18.34,18.34,0,0,0,8.59,10.62l1.59.89Z"/><path id="_Trazado_91" data-name="&lt;Trazado&gt;" class="cls-6" d="M1170.67,386.48c-3.42-.72-4.07-3.3-3.94-4.56l1.47.15c0,.23-.12,2.35,2.77,3s3.66-1.36,3.74-1.59l1.41.46C1175.72,385.1,1174.09,387.2,1170.67,386.48Z"/><path id="_Trazado_92" data-name="&lt;Trazado&gt;" class="cls-6" d="M1184.2,389.33c-3.42-.72-4.07-3.3-3.94-4.56l1.47.16c0,.23-.12,2.35,2.77,3s3.66-1.36,3.74-1.59l1.4.46C1189.25,388,1187.62,390.06,1184.2,389.33Z"/><path id="_Trazado_93" data-name="&lt;Trazado&gt;" class="cls-6" d="M1196.05,375.83c.51-.73.94-.2.84-1.25A3.81,3.81,0,0,0,1196,372c-.45-.45-1.53-1.65-2.16-1.78s-1.08.61-1.59.85c.91,1.34,1.38,2.84,2.19,4.17.46.76.65.9,1.53.73"/><path id="_Trazado_94" data-name="&lt;Trazado&gt;" class="cls-6" d="M1193.86,371.44c.08-.24,6.82-9.66,6.82-9.66l4.71,10.88-9.5,2Z"/></g><path id="_Trazado_95" data-name="&lt;Trazado&gt;" class="cls-8" d="M1151.59,418l-4.21,1.6c-1.5.27-1.43,1.77-.41,2s4.71.55,4.71.55Z"/><polygon id="_Trazado_96" data-name="&lt;Trazado&gt;" class="cls-2" points="1170.6 401.76 1151.07 418.24 1157 423.06 1167.33 415.28 1170.6 401.76"/></g><g id="_Grupo_21" data-name="&lt;Grupo&gt;"><g id="_Grupo_22" data-name="&lt;Grupo&gt;"><path id="_Trazado_97" data-name="&lt;Trazado&gt;" class="cls-8" d="M1050.09,405c.12-5.13-8.4-8.86-8.4-8.86,2.56-.23,7.46-1.28,14-7.44,4-3.8,5.45-9.39,6-13.14A18.88,18.88,0,0,1,1046.38,409C1048.49,408.09,1050.05,406.78,1050.09,405Z"/><path id="_Trazado_98" data-name="&lt;Trazado&gt;" class="cls-6" d="M1032.33,384.09a18.89,18.89,0,0,1,29.31-8.51c-.51,3.74-1.94,9.34-6,13.14-6.53,6.16-11.42,7.21-14,7.44,0,0,8.52,3.73,8.4,8.86,0,1.76-1.6,3.07-3.71,4a18.76,18.76,0,0,1-14-25Z"/></g><path id="_Trazado_99" data-name="&lt;Trazado&gt;" class="cls-6" d="M1064.36,390.18c1.49-3.28-.25-5.39-1.38-6l-.77,1.31c.2.13,2,1.33.76,4.1s-3.37,2.2-3.6,2.13l-.48,1.44C1060.14,393.54,1062.88,393.46,1064.36,390.18Z"/></g><ellipse id="_Trazado_100" data-name="&lt;Trazado&gt;" class="cls-15" cx="1051.3" cy="467.11" rx="7.02" ry="20.01" transform="translate(555.42 1505.16) rotate(-88.42)"/><path id="_Trazado_101" data-name="&lt;Trazado&gt;" class="cls-6" d="M1057.14,447.83,1054,464.46h.48c4.46,0,5,3.25,5,3.25h-10.68l-.43-3.25-3.17-16.64Z"/><path id="_Trazado_102" data-name="&lt;Trazado&gt;" class="cls-7" d="M1032.19,447.83h35.65l-5.22-37.12a18.54,18.54,0,0,0-12.53-5.37c-7.55,0-10.08,3.68-10.08,3.68Z"/><path id="_Trazado_103" data-name="&lt;Trazado&gt;" class="cls-8" d="M1076.27,398.54s7.38-5,12.86-4.9,7.8,5.12,6,6-12.57,2.45-14.88,4.86S1076.27,398.54,1076.27,398.54Z"/><path id="_Trazado_104" data-name="&lt;Trazado&gt;" class="cls-8" d="M1082.71,388.9c-.92,1.26-4.23,9-4.23,9l6.47-2.14s.47-4.09.66-5.18C1086,388.48,1083.62,387.65,1082.71,388.9Z"/><path id="_Trazado_105" data-name="&lt;Trazado&gt;" class="cls-6" d="M1055.31,406.77l14.17-1.61,10.07-9.82,4.46,7.33L1071.8,415s-12.64,3.54-16.49,2.36S1048.66,406.94,1055.31,406.77Z"/><g id="_Grupo_23" data-name="&lt;Grupo&gt;"><g id="_Grupo_24" data-name="&lt;Grupo&gt;"><path id="_Trazado_106" data-name="&lt;Trazado&gt;" class="cls-8" d="M287.51,593.42c-.12-5.13,8.4-8.86,8.4-8.86-2.56-.23-7.46-1.28-14-7.44-4-3.8-5.45-9.39-6-13.14a18.88,18.88,0,0,0,15.26,33.46C289.11,596.49,287.55,595.18,287.51,593.42Z"/><path id="_Trazado_107" data-name="&lt;Trazado&gt;" class="cls-6" d="M305.27,572.49A18.89,18.89,0,0,0,276,564c.51,3.74,1.94,9.34,6,13.14,6.53,6.16,11.42,7.21,14,7.44,0,0-8.52,3.73-8.4,8.86,0,1.76,1.6,3.07,3.71,4a18.76,18.76,0,0,0,14-25Z"/></g><path id="_Trazado_108" data-name="&lt;Trazado&gt;" class="cls-6" d="M273.24,578.58c-1.49-3.28.25-5.39,1.38-6l.77,1.31c-.2.13-2,1.33-.76,4.1s3.37,2.2,3.6,2.13l.48,1.44C277.47,581.94,274.73,581.86,273.24,578.58Z"/></g><ellipse id="_Trazado_109" data-name="&lt;Trazado&gt;" class="cls-15" cx="286.3" cy="655.52" rx="20.01" ry="7.02" transform="translate(-17.94 8.13) rotate(-1.58)"/><path id="_Trazado_110" data-name="&lt;Trazado&gt;" class="cls-6" d="M280.46,636.23l3.17,16.64h-.48c-4.46,0-5,3.25-5,3.25h10.68l.43-3.25,3.17-16.64Z"/><path id="_Trazado_111" data-name="&lt;Trazado&gt;" class="cls-9" d="M305.41,636.23H269.76L275,599.11a18.54,18.54,0,0,1,12.53-5.37c7.55,0,10.08,3.68,10.08,3.68Z"/><path id="_Trazado_112" data-name="&lt;Trazado&gt;" class="cls-8" d="M261.33,586.94s-7.38-5-12.86-4.9-7.8,5.12-6,6,12.57,2.45,14.88,4.86S261.33,586.94,261.33,586.94Z"/><path id="_Trazado_113" data-name="&lt;Trazado&gt;" class="cls-8" d="M254.9,577.3c.92,1.26,4.23,9,4.23,9l-6.47-2.14s-.47-4.09-.66-5.18C251.62,576.88,254,576,254.9,577.3Z"/><path id="_Trazado_114" data-name="&lt;Trazado&gt;" class="cls-6" d="M282.3,595.18l-14.17-1.61-10.07-9.82-4.46,7.33,12.21,12.34s12.64,3.54,16.49,2.36S288.95,595.34,282.3,595.18Z"/><g id="_Grupo_25" data-name="&lt;Grupo&gt;"><ellipse id="_Trazado_115" data-name="&lt;Trazado&gt;" class="cls-5" cx="718.38" cy="359.29" rx="14.94" ry="3.85"/><g id="_Grupo_26" data-name="&lt;Grupo&gt;"><path id="_Trazado_116" data-name="&lt;Trazado&gt;" class="cls-6" d="M725.8,342.85l-2.67,12.46a1.14,1.14,0,0,1,.4,0c2.77,1.2.83,4,.83,4h-5.46l-.36-2.69-.94-13.75Z"/><path id="_Trazado_117" data-name="&lt;Trazado&gt;" class="cls-6" d="M718.38,342.85l-2.67,12.46a1.14,1.14,0,0,1,.4,0c2.77,1.2.83,4,.83,4h-5.46l-.36-2.69-.94-13.75Z"/><path id="_Trazado_118" data-name="&lt;Trazado&gt;" class="cls-7" d="M704.41,342.85h26.08l-7.78-33.24s-1.44-3-6.44-3-6.68,3-6.68,3Z"/><g id="_Grupo_27" data-name="&lt;Grupo&gt;"><circle id="_Trazado_119" data-name="&lt;Trazado&gt;" class="cls-8" cx="716.87" cy="294.26" r="15.53" transform="translate(-52.44 387.3) rotate(-29.21)"/><path id="_Trazado_120" data-name="&lt;Trazado&gt;" class="cls-6" d="M701.21,296.82a15.85,15.85,0,0,1-.11-4.39l0-.35V292a15.64,15.64,0,0,1,5.93-10.25c.23-.18.46-.34.7-.51l.38-.29,0,0c.27-.17.55-.34.83-.5a15.86,15.86,0,0,1,20.37,4.36A6.77,6.77,0,0,0,730,283l2.17.43c-.81,4.09-11.86,21.44-24.58,16-1.18,3.85-5.64,1.47-5.64,1.47Z"/><path id="_Trazado_121" data-name="&lt;Trazado&gt;" class="cls-6" d="M727.55,299.25c2.52-1.64,2.25-3.91,1.75-4.88l-1.13.58c.09.18.83,1.85-1.31,3.23s-3.36,0-3.49-.12l-1,.8C723.07,299.72,725,300.9,727.55,299.25Z"/><path id="_Trazado_122" data-name="&lt;Trazado&gt;" class="cls-6" d="M702,288.44c-.44-.63-.81-.17-.72-1.08a3.28,3.28,0,0,1,.76-2.18c.38-.38,1.31-1.42,1.86-1.53s.93.53,1.37.73c-.79,1.15-1.19,2.44-1.88,3.59-.4.66-.56.78-1.32.63"/><polygon id="_Trazado_123" data-name="&lt;Trazado&gt;" class="cls-6" points="703.88 284.67 698.12 276.57 694.17 285.55 702.86 287.38 703.88 284.67"/></g><path id="_Trazado_124" data-name="&lt;Trazado&gt;" class="cls-8" d="M734.22,327.51a3.37,3.37,0,0,0,.31,1c.79,1.64,3,6.41,5.34,5,1.43-.87.91-6,.11-7.65a3.5,3.5,0,0,0-.56-.83Z"/><path id="_Trazado_125" data-name="&lt;Trazado&gt;" class="cls-8" d="M739.42,325l3.62,1.38c1.29.23,1.23,1.53.35,1.76s-4.05.47-4.05.47Z"/><polygon id="_Trazado_126" data-name="&lt;Trazado&gt;" class="cls-6" points="723.06 310.98 739.87 325.16 734.76 329.3 725.88 322.61 723.06 310.98"/><path id="_Trazado_127" data-name="&lt;Trazado&gt;" class="cls-8" d="M693.25,323.61,689.63,325c-1.29.23-1.23,1.53-.35,1.76a23.82,23.82,0,0,0,2.75.36c-.26,2-.16,4.41.77,5,2.29,1.4,4.54-3.37,5.34-5a3.37,3.37,0,0,0,.31-1Z"/><polygon id="_Trazado_128" data-name="&lt;Trazado&gt;" class="cls-6" points="709.61 309.6 692.8 323.78 697.9 327.92 707.49 322.66 709.61 309.6"/></g></g><g id="_Grupo_28" data-name="&lt;Grupo&gt;"><ellipse id="_Trazado_129" data-name="&lt;Trazado&gt;" class="cls-5" cx="183.6" cy="611.29" rx="14.94" ry="3.85"/><g id="_Grupo_29" data-name="&lt;Grupo&gt;"><path id="_Trazado_130" data-name="&lt;Trazado&gt;" class="cls-6" d="M192.8,594.85l-2.67,12.46a1.14,1.14,0,0,1,.4,0c2.77,1.2.83,4,.83,4h-5.46l-.36-2.69-.94-13.75Z"/><path id="_Trazado_131" data-name="&lt;Trazado&gt;" class="cls-6" d="M185.38,594.85l-2.67,12.46a1.14,1.14,0,0,1,.4,0c2.77,1.2.83,4,.83,4h-5.46l-.36-2.69-.94-13.75Z"/><path id="_Trazado_132" data-name="&lt;Trazado&gt;" class="cls-7" d="M171.41,594.85h26.08l-7.78-33.24s-1.44-3-6.44-3-6.68,3-6.68,3Z"/><g id="_Grupo_30" data-name="&lt;Grupo&gt;"><circle id="_Trazado_133" data-name="&lt;Trazado&gt;" class="cls-8" cx="183.87" cy="546.26" r="15.53" transform="translate(-243.22 159.22) rotate(-29.21)"/><path id="_Trazado_134" data-name="&lt;Trazado&gt;" class="cls-6" d="M168.21,548.82a15.85,15.85,0,0,1-.11-4.39l0-.35V544a15.64,15.64,0,0,1,5.93-10.25c.23-.18.46-.34.7-.51l.38-.29,0,0c.27-.17.55-.34.83-.5a15.86,15.86,0,0,1,20.37,4.36A6.77,6.77,0,0,0,197,535l2.17.43c-.81,4.09-11.86,21.44-24.58,16-1.18,3.85-5.64,1.47-5.64,1.47Z"/><path id="_Trazado_135" data-name="&lt;Trazado&gt;" class="cls-6" d="M194.55,551.25c2.52-1.64,2.25-3.91,1.75-4.88l-1.13.58c.09.18.83,1.85-1.31,3.23s-3.36,0-3.49-.12l-1,.8C190.07,551.72,192,552.9,194.55,551.25Z"/><path id="_Trazado_136" data-name="&lt;Trazado&gt;" class="cls-6" d="M169,540.44c-.44-.63-.81-.17-.72-1.08a3.28,3.28,0,0,1,.76-2.18c.38-.38,1.31-1.42,1.86-1.53s.93.53,1.37.73c-.79,1.15-1.19,2.44-1.88,3.59-.4.66-.56.78-1.32.63"/><polygon id="_Trazado_137" data-name="&lt;Trazado&gt;" class="cls-6" points="170.38 536.52 165.13 528.64 161.17 537.46 168.87 539.25 170.38 536.52"/></g><path id="_Trazado_138" data-name="&lt;Trazado&gt;" class="cls-8" d="M201.22,579.51a3.37,3.37,0,0,0,.31,1c.79,1.64,3,6.41,5.34,5,1.43-.87.91-6,.11-7.65a3.5,3.5,0,0,0-.56-.83Z"/><path id="_Trazado_139" data-name="&lt;Trazado&gt;" class="cls-8" d="M206.42,577l3.62,1.38c1.29.23,1.23,1.53.35,1.76s-4.05.47-4.05.47Z"/><polygon id="_Trazado_140" data-name="&lt;Trazado&gt;" class="cls-6" points="190.06 562.98 206.87 577.16 201.76 581.3 192.88 574.61 190.06 562.98"/><path id="_Trazado_141" data-name="&lt;Trazado&gt;" class="cls-8" d="M160.25,575.61,156.63,577c-1.29.23-1.23,1.53-.35,1.76a23.82,23.82,0,0,0,2.75.36c-.26,2-.16,4.41.77,5,2.29,1.4,4.54-3.37,5.34-5a3.37,3.37,0,0,0,.31-1Z"/><polygon id="_Trazado_142" data-name="&lt;Trazado&gt;" class="cls-6" points="176.61 561.6 159.8 575.78 164.9 579.92 174.49 574.66 176.61 561.6"/></g></g><ellipse id="_Trazado_143" data-name="&lt;Trazado&gt;" class="cls-5" cx="394.71" cy="428.63" rx="7.52" ry="34.9" transform="translate(-38.88 817.88) rotate(-89.28)"/><g id="_Grupo_31" data-name="&lt;Grupo&gt;"><polygon id="_Trazado_144" data-name="&lt;Trazado&gt;" class="cls-6" points="374.1 427.1 400.94 361.97 402.28 362.51 404.62 362.82 406.06 362.63 415.32 432.47 412.45 432.85 404.03 369.41 397.38 420.52 394.5 420.15 401.16 369.03 376.77 428.2 374.1 427.1"/><g id="_Grupo_32" data-name="&lt;Grupo&gt;"><g id="_Grupo_33" data-name="&lt;Grupo&gt;"><path id="_Trazado_145" data-name="&lt;Trazado&gt;" class="cls-6" d="M340.34,329.6l34.87,22.64c1.5,1,5.84-3,9.68-9s5.75-11.51,4.25-12.49l-34.87-22.64c-1.5-1-5.83,3-9.68,9S338.84,328.63,340.34,329.6Z"/><path id="_Trazado_146" data-name="&lt;Trazado&gt;" class="cls-6" d="M404.91,368h0l0,0c1.16.76,4.5-2.33,7.46-6.89s4.43-8.86,3.27-9.61h0l-58.95-38.28L346,329.73Z"/><path id="_Trazado_147" data-name="&lt;Trazado&gt;" class="cls-6" d="M390.89,355.71l42.75,27.76h0c.8.52,3.2-1.73,5.34-5s3.23-6.41,2.43-6.93h0l-42.74-27.76Z"/><path id="_Trazado_148" data-name="&lt;Trazado&gt;" class="cls-6" d="M431.42,377.07l21.73,14.11h0c.41.27,1.62-.88,2.72-2.56s1.64-3.26,1.23-3.52h0L435.38,371Z"/></g><ellipse id="_Trazado_149" data-name="&lt;Trazado&gt;" class="cls-8" cx="347.97" cy="319.31" rx="9.14" ry="2.31" transform="translate(-109.34 437.27) rotate(-57)"/></g></g><ellipse id="_Trazado_150" data-name="&lt;Trazado&gt;" class="cls-5" cx="563.08" cy="453.77" rx="21.77" ry="5.62"/><g id="_Grupo_34" data-name="&lt;Grupo&gt;"><ellipse id="_Trazado_151" data-name="&lt;Trazado&gt;" class="cls-5" cx="514.03" cy="444.3" rx="21.77" ry="5.62"/><g id="_Grupo_35" data-name="&lt;Grupo&gt;"><g id="_Grupo_36" data-name="&lt;Grupo&gt;"><path id="_Trazado_152" data-name="&lt;Trazado&gt;" class="cls-6" d="M509.41,425.19l3,16H512c-4.28,0-4.82,3.12-4.82,3.12h10.26l.42-3.12,3-16Z"/><path id="_Trazado_153" data-name="&lt;Trazado&gt;" class="cls-8" d="M509.92,416.42a4.69,4.69,0,0,1-.43,1.33,4.23,4.23,0,1,1-7.59-3.68,4.87,4.87,0,0,1,.78-1.16Z"/><polygon id="_Trazado_154" data-name="&lt;Trazado&gt;" class="cls-6" points="509.58 389.47 502.62 412.92 504.99 414.94 509.58 389.47"/><path id="_Trazado_155" data-name="&lt;Trazado&gt;" class="cls-9" d="M526.25,425.19H501.87l6.87-38.44a6.21,6.21,0,0,1,6-3.54,6.7,6.7,0,0,1,6.24,3.54Z"/><path id="_Trazado_156" data-name="&lt;Trazado&gt;" class="cls-8" d="M530,413.85a4.87,4.87,0,0,1,.41,1.34,4.23,4.23,0,1,1-8.32,1.34,4.91,4.91,0,0,1,0-1.4Z"/><polygon id="_Trazado_157" data-name="&lt;Trazado&gt;" class="cls-6" points="521 386.75 529.88 413.79 522.99 414.94 521 386.75"/></g><g id="_Grupo_37" data-name="&lt;Grupo&gt;"><circle id="_Trazado_158" data-name="&lt;Trazado&gt;" class="cls-8" cx="518.25" cy="368.72" r="18.05" transform="translate(-56.51 641.1) rotate(-60.79)"/><path id="_Trazado_159" data-name="&lt;Trazado&gt;" class="cls-6" d="M536.45,371.7a18.42,18.42,0,0,0,.12-5.1l0-.41,0-.08a18.17,18.17,0,0,0-6.9-11.91c-.27-.21-.54-.39-.81-.59l-.44-.34,0,0c-.31-.2-.64-.4-1-.58a18.42,18.42,0,0,0-23.67,5.07,7.87,7.87,0,0,1-.74-2.12l-2.52.5c.94,4.75,4.54,7.81,10.7,9.12A18.38,18.38,0,0,0,526,362a18.34,18.34,0,0,0,8.59,10.62l1.59.89Z"/><path id="_Trazado_160" data-name="&lt;Trazado&gt;" class="cls-6" d="M510.19,372.61c-3.42-.72-4.07-3.3-3.94-4.56l1.47.15c0,.23-.12,2.35,2.77,3s3.66-1.36,3.74-1.59l1.41.46C515.25,371.24,513.61,373.34,510.19,372.61Z"/><path id="_Trazado_161" data-name="&lt;Trazado&gt;" class="cls-6" d="M523.72,375.47c-3.42-.72-4.07-3.3-3.94-4.56l1.47.16c0,.23-.12,2.35,2.77,3s3.66-1.36,3.74-1.59l1.4.46C528.77,374.1,527.14,376.19,523.72,375.47Z"/><path id="_Trazado_162" data-name="&lt;Trazado&gt;" class="cls-6" d="M535.58,362c.51-.73.94-.2.84-1.25a3.81,3.81,0,0,0-.89-2.54c-.45-.45-1.53-1.65-2.16-1.78s-1.08.61-1.59.85c.91,1.34,1.38,2.84,2.19,4.17.46.76.65.9,1.53.73"/><polygon id="_Trazado_163" data-name="&lt;Trazado&gt;" class="cls-6" points="533.49 357.45 540.13 348 544.26 358.35 535.38 360.35 533.49 357.45"/></g></g></g><g id="_Grupo_38" data-name="&lt;Grupo&gt;"><ellipse id="_Trazado_164" data-name="&lt;Trazado&gt;" class="cls-5" cx="1251.49" cy="684.3" rx="21.77" ry="5.62"/><g id="_Grupo_39" data-name="&lt;Grupo&gt;"><g id="_Grupo_40" data-name="&lt;Grupo&gt;"><path id="_Trazado_165" data-name="&lt;Trazado&gt;" class="cls-6" d="M1256.11,665.19l-3,16h.46c4.28,0,4.82,3.12,4.82,3.12h-10.26l-.42-3.12-3-16Z"/><path id="_Trazado_166" data-name="&lt;Trazado&gt;" class="cls-8" d="M1255.6,656.42a4.69,4.69,0,0,0,.43,1.33,4.23,4.23,0,1,0,7.59-3.68,4.87,4.87,0,0,0-.78-1.16Z"/><polygon id="_Trazado_167" data-name="&lt;Trazado&gt;" class="cls-6" points="1255.94 629.47 1262.9 652.92 1260.54 654.93 1255.94 629.47"/><path id="_Trazado_168" data-name="&lt;Trazado&gt;" class="cls-9" d="M1239.27,665.19h24.38l-6.87-38.44a6.21,6.21,0,0,0-6-3.54,6.7,6.7,0,0,0-6.24,3.54Z"/><path id="_Trazado_169" data-name="&lt;Trazado&gt;" class="cls-8" d="M1235.48,653.85a4.87,4.87,0,0,0-.41,1.34,4.23,4.23,0,1,0,8.32,1.34,4.91,4.91,0,0,0,0-1.4Z"/><polygon id="_Trazado_170" data-name="&lt;Trazado&gt;" class="cls-6" points="1244.52 626.75 1235.64 653.79 1242.54 654.93 1244.52 626.75"/></g><g id="_Grupo_41" data-name="&lt;Grupo&gt;"><circle id="_Trazado_171" data-name="&lt;Trazado&gt;" class="cls-8" cx="1247.27" cy="608.72" r="18.05" transform="translate(-138.45 686.16) rotate(-29.21)"/><path id="_Trazado_172" data-name="&lt;Trazado&gt;" class="cls-6" d="M1229.07,611.7a18.42,18.42,0,0,1-.12-5.1l0-.41,0-.08a18.17,18.17,0,0,1,6.9-11.91c.27-.21.54-.39.81-.59l.44-.34,0,0c.31-.2.64-.4,1-.58a18.42,18.42,0,0,1,23.67,5.07,7.87,7.87,0,0,0,.74-2.12l2.52.5c-.94,4.75-4.54,7.81-10.7,9.12a18.38,18.38,0,0,1-14.82-3.31,18.34,18.34,0,0,1-8.59,10.62l-1.59.89Z"/><path id="_Trazado_173" data-name="&lt;Trazado&gt;" class="cls-6" d="M1255.33,612.61c3.42-.72,4.07-3.3,3.94-4.56l-1.47.15c0,.23.12,2.35-2.77,3s-3.66-1.36-3.74-1.59l-1.41.46C1250.27,611.24,1251.91,613.34,1255.33,612.61Z"/><path id="_Trazado_174" data-name="&lt;Trazado&gt;" class="cls-6" d="M1241.8,615.47c3.42-.72,4.07-3.3,3.94-4.56l-1.47.16c0,.23.12,2.35-2.77,3s-3.66-1.36-3.74-1.59l-1.4.46C1236.75,614.1,1238.38,616.19,1241.8,615.47Z"/><path id="_Trazado_175" data-name="&lt;Trazado&gt;" class="cls-6" d="M1229.94,602c-.51-.73-.94-.2-.84-1.25a3.81,3.81,0,0,1,.89-2.54c.45-.45,1.53-1.65,2.16-1.78s1.08.61,1.59.85c-.91,1.34-1.38,2.84-2.19,4.17-.46.76-.65.9-1.53.73"/><polygon id="_Trazado_176" data-name="&lt;Trazado&gt;" class="cls-6" points="1232.13 597.99 1224.87 587.1 1220.59 599.31 1229.72 600.35 1232.13 597.99"/></g></g></g><g id="_Grupo_42" data-name="&lt;Grupo&gt;"><path id="_Trazado_177" data-name="&lt;Trazado&gt;" class="cls-6" d="M470.71,445.25l3.54,18.58h-.54c-5,0-5.6,3.63-5.6,3.63H480l.48-3.63,3.54-18.58Z"/><path id="_Trazado_178" data-name="&lt;Trazado&gt;" class="cls-8" d="M467,394.32c-9.52-3-16.24-10.1-17.58-17.58A21.22,21.22,0,0,0,489,392.07C483.41,395.81,475.21,396.9,467,394.32Z"/><path id="_Trazado_179" data-name="&lt;Trazado&gt;" class="cls-6" d="M447.29,368.07l3.23.57a17.87,17.87,0,0,0-.06,5.7,21.46,21.46,0,0,1,39.16,17.58c0,.11-1.56,2.94-1.6,3-8.15,10.45-12.25,10.21-23.14,4.76a26.55,26.55,0,0,1-10.5-10.26C448.73,383.12,446,375.21,447.29,368.07Z"/><path id="_Trazado_180" data-name="&lt;Trazado&gt;" class="cls-7" d="M490,445.25H461.67l3.46-41.13s8.72-8.4,14.15-8.4a7.79,7.79,0,0,1,7.25,4.11Z"/><path id="_Trazado_181" data-name="&lt;Trazado&gt;" class="cls-8" d="M475.91,436.07a5.67,5.67,0,0,1,.23,1.61,4.92,4.92,0,1,1-9.81,0,5.67,5.67,0,0,1,.23-1.61Z"/></g><g id="_Grupo_43" data-name="&lt;Grupo&gt;"><ellipse id="_Trazado_182" data-name="&lt;Trazado&gt;" class="cls-5" cx="259.12" cy="695.14" rx="26.95" ry="5.49"/><path id="_Trazado_183" data-name="&lt;Trazado&gt;" class="cls-6" d="M278.92,687.47l-14.41,2c-5.56-4.13-14.75-8.65-14.75-8.65s-3.39-.21-5.23.84S237.8,694.69,260.69,696a30,30,0,0,0,4.43,0c1,0,2.07,0,3.23-.12C274.37,695.51,279.6,692.77,278.92,687.47Z"/><g id="_Grupo_44" data-name="&lt;Grupo&gt;"><polygon id="_Trazado_184" data-name="&lt;Trazado&gt;" class="cls-8" points="221.11 651.64 230.05 655.19 236.76 648.75 243.73 652.96 249.38 648.13 261.75 674.29 236.76 683.65 221.11 651.64"/><line id="_Trazado_185" data-name="&lt;Trazado&gt;" class="cls-14" x1="230.05" y1="655.19" x2="243.01" y2="681.31"/><line id="_Trazado_186" data-name="&lt;Trazado&gt;" class="cls-14" x1="236.76" y1="648.75" x2="250.25" y2="678.59"/><line id="_Trazado_187" data-name="&lt;Trazado&gt;" class="cls-14" x1="243.73" y1="652.96" x2="255.49" y2="676.63"/></g><path id="_Trazado_188" data-name="&lt;Trazado&gt;" class="cls-8" d="M258,651.6c-7.87-3.1-13.12-9.5-13.79-15.9A18,18,0,0,0,276.7,651C271.77,653.83,264.78,654.26,258,651.6Z"/><path id="_Trazado_189" data-name="&lt;Trazado&gt;" class="cls-6" d="M242.91,628.3l2.67.67a15.13,15.13,0,0,0-.38,4.77A18,18,0,0,1,277,650.81c0,.08-1.48,2.37-1.53,2.45-7.45,8.28-10.87,7.83-19.68,2.61a22.3,22.3,0,0,1-8.2-9.22C243.22,641,241.41,634.21,242.91,628.3Z"/><path id="_Trazado_190" data-name="&lt;Trazado&gt;" class="cls-8" d="M239.56,683.65a4.8,4.8,0,0,1-1.12.78,4.14,4.14,0,1,1-3.71-7.36,4.84,4.84,0,0,1,1.3-.43Z"/><path id="_Trazado_191" data-name="&lt;Trazado&gt;" class="cls-7" d="M280.64,687.24s-6.3-23.34-6.83-25.16-3.14-5.23-12.38-5.23a8.34,8.34,0,0,0-4.11,1.23l-.11,0c-4.32,2-21.34,18.59-21.34,18.59l3.69,6.94,11-7.48-2.83,15.57Z"/></g><g id="_Grupo_45" data-name="&lt;Grupo&gt;"><ellipse id="_Trazado_192" data-name="&lt;Trazado&gt;" class="cls-5" cx="1373.95" cy="711.55" rx="19.45" ry="5.02"/><g id="_Grupo_46" data-name="&lt;Grupo&gt;"><path id="_Trazado_193" data-name="&lt;Trazado&gt;" class="cls-6" d="M1369.72,694.1l2.79,14.66h-.42c-3.93,0-4.42,2.87-4.42,2.87h9.41l.38-2.87,2.79-14.66Z"/><polygon id="_Trazado_194" data-name="&lt;Trazado&gt;" class="cls-6" points="1371.76 658.59 1348.34 648.31 1346.98 654.81 1365.16 668.01 1371.76 658.59"/><path id="_Trazado_195" data-name="&lt;Trazado&gt;" class="cls-9" d="M1385.79,694.1h-22.37l2.45-33.61a13.7,13.7,0,0,1,9.74-3.85,6.21,6.21,0,0,1,5.73,3.24Z"/><path id="_Trazado_196" data-name="&lt;Trazado&gt;" class="cls-8" d="M1389.71,684.69a4.47,4.47,0,0,1,.39,1.22,3.88,3.88,0,1,1-7.63,1.3,4.5,4.5,0,0,1,0-1.28Z"/><polygon id="_Trazado_197" data-name="&lt;Trazado&gt;" class="cls-9" points="1381.34 659.88 1389.48 684.68 1383.25 685.83 1381.34 659.88"/><g id="_Grupo_47" data-name="&lt;Grupo&gt;"><circle id="_Trazado_198" data-name="&lt;Trazado&gt;" class="cls-8" cx="1374.37" cy="641.78" r="16.56" transform="translate(143.45 1528.12) rotate(-60.79)"/><path id="_Trazado_199" data-name="&lt;Trazado&gt;" class="cls-6" d="M1391.07,644.52a16.9,16.9,0,0,0,.11-4.68l0-.37,0-.07a16.67,16.67,0,0,0-6.33-10.93c-.24-.19-.49-.36-.75-.54l-.4-.31,0,0c-.29-.19-.59-.37-.89-.53a16.9,16.9,0,0,0-21.71,4.65,7.22,7.22,0,0,1-.68-1.94l-2.31.46c.86,4.36,4.17,7.17,9.82,8.36a16.86,16.86,0,0,0,13.6-3,16.83,16.83,0,0,0,7.88,9.75l1.46.82Z"/><path id="_Trazado_200" data-name="&lt;Trazado&gt;" class="cls-6" d="M1367,645.35c-3.14-.66-3.74-3-3.61-4.18l1.35.14c0,.21-.11,2.16,2.54,2.72s3.36-1.25,3.43-1.46l1.29.42C1371.62,644.09,1370.12,646,1367,645.35Z"/><path id="_Trazado_201" data-name="&lt;Trazado&gt;" class="cls-6" d="M1379.39,648c-3.14-.66-3.74-3-3.61-4.18l1.35.14c0,.21-.11,2.15,2.54,2.71s3.36-1.25,3.43-1.46l1.29.42C1384,646.71,1382.53,648.63,1379.39,648Z"/><path id="_Trazado_202" data-name="&lt;Trazado&gt;" class="cls-6" d="M1390.27,635.59c.47-.67.87-.19.77-1.15a3.49,3.49,0,0,0-.81-2.33c-.41-.41-1.4-1.52-2-1.63s-1,.56-1.46.78c.84,1.23,1.27,2.6,2,3.83.42.7.6.83,1.4.67"/><polygon id="_Trazado_203" data-name="&lt;Trazado&gt;" class="cls-6" points="1388.07 631.32 1394.69 622.35 1398.76 633.14 1390.13 634.56 1388.07 631.32"/></g><path id="_Trazado_204" data-name="&lt;Trazado&gt;" class="cls-8" d="M1348.34,648.31s-5.78-3.94-7-4.84-2.18.9-.55,2.61a17.38,17.38,0,0,1,2,2.28c-1.64.67-2.09,3.43-1.14,4.6s2.87,2.4,3.79,2.26a7.85,7.85,0,0,0,1.55-.4Z"/></g></g><g id="_Grupo_48" data-name="&lt;Grupo&gt;"><ellipse id="_Trazado_205" data-name="&lt;Trazado&gt;" class="cls-5" cx="1323.72" cy="750.93" rx="16.5" ry="4.26"/><g id="_Grupo_49" data-name="&lt;Grupo&gt;"><path id="_Trazado_206" data-name="&lt;Trazado&gt;" class="cls-8" d="M1338.24,718.84l2.53,3.45c1.06,1,.23,2.15-.73,1.84a26.31,26.31,0,0,1-2.77-1.31c-1,2-2.5,4.19-3.7,4.16-3-.07-2.2-5.85-2-7.84a3.72,3.72,0,0,1,.29-1.07Z"/><polygon id="_Trazado_207" data-name="&lt;Trazado&gt;" class="cls-6" points="1331.44 696.04 1338.56 719.26 1331.34 720.06 1325.59 709.43 1331.44 696.04"/><path id="_Trazado_208" data-name="&lt;Trazado&gt;" class="cls-6" d="M1313.57,732.77l2.95,13.76a1.26,1.26,0,0,0-.44,0c-3.06,1.33-.92,4.4-.92,4.4h6l.4-3,1-15.19Z"/><path id="_Trazado_209" data-name="&lt;Trazado&gt;" class="cls-6" d="M1321.75,732.77l2.95,13.76a1.26,1.26,0,0,0-.44,0c-3.06,1.33-.92,4.4-.92,4.4h6l.4-3,1-15.19Z"/><path id="_Trazado_210" data-name="&lt;Trazado&gt;" class="cls-7" d="M1337.18,732.77h-28.8l8.59-36.72s1.59-3.36,7.11-3.36,7.37,3.36,7.37,3.36Z"/><g id="_Grupo_50" data-name="&lt;Grupo&gt;"><circle id="_Trazado_211" data-name="&lt;Trazado&gt;" class="cls-6" cx="1323.42" cy="679.1" r="17.16" transform="matrix(0.49, -0.87, 0.87, 0.49, 84.79, 1502.76)"/><path id="_Trazado_212" data-name="&lt;Trazado&gt;" class="cls-6" d="M1339.89,672.68c.48-.69.9-.19.8-1.19a3.62,3.62,0,0,0-.84-2.41c-.42-.42-1.45-1.57-2.05-1.69s-1,.58-1.51.8c.87,1.27,1.31,2.7,2.08,4,.44.73.62.86,1.45.69"/><polygon id="_Trazado_213" data-name="&lt;Trazado&gt;" class="cls-6" points="1338.33 668.35 1344.12 659.64 1348.49 669.38 1340 671.36 1338.33 668.35"/></g><path id="_Trazado_214" data-name="&lt;Trazado&gt;" class="cls-8" d="M1313.38,719.36a3.72,3.72,0,0,1,.15,1.1c0,2,0,7.84-2.92,7.54-1.84-.19-3.78-5.55-3.77-7.56a3.86,3.86,0,0,1,.16-1.09Z"/><path id="_Trazado_215" data-name="&lt;Trazado&gt;" class="cls-8" d="M1307,719.34l-2.94,3.11c-1.17.85-.5,2.11.49,1.92s4.26-1.47,4.26-1.47Z"/><polygon id="_Trazado_216" data-name="&lt;Trazado&gt;" class="cls-6" points="1316.59 697.57 1306.64 719.73 1313.7 721.41 1319.35 710.5 1316.59 697.57"/></g></g></g></g></g></g></svg>