<?xml version="1.0" encoding="utf-8"?>
<!-- Generator: Adobe Illustrator 19.0.0, SVG Export Plug-In . SVG Version: 6.00 Build 0)  -->
<svg version="1.1" id="Layer_1" xmlns="http://www.w3.org/2000/svg" xmlns:xlink="http://www.w3.org/1999/xlink" x="0px" y="0px"
	 viewBox="0 0 298.4339905 193.3440704" style="enable-background:new 0 0 298.4339905 193.3440704;" xml:space="preserve">
<metadata><?xpacket begin="﻿" id="W5M0MpCehiHzreSzNTczkc9d"?>
<x:xmpmeta xmlns:x="adobe:ns:meta/" x:xmptk="Adobe XMP Core 5.6-c067 79.157747, 2015/03/30-23:40:42        ">
   <rdf:RDF xmlns:rdf="http://www.w3.org/1999/02/22-rdf-syntax-ns#">
      <rdf:Description rdf:about=""/>
   </rdf:RDF>
</x:xmpmeta>
                                                                                                    
                                                                                                    
                                                                                                    
                                                                                                    
                                                                                                    
                                                                                                    
                                                                                                    
                                                                                                    
                                                                                                    
                                                                                                    
                                                                                                    
                                                                                                    
                                                                                                    
                                                                                                    
                                                                                                    
                                                                                                    
                                                                                                    
                                                                                                    
                                                                                                    
                                                                                                    
                           
<?xpacket end="w"?></metadata>
<style type="text/css">
	.st0{opacity:0.61;fill:#BFE3ED;}
	.st1{fill:#489BD5;}
	.st2{fill:#A44776;}
	.st3{fill:#DB5E9D;}
	.st4{fill:#FFFFFF;}
	.st5{fill:#F49957;}
	.st6{fill:#FFBE77;}
</style>
<g id="XMLID_646_">
	<path id="XMLID_13864_" class="st0" d="M232.2750854,80.8244247c-0.8215942,0-1.6226654,0.0851746-2.4022827,0.2305145
		c0.1393127-1.1283569,0.2192383-2.2750244,0.2192383-3.4411163c0-15.3698082-12.4592743-27.8294182-27.8289795-27.8294182
		c-12.5275879,0-23.1190643,8.2782784-26.6090698,19.6621056c-4.7098999-3.6558914-10.6209564-5.8383713-17.0450439-5.8383713
		c-1.1542664,0-2.2902069,0.0785866-3.4078522,0.2151108c-0.6228943-1.4562187-1.3708191-2.8452339-2.2223358-4.161129
		c1.1663208-3.0705032,1.8106384-6.398201,1.8106384-9.8777161c0-15.3696976-12.4597168-27.8293076-27.8294144-27.8293076
		c-1.1931,0-2.3656693,0.0836124-3.5190277,0.22929c-6.0570602-13.0947866-19.3022156-22.184391-34.6781616-22.184391
		c-21.0954361,0-38.196743,17.1013069-38.196743,38.1970787c0,8.805172,2.9867783,16.9080772,7.9927254,23.3683395
		c-3.5685959-0.7628784-7.2894554-1.1776962-11.1210518-1.1776962c-26.199173,0-47.4374962,18.8929672-47.4374962,42.1987457
		c0,23.3057098,21.2383232,42.1986923,47.4374962,42.1986923c5.2948456,0,10.3811646-0.7833099,15.1366158-2.2071533
		c6.7062988,3.2290649,14.3855667,5.0637665,22.5470734,5.0637665c8.9906998,0,17.396904-2.2257996,24.5617828-6.0907135
		c3.8860703,2.0616913,8.3160019,3.2341003,13.0214462,3.2341003c7.7842026,0,14.8182449-3.1996613,19.8692856-8.35112
		c1.3163452,0.1910553,2.6612701,0.2942505,4.030304,0.2942505c7.0612793,0,13.5036774-2.6347961,18.4105072-6.968399
		c1.9334259,0.4250793,3.9396515,0.6558838,6.000351,0.6558838c9.6426086,0,18.1376801-4.9052582,23.1311188-12.355011
		c2.5683899,0.7820206,5.2926178,1.2059937,8.1168518,1.2059937c8.1405334,0,15.4634705-3.4962616,20.552475-9.0678329
		c2.3679047-0.6743088,4.4544983-2.0008087,6.0655365-3.7741089c1.0841522,0.2921371,2.2178802,0.4621506,3.3940125,0.4621506
		c7.1970215,0,13.0312653-5.8343048,13.0312653-13.0312729S239.4721069,80.8244247,232.2750854,80.8244247z"/>
	<path id="XMLID_13858_" class="st0" d="M298.4342041,72.0004272c0,15.9332123-12.9160767,28.8496323-28.8492737,28.8496323
		c-10.815033,0-20.2344055-5.9545288-25.1734772-14.7604141c-1.204895,0.1533356-2.429718,0.2412872-3.6762848,0.2412872
		c-1.629837,0-3.2263489-0.1421127-4.7825928-0.4018478c-3.1657257,1.9535141-6.6013031,3.5814514-10.2475128,4.8371582
		c-8.5195312,13.017746-24.3643188,21.774559-42.5180206,21.774559c-27.159729,0-49.1767273-19.5857162-49.1767273-43.745903
		c0-18.5933876,13.0461426-34.466362,31.4349976-40.7990723c8.5195312-13.0177393,24.3638611-21.7744999,42.5175629-21.7744999
		c16.789093,0,31.6048889,7.4890733,40.4780579,18.9112816c0.6906433-0.04953,1.3863678-0.0835514,2.0899658-0.0835514
		c12.5781708,0,23.2700348,8.0522366,27.2175751,19.2808437C289.7045288,47.8521004,298.4342041,58.9036484,298.4342041,72.0004272z
		"/>
	<g id="XMLID_7584_">
		<path id="XMLID_688_" class="st1" d="M192.5460052,193.3440857l-0.7050781-0.7089844
			c1.9995117-1.9868164,1.3110352-3.0952148-0.0605469-5.3027344c-1.9663086-3.1640625-4.9375-7.9453125-1.8310547-18.8173828
			c2.8652344-10.027832,3.9404297-24.3828125,3.9511719-24.5268555l0.9970703,0.0732422
			c-0.0102539,0.1445312-1.0927734,14.6005859-3.9863281,24.7280273
			c-2.9848633,10.4462891-0.1542969,15.0014648,1.7182617,18.015625
			C194.0152435,189.0350037,195.1099701,190.7962341,192.5460052,193.3440857z"/>
		<polygon id="XMLID_7596_" class="st2" points="195.5208282,143.301178 193.1043396,143.301178 191.0330811,148.13414 
			196.2112427,148.13414 		"/>
		<ellipse id="XMLID_7590_" class="st3" cx="194.3988953" cy="127.1955414" rx="13.7221594" ry="16.8290634"/>
		<path id="XMLID_7585_" class="st4" d="M198.4593811,114.5537643c-0.9689941-0.284996-2.0604706,0.6464233-1.7776642,1.3736496
			c0.2828064,0.7272186,3.7977295,2.3836746,3.9997253,4.7269516
			C200.8834534,122.9976349,201.8934937,115.563797,198.4593811,114.5537643z"/>
	</g>
	<g id="XMLID_929_">
		<path id="XMLID_687_" class="st1" d="M219.9903412,156.1668396l-0.7050781-0.7089844
			c1.9995117-1.9868164,1.3110352-3.0947266-0.0605469-5.3022461c-1.9663086-3.1635742-4.9375-7.9453125-1.8310547-18.8173828
			c2.8652344-10.0278397,3.9404297-24.3828201,3.9511719-24.5268631l0.9970703,0.0732422
			c-0.0102539,0.1445312-1.0927734,14.6005859-3.9863281,24.728035
			c-2.9848633,10.4462891-0.1542969,15.0014648,1.7182617,18.0151367
			C221.4595795,151.8577576,222.554306,153.6194763,219.9903412,156.1668396z"/>
		<polygon id="XMLID_7578_" class="st5" points="222.9651489,106.124382 220.5486755,106.124382 218.4774017,110.9573441 
			223.6555786,110.9573441 		"/>
		<ellipse id="XMLID_5571_" class="st6" cx="221.8432159" cy="90.0187454" rx="13.7221594" ry="16.8290634"/>
		<path id="XMLID_930_" class="st4" d="M225.9037018,77.3769684c-0.9689941-0.284996-2.0604706,0.6464233-1.7776642,1.373642
			c0.2828217,0.7272263,3.7977295,2.3836746,3.9997406,4.7269516
			C228.327774,85.8208389,229.3378143,78.387001,225.9037018,77.3769684z"/>
	</g>
</g>
</svg>
