<?xml version="1.0" encoding="utf-8"?>
<!-- Generator: Adobe Illustrator 19.0.0, SVG Export Plug-In . SVG Version: 6.00 Build 0)  -->
<svg version="1.1" id="Layer_1" xmlns="http://www.w3.org/2000/svg" xmlns:xlink="http://www.w3.org/1999/xlink" x="0px" y="0px"
	 viewBox="0 0 478.6985779 461.5370789" style="enable-background:new 0 0 478.6985779 461.5370789;" xml:space="preserve">
<metadata><?xpacket begin="﻿" id="W5M0MpCehiHzreSzNTczkc9d"?>
<x:xmpmeta xmlns:x="adobe:ns:meta/" x:xmptk="Adobe XMP Core 5.6-c067 79.157747, 2015/03/30-23:40:42        ">
   <rdf:RDF xmlns:rdf="http://www.w3.org/1999/02/22-rdf-syntax-ns#">
      <rdf:Description rdf:about=""/>
   </rdf:RDF>
</x:xmpmeta>
                                                                                                    
                                                                                                    
                                                                                                    
                                                                                                    
                                                                                                    
                                                                                                    
                                                                                                    
                                                                                                    
                                                                                                    
                                                                                                    
                                                                                                    
                                                                                                    
                                                                                                    
                                                                                                    
                                                                                                    
                                                                                                    
                                                                                                    
                                                                                                    
                                                                                                    
                                                                                                    
                           
<?xpacket end="w"?></metadata>
<style type="text/css">
	.st0{fill:#40C6AC;}
	.st1{fill:#309581;}
	.st2{fill:#F4C5B7;}
	.st3{fill:#465C4D;}
	.st4{opacity:0.61;fill:#BFE3ED;}
</style>
<g id="XMLID_496_">
	<g id="XMLID_23773_">
		<polygon id="XMLID_23779_" class="st0" points="283.8125,274.8647461 226.8602753,299.1661072 208.30867,383.7481384 
			291.1925049,328.7256165 		"/>
		<path id="XMLID_23778_" class="st1" d="M283.8125,274.8647461l-75.50383,108.8833923
			c0,0,83.1177216-53.3156738,82.8838348-55.022522C290.9586487,327.0187683,283.8125,274.8647461,283.8125,274.8647461z"/>
		
			<rect id="XMLID_500_" x="218.4986725" y="312.4458923" transform="matrix(0.9086707 0.4175135 -0.4175135 0.9086707 154.7332916 -79.4746017)" class="st2" width="81.0555801" height="2.9997752"/>
		<path id="XMLID_499_" class="st3" d="M189.7874451,461.5370789l-0.8828125-0.46875
			c2.965332-5.5830078,4.3334961-11.8701172,3.956543-18.1806641c-0.1567383-2.6289062-0.6235352-5.2822266-1.074707-7.8476562
			c-0.3193359-1.8164062-0.6494141-3.6943359-0.8706055-5.5615234c-1.4985352-12.6542969,2.0297852-26.2226562,9.6801758-37.2236328
			c2.2416992-3.2236328,4.8320312-6.2490234,7.3369141-9.1757812l0.7700195,0.6386719l-0.0102539,0.0117188
			c-2.4887695,2.9072266-5.0625,5.9140625-7.2753906,9.0957031c-7.5126953,10.8037109-10.9785156,24.1201172-9.5083008,36.5361328
			c0.2177734,1.8388672,0.5454102,3.703125,0.8623047,5.5048828c0.4560547,2.59375,0.9277344,5.2753906,1.0878906,7.9619141
			C194.247406,449.3222351,192.8392029,455.7919617,189.7874451,461.5370789z"/>
		<path id="XMLID_498_" class="st3" d="M177.4300232,438.5136414c-0.9873047-4.3183594-2.0078125-8.7841797-2.1586914-13.3183594
			c-0.3012695-9.0419922,2.8984375-18.3867188,9.0102539-26.3134766
			c5.3916016-6.9931641,12.8334961-12.7714844,22.1186523-17.1728516l0.4287109,0.9042969
			c-9.1416016,4.3330078-16.4609375,10.0117188-21.7553711,16.8798828
			c-5.9702148,7.7421875-9.0966797,16.8583984-8.8032227,25.6689453c0.1479492,4.4375,1.1577148,8.8564453,2.1342773,13.1289062
			L177.4300232,438.5136414z"/>
		
			<rect id="XMLID_497_" x="244.5609741" y="259.9379272" transform="matrix(0.8217934 0.5697855 -0.5697855 0.8217934 231.4836121 -81.5172348)" class="st2" width="2.999347" height="138.7368774"/>
	</g>
	<path id="XMLID_23772_" class="st4" d="M335.5016174,94.7498398c-5.2711487-8.8888855-14.9584045-14.8509903-26.0421143-14.8509903
		c-1.2556458,0-2.4904175,0.0854568-3.7057495,0.2339172c-0.6773376-1.5835114-1.4906616-3.0939484-2.4165955-4.5248718
		c1.2682495-3.3388977,1.9689026-6.9574814,1.9689026-10.7411499c0-16.7132111-13.5488586-30.2619553-30.2620544-30.2619553
		c-1.2973938,0-2.5724792,0.0909195-3.8266602,0.2493324c-6.5865173-14.2394409-20.9894562-24.1235962-37.7094727-24.1235962
		c-22.9394531,0-41.5361176,18.5961838-41.5361176,41.5360031c0,9.5748558,3.2483521,18.3860588,8.691391,25.4110374
		c-3.8800507-0.829567-7.9261627-1.2806473-12.0926971-1.2806473c-28.4893188,0-51.584137,20.5444641-51.584137,45.8874664
		c0,25.3429337,23.0948181,45.8873978,51.584137,45.8873978c5.7576904,0,11.28862-0.8517761,16.4592743-2.4000854
		c7.2929993,3.5113373,15.6435394,5.5064087,24.5179901,5.5064087c9.7770844,0,18.9181061-2.4203491,26.708786-6.6231232
		c4.225769,2.2419281,9.0429382,3.5167999,14.1601868,3.5167999c8.4646301,0,16.1135559-3.4793396,21.6056213-9.0811005
		c1.431427,0.2077484,2.8939209,0.3199768,4.3830872,0.3199768c7.6780701,0,14.684082-2.8651276,20.0193481-7.5775452
		c2.1024475,0.4622498,4.2840271,0.7132263,6.5253601,0.7132263c16.7131958,0,30.2620544-13.5487518,30.2620544-30.2619553
		C353.2121582,110.0504608,345.9483032,99.5199127,335.5016174,94.7498398z"/>
	<path id="XMLID_23771_" class="st4" d="M192.3564758,99.6380539c1.0128326,0,2.0003662,0.1050034,2.9614563,0.2841797
		c-0.1717377-1.3910141-0.2702637-2.8045883-0.2702637-4.2421112c0-18.9474716,15.359436-34.3073235,34.3067627-34.3073235
		c15.4436646,0,28.5005493,10.2052269,32.8029175,24.2388878c5.8062439-4.5068817,13.0932007-7.1973801,21.0126648-7.1973801
		c1.4229431,0,2.8233032,0.0968781,4.2010803,0.2651825c0.7679138-1.7951813,1.6899109-3.5075226,2.7396545-5.1297226
		c-1.4378052-3.7852325-2.2321167-7.8875198-2.2321167-12.1769676c0-18.9473305,15.3599854-34.3071899,34.307312-34.3071899
		c1.4708252,0,2.9163513,0.1030731,4.3381653,0.2826614c7.46698-16.1428833,23.7952271-27.3482914,42.7502747-27.3482914
		c26.0058594,0,47.0878601,21.0820103,47.0878601,47.0882835c0,10.854763-3.6820068,20.8437958-9.8532104,28.8078308
		c4.3992615-0.9404602,8.9862366-1.4518356,13.7097168-1.4518356c32.2976074,0,58.4796143,23.2907257,58.4796143,52.0214233
		c0,28.7306213-26.1820068,52.021347-58.4796143,52.021347c-6.5273438,0-12.7976074-0.9656372-18.6599731-2.7209167
		c-8.2673645,3.9807129-17.7341309,6.2424774-27.7954102,6.2424774c-11.0834961,0-21.4464111-2.7438965-30.2790833-7.5084534
		c-4.7906189,2.5415955-10.2517395,3.9868927-16.0524597,3.9868927c-9.5961304,0-18.2675171-3.9444427-24.4942932-10.2950134
		c-1.6227722,0.2355194-3.2807312,0.3627472-4.9684448,0.3627472c-8.7049561,0-16.6469727-3.2481079-22.6959534-8.5904541
		c-2.3834839,0.5240326-4.8566895,0.8085632-7.3970642,0.8085632c-11.887146,0-22.3596191-6.0470734-28.5153961-15.2309113
		c-3.1662445,0.9640503-6.5245819,1.4867096-10.0062408,1.4867096c-10.0354004,0-19.0629272-4.3100891-25.3365021-11.1785736
		c-2.9190826-0.8312531-5.4913635-2.4665222-7.477417-4.6526031c-1.3365173,0.3601379-2.7341309,0.5697174-4.1840363,0.5697174
		c-8.8722992,0-16.0645905-7.1923523-16.0645905-16.0645752S183.4841766,99.6380539,192.3564758,99.6380539z"/>
	<path id="XMLID_23770_" class="st4" d="M286.8556213,157.7935333c-0.9922791-0.203186-1.9807739-0.2984161-2.9582825-0.3156738
		c0.4472961-1.3282928,0.8273926-2.6933594,1.1157532-4.1016693c3.8009338-18.5623169-8.1650696-36.6910934-26.7272644-40.4919815
		c-15.1297302-3.0980453-29.9683838,4.2804871-36.9985046,17.1658096
		c-4.7841187-5.5800095-11.3832397-9.6776123-19.1417084-11.2662735c-1.3940125-0.2854462-2.7853394-0.4714508-4.1688995-0.582962
		c-0.3921509-1.912735-0.9519348-3.7752228-1.6549072-5.5750275c2.1679077-3.4198532,3.7689972-7.2794189,4.6294708-11.4816742
		c3.8009033-18.5621796-8.1656342-36.6910706-26.7278137-40.4919586c-1.4409332-0.2950516-2.8777313-0.4840469-4.3066864-0.5933342
		c-4.0768738-17.3126373-17.8253784-31.5657616-36.3951111-35.3681984
		c-25.4772263-5.2168522-50.3598022,11.2075043-55.5767365,36.6851349
		c-2.1774979,10.6341171-0.5741577,21.1587219,3.8739777,30.1988297c-4.1211777-1.8038483-8.5123291-3.2249908-13.1397934-4.1725311
		C37.0380402,80.923027,6.7160578,98.488121,0.9525955,126.6348038c-5.7634487,28.1466141,15.21416,56.2160873,46.8552361,62.695076
		c6.3946533,1.3094025,12.7311783,1.6212311,18.8265076,1.0776367c7.3007355,5.5582428,16.1213684,9.6730957,25.9781342,11.6914215
		c10.8581848,2.2233734,21.5608978,1.61409,31.1697922-1.2817535c4.183403,3.450943,9.2435684,5.9623871,14.926384,7.1260223
		c9.4010773,1.9250183,18.6874542-0.1997528,26.0615997-5.1721191c1.5425262,0.5562744,3.1412811,1.013504,4.7946777,1.352066
		c8.5279999,1.7462311,16.9601593,0.1573334,23.9578705-3.8629608c2.2299194,0.9915161,4.5957794,1.7663879,7.0845032,2.2759857
		c11.6455231,2.3845978,23.1181641-1.438736,30.9911194-9.2010345c2.908493,1.5796204,6.0937195,2.7653503,9.5045929,3.4637909
		c9.8314209,2.0131226,19.5400543-0.398407,27.0639496-5.8687744c3.0264893-0.2287903,5.8745422-1.3148041,8.2587585-3.0580444
		c1.2370911,0.6209259,2.5642395,1.1066132,3.9846802,1.3974762c8.6919556,1.7798004,17.1808472-3.8235626,18.9606323-12.5154266
		C301.1508179,168.0622864,295.5475464,159.5733337,286.8556213,157.7935333z"/>
</g>
</svg>
