<?xml version="1.0" encoding="utf-8"?>
<!-- Generator: Adobe Illustrator 20.1.0, SVG Export Plug-In . SVG Version: 6.00 Build 0)  -->
<svg version="1.1" id="Layer_1" xmlns="http://www.w3.org/2000/svg" xmlns:xlink="http://www.w3.org/1999/xlink" x="0px" y="0px"
	 viewBox="0 0 445.7 255" style="enable-background:new 0 0 445.7 255;" xml:space="preserve">
<style type="text/css">
	.st0{opacity:0.61;fill:#BFE3ED;enable-background:new    ;}
</style>
<g id="XMLID_496_">
	<path id="XMLID_13870_" class="st0" d="M194.8,124.6c3.3-5.5,9.3-9.2,16.2-9.2c0.8,0,1.5,0.1,2.3,0.1c0.4-1,0.9-1.9,1.5-2.8
		c-0.8-2.1-1.2-4.3-1.2-6.7c0-10.4,8.4-18.8,18.8-18.8c0.8,0,1.6,0.1,2.4,0.2c4.1-8.8,13-15,23.4-15c14.2,0,25.8,11.6,25.8,25.8
		c0,5.9-2,11.4-5.4,15.8c2.4-0.5,4.9-0.8,7.5-0.8c17.7,0,32,12.8,32,28.5c0,15.7-14.3,28.5-32,28.5c-3.6,0-7-0.5-10.2-1.5
		c-4.5,2.2-9.7,3.4-15.2,3.4c-6.1,0-11.8-1.5-16.6-4.1c-2.6,1.4-5.6,2.2-8.8,2.2c-5.3,0-10-2.2-13.4-5.6c-0.9,0.1-1.8,0.2-2.7,0.2
		c-4.8,0-9.1-1.8-12.4-4.7c-1.3,0.3-2.7,0.4-4.1,0.4c-10.4,0-18.8-8.4-18.8-18.8C183.8,134.1,188.3,127.5,194.8,124.6z"/>
	<path id="XMLID_7603_" class="st0" d="M358.1,137.2c0,12.5-10.1,22.5-22.5,22.5c-8.5,0-15.8-4.7-19.7-11.5
		c-0.9,0.1-1.9,0.2-2.9,0.2c-1.3,0-2.5-0.1-3.7-0.3c-2.5,1.5-5.2,2.8-8,3.8c-6.7,10.2-19,17-33.2,17c-21.2,0-38.4-15.3-38.4-34.2
		c0-14.5,10.2-26.9,24.6-31.9c6.7-10.2,19-17,33.2-17c13.1,0,24.7,5.9,31.6,14.8c0.5,0,1.1-0.1,1.6-0.1c9.8,0,18.2,6.3,21.3,15.1
		C351.3,118.3,358.1,126.9,358.1,137.2z"/>
</g>
</svg>
