<?xml version="1.0" encoding="utf-8"?>
<!-- Generator: Adobe Illustrator 19.0.0, SVG Export Plug-In . SVG Version: 6.00 Build 0)  -->
<svg version="1.1" id="Layer_1" xmlns="http://www.w3.org/2000/svg" xmlns:xlink="http://www.w3.org/1999/xlink" x="0px" y="0px"
	 viewBox="0 0 336.1610107 127.9533234" style="enable-background:new 0 0 336.1610107 127.9533234;" xml:space="preserve">
<metadata><?xpacket begin="﻿" id="W5M0MpCehiHzreSzNTczkc9d"?>
<x:xmpmeta xmlns:x="adobe:ns:meta/" x:xmptk="Adobe XMP Core 5.6-c067 79.157747, 2015/03/30-23:40:42        ">
   <rdf:RDF xmlns:rdf="http://www.w3.org/1999/02/22-rdf-syntax-ns#">
      <rdf:Description rdf:about=""/>
   </rdf:RDF>
</x:xmpmeta>
                                                                                                    
                                                                                                    
                                                                                                    
                                                                                                    
                                                                                                    
                                                                                                    
                                                                                                    
                                                                                                    
                                                                                                    
                                                                                                    
                                                                                                    
                                                                                                    
                                                                                                    
                                                                                                    
                                                                                                    
                                                                                                    
                                                                                                    
                                                                                                    
                                                                                                    
                                                                                                    
                           
<?xpacket end="w"?></metadata>
<style type="text/css">
	.st0{fill:#007597;}
</style>
<g id="XMLID_826_">
	<g id="XMLID_833_">
		<path id="XMLID_861_" class="st0" d="M154.2490082,101.9474258c-0.3670654-6.9478149-1.6949463-13.6960754-3.8868713-20.0827866
			c-0.1723633-0.5235138-0.3670654-1.0420609-0.5505981-1.5545197c-0.0215607-0.0972977-0.064682-0.1945953-0.1078033-0.291893
			c-6.5757751-17.9826279-20.0507202-32.6019096-37.1858826-40.7217064
			c-1.2090073-0.5776939-2.4295273-1.1012154-3.6712646-1.6086998l-2.0293961-0.9502945l-0.0541763,0.1404152
			c-1.3931046-0.5235214-2.8398285-1.0254784-4.2976074-1.4682846c-6.8129349-2.0404549-14.0360641-3.1151352-21.5184555-3.0769882
			c-29.7034874,0.2050934-55.5952873,17.6747093-66.8136292,43.1668205
			c-1.8784771-2.2565994-3.4335556-4.8045425-4.6855812-7.6709061l-9.4476662,4.1295547
			c7.7520652,17.7830582,24.4770317,26.712738,49.6993713,26.5292053
			c21.4001503-0.1354446,41.4724388-9.685379,55.1740379-25.6115265
			c9.2210083,16.3473892,24.455574,28.7531891,42.7356339,34.2598114l6.9854126,2.116188L154.2490082,101.9474258z"/>
		<path id="XMLID_835_" class="st0" d="M52.2263794,127.9525604c-14.0366135,0.09729-18.7764778-9.4366074-19.3270836-14.5004272
			l5.8841972-0.6479034c0.1188545,0.9287338,1.5225716,9.3017197,13.3776512,9.231514
			c11.8774147-0.0862427,13.1509972-8.4702835,13.2698555-9.4310837l5.8847504,0.5882034
			C70.8298187,118.2566757,66.2303696,127.8558197,52.2263794,127.9525604z"/>
		<path id="XMLID_834_" class="st0" d="M107.6375732,127.5749817c-14.0255508,0.0967484-18.776474-9.4371567-19.3270798-14.4954453
			l5.8953629-0.6534348c0.1076889,0.9397888,1.5112991,9.307251,13.3671494,9.2320709
			c11.8550797-0.0867996,13.1508865-8.4868698,13.2481842-9.4371643l5.895256,0.6047821
			C126.230629,117.8791046,121.6305161,127.4776917,107.6375732,127.5749817z"/>
	</g>
	<g id="XMLID_827_">
		<path id="XMLID_832_" class="st0" d="M208.9697418,113.9596176c-14.0150604-0.0165787-18.6686859-9.5880814-19.1760559-14.6413956
			l5.8846436-0.6042252c0.0968475,0.9281769,1.4356689,9.3122253,13.2698517,9.333786
			c11.8656921,0.0055237,13.226181-8.3624878,13.3346405-9.3122253l5.8951416,0.6368408
			C227.6378632,104.4257126,222.952179,113.9811783,208.9697418,113.9596176z"/>
		<path id="XMLID_831_" class="st0" d="M264.3378296,114.0242996c-14.0150604-0.0055313-18.6902466-9.5714951-19.186676-14.6303406
			l5.8841858-0.5992508c0.1083527,0.9342575,1.4472809,9.3017197,13.2914124,9.3288116
			c11.834198,0.0160294,13.2051697-8.3624878,13.3129883-9.3127823l5.8847351,0.6318741
			C283.0059509,104.5009003,278.3092041,114.0569153,264.3378296,114.0242996z"/>
		<path id="XMLID_830_" class="st0" d="M307.3973999,68.7191772c-0.1730347-0.5235214-0.3564758-1.0310059-0.5290527-1.5440216
			c-0.0436707-0.1078033-0.0651245-0.205101-0.1083679-0.3023911c-1.8353577-5.1500587-4.2434082-10.0087814-7.1368713-14.5441017
			l4.5242615-4.0704041l-2.0515137-2.2886658l34.0652161-13.5186234L306.9761353-0.0000218l-17.0273438,32.4620514
			l-2.0730896-2.2997265l-4.5778809,4.1135235c-4.1244507-3.250021-8.5841675-6.0892963-13.3560791-8.4000759
			c-1.2095642-0.5776958-2.429657-1.1122723-3.6497192-1.6302624l-2.0834656-0.8209362
			c-1.3930969-0.5395489-2.8294373-1.0365334-4.2761536-1.5009003c-6.7912598-2.1051331-14.0144958-3.2389641-21.4753418-3.2549953
			c-29.6708679-0.0381451-55.6815186,17.1998367-67.10495,42.5681229c-1.8464203-2.267662-3.4015045-4.8211288-4.6320648-7.6985512
			l-9.4692383,4.0488434c7.6123199,17.831707,24.2505951,26.8852196,49.4192047,26.9283333
			c21.3890991,0.027092,41.5476227-9.3503647,55.3354492-25.1465988
			c9.091217,16.4115219,24.2184448,28.9146118,42.4332581,34.5782394l6.964386,2.1648331l-0.2918701-7.2988586
			C310.7983398,81.8757019,309.5567017,75.1163864,307.3973999,68.7191772z"/>
	</g>
</g>
</svg>
