<svg xmlns="http://www.w3.org/2000/svg" viewBox="0 0 478.7 208.65"><defs><style>.cls-1{fill:#bfe3ed;opacity:0.61;}</style></defs><title>nubes-serv-mobile</title><g id="Capa_2" data-name="Capa 2"><g id="Layer_5" data-name="Layer 5"><path id="_Trazado_" data-name="&lt;Trazado&gt;" class="cls-1" d="M335.5,94.75a30.23,30.23,0,0,0-29.75-14.62,30.09,30.09,0,0,0-2.41-4.52,30.27,30.27,0,0,0-28.3-41,32.1,32.1,0,0,0-3.82.25,41.54,41.54,0,1,0-70.56,42.83,57.71,57.71,0,0,0-12.09-1.28C160.08,76.4,137,96.94,137,122.28s23.09,45.89,51.58,45.89a57.26,57.26,0,0,0,16.46-2.4,57.25,57.25,0,0,0,51.23-1.11A30.26,30.26,0,0,0,292,159.09a30.21,30.21,0,0,0,24.4-7.26A30.26,30.26,0,0,0,335.5,94.75Z"/><path id="_Trazado_2" data-name="&lt;Trazado&gt;" class="cls-1" d="M192.36,99.64a16.06,16.06,0,0,1,3,.28,34.84,34.84,0,0,1-.27-4.24,34.31,34.31,0,0,1,67.11-10.07,34,34,0,0,1,25.21-6.93,34,34,0,0,1,2.74-5.13,34.28,34.28,0,0,1,36.41-46.2,47.09,47.09,0,1,1,80,48.55,65.59,65.59,0,0,1,13.71-1.46c32.3,0,58.48,23.3,58.48,52s-26.18,52-58.48,52a65.16,65.16,0,0,1-18.66-2.72,64.92,64.92,0,0,1-58.08-1.27,34.27,34.27,0,0,1-40.54-6.31A34.32,34.32,0,0,1,275.27,160a34.28,34.28,0,0,1-35.91-14.42A34.31,34.31,0,0,1,204,135.85a16.1,16.1,0,0,1-7.48-4.65,16.06,16.06,0,1,1-4.18-31.56Z"/><path id="_Trazado_3" data-name="&lt;Trazado&gt;" class="cls-1" d="M286.86,157.79a16.72,16.72,0,0,0-3-.31,36.91,36.91,0,0,0,1.11-4.1,34.31,34.31,0,0,0-63.72-23.33,34.21,34.21,0,0,0-19.14-11.27,35.7,35.7,0,0,0-4.17-.58,35.37,35.37,0,0,0-1.66-5.57,34.32,34.32,0,0,0-22.1-52,35.51,35.51,0,0,0-4.3-.59,47.08,47.08,0,1,0-88.1,31.51A65.86,65.86,0,0,0,68.68,87.4C37,80.92,6.72,98.49,1,126.63s15.22,56.22,46.86,62.7a65.06,65.06,0,0,0,18.82,1.08,64.92,64.92,0,0,0,57.15,10.41,34.32,34.32,0,0,0,41,2,34.32,34.32,0,0,0,28.75-2.51,34.29,34.29,0,0,0,38.08-6.92,34.65,34.65,0,0,0,9.5,3.46,34.25,34.25,0,0,0,27.07-5.87,16,16,0,0,0,8.26-3.06,16.06,16.06,0,1,0,10.43-30.08Z"/></g></g></svg>