<svg xmlns="http://www.w3.org/2000/svg" viewBox="0 0 174.3 99.73"><defs><style>.cls-1{fill:#bfe3ed;opacity:0.61;}</style></defs><title>nube-serv-mobile-comida</title><g id="Capa_2" data-name="Capa 2"><g id="Layer_5" data-name="Layer 5"><path id="_Trazado_" data-name="&lt;Trazado&gt;" class="cls-1" d="M11,52.19A18.8,18.8,0,0,1,27.18,43a19.45,19.45,0,0,1,2.3.15A19.39,19.39,0,0,1,31,40.3,18.81,18.81,0,0,1,48.56,14.83a20.65,20.65,0,0,1,2.37.15A25.8,25.8,0,1,1,94.76,41.59a35.56,35.56,0,0,1,7.51-.8c17.7,0,32,12.76,32,28.5S120,97.8,102.27,97.8a35.62,35.62,0,0,1-10.22-1.49,35.54,35.54,0,0,1-31.82-.7A18.78,18.78,0,0,1,38,92.16a20.37,20.37,0,0,1-2.72.19,18.77,18.77,0,0,1-12.44-4.7,19.25,19.25,0,0,1-4.05.44A18.8,18.8,0,0,1,11,52.19Z"/><path id="_Trazado_2" data-name="&lt;Trazado&gt;" class="cls-1" d="M174.3,64.8a22.54,22.54,0,0,1-42.22,11,22.84,22.84,0,0,1-2.88.19,23.11,23.11,0,0,1-3.74-.31,40.5,40.5,0,0,1-8,3.78c-6.66,10.17-19,17-33.23,17C63,96.48,45.79,81.18,45.79,62.3c0-14.54,10.2-26.94,24.57-31.89,6.66-10.18,19-17,33.23-17,13.12,0,24.7,5.85,31.63,14.78.54,0,1.09-.06,1.64-.06a22.55,22.55,0,0,1,21.27,15.06A22.57,22.57,0,0,1,174.3,64.8Z"/></g></g></svg>