<?xml version="1.0" encoding="utf-8"?>
<!-- Generator: Adobe Illustrator 19.0.0, SVG Export Plug-In . SVG Version: 6.00 Build 0)  -->
<svg version="1.1" id="Layer_1" xmlns="http://www.w3.org/2000/svg" xmlns:xlink="http://www.w3.org/1999/xlink" x="0px" y="0px"
	 viewBox="0 0 131.7752533 125.9154663" style="enable-background:new 0 0 131.7752533 125.9154663;" xml:space="preserve">
<metadata><?xpacket begin="﻿" id="W5M0MpCehiHzreSzNTczkc9d"?>
<x:xmpmeta xmlns:x="adobe:ns:meta/" x:xmptk="Adobe XMP Core 5.6-c067 79.157747, 2015/03/30-23:40:42        ">
   <rdf:RDF xmlns:rdf="http://www.w3.org/1999/02/22-rdf-syntax-ns#">
      <rdf:Description rdf:about=""/>
   </rdf:RDF>
</x:xmpmeta>
                                                                                                    
                                                                                                    
                                                                                                    
                                                                                                    
                                                                                                    
                                                                                                    
                                                                                                    
                                                                                                    
                                                                                                    
                                                                                                    
                                                                                                    
                                                                                                    
                                                                                                    
                                                                                                    
                                                                                                    
                                                                                                    
                                                                                                    
                                                                                                    
                                                                                                    
                                                                                                    
                           
<?xpacket end="w"?></metadata>
<style type="text/css">
	.st0{fill:#FEC86C;}
	.st1{fill:#EDE16B;}
	.st2{fill:#F49957;}
	.st3{fill:#F26F4F;}
	.st4{fill:#F3E8C7;}
	.st5{fill:#A97C50;}
	.st6{fill:#465C4D;}
	.st7{fill:none;}
</style>
<g>
	<g id="XMLID_732_">
		
			<rect id="XMLID_744_" x="61.13908" y="33.992691" transform="matrix(0.9481433 -0.3178432 0.3178432 0.9481433 -8.2585421 27.4027386)" class="st0" width="37.4217758" height="10.0360994"/>
		<path id="XMLID_743_" class="st1" d="M123.5921326,114.1038818l-33.3860092,11.1918869
			c-6.2577515,2.0977707-13.0940781-1.3058548-15.1918411-7.5635986L57.1883163,64.5563583
			c-2.0977669-6.2577477,1.3058548-13.0940742,7.5635986-15.1918411l33.3860168-11.1918907
			c6.2577438-2.0977669,13.0940704,1.3058548,15.1918335,7.5635986l17.8259659,53.1758156
			C133.2534943,105.1697845,129.849884,112.0061111,123.5921326,114.1038818z"/>
		<g id="XMLID_734_">
			
				<rect id="XMLID_742_" x="63.9893875" y="38.9757156" transform="matrix(0.9481433 -0.3178432 0.3178432 0.9481433 -10.6176071 22.9379997)" class="st2" width="1.9965594" height="10.0646257"/>
			
				<rect id="XMLID_741_" x="68.2370529" y="37.5517845" transform="matrix(0.9481433 -0.3178432 0.3178432 0.9481433 -9.9447489 24.2142525)" class="st2" width="1.9965594" height="10.0646257"/>
			
				<rect id="XMLID_740_" x="72.4847183" y="36.1278496" transform="matrix(0.9481433 -0.3178432 0.3178432 0.9481433 -9.2718916 25.4905033)" class="st2" width="1.9965594" height="10.0646257"/>
			
				<rect id="XMLID_739_" x="76.7323914" y="34.7039185" transform="matrix(0.9481433 -0.3178432 0.3178432 0.9481433 -8.5990343 26.7667561)" class="st2" width="1.9965594" height="10.0646257"/>
			
				<rect id="XMLID_738_" x="80.9800568" y="33.2799873" transform="matrix(0.9481433 -0.3178432 0.3178432 0.9481433 -7.926177 28.0430069)" class="st2" width="1.9965594" height="10.0646257"/>
			
				<rect id="XMLID_737_" x="85.2277222" y="31.8560524" transform="matrix(0.9481433 -0.3178432 0.3178432 0.9481433 -7.2533193 29.3192596)" class="st2" width="1.9965594" height="10.0646257"/>
			
				<rect id="XMLID_736_" x="89.4753952" y="30.4321194" transform="matrix(0.9481433 -0.3178432 0.3178432 0.9481433 -6.580462 30.5955105)" class="st2" width="1.9965594" height="10.0646257"/>
			
				<rect id="XMLID_735_" x="93.7230606" y="29.0081863" transform="matrix(0.9481433 -0.3178432 0.3178432 0.9481433 -5.9076047 31.8717632)" class="st2" width="1.9965594" height="10.0646257"/>
		</g>
		
			<rect id="XMLID_733_" x="65.445755" y="63.9659042" transform="matrix(0.9481433 -0.3178432 0.3178432 0.9481433 -21.8836918 34.5861053)" class="st3" width="59.2119904" height="40.785099"/>
	</g>
	<g id="XMLID_729_">
		<path id="XMLID_731_" class="st4" d="M14.9959583,39.4606514c-3.1147375,10.8948135-5.1767855,21.0268555-6.035924,28.8025551
			L20.19347,71.4747543c3.3807793-7.0547867,6.985939-16.7456627,10.1006775-27.6404762
			c6.5666542-22.9690094,8.4654427-42.5680847,4.2410355-43.7758102S21.5626106,16.491642,14.9959583,39.4606514z"/>
		<polygon id="XMLID_730_" class="st5" points="8.9600344,68.2632065 20.19347,71.4747543 13.8591661,87.2137833 
			7.1467333,85.294754 		"/>
	</g>
	<g>
		<path class="st6" d="M2.1651943,99.0938568c2.7802737-1.1918945,3.9248049-1.8535156,6.7949219-2.1186523
			c2.4506836-0.2255859,3.1435547-2.2670898,4.7167969,0.9267578c-0.0678711,0.215332-0.1416016,0.4326172-0.2172852,0.6503906
			c2.230957-6.2744141,0.3994141-11.3383789,0.3994141-11.3383789l-6.7124023-1.9194336
			c-3.4389651,0.6445312-5.390625,3.9672852-6.4160156,7.5551758c-0.4160156,1.4545898-0.0498047,3.9194336,0.3041992,6.6074219
			C1.4029874,99.3741302,1.780917,99.2584076,2.1651943,99.0938568z"/>
	</g>
	<path class="st1" d="M8.9601164,96.9752045c-2.8701172,0.2651367-4.0146484,0.9267578-6.7949219,2.1186523
		c-0.3842772,0.1645508-0.7622069,0.2802734-1.130371,0.3632812c0.519043,3.9414062,1.0102538,8.3686523-1.034668,10.8354492
		c1.8188477-1.1074219,10.3012695-4.0654297,13.0966797-10.777832c0.2275391-0.546875,0.4130859-1.0830078,0.5800781-1.612793
		C12.1036711,94.7081146,11.4108,96.7496185,8.9601164,96.9752045z"/>
</g>
<rect x="-22.2515259" y="-15.2443762" class="st7" width="176.2786102" height="156.4041748"/>
</svg>
