<?xml version="1.0" encoding="utf-8"?>
<!-- Generator: Adobe Illustrator 19.0.0, SVG Export Plug-In . SVG Version: 6.00 Build 0)  -->
<svg version="1.1" id="Layer_1" xmlns="http://www.w3.org/2000/svg" xmlns:xlink="http://www.w3.org/1999/xlink" x="0px" y="0px"
	 viewBox="0 0 116.9418716 116.1497574" style="enable-background:new 0 0 116.9418716 116.1497574;" xml:space="preserve">
<metadata><?xpacket begin="﻿" id="W5M0MpCehiHzreSzNTczkc9d"?>
<x:xmpmeta xmlns:x="adobe:ns:meta/" x:xmptk="Adobe XMP Core 5.6-c067 79.157747, 2015/03/30-23:40:42        ">
   <rdf:RDF xmlns:rdf="http://www.w3.org/1999/02/22-rdf-syntax-ns#">
      <rdf:Description rdf:about=""/>
   </rdf:RDF>
</x:xmpmeta>
                                                                                                    
                                                                                                    
                                                                                                    
                                                                                                    
                                                                                                    
                                                                                                    
                                                                                                    
                                                                                                    
                                                                                                    
                                                                                                    
                                                                                                    
                                                                                                    
                                                                                                    
                                                                                                    
                                                                                                    
                                                                                                    
                                                                                                    
                                                                                                    
                                                                                                    
                                                                                                    
                           
<?xpacket end="w"?></metadata>
<style type="text/css">
	.st0{fill:#439FBB;}
	.st1{fill:#F3E8C7;}
	.st2{fill:#FEC86C;}
	.st3{fill:#FFFFFF;}
	.st4{fill:#F49957;}
	.st5{fill:#D1E2D7;}
</style>
<g id="XMLID_745_">
	<polygon id="XMLID_766_" class="st0" points="82.9528732,35.2134438 70.8308716,5.0645299 66.8791809,4.0370412 
		52.3418846,23.1635094 	"/>
	
		<ellipse id="XMLID_765_" transform="matrix(0.9678195 0.2516455 -0.2516455 0.9678195 11.647378 -14.5814552)" class="st1" cx="62.8357849" cy="38.2494087" rx="21.2366047" ry="19.6207752"/>
	<path id="XMLID_764_" class="st2" d="M65.0585251,59.054203L40.6573448,46.4942741c0,0-10.9056511,4.3337326-16.3345356,16.0400925
		S6.79459,96.9247208,4.6875844,98.6071396l67.4681091,17.542572c0,0-9.6607513-26.1383133-8.8236389-33.0269928
		S66.9663391,64.5589294,65.0585251,59.054203z"/>
	<polygon id="XMLID_763_" class="st3" points="42.8976936,62.1492271 45.6378365,62.8616982 46.350338,60.1214294 
		48.5890388,60.7035217 47.8765373,63.4437904 50.6166763,64.1562653 50.034584,66.3949661 47.294445,65.6824951 
		46.5820084,68.4225006 44.3433075,67.8404083 45.0557442,65.1004028 42.3156052,64.3879318 	"/>
	<polygon id="XMLID_762_" class="st3" points="40.9969444,81.6269608 43.7370834,82.3394318 44.4495888,79.5991592 
		46.6882896,80.1812515 45.9757843,82.9215164 48.7159233,83.6339951 48.133831,85.8726959 45.393692,85.1602173 
		44.6812553,87.9002304 42.4425545,87.3181381 43.1549911,84.5781326 40.4148521,83.8656616 	"/>
	<polygon id="XMLID_761_" class="st4" points="40.6573448,46.4942741 15.565732,29.251379 8.9081964,34.6755714 
		20.1653805,71.082962 	"/>
	<polygon id="XMLID_760_" class="st4" points="65.0585251,59.054203 94.0509872,60.3773041 95.0929871,68.2946014 
		63.3320541,83.1227188 	"/>
	<polygon id="XMLID_759_" class="st0" points="65.0585251,59.054203 78.1892776,56.2530556 38.12957,35.1182671 
		40.6573448,46.4942741 	"/>
	<circle id="XMLID_758_" class="st0" cx="56.0759506" cy="32.3713455" r="2.1721964"/>
	<circle id="XMLID_757_" class="st0" cx="70.7386475" cy="41.0270882" r="2.1721964"/>
	<g id="XMLID_752_">
		<polygon id="XMLID_756_" class="st0" points="15.565732,29.251379 17.0943394,23.3724098 4.1814246,33.4490166 
			8.9081964,34.6755714 		"/>
		<g id="XMLID_753_">
			<path id="XMLID_755_" class="st5" d="M13.2978077,26.3350372c0,0-3.7577381-7.6976204-6.3910532-9.8897495
				s-6.1632528-3.1099586-6.8586936,0.2893734S6.4520054,31.677166,6.4520054,31.677166L13.2978077,26.3350372z"/>
			<path id="XMLID_754_" class="st5" d="M14.7969084,20.5695515c0.4510908-2.1438618,1.2904367-5.6942062-0.8412447-5.306325
				c-2.1316814,0.3878822-4.9874983,7.7477903-4.9874983,7.7477903l2.9186926,4.4250565l1.4109497-1.1010361L14.7969084,20.5695515z
				"/>
		</g>
	</g>
	<g id="XMLID_747_">
		<polygon id="XMLID_751_" class="st0" points="94.0509872,60.3773041 95.0929871,68.2946014 100.1675568,71.5667496 
			98.0936661,53.453949 		"/>
		<g id="XMLID_748_">
			<path id="XMLID_750_" class="st5" d="M98.8265915,59.3673019c0,0,4.5249863-7.293087,5.3368988-8.9662704
				c0.8119049-1.6731873,3.2616577,1.2249298,1.9061203,4.2641983c-1.3555374,3.0392723-2.2876053,9.0545425-2.2876053,9.0545425
				l-4.4975586,0.1341057L98.8265915,59.3673019z"/>
			<path id="XMLID_749_" class="st5" d="M99.7183151,67.6431732c0,0,6.8523941-0.4113159,9.4610291-0.2983322
				c2.6086273,0.1129913,8.8213654-2.0401993,7.6070938-4.6170769s-7.7170486-8.0403214-12.8384476-5.7003937
				c-5.1213989,2.3399315-5.1213989,2.3399315-5.1213989,2.3399315L99.7183151,67.6431732z"/>
		</g>
	</g>
	<circle id="XMLID_746_" class="st5" cx="69.1077728" cy="3.5787311" r="3.5779061"/>
</g>
</svg>
