<?xml version="1.0" encoding="utf-8"?>
<!-- Generator: Adobe Illustrator 19.0.0, SVG Export Plug-In . SVG Version: 6.00 Build 0)  -->
<svg version="1.1" id="Layer_1" xmlns="http://www.w3.org/2000/svg" xmlns:xlink="http://www.w3.org/1999/xlink" x="0px" y="0px"
	 viewBox="0 0 259.24646 176.3096466" style="enable-background:new 0 0 259.24646 176.3096466;" xml:space="preserve">
<metadata><?xpacket begin="﻿" id="W5M0MpCehiHzreSzNTczkc9d"?>
<x:xmpmeta xmlns:x="adobe:ns:meta/" x:xmptk="Adobe XMP Core 5.6-c067 79.157747, 2015/03/30-23:40:42        ">
   <rdf:RDF xmlns:rdf="http://www.w3.org/1999/02/22-rdf-syntax-ns#">
      <rdf:Description rdf:about=""/>
   </rdf:RDF>
</x:xmpmeta>
                                                                                                    
                                                                                                    
                                                                                                    
                                                                                                    
                                                                                                    
                                                                                                    
                                                                                                    
                                                                                                    
                                                                                                    
                                                                                                    
                                                                                                    
                                                                                                    
                                                                                                    
                                                                                                    
                                                                                                    
                                                                                                    
                                                                                                    
                                                                                                    
                                                                                                    
                                                                                                    
                           
<?xpacket end="w"?></metadata>
<style type="text/css">
	.st0{enable-background:new    ;}
	.st1{clip-path:url(#XMLID_742_);enable-background:new    ;}
	.st2{fill:#855F37;}
	.st3{fill:#8A6339;}
	.st4{fill:#8F663B;}
	.st5{fill:#946A3D;}
	.st6{fill:#996E3F;}
	.st7{fill:#9E7141;}
	.st8{fill:#A37543;}
	.st9{fill:#A87945;}
	.st10{fill:#AD7C47;}
	.st11{fill:#B3804A;}
	.st12{clip-path:url(#XMLID_743_);enable-background:new    ;}
	.st13{fill:#275C6C;}
	.st14{fill:#285F70;}
	.st15{fill:#2A6374;}
	.st16{fill:#2B6678;}
	.st17{fill:#2C697B;}
	.st18{fill:#2E6C7F;}
	.st19{fill:#2F6F83;}
	.st20{fill:#265969;}
	.st21{fill:#245665;}
	.st22{fill:#235361;}
	.st23{fill:#3B8CA5;}
	.st24{fill:#E1A15C;}
	.st25{fill:#BF894F;}
	.st26{fill:#876138;}
	.st27{fill:#B8B29E;}
	.st28{clip-path:url(#XMLID_744_);enable-background:new    ;}
	.st29{fill:#846838;}
	.st30{clip-path:url(#XMLID_745_);enable-background:new    ;}
	.st31{fill:#7F7B6D;}
	.st32{clip-path:url(#XMLID_746_);enable-background:new    ;}
	.st33{fill:#848071;}
	.st34{clip-path:url(#XMLID_747_);enable-background:new    ;}
	.st35{fill:#938E7E;}
	.st36{fill:#8E897A;}
	.st37{fill:#898576;}
	.st38{clip-path:url(#XMLID_748_);enable-background:new    ;}
	.st39{fill:#989382;}
	.st40{fill:#9D9886;}
	.st41{fill:#A29C8B;}
	.st42{fill:#A7A18F;}
	.st43{fill:#ABA693;}
	.st44{fill:#B5B09C;}
	.st45{clip-path:url(#XMLID_749_);enable-background:new    ;}
	.st46{fill:#93743F;}
	.st47{fill:#987841;}
	.st48{fill:#9D7C43;}
	.st49{fill:#A38045;}
	.st50{fill:#A88447;}
	.st51{fill:#AD8849;}
	.st52{fill:#B28C4C;}
	.st53{fill:#8E703C;}
	.st54{fill:#896C3A;}
	.st55{fill:#E0B05F;}
	.st56{fill:#D8D1B9;}
	.st57{fill:#827E6F;}
	.st58{fill:#B7B29D;}
	.st59{fill:#56787E;}
	.st60{fill:#79AAB2;}
	.st61{fill:#878787;}
	.st62{fill:#E1E1E1;}
	.st63{fill:#BFBFBF;}
	.st64{fill:#8FC8D1;}
	.st65{fill:#255360;}
	.st66{fill:#347688;}
	.st67{fill:#B77341;}
	.st68{fill:#81512E;}
	.st69{fill:#D7874D;}
	.st70{fill:#3D8A9F;}
	.st71{fill:#807A3E;}
	.st72{fill:#B4AD58;}
	.st73{fill:#32778C;}
	.st74{fill:#245463;}
	.st75{fill:#D4CB67;}
</style>
<g>
	<g id="XMLID_928_">
		<g id="XMLID_501_" class="st0">
			<g id="XMLID_705_" class="st0">
				<defs>
					<path id="XMLID_723_" class="st0" d="M230.9326324,86.8531189c-1.1127472,0.6835098-1.6771088,1.5853424-1.6938477,2.4963837
						l0.1721649-9.3902969c0.0167542-0.9110565,0.5811005-1.8128891,1.6938629-2.4963989
						c-0.0573273,3.1300812-0.1146545,6.2599182-0.1720123,9.3899841c0.0573578-3.1301117,0.1148071-6.259964,0.1721649-9.3900757
						c2.266449-1.3920517,5.9570312-1.3559036,8.2339325,0.080658c1.1590424,0.7312698,1.7303162,1.6856918,1.7129669,2.6302185
						l-0.1721802,9.3903198c0.0173645-0.9445343-0.5539246-1.8989639-1.7129517-2.6302261
						C236.8897705,85.4970856,233.1990662,85.4609756,230.9326324,86.8531189z"/>
				</defs>
				<clipPath id="XMLID_742_">
					<use xlink:href="#XMLID_723_"  style="overflow:visible;"/>
				</clipPath>
				<g id="XMLID_706_" class="st1">
					<path id="XMLID_722_" class="st2" d="M241.0518646,80.1735153l-0.1721649,9.3903122
						c0.0173035-0.9445038-0.5539703-1.8988953-1.7129669-2.6301422c-0.3392181-0.2140198-0.7098083-0.3969574-1.1024017-0.5487213
						l0.1721802-9.3903122c0.3925781,0.1517639,0.7631836,0.3347015,1.1023865,0.5487213
						C240.4979095,78.2746201,241.0691833,79.2290115,241.0518646,80.1735153"/>
					<path id="XMLID_721_" class="st3" d="M238.2365112,76.9946518l-0.1721802,9.3903122
						c-0.2504883-0.0968399-0.5099335-0.1809769-0.7759094-0.2524033l0.1721802-9.3903122
						C237.7265625,76.8136749,237.9860077,76.8978195,238.2365112,76.9946518"/>
					<path id="XMLID_720_" class="st4" d="M237.4606018,76.7422485l-0.1721802,9.3903122
						c-0.2233276-0.0599823-0.4512634-0.1109924-0.6823425-0.1530228l0.1721649-9.3903122
						C237.0093384,76.6312561,237.2372589,76.6822662,237.4606018,76.7422485"/>
					<path id="XMLID_719_" class="st5" d="M236.778244,76.5892258l-0.1721649,9.3903122
						c-0.2153015-0.0391617-0.4333496-0.0705261-0.6529541-0.0940857l0.1721802-9.3903122
						C236.3449097,76.5186996,236.5629425,76.5500641,236.778244,76.5892258"/>
					<path id="XMLID_718_" class="st6" d="M236.1253052,76.4951401l-0.1721802,9.3903122
						c-0.2151489-0.0230865-0.4318085-0.0386734-0.6488647-0.0467529l0.1721649-9.3903122
						C235.6934967,76.4564667,235.9101562,76.4720535,236.1253052,76.4951401"/>
					<path id="XMLID_717_" class="st7" d="M235.4764252,76.4483871l-0.1721649,9.3903122
						c-0.22258-0.0082855-0.4456024-0.0086899-0.6678467-0.0011826l0.1721649-9.3903122
						C235.030838,76.4397049,235.2538452,76.4401016,235.4764252,76.4483871"/>
					<path id="XMLID_716_" class="st8" d="M234.8085785,76.4472046l-0.1721649,9.3903122
						c-0.2427826,0.0082016-0.4846649,0.0258255-0.7241058,0.0528946l0.1721802-9.3903046
						C234.3239136,76.4730301,234.5657959,76.4554062,234.8085785,76.4472046"/>
					<path id="XMLID_715_" class="st9" d="M234.0844879,76.5001068l-0.1721802,9.3903046
						c-0.286087,0.0323486-0.5686798,0.0781784-0.8451538,0.1375122l0.1721802-9.3903122
						C233.5158081,76.5782776,233.7984009,76.5324478,234.0844879,76.5001068"/>
					<path id="XMLID_714_" class="st10" d="M233.2393341,76.6376114l-0.1721802,9.3903122
						c-0.5709839,0.122551-1.1158752,0.3027115-1.6114807,0.5407181l0.1721649-9.3903046
						C232.1234436,76.9403229,232.668335,76.7601624,233.2393341,76.6376114"/>
					<path id="XMLID_713_" class="st11" d="M231.6278381,77.1783371l-0.1721649,9.3903046
						c-0.0810242,0.0389099-0.1607208,0.0793686-0.2389984,0.1213684l0.1721649-9.3903122
						C231.4671173,77.2576981,231.5468292,77.2172394,231.6278381,77.1783371"/>
					<path id="XMLID_712_" class="st10" d="M231.3888397,77.2996979l-0.1721649,9.3903122
						c-0.0969238,0.0519943-0.1916656,0.106369-0.2840424,0.1631088c-0.3422852,0.2102432-0.6326752,0.4411545-0.8712006,0.6866302
						l0.1721649-9.3903122c0.2385254-0.2454758,0.5289307-0.4763794,0.8712158-0.6866302
						C231.1971893,77.4060669,231.2919312,77.3516998,231.3888397,77.2996979"/>
					<path id="XMLID_711_" class="st9" d="M230.2335968,78.149437l-0.1721649,9.3903122
						c-0.1494904,0.1538391-0.2786102,0.3134079-0.3873596,0.4771957l0.1721649-9.3903122
						C229.9549866,78.4628448,230.0841064,78.3032761,230.2335968,78.149437"/>
					<path id="XMLID_710_" class="st8" d="M229.8462372,78.6266327l-0.1721649,9.3903122
						c-0.0914459,0.1377335-0.1685028,0.27845-0.2311554,0.4212646l0.1721802-9.3903122
						C229.6777344,78.9050827,229.7547913,78.7643661,229.8462372,78.6266327"/>
					<path id="XMLID_709_" class="st7" d="M229.615097,79.0478973l-0.1721802,9.3903122
						c-0.0585022,0.1333694-0.1044617,0.2685623-0.1378479,0.4048538l0.1721649-9.3903122
						C229.5106354,79.3164597,229.5565796,79.1812668,229.615097,79.0478973"/>
					<path id="XMLID_708_" class="st6" d="M229.4772339,79.4527512l-0.1721649,9.3903122
						c-0.0327454,0.1336136-0.053421,0.26828-0.0620422,0.4033279l0.1721649-9.3903122
						C229.4238129,79.7210312,229.4444885,79.5863647,229.4772339,79.4527512"/>
					<path id="XMLID_707_" class="st5" d="M229.4151917,79.8560791l-0.1721649,9.3903122
						c-0.0021973,0.0343781-0.0036011,0.0687714-0.0042419,0.1031876l0.1721802-9.3903122
						C229.4115906,79.9248581,229.4130096,79.8904572,229.4151917,79.8560791"/>
				</g>
			</g>
			<g id="XMLID_672_" class="st0">
				<defs>
					<path id="XMLID_704_" class="st0" d="M241.0518799,80.1735153l-0.1721802,9.3903198
						c-0.0166931,0.9110641-0.5810394,1.8129349-1.6938324,2.4964523c-2.2664185,1.3921509-5.9571228,1.3560333-8.2340851-0.0805664
						c-1.1590118-0.7312469-1.7302856-1.6856308-1.7129669-2.6301422l0.1721649-9.3902969
						c-0.0173035,0.9444962,0.5539703,1.89888,1.7129669,2.630127c2.2769623,1.4365997,5.9676666,1.4727173,8.2341003,0.080574
						C240.4708252,81.9864578,241.0351868,81.0845871,241.0518799,80.1735153z"/>
				</defs>
				<clipPath id="XMLID_743_">
					<use xlink:href="#XMLID_704_"  style="overflow:visible;"/>
				</clipPath>
				<g id="XMLID_673_" class="st12">
					<path id="XMLID_689_" class="st13" d="M241.0518799,80.1735153l-0.1721649,9.3903122
						c-0.0006256,0.0344162-0.0020447,0.0688171-0.0042419,0.1031876l0.1721802-9.3903122
						C241.0498505,80.2423325,241.0512543,80.2079315,241.0518799,80.1735153"/>
					<path id="XMLID_688_" class="st14" d="M241.0476532,80.2767029l-0.1721802,9.3903122
						c-0.008606,0.1350479-0.0292969,0.269722-0.062027,0.4033279l0.1721649-9.3903122
						C241.0183563,80.5464249,241.039032,80.4117508,241.0476532,80.2767029"/>
					<path id="XMLID_687_" class="st15" d="M240.985611,80.6800308l-0.1721649,9.3903122
						c-0.0334015,0.1362991-0.079361,0.271492-0.1378632,0.4048615l0.1721802-9.3903122
						C240.9062653,80.9515228,240.9522095,80.81633,240.985611,80.6800308"/>
					<path id="XMLID_686_" class="st16" d="M240.8477631,81.0848923l-0.1721802,9.3903122
						c-0.0626526,0.1428146-0.1396942,0.2835312-0.2311554,0.4212646l0.1721802-9.3903122
						C240.7080536,81.3684235,240.7851105,81.2277069,240.8477631,81.0848923"/>
					<path id="XMLID_685_" class="st17" d="M240.6166077,81.5061569l-0.1721802,9.3903122
						c-0.1087494,0.1637878-0.2378693,0.3233566-0.3873444,0.4771957l0.1721649-9.3903122
						C240.3787384,81.8295135,240.5078583,81.6699448,240.6166077,81.5061569"/>
					<path id="XMLID_684_" class="st18" d="M240.229248,81.9833527l-0.1721649,9.3903122
						c-0.2385406,0.2454758-0.5289307,0.4763794-0.8712158,0.6866226c-0.0923767,0.0567474-0.1871185,0.1111145-0.2840271,0.1631088
						l0.1721649-9.3903122c0.0969238-0.0519943,0.1916656-0.1063614,0.2840424-0.1631012
						C239.7003326,82.4597321,239.9907227,82.2288284,240.229248,81.9833527"/>
					<path id="XMLID_683_" class="st19" d="M239.0740051,82.8330841l-0.1721649,9.3903122
						c-0.0782776,0.0420074-0.1579895,0.0824585-0.2390137,0.1213684l0.1721802-9.3903122
						C238.9160309,82.9155426,238.9957275,82.8750916,239.0740051,82.8330841"/>
					<path id="XMLID_682_" class="st18" d="M238.8350067,82.9544525l-0.1721802,9.3903122
						c-0.4955902,0.2380066-1.0404816,0.4181747-1.6114807,0.5407181l0.1721802-9.3903122
						C237.7945099,83.3726273,238.3394012,83.1924591,238.8350067,82.9544525"/>
					<path id="XMLID_681_" class="st17" d="M237.223526,83.4951706l-0.1721802,9.3903122
						c-0.276474,0.0593414-0.5590668,0.1051636-0.8451538,0.1375122l0.1721802-9.3903122
						C236.6644592,83.6003418,236.947052,83.554512,237.223526,83.4951706"/>
					<path id="XMLID_680_" class="st16" d="M236.3783722,83.6326828l-0.1721802,9.3903122
						c-0.2394257,0.0270691-0.481308,0.0447006-0.7240906,0.0528946l0.1721649-9.3903122
						C235.897049,83.6773834,236.1389313,83.6597595,236.3783722,83.6326828"/>
					<path id="XMLID_679_" class="st15" d="M235.6542664,83.6855774l-0.1721649,9.3903122
						c-0.2222595,0.0075073-0.4452667,0.0071106-0.6678467-0.0011749l0.1721649-9.3903122
						C235.2089996,83.692688,235.4320221,83.6930847,235.6542664,83.6855774"/>
					<path id="XMLID_678_" class="st14" d="M234.9864197,83.6844025l-0.1721649,9.3903122
						c-0.2170715-0.0080872-0.4337158-0.023674-0.6488647-0.0467529l0.1721649-9.3903122
						C234.5527039,83.6607285,234.7693634,83.6763153,234.9864197,83.6844025"/>
					<path id="XMLID_677_" class="st13" d="M234.3375549,83.6376495l-0.1721649,9.3903122
						c-0.2196045-0.0235596-0.4376526-0.054924-0.6529541-0.0940857l0.1721802-9.3903122
						C233.8999176,83.5827255,234.1179504,83.61409,234.3375549,83.6376495"/>
					<path id="XMLID_676_" class="st20" d="M233.6846161,83.5435638l-0.1721802,9.3903122
						c-0.2310791-0.0420303-0.4590149-0.0930481-0.6823425-0.1530228l0.1721649-9.3903122
						C233.2256012,83.4505157,233.4535217,83.5015335,233.6846161,83.5435638"/>
					<path id="XMLID_675_" class="st21" d="M233.0022583,83.3905411l-0.1721649,9.3903122
						c-0.265976-0.0714264-0.5254211-0.155571-0.7759094-0.2524033l0.1721649-9.3903122
						C232.4768524,83.2349701,232.7362976,83.3191147,233.0022583,83.3905411"/>
					<path id="XMLID_674_" class="st22" d="M232.2263489,83.1381378L232.054184,92.52845
						c-0.3925934-0.1517639-0.7631836-0.3347015-1.1024017-0.5487289c-1.1590118-0.7312469-1.7302856-1.6856308-1.7129669-2.6301422
						l0.1721802-9.3903122c-0.0173187,0.9445114,0.5539551,1.8988953,1.7129517,2.6301422
						C231.4631653,82.8034363,231.8337708,82.9863739,232.2263489,83.1381378"/>
				</g>
			</g>
			<g id="XMLID_670_">
				<path id="XMLID_671_" class="st23" d="M231.1048431,77.4628067c2.2664032-1.3921356,5.9571228-1.3560257,8.2340851,0.0805664
					c2.2769623,1.4365997,2.2855225,3.7344666,0.0191193,5.1266098c-2.2664337,1.3921432-5.9571381,1.3560257-8.2341003-0.080574
					S228.8384094,78.8549576,231.1048431,77.4628067z"/>
			</g>
			<g id="XMLID_555_">
				<path id="XMLID_556_" class="st24" d="M211.2163544,79.8314133l23.9593201-14.7169571L259.24646,80.3013763
					l-23.9593048,14.7169495L211.2163544,79.8314133z M239.358017,82.6699753
					c2.2664185-1.3921432,2.2578583-3.6900024-0.0191193-5.1266022c-2.2769623-1.4365997-5.9676666-1.4727097-8.2340851-0.0805664
					s-2.2578583,3.6900024,0.019104,5.1266022C233.4008942,84.0260086,237.0915985,84.0621262,239.358017,82.6699753"/>
			</g>
			<g id="XMLID_553_">
				<polygon id="XMLID_554_" class="st25" points="259.24646,80.3013763 259.0742798,89.6916809 235.114975,104.408638 
					235.2871552,95.0183258 				"/>
			</g>
			<g id="XMLID_534_">
				<polygon id="XMLID_551_" class="st26" points="235.2871552,95.0183258 235.114975,104.408638 211.0441895,89.2217255 
					211.2163544,79.8314133 				"/>
			</g>
		</g>
	</g>
	<g id="XMLID_922_">
		<g id="XMLID_499_" class="st0">
			<g id="XMLID_666_">
				<polygon id="XMLID_667_" class="st27" points="111.131958,9.8871288 110.9597855,19.277441 108.794075,20.3694935 
					108.9662399,10.9791822 				"/>
			</g>
			<g id="XMLID_662_" class="st0">
				<defs>
					<path id="XMLID_665_" class="st0" d="M109.9628067,12.8683863l-0.1721725,9.3903189
						c0.0192032-1.0473175-0.8295593-1.7613716-0.9965515-1.8892155l0.1721649-9.3903103
						C109.1332474,11.1070232,109.9820099,11.8210764,109.9628067,12.8683863z"/>
				</defs>
				<clipPath id="XMLID_744_">
					<use xlink:href="#XMLID_665_"  style="overflow:visible;"/>
				</clipPath>
				<g id="XMLID_663_" class="st28">
					<path id="XMLID_664_" class="st29" d="M109.9628067,12.8683863l-0.1721725,9.3903112
						c0.0192032-1.0473099-0.8295593-1.761364-0.9965515-1.8892078l0.1721725-9.3903122
						C109.1332474,11.1070232,109.9820099,11.8210764,109.9628067,12.8683863"/>
				</g>
			</g>
			<g id="XMLID_658_" class="st0">
				<defs>
					<path id="XMLID_661_" class="st0" d="M112.76651,12.9203444l-0.1721802,9.390317
						c0.0243073-1.3255177-0.8267517-2.4247265-1.6345444-3.0332203l0.1721725-9.3903027
						C111.939743,10.4956226,112.7908096,11.5948315,112.76651,12.9203444z"/>
				</defs>
				<clipPath id="XMLID_745_">
					<use xlink:href="#XMLID_661_"  style="overflow:visible;"/>
				</clipPath>
				<g id="XMLID_659_" class="st30">
					<path id="XMLID_660_" class="st31" d="M112.76651,12.9203444l-0.1721725,9.3903112
						c0.0242996-1.3255119-0.8267593-2.4247208-1.634552-3.0332146l0.1721725-9.3903122
						C111.939743,10.4956226,112.7908096,11.5948315,112.76651,12.9203444"/>
				</g>
			</g>
			<g id="XMLID_653_" class="st0">
				<defs>
					<path id="XMLID_657_" class="st0" d="M100.7832184,26.2100067c-0.4136276-0.1230106-0.6817017-0.2458973-0.7685776-0.2889538
						l0.1721725-9.3902988c0.0868759,0.043045,0.35495,0.1659298,0.7685776,0.2889404
						C100.8980103,19.9498978,100.8405914,23.0798264,100.7832184,26.2100067z"/>
				</defs>
				<clipPath id="XMLID_746_">
					<use xlink:href="#XMLID_657_"  style="overflow:visible;"/>
				</clipPath>
				<g id="XMLID_654_" class="st32">
					<path id="XMLID_656_" class="st33" d="M101.12957,16.8689995l-0.1721725,9.3903103
						c-0.262764-0.0706921-0.4779587-0.1449547-0.638588-0.2071304l0.1721725-9.3903122
						C100.6516113,16.7240429,100.866806,16.7983055,101.12957,16.8689995"/>
					<path id="XMLID_655_" class="st31" d="M100.4909821,16.6618671l-0.1721725,9.3903122
						c-0.1527481-0.0591278-0.2561417-0.1073246-0.3041687-0.1311264l0.1721725-9.3903122
						C100.2348404,16.5545425,100.3382339,16.6027393,100.4909821,16.6618671"/>
				</g>
			</g>
			<g id="XMLID_646_" class="st0">
				<defs>
					<path id="XMLID_652_" class="st0" d="M102.4249115,26.4996948c-0.6689911-0.0435658-1.2281036-0.1666889-1.6416931-0.2896881
						c0.057373-3.1301804,0.1147919-6.2601089,0.1721649-9.3902969c0.4135971,0.1229839,0.9727097,0.2461071,1.6416931,0.2896748
						C102.5397034,20.2395859,102.4822693,23.3695145,102.4249115,26.4996948z"/>
				</defs>
				<clipPath id="XMLID_747_">
					<use xlink:href="#XMLID_652_"  style="overflow:visible;"/>
				</clipPath>
				<g id="XMLID_647_" class="st34">
					<path id="XMLID_651_" class="st35" d="M102.8111801,17.1203766l-0.1721725,9.3903103
						c-0.1879425-0.0070648-0.3680496-0.0206223-0.5396042-0.0390701l0.1721725-9.3903122
						C102.4431305,17.0997543,102.6232376,17.1133099,102.8111801,17.1203766"/>
					<path id="XMLID_650_" class="st36" d="M102.2715759,17.0813046l-0.1721725,9.3903122
						c-0.196022-0.0210819-0.3808823-0.0485516-0.5535126-0.0800247l0.1721725-9.3903103
						C101.8906937,17.032753,102.0755539,17.0602226,102.2715759,17.0813046"/>
					<path id="XMLID_649_" class="st37" d="M101.7180634,17.0012817l-0.1721725,9.3903103
						c-0.2160187-0.0393829-0.4128799-0.0850353-0.5884933-0.1322823l0.1721725-9.3903103
						C101.3051834,16.9162445,101.5020447,16.9618969,101.7180634,17.0012817"/>
					<path id="XMLID_648_" class="st33" d="M101.12957,16.8689995l-0.1721725,9.3903103
						c-0.262764-0.0706921-0.4779587-0.1449547-0.638588-0.2071304l0.1721725-9.3903122
						C100.6516113,16.7240429,100.866806,16.7983055,101.12957,16.8689995"/>
				</g>
			</g>
			<g id="XMLID_631_" class="st0">
				<defs>
					<path id="XMLID_645_" class="st0" d="M107.4720078,25.1691647c-1.9317932,1.1865997-3.7091827,1.4176617-5.0470963,1.3305302
						c0.0573578-3.1301804,0.1147919-6.2601089,0.1721649-9.3902969c1.3379135,0.0871162,3.1153107-0.1439438,5.0471039-1.3305435
						c0.0352173-0.0216322,0.0699387-0.0432243,0.1052628-0.0654936c1.6858749-1.0663643,2.1988373-2.0514221,2.2133408-2.8450842
						l-0.1721802,9.3903217c-0.0144958,0.7936516-0.5274506,1.7787094-2.2133331,2.8450737
						C107.5419464,25.1259403,107.507225,25.1475334,107.4720078,25.1691647z"/>
				</defs>
				<clipPath id="XMLID_748_">
					<use xlink:href="#XMLID_645_"  style="overflow:visible;"/>
				</clipPath>
				<g id="XMLID_632_" class="st38">
					<path id="XMLID_644_" class="st36" d="M109.9627838,12.8683767l-0.1721725,9.3903112
						c-0.0005188,0.0282936-0.0016708,0.0568314-0.0034866,0.0856056l0.1721725-9.3903103
						C109.961113,12.9252081,109.962265,12.8966703,109.9627838,12.8683767"/>
					<path id="XMLID_643_" class="st35" d="M109.9592972,12.9539833l-0.1721725,9.3903103
						c-0.0071106,0.1127148-0.0244141,0.229084-0.0537415,0.3488102l0.1721725-9.3903122
						C109.9348831,13.1830664,109.9521866,13.0666971,109.9592972,12.9539833"/>
					<path id="XMLID_642_" class="st39" d="M109.9055557,13.3027916l-0.1721725,9.3903122
						c-0.0294495,0.120203-0.0710144,0.2437878-0.126564,0.3704529l0.1721725-9.3903122
						C109.8345413,13.5465803,109.8761063,13.4229946,109.9055557,13.3027916"/>
					<path id="XMLID_641_" class="st40" d="M109.7789917,13.6732445l-0.1721725,9.3903122
						c-0.0614243,0.1400776-0.139946,0.2839203-0.2380829,0.431118l0.1721725-9.3903112
						C109.6390381,13.9571648,109.7175674,13.8133221,109.7789917,13.6732445"/>
					<path id="XMLID_640_" class="st41" d="M109.5409088,14.1043634l-0.1721725,9.3903112
						c-0.1221161,0.1831646-0.2745972,0.3715229-0.4622803,0.5642872l0.1721725-9.3903112
						C109.2663116,14.4758863,109.4187927,14.2875271,109.5409088,14.1043634"/>
					<path id="XMLID_639_" class="st42" d="M109.0786285,14.6686506l-0.1721725,9.3903112
						c-0.3273773,0.3362331-0.7618713,0.6858692-1.3291855,1.0447102c-0.0353241,0.0222683-0.0700455,0.0438614-0.1052628,0.0654926
						c-0.1626282,0.0998974-0.3241653,0.1930218-0.4844437,0.2797527l0.1721725-9.3903122
						c0.1602783-0.086731,0.3218155-0.1798553,0.4844437-0.2797508c0.0352173-0.0216322,0.0699387-0.0432243,0.1052628-0.0654936
						C108.3167572,15.3545189,108.7512512,15.0048838,109.0786285,14.6686506"/>
					<path id="XMLID_638_" class="st43" d="M107.1597366,16.0586052l-0.1721725,9.3903122
						c-0.143959,0.0779057-0.2869034,0.1506538-0.4286957,0.2185192l0.1721725-9.3903122
						C106.8728333,16.209259,107.0157776,16.1365108,107.1597366,16.0586052"/>
					<path id="XMLID_637_" class="st42" d="M106.731041,16.2771244l-0.1721725,9.3903122
						c-0.6779556,0.3244743-1.3297653,0.5373611-1.9419708,0.6687813l0.1721725-9.3903122
						C105.4012756,16.8144875,106.0530853,16.6015987,106.731041,16.2771244"/>
					<path id="XMLID_636_" class="st41" d="M104.7890701,16.9459057l-0.1721725,9.3903122
						c-0.2722855,0.0584507-0.5367432,0.1007843-0.7921677,0.1296539l0.1721649-9.3903103
						C104.252327,17.0466919,104.5167847,17.0043564,104.7890701,16.9459057"/>
					<path id="XMLID_635_" class="st40" d="M103.9968948,17.0755615l-0.1721649,9.3903103
						c-0.2149963,0.0242996-0.4235916,0.0390587-0.6250916,0.0458584l0.1721649-9.3903103
						C103.5733109,17.1146183,103.7819061,17.0998592,103.9968948,17.0755615"/>
					<path id="XMLID_634_" class="st39" d="M103.3718033,17.1214199l-0.1721649,9.3903103
						c-0.1936417,0.0065365-0.3807297,0.0057201-0.5606308-0.0010433l0.1721725-9.3903103
						C102.9910812,17.1271381,103.1781693,17.1279545,103.3718033,17.1214199"/>
					<path id="XMLID_633_" class="st35" d="M102.8111801,17.1203766l-0.1721725,9.3903103
						c-0.1879425-0.0070648-0.3680496-0.0206223-0.5396042-0.0390701l0.1721725-9.3903122
						C102.4431305,17.0997543,102.6232376,17.1133099,102.8111801,17.1203766"/>
				</g>
			</g>
			<g id="XMLID_629_">
				<polygon id="XMLID_630_" class="st44" points="100.1868134,16.5307407 100.0146408,25.9210529 98.2698593,27.2786846 
					98.4420319,17.8883724 				"/>
			</g>
			<g id="XMLID_606_" class="st0">
				<defs>
					<path id="XMLID_628_" class="st0" d="M112.7665405,12.9203424l-0.1721802,9.3903189
						c-0.0223465,1.2188416-0.7848434,2.6290398-3.0017471,4.0250072c-0.0454712,0.0287113-0.0913696,0.0572758-0.136879,0.085228
						c-4.5855713,2.8166771-9.3110809,1.7979813-11.1858444,0.8577919l0.1721725-9.3902988
						c1.8747635,0.9401779,6.6002731,1.9588718,11.1858444-0.8578033c0.0455093-0.0279541,0.0914078-0.0565166,0.136879-0.0852299
						C111.9816895,15.5493898,112.7441864,14.1391926,112.7665405,12.9203424z"/>
				</defs>
				<clipPath id="XMLID_749_">
					<use xlink:href="#XMLID_628_"  style="overflow:visible;"/>
				</clipPath>
				<g id="XMLID_607_" class="st45">
					<path id="XMLID_627_" class="st46" d="M112.7665405,12.9203424l-0.1721725,9.3903112
						c-0.0008316,0.0452709-0.0026855,0.090807-0.0055923,0.1365948l0.1721725-9.3903112
						C112.763855,13.0111494,112.7657089,12.9656143,112.7665405,12.9203424"/>
					<path id="XMLID_626_" class="st47" d="M112.7609482,13.0569372l-0.1721725,9.3903112
						c-0.0112839,0.1776428-0.0384903,0.3590984-0.0837555,0.5437546l0.1721725-9.3903122
						C112.7224579,13.4160347,112.7496643,13.2345791,112.7609482,13.0569372"/>
					<path id="XMLID_625_" class="st48" d="M112.6771927,13.6006908l-0.1721725,9.3903122
						c-0.0453415,0.1849823-0.1088028,0.3731766-0.1925354,0.563961l0.1721725-9.3903103
						C112.5683899,13.9738674,112.6318512,13.7856731,112.6771927,13.6006908"/>
					<path id="XMLID_624_" class="st49" d="M112.4846573,14.1646538l-0.1721725,9.3903103
						c-0.0900955,0.2052994-0.2036667,0.4136009-0.3433838,0.6241322l0.1721649-9.3903122
						C112.2809906,14.5782528,112.3945618,14.3699522,112.4846573,14.1646538"/>
					<path id="XMLID_623_" class="st50" d="M112.1412659,14.788784l-0.1721649,9.3903122
						c-0.1744461,0.2628593-0.3896561,0.5291958-0.6508255,0.797514l0.1721725-9.3903122
						C111.7516174,15.3179817,111.9668274,15.0516434,112.1412659,14.788784"/>
					<path id="XMLID_622_" class="st51" d="M111.490448,15.586298l-0.1721725,9.3903122
						c-0.4378433,0.4498119-1.0048828,0.9051876-1.7256622,1.3590584c-0.0454712,0.0287113-0.0913696,0.0572758-0.136879,0.085228
						c-0.1973877,0.1212444-0.3950272,0.2353821-0.5926971,0.3427238l0.1721725-9.3903103
						c0.1976624-0.1073437,0.3953094-0.2214813,0.5926971-0.3427238c0.0455093-0.0279541,0.0914078-0.0565166,0.136879-0.0852299
						C110.4855652,16.4914856,111.0526047,16.0361118,111.490448,15.586298"/>
					<path id="XMLID_621_" class="st52" d="M109.0352097,17.3733101l-0.1721725,9.3903103
						c-0.2589569,0.1406288-0.517952,0.2695961-0.7764435,0.3876038l0.1721649-9.3903103
						C108.5172577,17.6429062,108.7762527,17.5139389,109.0352097,17.3733101"/>
					<path id="XMLID_620_" class="st51" d="M108.2587585,17.7609138l-0.1721649,9.3903103
						c-0.8498154,0.3879566-1.6942139,0.6574669-2.5141373,0.8334675l0.1721649-9.3903122
						C106.5645523,18.4183788,107.4089508,18.1488705,108.2587585,17.7609138"/>
					<path id="XMLID_619_" class="st50" d="M105.7446213,18.5943794l-0.1721649,9.3903122
						c-0.4062958,0.0872116-0.8065796,0.1514645-1.1985321,0.1957912l0.1721725-9.3903122
						C104.9380493,18.7458439,105.3383331,18.681591,105.7446213,18.5943794"/>
					<path id="XMLID_618_" class="st49" d="M104.5460968,18.7901707l-0.1721725,9.3903122
						c-0.3327408,0.0376282-0.6594696,0.0608978-0.9787903,0.0716667l0.1721725-9.3903122
						C103.8866196,18.8510704,104.213356,18.8278008,104.5460968,18.7901707"/>
					<path id="XMLID_617_" class="st48" d="M103.5673065,18.8618374l-0.1721725,9.3903122
						c-0.3043823,0.0102634-0.6020203,0.0091648-0.8916855-0.0016842l0.1721725-9.3903122
						C102.9652863,18.8710041,103.2629242,18.8721008,103.5673065,18.8618374"/>
					<path id="XMLID_616_" class="st47" d="M102.675621,18.8601532l-0.1721725,9.3903122
						c-0.2978821-0.011158-0.5873337-0.032629-0.8670197-0.062664l0.1721725-9.3903122
						C102.0882874,18.8275261,102.377739,18.8489952,102.675621,18.8601532"/>
					<path id="XMLID_611_" class="st46" d="M101.8086014,18.7974892l-0.1721725,9.3903122
						c-0.3061829-0.0328827-0.6006699-0.0760288-0.8817062-0.1271477l0.1721725-9.3903103
						C101.2079315,18.7214603,101.5024109,18.7646084,101.8086014,18.7974892"/>
					<path id="XMLID_610_" class="st53" d="M100.9268951,18.6703434l-0.1721725,9.3903103
						c-0.3255768-0.0592213-0.6331024-0.1291409-0.919838-0.206192l0.1721725-9.3903122
						C100.2937927,18.5412006,100.6013184,18.6111221,100.9268951,18.6703434"/>
					<path id="XMLID_609_" class="st54" d="M100.0070572,18.4641495l-0.1721725,9.3903122
						c-0.3568344-0.0958862-0.6814728-0.202816-0.9686737-0.3139153l0.1721725-9.3903122
						C99.3255844,18.2613335,99.6502228,18.3682632,100.0070572,18.4641495"/>
					<path id="XMLID_608_" class="st29" d="M99.0383835,18.1502342l-0.1721725,9.3903122
						c-0.2219391-0.0858536-0.421524-0.1741982-0.5963211-0.261858l0.1721725-9.3903122
						C98.6168594,17.976038,98.8164444,18.0643806,99.0383835,18.1502342"/>
				</g>
			</g>
			<g id="XMLID_573_">
				<path id="XMLID_574_" class="st55" d="M108.9662552,10.9791775l2.1657333-1.0920477
					c1.5505753,1.1680231,3.2605972,4.1441317-1.3672028,7.0582266c-0.0454712,0.0287132-0.0913696,0.0572758-0.136879,0.0852299
					c-4.5855713,2.8166752-9.3110809,1.7979813-11.1858444,0.85779l1.7447739-1.3576317
					c0.3474503,0.1722145,3.5935974,1.6214256,7.4573593-0.7518826c0.0352325-0.0216389,0.0699463-0.0432262,0.105278-0.0654984
					C111.6598892,13.2399178,109.2597885,11.2039032,108.9662552,10.9791775z"/>
			</g>
			<g id="XMLID_549_">
				<path id="XMLID_550_" class="st56" d="M82.4335175,14.7208443L106.3991623,0l24.0771713,15.1909399l-23.9656448,14.7208452
					L82.4335175,14.7208443z M109.7647629,16.9453545c4.6278-2.9140949,2.9177704-5.8902044,1.3671951-7.0582256
					l-2.1657181,1.0920534c0.293541,0.2247257,2.6936264,2.2607336-1.2167969,4.7341785
					c-0.0353241,0.0222692-0.0700455,0.0438614-0.1052628,0.0654936c-3.8637772,2.3733177-7.1099014,0.924099-7.4573669,0.7518864
					l-1.7447815,1.3576317c1.874794,0.9401951,6.6002808,1.9588833,11.1858521-0.8577938
					C109.673378,17.0026321,109.7192993,16.9740715,109.7647629,16.9453545"/>
			</g>
			<g id="XMLID_547_">
				<polygon id="XMLID_548_" class="st57" points="106.5106888,29.9117851 106.3385162,39.3020973 82.2613449,24.1111565 
					82.4335175,14.7208443 				"/>
			</g>
			<g id="XMLID_532_">
				<polygon id="XMLID_545_" class="st58" points="130.4763336,15.1909399 130.3041534,24.5812511 106.3385162,39.3020973 
					106.5106888,29.9117851 				"/>
			</g>
		</g>
	</g>
	<g id="XMLID_783_">
		<g id="XMLID_497_" class="st0">
			<g id="XMLID_614_">
				<polygon id="XMLID_615_" class="st59" points="30.8347645,115.7859268 30.6625919,125.176239 27.6648884,123.2849045 
					27.837059,113.8945923 				"/>
			</g>
			<g id="XMLID_612_">
				<polygon id="XMLID_613_" class="st60" points="27.837059,113.8945923 27.6648884,123.2849045 17.3803024,129.6021881 
					17.552475,120.2118759 				"/>
			</g>
			<g id="XMLID_604_">
				<polygon id="XMLID_605_" class="st61" points="20.5501804,122.1032104 20.3780079,131.4935303 17.3803139,129.6022034 
					17.5524845,120.2118835 				"/>
			</g>
			<g id="XMLID_602_">
				<polygon id="XMLID_603_" class="st62" points="27.8370819,113.8945923 30.8347778,115.7859192 20.5501804,122.1032104 
					17.5524845,120.2118835 				"/>
			</g>
			<g id="XMLID_600_">
				<polygon id="XMLID_601_" class="st63" points="30.8347778,115.7859192 30.6626053,125.1762314 20.3780079,131.4935303 
					20.5501804,122.1032104 				"/>
			</g>
			<g id="XMLID_543_">
				<path id="XMLID_544_" class="st64" d="M0.1721717,117.759903l23.9593124-14.7169571l24.0771675,15.1909409
					l-23.9593124,14.7169495L0.1721717,117.759903z M30.8347645,115.7859268l-2.9977055-1.8913345l-10.284584,6.3172836
					l2.9977055,1.8913345L30.8347645,115.7859268"/>
			</g>
			<g id="XMLID_541_">
				<polygon id="XMLID_542_" class="st59" points="24.2493401,132.9508362 24.0771694,142.341156 0,127.1502151 
					0.1721717,117.759903 				"/>
			</g>
			<g id="XMLID_531_">
				<polygon id="XMLID_539_" class="st60" points="48.2086525,118.2338867 48.0364838,127.6241989 24.0771694,142.341156 
					24.2493401,132.9508362 				"/>
			</g>
		</g>
	</g>
	<g id="XMLID_775_">
		<g id="XMLID_496_" class="st0">
			<g id="XMLID_596_">
				<polygon id="XMLID_597_" class="st65" points="114.0693665,115.7548981 113.8971939,125.1452026 110.9058838,123.2579041 
					111.0780563,113.8675995 				"/>
			</g>
			<g id="XMLID_594_">
				<polygon id="XMLID_595_" class="st66" points="103.7602768,113.79599 103.5881042,123.1863022 100.6043167,125.0190887 
					100.7764893,115.6287766 				"/>
			</g>
			<g id="XMLID_592_">
				<polygon id="XMLID_593_" class="st66" points="111.0780563,113.8675995 110.9058838,123.2579041 107.2554855,125.5001602 
					107.4276581,116.109848 				"/>
			</g>
			<g id="XMLID_590_">
				<polygon id="XMLID_591_" class="st65" points="107.4276581,116.109848 107.2554855,125.5001602 103.5881042,123.1863022 
					103.7602768,113.79599 				"/>
			</g>
			<g id="XMLID_588_">
				<polygon id="XMLID_589_" class="st67" points="114.069397,115.7548904 113.8972244,125.1452026 110.2468262,127.3874512 
					110.4189911,117.997139 				"/>
			</g>
			<g id="XMLID_586_">
				<polygon id="XMLID_587_" class="st68" points="104.4438858,117.9426422 104.2717209,127.3329544 100.604332,125.0190964 
					100.7765045,115.6287842 				"/>
			</g>
			<g id="XMLID_584_">
				<polygon id="XMLID_585_" class="st65" points="114.0863495,120.310997 113.9141846,129.7013092 110.2467957,127.3874588 
					110.4189682,117.9971466 				"/>
			</g>
			<g id="XMLID_582_">
				<polygon id="XMLID_583_" class="st66" points="104.4438705,117.942627 104.2717056,127.3329391 100.6212845,129.5751953 
					100.793457,120.1848907 				"/>
			</g>
			<g id="XMLID_580_">
				<polygon id="XMLID_581_" class="st67" points="114.08638,120.310997 113.9142075,129.7013092 110.9304047,131.5341034 
					111.1025772,122.1437912 				"/>
			</g>
			<g id="XMLID_578_">
				<polygon id="XMLID_579_" class="st68" points="111.1025772,122.1437912 110.9304047,131.5341034 107.2630234,129.2202454 
					107.4351959,119.8299332 				"/>
			</g>
			<g id="XMLID_576_">
				<polygon id="XMLID_577_" class="st67" points="107.4351959,119.8299332 107.2630234,129.2202454 103.6126175,131.4624939 
					103.78479,122.0721817 				"/>
			</g>
			<g id="XMLID_570_">
				<polygon id="XMLID_575_" class="st68" points="103.78479,122.0721817 103.6126175,131.4624939 100.621315,129.5751953 
					100.7934875,120.1848907 				"/>
			</g>
			<g id="XMLID_568_">
				<polygon id="XMLID_569_" class="st69" points="103.7603073,113.79599 107.4276886,116.109848 111.0780945,113.8675919 
					114.069397,115.7548904 110.4189911,117.997139 114.08638,120.310997 111.1025772,122.1437912 107.4351959,119.8299332 
					103.78479,122.0721817 100.7934875,120.1848907 104.4438858,117.9426422 100.7765045,115.6287842 				"/>
			</g>
			<g id="XMLID_566_">
				<polygon id="XMLID_567_" class="st65" points="107.4903412,132.9238434 107.3181686,142.3141479 83.2409973,127.1232147 
					83.4131699,117.7329025 				"/>
			</g>
			<g id="XMLID_535_">
				<path id="XMLID_536_" class="st70" d="M83.4131699,117.7329025l23.9593124-14.7169571l24.077179,15.1909409
					l-23.9593201,14.7169571L83.4131699,117.7329025z M114.0693665,115.7548981l-2.9913101-1.8872986l-3.6503983,2.2422485
					l-3.6673813-2.313858l-2.9837875,1.8327866l3.6673813,2.3138504l-3.6504135,2.2422638l2.9913101,1.8872986l3.6504135-2.2422638
					l3.6673889,2.313858l2.9837799-1.8327866l-3.6673813-2.3138504L114.0693665,115.7548981"/>
			</g>
			<g id="XMLID_530_">
				<polygon id="XMLID_533_" class="st66" points="131.4496613,118.2068863 131.2774811,127.5971985 107.3181686,142.3141479 
					107.4903412,132.9238434 				"/>
			</g>
		</g>
	</g>
	<g id="XMLID_767_">
		<g id="XMLID_498_" class="st0">
			<g id="XMLID_564_">
				<polygon id="XMLID_565_" class="st71" points="175.1015778,149.7543945 174.9293976,159.1447144 171.9317169,157.2533875 
					172.1038818,147.8630676 				"/>
			</g>
			<g id="XMLID_558_">
				<polygon id="XMLID_563_" class="st72" points="164.786087,147.7914886 164.6139221,157.1817932 161.6301117,159.0145874 
					161.8022766,149.6242828 				"/>
			</g>
			<g id="XMLID_546_">
				<polygon id="XMLID_552_" class="st72" points="172.1038818,147.8630676 171.9317169,157.2533875 168.2812958,159.4956512 
					168.453476,150.1053314 				"/>
			</g>
			<g id="XMLID_528_">
				<polygon id="XMLID_529_" class="st71" points="168.453476,150.1053314 168.2812958,159.4956512 164.6139221,157.1817932 
					164.786087,147.7914886 				"/>
			</g>
			<g id="XMLID_526_">
				<polygon id="XMLID_527_" class="st73" points="175.101593,149.7543945 174.9294128,159.1447144 171.279007,161.3869629 
					171.4511719,151.9966583 				"/>
			</g>
			<g id="XMLID_524_">
				<polygon id="XMLID_525_" class="st74" points="165.469696,151.9381256 165.2975159,161.3284454 161.630127,159.0145874 
					161.8023071,149.6242828 				"/>
			</g>
			<g id="XMLID_522_">
				<polygon id="XMLID_523_" class="st71" points="175.1185455,154.3105011 174.9463654,163.7008209 171.2789917,161.3869629 
					171.4511566,151.9966583 				"/>
			</g>
			<g id="XMLID_520_">
				<polygon id="XMLID_521_" class="st72" points="165.4696655,151.9381256 165.2975006,161.3284454 161.6470947,163.570694 
					161.8192749,154.1803741 				"/>
			</g>
			<g id="XMLID_518_">
				<polygon id="XMLID_519_" class="st73" points="175.1185608,154.3105164 174.9463959,163.7008209 171.9625854,165.5336151 
					172.1347656,156.1432953 				"/>
			</g>
			<g id="XMLID_516_">
				<polygon id="XMLID_517_" class="st74" points="172.1347656,156.1432953 171.9625854,165.5336151 168.2951965,163.2197571 
					168.4673767,153.8294525 				"/>
			</g>
			<g id="XMLID_514_">
				<polygon id="XMLID_515_" class="st73" points="168.4673767,153.8294525 168.2951965,163.2197571 164.6448059,165.4620056 
					164.8169708,156.071701 				"/>
			</g>
			<g id="XMLID_512_">
				<polygon id="XMLID_513_" class="st74" points="164.8169708,156.071701 164.6448059,165.4620056 161.6471252,163.570694 
					161.8192902,154.1803741 				"/>
			</g>
			<g id="XMLID_510_">
				<polygon id="XMLID_511_" class="st23" points="164.7861023,147.7914886 168.4534912,150.1053314 172.1038971,147.8630829 
					175.101593,149.7543945 171.4511719,151.9966583 175.1185608,154.3105164 172.1347656,156.1432953 168.4673767,153.8294525 
					164.8169708,156.071701 161.8192902,154.1803741 165.469696,151.9381256 161.8023071,149.6242828 				"/>
			</g>
			<g id="XMLID_508_">
				<polygon id="XMLID_509_" class="st71" points="168.5161591,166.9193268 168.3439789,176.3096466 144.2731934,161.1227264 
					144.4453583,151.7324066 				"/>
			</g>
			<g id="XMLID_504_">
				<path id="XMLID_505_" class="st75" d="M144.4453583,151.7324066l23.9593201-14.7169495l24.0707855,15.1869202
					l-23.9593048,14.7169495L144.4453583,151.7324066z M175.1015778,149.7543945l-2.9976959-1.8913269l-3.6504059,2.2422638
					l-3.6673889-2.3138428l-2.9838104,1.8327942l3.6673889,2.3138428l-3.6503906,2.2422485l2.9976807,1.8913269l3.6504059-2.2422485
					l3.6673737,2.3138428l2.9838104-1.8327942l-3.6673889-2.3138428L175.1015778,149.7543945"/>
			</g>
			<g id="XMLID_500_">
				<polygon id="XMLID_502_" class="st72" points="192.4754639,152.2023773 192.303299,161.5926819 168.3439789,176.3096466 
					168.5161591,166.9193268 				"/>
			</g>
		</g>
	</g>
</g>
</svg>
